<svg width="current" height="current" viewBox="0 0 24 24" fill="none" xmlns="http://www.w3.org/2000/svg">
<path fill-rule="evenodd" clip-rule="evenodd" d="M8.75 4C8.05964 4 7.5 4.55964 7.5 5.25C7.5 5.94036 8.05964 6.5 8.75 6.5C9.44036 6.5 10 5.94036 10 5.25C10 4.55964 9.44036 4 8.75 4ZM8.75 17.5C8.05964 17.5 7.5 18.0596 7.5 18.75C7.5 19.4404 8.05964 20 8.75 20C9.44036 20 10 19.4404 10 18.75C10 18.0596 9.44036 17.5 8.75 17.5ZM7.5 12C7.5 11.3096 8.05964 10.75 8.75 10.75C9.44036 10.75 10 11.3096 10 12C10 12.6904 9.44036 13.25 8.75 13.25C8.05964 13.25 7.5 12.6904 7.5 12ZM15.25 4C14.5596 4 14 4.55964 14 5.25C14 5.94036 14.5596 6.5 15.25 6.5C15.9404 6.5 16.5 5.94036 16.5 5.25C16.5 4.55964 15.9404 4 15.25 4ZM14 18.75C14 18.0596 14.5596 17.5 15.25 17.5C15.9404 17.5 16.5 18.0596 16.5 18.75C16.5 19.4404 15.9404 20 15.25 20C14.5596 20 14 19.4404 14 18.75ZM15.25 10.75C14.5596 10.75 14 11.3096 14 12C14 12.6904 14.5596 13.25 15.25 13.25C15.9404 13.25 16.5 12.6904 16.5 12C16.5 11.3096 15.9404 10.75 15.25 10.75Z" fill="#262626"/>
</svg>
