<svg width="current" height="current" viewBox="0 0 24 24" fill="none" xmlns="http://www.w3.org/2000/svg">
<path fill-rule="evenodd" clip-rule="evenodd" d="M6.25 3C4.45507 3 3 4.45507 3 6.25V17.75C3 19.5449 4.45507 21 6.25 21H17.75C19.5449 21 21 19.5449 21 17.75V6.25C21 4.45507 19.5449 3 17.75 3H6.25ZM4.5 6.25C4.5 5.2835 5.2835 4.5 6.25 4.5H17.75C18.7165 4.5 19.5 5.2835 19.5 6.25V17.75C19.5 18.7165 18.7165 19.5 17.75 19.5H6.25C5.2835 19.5 4.5 18.7165 4.5 17.75V6.25ZM11.5161 5.67695C11.6462 5.56704 11.8141 5.50058 11.9976 5.5C11.9984 5.5 11.9992 5.5 12 5.5C12 5.5 12 5.5 12 5.5C12.1844 5.5 12.3533 5.56656 12.4839 5.67695L15.4801 8.17383C15.7983 8.43901 15.8413 8.91193 15.5762 9.23014C15.311 9.54835 14.8381 9.59134 14.5199 9.32617L12.75 7.85128V16.1487L14.5199 14.6738C14.8381 14.4087 15.311 14.4517 15.5762 14.7699C15.8413 15.0881 15.7983 15.561 15.4801 15.8262L12.4839 18.323C12.3533 18.4334 12.1844 18.5 12 18.5C11.8156 18.5 11.6467 18.4334 11.5161 18.323L8.51986 15.8262C8.20165 15.561 8.15866 15.0881 8.42383 14.7699C8.68901 14.4517 9.16193 14.4087 9.48014 14.6738L11.25 16.1487V7.85128L9.48014 9.32617C9.16193 9.59134 8.68901 9.54835 8.42383 9.23014C8.15866 8.91193 8.20165 8.43901 8.51986 8.17383L11.5161 5.67695Z" fill="#262626"/>
</svg>
