<svg width="current" height="current" viewBox="0 0 24 24" fill="none" xmlns="http://www.w3.org/2000/svg">
<path fill-rule="evenodd" clip-rule="evenodd" d="M21 6.25C21 4.45508 19.5449 3 17.75 3L6.25 3C4.45508 3 3 4.45507 3 6.25L3 17.75C3 19.5449 4.45507 21 6.25 21H17.75C19.5449 21 21 19.5449 21 17.75V6.25ZM17.75 4.5C18.7165 4.5 19.5 5.2835 19.5 6.25V17.75C19.5 18.7165 18.7165 19.5 17.75 19.5H6.25C5.2835 19.5 4.5 18.7165 4.5 17.75L4.5 6.25C4.5 5.2835 5.2835 4.5 6.25 4.5L17.75 4.5ZM18.323 11.5161C18.433 11.6462 18.4994 11.8141 18.5 11.9976C18.5 11.9984 18.5 11.9992 18.5 12C18.5 12 18.5 12 18.5 12C18.5 12.1844 18.4334 12.3533 18.323 12.4839L15.8262 15.4801C15.561 15.7983 15.0881 15.8413 14.7699 15.5762C14.4517 15.311 14.4087 14.8381 14.6738 14.5199L16.1487 12.75H7.85128L9.32617 14.5199C9.59134 14.8381 9.54835 15.311 9.23014 15.5762C8.91193 15.8413 8.43901 15.7983 8.17383 15.4801L5.67698 12.4839C5.56657 12.3533 5.5 12.1844 5.5 12C5.5 11.8156 5.56657 11.6467 5.67699 11.5161L8.17384 8.51986C8.43901 8.20165 8.91193 8.15866 9.23014 8.42383C9.54835 8.68901 9.59134 9.16193 9.32617 9.48014L7.85128 11.25H16.1487L14.6738 9.48014C14.4087 9.16193 14.4517 8.68901 14.7699 8.42383C15.0881 8.15866 15.561 8.20165 15.8262 8.51986L18.323 11.5161Z" fill="#262626"/>
</svg>
