<svg width="current" height="current" viewBox="0 0 24 24" fill="none" xmlns="http://www.w3.org/2000/svg">
<path fill-rule="evenodd" clip-rule="evenodd" d="M21 6.25C21 4.45508 19.5449 3 17.75 3H6.25C4.45508 3 3 4.45507 3 6.25V17.75C3 19.5449 4.45507 21 6.25 21H17.75C19.5449 21 21 19.5449 21 17.75V6.25ZM17.75 4.5C18.7165 4.5 19.5 5.2835 19.5 6.25V17.75C19.5 18.7165 18.7165 19.5 17.75 19.5H6.25C5.2835 19.5 4.5 18.7165 4.5 17.75L4.5 6.25C4.5 5.2835 5.2835 4.5 6.25 4.5L17.75 4.5ZM12.5 6.25C12.5 5.83579 12.8358 5.5 13.25 5.5H17.25C17.6642 5.5 18 5.83579 18 6.25V10.25C18 10.6642 17.6642 11 17.25 11C16.8358 11 16.5 10.6642 16.5 10.25V7H13.25C12.8358 7 12.5 6.66421 12.5 6.25ZM10.75 18C11.1642 18 11.5 17.6642 11.5 17.25C11.5 16.8358 11.1642 16.5 10.75 16.5H7.5L7.5 13.25C7.5 12.8358 7.16421 12.5 6.75 12.5C6.33579 12.5 6 12.8358 6 13.25L6 17.25C6 17.6642 6.33579 18 6.75 18H10.75Z" fill="#262626"/>
</svg>
