<svg width="current" height="current" viewBox="0 0 24 24" fill="none" xmlns="http://www.w3.org/2000/svg">
<path fill-rule="evenodd" clip-rule="evenodd" d="M4.5 6.25C4.5 5.2835 5.2835 4.5 6.25 4.5H8.16667C8.58088 4.5 8.91667 4.16421 8.91667 3.75C8.91667 3.33579 8.58088 3 8.16667 3H6.25C4.45507 3 3 4.45507 3 6.25V8.16667C3 8.58088 3.33579 8.91667 3.75 8.91667C4.16421 8.91667 4.5 8.58088 4.5 8.16667V6.25ZM15.8333 3C15.4191 3 15.0833 3.33579 15.0833 3.75C15.0833 4.16421 15.4191 4.5 15.8333 4.5H17.75C18.7165 4.5 19.5 5.2835 19.5 6.25V8.16667C19.5 8.58088 19.8358 8.91667 20.25 8.91667C20.6642 8.91667 21 8.58088 21 8.16667V6.25C21 4.45507 19.5449 3 17.75 3H15.8333ZM4.5 15.8333C4.5 15.4191 4.16421 15.0833 3.75 15.0833C3.33579 15.0833 3 15.4191 3 15.8333V17.75C3 19.5449 4.45507 21 6.25 21H8.16667C8.58088 21 8.91667 20.6642 8.91667 20.25C8.91667 19.8358 8.58088 19.5 8.16667 19.5H6.25C5.2835 19.5 4.5 18.7165 4.5 17.75V15.8333ZM21 15.8333C21 15.4191 20.6642 15.0833 20.25 15.0833C19.8358 15.0833 19.5 15.4191 19.5 15.8333V17.75C19.5 18.7165 18.7165 19.5 17.75 19.5H15.8333C15.4191 19.5 15.0833 19.8358 15.0833 20.25C15.0833 20.6642 15.4191 21 15.8333 21H17.75C19.5449 21 21 19.5449 21 17.75V15.8333ZM7.5 7.25C6.80964 7.25 6.25 7.80964 6.25 8.5V15.5C6.25 16.1904 6.80964 16.75 7.5 16.75H16.5C17.1904 16.75 17.75 16.1904 17.75 15.5V8.5C17.75 7.80964 17.1904 7.25 16.5 7.25H7.5ZM7.75 15.25V8.75H16.25V15.25H7.75Z" fill="#262626"/>
</svg>
