<svg width="current" height="current" viewBox="0 0 24 24" fill="none" xmlns="http://www.w3.org/2000/svg">
<path fill-rule="evenodd" clip-rule="evenodd" d="M10.9336 3C10.3116 3 9.78418 3.45741 9.69621 4.07322L9.45731 5.74551C9.42992 5.75666 9.40261 5.76798 9.3754 5.77947L8.02399 4.76591C7.52634 4.39267 6.82997 4.44216 6.39011 4.88203L4.88206 6.39008C4.44219 6.82994 4.3927 7.52631 4.76594 8.02396L5.77949 9.37536C5.76799 9.40259 5.75666 9.42991 5.74551 9.45731L4.07322 9.69621C3.45741 9.78418 3 10.3116 3 10.9336V13.0664C3 13.6884 3.45741 14.2158 4.07322 14.3038L5.74551 14.5427C5.75666 14.5701 5.76798 14.5974 5.77947 14.6246L4.76588 15.976C4.39264 16.4737 4.44213 17.1701 4.882 17.6099L6.39005 19.118C6.82991 19.5578 7.52628 19.6073 8.02393 19.2341L9.37537 18.2205C9.40259 18.232 9.42991 18.2433 9.45731 18.2545L9.69621 19.9268C9.78418 20.5426 10.3116 21 10.9336 21H13.0664C13.6884 21 14.2158 20.5426 14.3038 19.9268L14.5427 18.2545C14.5701 18.2433 14.5974 18.232 14.6246 18.2205L15.976 19.2341C16.4737 19.6074 17.17 19.5579 17.6099 19.118L19.1179 17.61C19.5578 17.1701 19.6073 16.4737 19.2341 15.9761L18.2205 14.6247C18.232 14.5974 18.2433 14.5701 18.2545 14.5427L19.9268 14.3038C20.5426 14.2158 21 13.6884 21 13.0664V10.9336C21 10.3116 20.5426 9.78418 19.9268 9.69621L18.2545 9.45731C18.2433 9.42992 18.232 9.40262 18.2205 9.37541L19.2341 8.02396C19.6074 7.52631 19.5579 6.82994 19.118 6.39008L17.61 4.88202C17.1701 4.44216 16.4737 4.39267 15.9761 4.76591L14.6246 5.77949C14.5974 5.76799 14.5701 5.75666 14.5427 5.74551L14.3038 4.07322C14.2158 3.45741 13.6884 3 13.0664 3H10.9336ZM10.8789 6.40111L11.1505 4.5H12.8495L13.1211 6.40111C13.1615 6.68399 13.3592 6.91933 13.6308 7.00801C13.8885 7.09213 14.1375 7.19569 14.376 7.317C14.6309 7.4466 14.9373 7.42002 15.166 7.24847L16.7026 6.096L17.904 7.29742L16.7515 8.83405C16.58 9.06279 16.5534 9.36916 16.683 9.62401C16.8043 9.86255 16.9079 10.1115 16.992 10.3692C17.0807 10.6408 17.316 10.8385 17.5989 10.8789L19.5 11.1505V12.8495L17.5989 13.1211C17.316 13.1615 17.0807 13.3592 16.992 13.6308C16.9079 13.8885 16.8043 14.1375 16.683 14.376C16.5534 14.6309 16.58 14.9373 16.7515 15.166L17.904 16.7026L16.7026 17.904L15.1659 16.7516C14.9372 16.58 14.6308 16.5534 14.376 16.683C14.1374 16.8043 13.8885 16.9079 13.6308 16.992C13.3592 17.0807 13.1615 17.316 13.1211 17.5989L12.8495 19.5H11.1505L10.8789 17.5989C10.8385 17.316 10.6408 17.0807 10.3692 16.992C10.1115 16.9079 9.86253 16.8043 9.62398 16.683C9.36912 16.5534 9.06275 16.58 8.83402 16.7515L7.29739 17.904L6.09598 16.7026L7.24845 15.1659C7.42 14.9372 7.44658 14.6308 7.31698 14.376C7.19568 14.1374 7.09213 13.8885 7.00801 13.6308C6.91933 13.3592 6.68399 13.1615 6.40111 13.1211L4.5 12.8495V11.1505L6.40111 10.8789C6.68399 10.8385 6.91933 10.6408 7.00801 10.3692C7.09213 10.1115 7.19569 9.86252 7.317 9.62397C7.4466 9.36912 7.42003 9.06274 7.24848 8.83401L6.09603 7.29742L7.29745 6.09601L8.83405 7.24846C9.06278 7.42001 9.36915 7.44658 9.62401 7.31698C9.86255 7.19568 10.1115 7.09213 10.3692 7.00801C10.6408 6.91933 10.8385 6.68399 10.8789 6.40111ZM10.25 12C10.25 11.0335 11.0335 10.25 12 10.25C12.9665 10.25 13.75 11.0335 13.75 12C13.75 12.9665 12.9665 13.75 12 13.75C11.0335 13.75 10.25 12.9665 10.25 12ZM12 8.75C10.2051 8.75 8.75 10.2051 8.75 12C8.75 13.7949 10.2051 15.25 12 15.25C13.7949 15.25 15.25 13.7949 15.25 12C15.25 10.2051 13.7949 8.75 12 8.75Z" fill="#262626"/>
</svg>
