<svg width="current" height="current" viewBox="0 0 24 24" fill="none" xmlns="http://www.w3.org/2000/svg">
<path fill-rule="evenodd" clip-rule="evenodd" d="M6.25 21C4.45507 21 3 19.5449 3 17.75L3 6.25C3 4.45507 4.45507 3 6.25 3L17.75 3C19.5449 3 21 4.45508 21 6.25L21 17.75C21 19.5449 19.5449 21 17.75 21L6.25 21ZM19.5 8.5L19.5 6.25C19.5 5.2835 18.7165 4.5 17.75 4.5L6.25 4.5C6.12919 4.5 6.01123 4.51224 5.89731 4.53555C5.09987 4.69873 4.5 5.40431 4.5 6.25L4.5 8.5L19.5 8.5ZM4.5 10L19.5 10L19.5 17.75C19.5 18.7165 18.7165 19.5 17.75 19.5L6.25 19.5C5.2835 19.5 4.5 18.7165 4.5 17.75L4.5 10Z" fill="#262626"/>
</svg>
