<svg width="current" height="current" viewBox="0 0 24 24" fill="none" xmlns="http://www.w3.org/2000/svg">
<path fill-rule="evenodd" clip-rule="evenodd" d="M6.25 4.5C5.2835 4.5 4.5 5.2835 4.5 6.25V7.6875C4.5 8.10171 4.16421 8.4375 3.75 8.4375C3.33579 8.4375 3 8.10171 3 7.6875V6.25C3 4.45507 4.45507 3 6.25 3H7.6875C8.10171 3 8.4375 3.33579 8.4375 3.75C8.4375 4.16421 8.10171 4.5 7.6875 4.5H6.25ZM3.75 9.8125C4.16421 9.8125 4.5 10.1483 4.5 10.5625V13.4375C4.5 13.8517 4.16421 14.1875 3.75 14.1875C3.33579 14.1875 3 13.8517 3 13.4375V10.5625C3 10.1483 3.33579 9.8125 3.75 9.8125ZM3.75 15.5625C4.16421 15.5625 4.5 15.8983 4.5 16.3125V17.75C4.5 18.7165 5.2835 19.5 6.25 19.5H7.6875C8.10171 19.5 8.4375 19.8358 8.4375 20.25C8.4375 20.6642 8.10171 21 7.6875 21H6.25C4.45507 21 3 19.5449 3 17.75V16.3125C3 15.8983 3.33579 15.5625 3.75 15.5625ZM20.25 15.5625C20.6642 15.5625 21 15.8983 21 16.3125V17.75C21 19.5449 19.5449 21 17.75 21H16.3125C15.8983 21 15.5625 20.6642 15.5625 20.25C15.5625 19.8358 15.8983 19.5 16.3125 19.5H17.75C18.7165 19.5 19.5 18.7165 19.5 17.75V16.3125C19.5 15.8983 19.8358 15.5625 20.25 15.5625ZM9.8125 20.25C9.8125 19.8358 10.1483 19.5 10.5625 19.5H13.4375C13.8517 19.5 14.1875 19.8358 14.1875 20.25C14.1875 20.6642 13.8517 21 13.4375 21H10.5625C10.1483 21 9.8125 20.6642 9.8125 20.25ZM12.75 3C10.9551 3 9.5 4.45507 9.5 6.25V11.25C9.5 13.0449 10.9551 14.5 12.75 14.5H17.75C19.5449 14.5 21 13.0449 21 11.25V6.25C21 4.45507 19.5449 3 17.75 3H12.75ZM11 6.25C11 5.2835 11.7835 4.5 12.75 4.5H17.75C18.7165 4.5 19.5 5.2835 19.5 6.25V11.25C19.5 12.2165 18.7165 13 17.75 13H12.75C11.7835 13 11 12.2165 11 11.25V6.25Z" fill="#262626"/>
</svg>
