<svg width="current" height="current" viewBox="0 0 24 24" fill="none" xmlns="http://www.w3.org/2000/svg">
<path fill-rule="evenodd" clip-rule="evenodd" d="M3 6.25C3 4.45507 4.45507 3 6.25 3H17.75C19.5449 3 21 4.45507 21 6.25V17.75C21 19.5449 19.5449 21 17.75 21H6.25C4.45507 21 3 19.5449 3 17.75V6.25ZM15.5 19.5H17.75C18.7165 19.5 19.5 18.7165 19.5 17.75V6.25C19.5 6.12919 19.4878 6.01123 19.4644 5.89731C19.3013 5.09987 18.5957 4.5 17.75 4.5H15.5V19.5ZM14 4.5V19.5H6.25C5.2835 19.5 4.5 18.7165 4.5 17.75V6.25C4.5 5.2835 5.2835 4.5 6.25 4.5H14Z" fill="#262626"/>
</svg>
