<svg width="current" height="current" viewBox="0 0 24 24" fill="none" xmlns="http://www.w3.org/2000/svg">
<path fill-rule="evenodd" clip-rule="evenodd" d="M6.25 3C4.45507 3 3 4.45507 3 6.25V17.75C3 19.5449 4.45507 21 6.25 21H17.75C19.5449 21 21 19.5449 21 17.75V6.25C21 4.45507 19.5449 3 17.75 3H6.25ZM4.5 6.25C4.5 5.2835 5.2835 4.5 6.25 4.5H17.75C18.7165 4.5 19.5 5.2835 19.5 6.25V17.75C19.5 18.7165 18.7165 19.5 17.75 19.5H6.25C5.2835 19.5 4.5 18.7165 4.5 17.75V6.25ZM13.5 6C12.6716 6 12 6.67157 12 7.5V16.5C12 17.3284 12.6716 18 13.5 18H16.5C17.3284 18 18 17.3284 18 16.5V7.5C18 6.67157 17.3284 6 16.5 6H13.5Z" fill="#262626"/>
</svg>
