<svg width="current" height="current" viewBox="0 0 24 24" fill="none" xmlns="http://www.w3.org/2000/svg">
<path fill-rule="evenodd" clip-rule="evenodd" d="M12 3.5C7.30558 3.5 3.5 7.30558 3.5 12C3.5 16.6944 7.30558 20.5 12 20.5C16.6944 20.5 20.5 16.6944 20.5 12C20.5 7.30558 16.6944 3.5 12 3.5ZM2 12C2 6.47715 6.47715 2 12 2C17.5228 2 22 6.47715 22 12C22 17.5228 17.5228 22 12 22C6.47715 22 2 17.5228 2 12ZM6.75 9C6.75 7.75736 7.75736 6.75 9 6.75C10.2426 6.75 11.25 7.75736 11.25 9V15C11.25 16.2426 10.2426 17.25 9 17.25C7.75736 17.25 6.75 16.2426 6.75 15V9ZM9 8.25C8.58579 8.25 8.25 8.58579 8.25 9V15C8.25 15.4142 8.58579 15.75 9 15.75C9.41421 15.75 9.75 15.4142 9.75 15V9C9.75 8.58579 9.41421 8.25 9 8.25ZM15 6.75C13.7574 6.75 12.75 7.75736 12.75 9V15C12.75 16.2426 13.7574 17.25 15 17.25C16.2426 17.25 17.25 16.2426 17.25 15V9C17.25 7.75736 16.2426 6.75 15 6.75ZM14.25 9C14.25 8.58579 14.5858 8.25 15 8.25C15.4142 8.25 15.75 8.58579 15.75 9V15C15.75 15.4142 15.4142 15.75 15 15.75C14.5858 15.75 14.25 15.4142 14.25 15V9Z" fill="#262626"/>
</svg>
