<svg width="current" height="current" viewBox="0 0 24 24" fill="none" xmlns="http://www.w3.org/2000/svg">
<path fill-rule="evenodd" clip-rule="evenodd" d="M19.5 3.75C19.5 3.33579 19.8358 3 20.25 3C20.6642 3 21 3.33579 21 3.75V20.25C21 20.6642 20.6642 21 20.25 21C19.8358 21 19.5 20.6642 19.5 20.25V12V3.75ZM4.11144 3.09284C3.87909 2.96505 3.59654 2.96945 3.36828 3.10441C3.14002 3.23937 3 3.48483 3 3.75V20.25C3 20.5152 3.14002 20.7606 3.36828 20.8956C3.59654 21.0306 3.87909 21.035 4.11144 20.9072L19.1114 12.6572C19.3511 12.5253 19.5 12.2735 19.5 12C19.5 11.7265 19.3511 11.4747 19.1114 11.3428L4.11144 3.09284ZM17.1937 12L4.5 18.9815V5.01845L17.1937 12Z" fill="#262626"/>
</svg>
