<svg width="current" height="current" viewBox="0 0 24 24" fill="none" xmlns="http://www.w3.org/2000/svg">
<path fill-rule="evenodd" clip-rule="evenodd" d="M4.5 20.25C4.5 20.6642 4.16421 21 3.75 21C3.33579 21 3 20.6642 3 20.25L3 3.75C3 3.33579 3.33579 3 3.75 3C4.16421 3 4.5 3.33579 4.5 3.75L4.5 12L4.5 20.25ZM19.8886 20.9072C20.1209 21.035 20.4035 21.0306 20.6317 20.8956C20.86 20.7606 21 20.5152 21 20.25L21 3.75C21 3.48483 20.86 3.23937 20.6317 3.10441C20.4035 2.96945 20.1209 2.96505 19.8886 3.09284L4.88856 11.3428C4.6489 11.4747 4.5 11.7265 4.5 12C4.5 12.2735 4.6489 12.5253 4.88856 12.6572L19.8886 20.9072ZM6.80628 12L19.5 5.01846L19.5 18.9815L6.80628 12Z" fill="#262626"/>
</svg>
