<svg width="current" height="current" viewBox="0 0 24 24" fill="none" xmlns="http://www.w3.org/2000/svg">
<path fill-rule="evenodd" clip-rule="evenodd" d="M12 3.5C7.30558 3.5 3.5 7.30558 3.5 12C3.5 16.6944 7.30558 20.5 12 20.5C16.6944 20.5 20.5 16.6944 20.5 12C20.5 7.30558 16.6944 3.5 12 3.5ZM2 12C2 6.47715 6.47715 2 12 2C17.5228 2 22 6.47715 22 12C22 17.5228 17.5228 22 12 22C6.47715 22 2 17.5228 2 12ZM15 7.75C15 7.33579 15.3358 7 15.75 7C16.1642 7 16.5 7.33579 16.5 7.75V16.25C16.5 16.6642 16.1642 17 15.75 17C15.3358 17 15 16.6642 15 16.25V7.75ZM8.68351 7.13798C8.45469 6.9759 8.15457 6.955 7.9055 7.08381C7.65642 7.21261 7.5 7.46959 7.5 7.75V16.25C7.5 16.5304 7.65642 16.7874 7.9055 16.9162C8.15457 17.045 8.45469 17.0241 8.68351 16.862L14.6835 12.612C14.882 12.4714 15 12.2433 15 12C15 11.7567 14.882 11.5286 14.6835 11.388L8.68351 7.13798ZM12.9525 12L9 14.7997V9.20034L12.9525 12Z" fill="#262626"/>
</svg>
