<svg width="current" height="current" viewBox="0 0 24 24" fill="none" xmlns="http://www.w3.org/2000/svg">
<path fill-rule="evenodd" clip-rule="evenodd" d="M5.25 3C4.00736 3 3 4.00736 3 5.25V18.75C3 19.9926 4.00736 21 5.25 21H8.25C9.49264 21 10.5 19.9926 10.5 18.75V5.25C10.5 4.00736 9.49264 3 8.25 3H5.25ZM4.5 5.25C4.5 4.83579 4.83579 4.5 5.25 4.5H8.25C8.66421 4.5 9 4.83579 9 5.25V18.75C9 19.1642 8.66421 19.5 8.25 19.5H5.25C4.83579 19.5 4.5 19.1642 4.5 18.75V5.25ZM15.75 3C14.5074 3 13.5 4.00736 13.5 5.25V18.75C13.5 19.9926 14.5074 21 15.75 21H18.75C19.9926 21 21 19.9926 21 18.75V5.25C21 4.00736 19.9926 3 18.75 3H15.75ZM15 5.25C15 4.83579 15.3358 4.5 15.75 4.5H18.75C19.1642 4.5 19.5 4.83579 19.5 5.25V18.75C19.5 19.1642 19.1642 19.5 18.75 19.5H15.75C15.3358 19.5 15 19.1642 15 18.75V5.25Z" fill="#262626"/>
</svg>
