<svg width="current" height="current" viewBox="0 0 24 24" fill="none" xmlns="http://www.w3.org/2000/svg">
<path fill-rule="evenodd" clip-rule="evenodd" d="M12 3.5C7.30558 3.5 3.5 7.30558 3.5 12C3.5 16.6944 7.30558 20.5 12 20.5C16.6944 20.5 20.5 16.6944 20.5 12C20.5 7.30558 16.6944 3.5 12 3.5ZM2 12C2 6.47715 6.47715 2 12 2C17.5228 2 22 6.47715 22 12C22 17.5228 17.5228 22 12 22C6.47715 22 2 17.5228 2 12ZM9.5 7.75C8.5335 7.75 7.75 8.5335 7.75 9.5V14.5C7.75 15.4665 8.5335 16.25 9.5 16.25H14.5C15.4665 16.25 16.25 15.4665 16.25 14.5V9.5C16.25 8.5335 15.4665 7.75 14.5 7.75H9.5ZM9.25 9.5C9.25 9.36193 9.36193 9.25 9.5 9.25H14.5C14.6381 9.25 14.75 9.36193 14.75 9.5V14.5C14.75 14.6381 14.6381 14.75 14.5 14.75H9.5C9.36193 14.75 9.25 14.6381 9.25 14.5V9.5Z" fill="#262626"/>
</svg>
