<svg width="current" height="current" viewBox="0 0 24 24" fill="none" xmlns="http://www.w3.org/2000/svg">
<path fill-rule="evenodd" clip-rule="evenodd" d="M12 3.5C7.30558 3.5 3.5 7.30558 3.5 12C3.5 16.6944 7.30558 20.5 12 20.5C16.6944 20.5 20.5 16.6944 20.5 12C20.5 7.30558 16.6944 3.5 12 3.5ZM2 12C2 6.47715 6.47715 2 12 2C17.5228 2 22 6.47715 22 12C22 17.5228 17.5228 22 12 22C6.47715 22 2 17.5228 2 12ZM7.25 7.75C7.25 7.33579 7.58579 7 8 7C8.41421 7 8.75 7.33579 8.75 7.75V16.25C8.75 16.6642 8.41421 17 8 17C7.58579 17 7.25 16.6642 7.25 16.25V7.75ZM11.4335 7.13798C11.2047 6.9759 10.9046 6.955 10.6555 7.08381C10.4064 7.21261 10.25 7.46959 10.25 7.75V16.25C10.25 16.5304 10.4064 16.7874 10.6555 16.9162C10.9046 17.045 11.2047 17.0241 11.4335 16.862L17.4335 12.612C17.632 12.4714 17.75 12.2433 17.75 12C17.75 11.7567 17.632 11.5286 17.4335 11.388L11.4335 7.13798ZM15.7025 12L11.75 14.7997V9.20034L15.7025 12Z" fill="#262626"/>
</svg>
