<svg width="current" height="current" viewBox="0 0 24 24" fill="none" xmlns="http://www.w3.org/2000/svg">
<path fill-rule="evenodd" clip-rule="evenodd" d="M3.5 12C3.5 7.30558 7.30558 3.5 12 3.5C16.6944 3.5 20.5 7.30558 20.5 12C20.5 16.6944 16.6944 20.5 12 20.5C7.30558 20.5 3.5 16.6944 3.5 12ZM12 2C6.47715 2 2 6.47715 2 12C2 17.5228 6.47715 22 12 22C17.5228 22 22 17.5228 22 12C22 6.47715 17.5228 2 12 2ZM9.90557 6.86912C9.67479 6.72076 9.38141 6.71025 9.14061 6.84172C8.8998 6.97318 8.75 7.22564 8.75 7.5V16.5C8.75 16.7744 8.8998 17.0268 9.14061 17.1583C9.38141 17.2898 9.67479 17.2792 9.90557 17.1309L16.9056 12.6309C17.1202 12.4929 17.25 12.2552 17.25 12C17.25 11.7448 17.1202 11.5071 16.9056 11.3691L9.90557 6.86912ZM15.1131 12L10.25 15.1263V8.87375L15.1131 12Z" fill="#262626"/>
</svg>
