<svg width="current" height="current" viewBox="0 0 24 24" fill="none" xmlns="http://www.w3.org/2000/svg">
<path fill-rule="evenodd" clip-rule="evenodd" d="M3.75 3C3.33579 3 3 3.33579 3 3.75V20.25C3 20.6642 3.33579 21 3.75 21C4.16421 21 4.5 20.6642 4.5 20.25V3.75C4.5 3.33579 4.16421 3 3.75 3ZM8.16313 3.12404C7.9328 2.97203 7.63759 2.95878 7.39458 3.08957C7.15156 3.22035 7 3.47403 7 3.75V20.25C7 20.526 7.15156 20.7797 7.39458 20.9104C7.63759 21.0412 7.9328 21.028 8.16313 20.876L20.6631 12.626C20.8734 12.4871 21 12.252 21 12C21 11.748 20.8734 11.5129 20.6631 11.374L8.16313 3.12404ZM18.8884 12L8.5 18.8564V5.14363L18.8884 12Z" fill="#262626"/>
</svg>
