<svg width="current" height="current" viewBox="0 0 24 24" fill="none" xmlns="http://www.w3.org/2000/svg">
<path fill-rule="evenodd" clip-rule="evenodd" d="M12 20.5C16.6944 20.5 20.5 16.6944 20.5 12C20.5 7.30558 16.6944 3.5 12 3.5C7.30558 3.5 3.5 7.30558 3.5 12C3.5 16.6944 7.30558 20.5 12 20.5ZM22 12C22 17.5228 17.5228 22 12 22C6.47715 22 2 17.5228 2 12C2 6.47715 6.47715 2 12 2C17.5228 2 22 6.47715 22 12ZM9 16.25C9 16.6642 8.66421 17 8.25 17C7.83579 17 7.5 16.6642 7.5 16.25L7.5 7.75C7.5 7.33579 7.83579 7 8.25 7C8.66421 7 9 7.33579 9 7.75L9 16.25ZM15.3165 16.862C15.5453 17.0241 15.8454 17.045 16.0945 16.9162C16.3436 16.7874 16.5 16.5304 16.5 16.25V7.75C16.5 7.46959 16.3436 7.2126 16.0945 7.0838C15.8454 6.955 15.5453 6.9759 15.3165 7.13798L9.31649 11.388C9.11798 11.5286 9 11.7567 9 12C9 12.2433 9.11798 12.4714 9.31649 12.612L15.3165 16.862ZM11.0475 12L15 9.20034V14.7997L11.0475 12Z" fill="#262626"/>
</svg>
