<svg width="current" height="current" viewBox="0 0 24 24" fill="none" xmlns="http://www.w3.org/2000/svg">
<path fill-rule="evenodd" clip-rule="evenodd" d="M12 2C11.5858 2 11.25 2.33579 11.25 2.75V7.25C11.25 7.66421 11.5858 8 12 8C12.4142 8 12.75 7.66421 12.75 7.25V2.75C12.75 2.33579 12.4142 2 12 2ZM2.75 12.75C2.75 8.41741 5.72874 4.78052 9.75 3.77557V5.33167C6.56708 6.29578 4.25 9.25231 4.25 12.75C4.25 17.0302 7.71979 20.5 12 20.5C16.2802 20.5 19.75 17.0302 19.75 12.75C19.75 9.25231 17.4329 6.29578 14.25 5.33167V3.77557C18.2713 4.78052 21.25 8.41741 21.25 12.75C21.25 17.8586 17.1086 22 12 22C6.89137 22 2.75 17.8586 2.75 12.75Z" fill="#262626"/>
</svg>
