<svg width="current" height="current" viewBox="0 0 24 24" fill="none" xmlns="http://www.w3.org/2000/svg">
<path fill-rule="evenodd" clip-rule="evenodd" d="M14.75 8.25C14.75 7.55964 15.3096 7 16 7C16.6904 7 17.25 7.55964 17.25 8.25C17.25 8.94036 16.6904 9.5 16 9.5C15.3096 9.5 14.75 8.94036 14.75 8.25ZM13.3535 9H2.75C2.33579 9 2 8.66421 2 8.25C2 7.83579 2.33579 7.5 2.75 7.5H13.3535C13.68 6.34575 14.7412 5.5 16 5.5C17.2588 5.5 18.32 6.34575 18.6465 7.5H21.25C21.6642 7.5 22 7.83579 22 8.25C22 8.66421 21.6642 9 21.25 9H18.6465C18.32 10.1543 17.2588 11 16 11C14.7412 11 13.68 10.1543 13.3535 9ZM6.75 15.75C6.75 15.0596 7.30964 14.5 8 14.5C8.69036 14.5 9.25 15.0596 9.25 15.75C9.25 16.4404 8.69036 17 8 17C7.30964 17 6.75 16.4404 6.75 15.75ZM8 13C6.74122 13 5.67998 13.8457 5.35352 15H2.75C2.33579 15 2 15.3358 2 15.75C2 16.1642 2.33579 16.5 2.75 16.5H5.35352C5.67998 17.6543 6.74122 18.5 8 18.5C9.25878 18.5 10.32 17.6543 10.6465 16.5H21.25C21.6642 16.5 22 16.1642 22 15.75C22 15.3358 21.6642 15 21.25 15H10.6465C10.32 13.8457 9.25878 13 8 13Z" fill="#262626"/>
</svg>
