<svg width="current" height="current" viewBox="0 0 24 24" fill="none" xmlns="http://www.w3.org/2000/svg">
<path fill-rule="evenodd" clip-rule="evenodd" d="M12.6 4.30262C13.5889 3.56123 15 4.26657 15 5.50223V18.4978C15 19.4834 13.5889 20.4388 12.6 19.6974L7 15.7488H3.5C2.67157 15.7488 2 15.0774 2 14.2493V9.75074C2 8.92259 2.67157 8.25124 3.5 8.25124H7L12.6 4.30262ZM6.5 9.75074V14.2493H3.5V9.75074H6.5ZM13.5 18.4978L8 14.6241V9.37587L13.5 5.50223V18.4978ZM20.2812 7.97191C19.9889 7.67861 19.514 7.6778 19.2206 7.97009C18.9272 8.26238 18.9264 8.7371 19.2188 9.0304C19.5198 9.3324 19.8481 9.82962 20.1012 10.4026C20.355 10.9774 20.5 11.5537 20.5 12C20.5 12.4502 20.3558 13.0267 20.1033 13.5995C19.8514 14.1708 19.5236 14.6659 19.2206 14.9678C18.9272 15.2601 18.9264 15.7348 19.2188 16.0281C19.5111 16.3214 19.986 16.3222 20.2794 16.0299C20.7485 15.5626 21.1708 14.8961 21.4758 14.2043C21.7802 13.514 22 12.7257 22 12C22 11.2758 21.778 10.4869 21.4734 9.79698C21.1679 9.10526 20.7462 8.43834 20.2812 7.97191Z" fill="#262626"/>
</svg>
