<svg width="current" height="current" viewBox="0 0 24 24" fill="none" xmlns="http://www.w3.org/2000/svg">
<path fill-rule="evenodd" clip-rule="evenodd" d="M15 5.50223C15 4.26657 13.5889 3.56123 12.6 4.30262L7 8.25124H3.5C2.67157 8.25124 2 8.92259 2 9.75074V14.2493C2 15.0774 2.67157 15.7488 3.5 15.7488H7L12.6 19.6974C13.5889 20.4388 15 19.4834 15 18.4978V5.50223ZM6.5 14.2493V9.75074H3.5V14.2493H6.5ZM8 14.6241L13.5 18.4978V5.50223L8 9.37587V14.6241ZM16.75 11.25C16.3358 11.25 16 11.5858 16 12C16 12.4142 16.3358 12.75 16.75 12.75H21.25C21.6642 12.75 22 12.4142 22 12C22 11.5858 21.6642 11.25 21.25 11.25H16.75Z" fill="#262626"/>
</svg>
