<svg width="current" height="current" viewBox="0 0 24 24" fill="none" xmlns="http://www.w3.org/2000/svg">
<path fill-rule="evenodd" clip-rule="evenodd" d="M12.6 4.30262C13.5889 3.56123 15 4.26657 15 5.50223V18.4978C15 19.4834 13.5889 20.4388 12.6 19.6974L7 15.7488H3.5C2.67157 15.7488 2 15.0774 2 14.2493V9.75074C2 8.92259 2.67157 8.25124 3.5 8.25124H7L12.6 4.30262ZM6.5 9.75074V14.2493H3.5V9.75074H6.5ZM13.5 18.4978L8 14.6241V9.37587L13.5 5.50223V18.4978ZM16 12C16 11.5858 16.3358 11.25 16.75 11.25H18.25V9.75C18.25 9.33579 18.5858 9 19 9C19.4142 9 19.75 9.33579 19.75 9.75V11.25H21.25C21.6642 11.25 22 11.5858 22 12C22 12.4142 21.6642 12.75 21.25 12.75H19.75V14.25C19.75 14.6642 19.4142 15 19 15C18.5858 15 18.25 14.6642 18.25 14.25V12.75H16.75C16.3358 12.75 16 12.4142 16 12Z" fill="#262626"/>
</svg>
