<svg width="current" height="current" viewBox="0 0 24 24" fill="none" xmlns="http://www.w3.org/2000/svg">
<path fill-rule="evenodd" clip-rule="evenodd" d="M15 5.50223C15 4.26657 13.5889 3.56123 12.6 4.30262L7 8.25124H3.5C2.67157 8.25124 2 8.92259 2 9.75074V14.2493C2 15.0774 2.67157 15.7488 3.5 15.7488H7L12.6 19.6974C13.5889 20.4388 15 19.4834 15 18.4978V5.50223ZM6.5 14.2493V9.75074H3.5V14.2493H6.5ZM8 14.6241L13.5 18.4978V5.50223L8 9.37587V14.6241ZM16.2206 7.97009C16.514 7.6778 16.9889 7.67861 17.2812 7.97191C17.7462 8.43834 18.1679 9.10526 18.4734 9.79698C18.778 10.4869 19 11.2758 19 12C19 12.7257 18.7802 13.514 18.4758 14.2043C18.1708 14.8961 17.7485 15.5626 17.2794 16.0299C16.986 16.3222 16.5111 16.3214 16.2188 16.0281C15.9264 15.7348 15.9272 15.2601 16.2206 14.9678C16.5236 14.6659 16.8514 14.1708 17.1033 13.5995C17.3558 13.0267 17.5 12.4502 17.5 12C17.5 11.5537 17.355 10.9774 17.1012 10.4026C16.8481 9.82962 16.5198 9.3324 16.2188 9.0304C15.9264 8.7371 15.9272 8.26238 16.2206 7.97009ZM19.9447 5.93545C19.6329 5.66276 19.1591 5.69446 18.8864 6.00626C18.6137 6.31805 18.6454 6.79186 18.9572 7.06455C19.3508 7.40878 19.743 8.03302 20.0362 8.91222C20.3255 9.7797 20.5001 10.8422 20.5001 12C20.5001 13.1578 20.3255 14.2203 20.0362 15.0878C19.743 15.967 19.3508 16.5912 18.9572 16.9355C18.6454 17.2081 18.6137 17.682 18.8864 17.9937C19.1591 18.3055 19.6329 18.3372 19.9447 18.0645C20.6102 17.4825 21.1175 16.5866 21.4591 15.5623C21.8046 14.5263 22.0001 13.3019 22.0001 12C22.0001 10.6981 21.8046 9.47371 21.4591 8.43768C21.1175 7.41338 20.6102 6.51748 19.9447 5.93545Z" fill="#262626"/>
</svg>
