<svg width="current" height="current" viewBox="0 0 24 24" fill="none" xmlns="http://www.w3.org/2000/svg">
<path fill-rule="evenodd" clip-rule="evenodd" d="M15 5.50223C15 4.26657 13.5889 3.56123 12.6 4.30262L7 8.25124H3.5C2.67157 8.25124 2 8.92259 2 9.75074V14.2493C2 15.0774 2.67157 15.7488 3.5 15.7488H7L12.6 19.6974C13.5889 20.4388 15 19.4834 15 18.4978V5.50223ZM6.5 14.2493V9.75074H3.5V14.2493H6.5ZM8 14.6241L13.5 18.4978V5.50223L8 9.37587V14.6241ZM18.5953 9.87132C18.3025 9.57843 17.8276 9.57843 17.5347 9.87132C17.2418 10.1642 17.2418 10.6391 17.5347 10.932L18.5953 11.9926L17.5347 13.0533C17.2418 13.3462 17.2418 13.8211 17.5347 14.114C17.8276 14.4069 18.3025 14.4069 18.5953 14.114L19.656 13.0533L20.7167 14.114C21.0096 14.4069 21.4844 14.4069 21.7773 14.114C22.0702 13.8211 22.0702 13.3462 21.7773 13.0533L20.7167 11.9926L21.7773 10.932C22.0702 10.6391 22.0702 10.1642 21.7773 9.87132C21.4844 9.57843 21.0096 9.57843 20.7167 9.87132L19.656 10.932L18.5953 9.87132Z" fill="#262626"/>
</svg>
