<svg width="current" height="current" viewBox="0 0 24 24" fill="none" xmlns="http://www.w3.org/2000/svg">
<path fill-rule="evenodd" clip-rule="evenodd" d="M3.5 12C3.5 7.30558 7.30558 3.5 12 3.5C16.6944 3.5 20.5 7.30558 20.5 12C20.5 16.6944 16.6944 20.5 12 20.5C7.30558 20.5 3.5 16.6944 3.5 12ZM12 2C6.47715 2 2 6.47715 2 12C2 17.5228 6.47715 22 12 22C17.5228 22 22 17.5228 22 12C22 6.47715 17.5228 2 12 2ZM9.75 7C9.33579 7 9 7.33579 9 7.75V11.25C9 11.6642 9.33579 12 9.75 12C10.1642 12 10.5 11.6642 10.5 11.25V7.75C10.5 7.33579 10.1642 7 9.75 7ZM13.5 7.75C13.5 7.33579 13.8358 7 14.25 7C14.6642 7 15 7.33579 15 7.75V11.25C15 11.6642 14.6642 12 14.25 12C13.8358 12 13.5 11.6642 13.5 11.25V7.75ZM15.9133 17.5002C16.1896 17.8088 16.6637 17.8351 16.9724 17.5589C17.281 17.2826 17.3073 16.8085 17.031 16.4998C15.7961 15.1201 13.9992 14.25 12 14.25C10.0008 14.25 8.20379 15.1201 6.96889 16.4998C6.69265 16.8085 6.71891 17.2826 7.02756 17.5589C7.3362 17.8351 7.81035 17.8088 8.08659 17.5002C9.04898 16.4249 10.4452 15.75 12 15.75C13.5548 15.75 14.9509 16.4249 15.9133 17.5002Z" fill="#262626"/>
</svg>
