<svg width="current" height="current" viewBox="0 0 24 24" fill="none" xmlns="http://www.w3.org/2000/svg">
<path fill-rule="evenodd" clip-rule="evenodd" d="M3.5 12C3.5 7.30558 7.30558 3.5 12 3.5C16.6944 3.5 20.5 7.30558 20.5 12C20.5 16.6944 16.6944 20.5 12 20.5C7.30558 20.5 3.5 16.6944 3.5 12ZM12 2C6.47715 2 2 6.47715 2 12C2 17.5228 6.47715 22 12 22C17.5228 22 22 17.5228 22 12C22 6.47715 17.5228 2 12 2ZM9.75 7C9.33579 7 9 7.33579 9 7.75V11.25C9 11.6642 9.33579 12 9.75 12C10.1642 12 10.5 11.6642 10.5 11.25V7.75C10.5 7.33579 10.1642 7 9.75 7ZM13.5 7.75C13.5 7.33579 13.8358 7 14.25 7C14.6642 7 15 7.33579 15 7.75V11.25C15 11.6642 14.6642 12 14.25 12C13.8358 12 13.5 11.6642 13.5 11.25V7.75ZM8.08662 14.4998C7.81038 14.1912 7.33623 14.1649 7.02759 14.4411C6.71894 14.7174 6.69268 15.1915 6.96892 15.5002C8.20382 16.8799 10.0008 17.75 12 17.75C13.9992 17.75 15.7961 16.8799 17.031 15.5002C17.3073 15.1915 17.281 14.7174 16.9724 14.4411C16.6637 14.1649 16.1896 14.1912 15.9133 14.4998C14.951 15.5751 13.5548 16.25 12 16.25C10.4452 16.25 9.04901 15.5751 8.08662 14.4998Z" fill="#262626"/>
</svg>
