<svg width="current" height="current" viewBox="0 0 24 24" fill="none" xmlns="http://www.w3.org/2000/svg">
<path fill-rule="evenodd" clip-rule="evenodd" d="M3.5 12C3.5 7.30558 7.30558 3.5 12 3.5C16.6944 3.5 20.5 7.30558 20.5 12C20.5 16.6944 16.6944 20.5 12 20.5C7.30558 20.5 3.5 16.6944 3.5 12ZM12 2C6.47715 2 2 6.47715 2 12C2 17.5228 6.47715 22 12 22C17.5228 22 22 17.5228 22 12C22 6.47715 17.5228 2 12 2ZM9.75 7C9.33579 7 9 7.33579 9 7.75V11.25C9 11.6642 9.33579 12 9.75 12C10.1642 12 10.5 11.6642 10.5 11.25V7.75C10.5 7.33579 10.1642 7 9.75 7ZM13.5 7.75C13.5 7.33579 13.8358 7 14.25 7C14.6642 7 15 7.33579 15 7.75V11.25C15 11.6642 14.6642 12 14.25 12C13.8358 12 13.5 11.6642 13.5 11.25V7.75ZM7.52777 15.25C7.11356 15.25 6.77777 15.5858 6.77777 16C6.77777 16.4142 7.11356 16.75 7.52777 16.75H12H16.4722C16.8864 16.75 17.2222 16.4142 17.2222 16C17.2222 15.5858 16.8864 15.25 16.4722 15.25H12H7.52777Z" fill="#262626"/>
</svg>
