<svg width="current" height="current" viewBox="0 0 24 24" fill="none" xmlns="http://www.w3.org/2000/svg">
<path fill-rule="evenodd" clip-rule="evenodd" d="M6.25 2C5.00736 2 4 3.00736 4 4.25V19.75C4 20.9926 5.00736 22 6.25 22H7.25H8H16H16.75H17.75C18.9926 22 20 20.9926 20 19.75V4.25C20 3.00736 18.9926 2 17.75 2H6.25ZM16.724 20.5H17.75C18.1642 20.5 18.5 20.1642 18.5 19.75V4.25C18.5 3.83579 18.1642 3.5 17.75 3.5H6.25C5.83579 3.5 5.5 3.83579 5.5 4.25V19.75C5.5 20.1642 5.83579 20.5 6.25 20.5H7.276C7.52585 18.1117 9.54552 16.25 12 16.25C14.4545 16.25 16.4741 18.1117 16.724 20.5ZM8.78822 20.5H15.2118C14.9713 18.9425 13.6249 17.75 12 17.75C10.3751 17.75 9.02873 18.9425 8.78822 20.5ZM10.75 5C10.3358 5 10 5.33579 10 5.75C10 6.16421 10.3358 6.5 10.75 6.5H13.25C13.6642 6.5 14 6.16421 14 5.75C14 5.33579 13.6642 5 13.25 5H10.75ZM12 11.25C11.3096 11.25 10.75 11.8096 10.75 12.5C10.75 13.1904 11.3096 13.75 12 13.75C12.6904 13.75 13.25 13.1904 13.25 12.5C13.25 11.8096 12.6904 11.25 12 11.25ZM9.25 12.5C9.25 10.9812 10.4812 9.75 12 9.75C13.5188 9.75 14.75 10.9812 14.75 12.5C14.75 14.0188 13.5188 15.25 12 15.25C10.4812 15.25 9.25 14.0188 9.25 12.5Z" fill="#262626"/>
</svg>
