<svg width="current" height="current" viewBox="0 0 24 24" fill="none" xmlns="http://www.w3.org/2000/svg">
<path fill-rule="evenodd" clip-rule="evenodd" d="M5.5 6.75C5.5 6.05964 6.05964 5.5 6.75 5.5C7.44036 5.5 8 6.05964 8 6.75C8 7.44036 7.44036 8 6.75 8C6.05964 8 5.5 7.44036 5.5 6.75ZM6.75 4C5.23122 4 4 5.23122 4 6.75C4 8.26878 5.23122 9.5 6.75 9.5C8.26878 9.5 9.5 8.26878 9.5 6.75C9.5 5.23122 8.26878 4 6.75 4ZM16 6.75C16 6.05964 16.5596 5.5 17.25 5.5C17.9404 5.5 18.5 6.05964 18.5 6.75C18.5 7.44036 17.9404 8 17.25 8C16.5596 8 16 7.44036 16 6.75ZM17.25 4C15.7312 4 14.5 5.23122 14.5 6.75C14.5 8.26878 15.7312 9.5 17.25 9.5C18.7688 9.5 20 8.26878 20 6.75C20 5.23122 18.7688 4 17.25 4ZM12 9.75C11.3096 9.75 10.75 10.3096 10.75 11C10.75 11.6904 11.3096 12.25 12 12.25C12.6904 12.25 13.25 11.6904 13.25 11C13.25 10.3096 12.6904 9.75 12 9.75ZM9.25 11C9.25 9.48122 10.4812 8.25 12 8.25C13.5188 8.25 14.75 9.48122 14.75 11C14.75 12.5188 13.5188 13.75 12 13.75C10.4812 13.75 9.25 12.5188 9.25 11ZM10.5 14.25C8.70507 14.25 7.25 15.7051 7.25 17.5V19.25C7.25 19.6642 7.58579 20 8 20C8.41421 20 8.75 19.6642 8.75 19.25V17.5C8.75 16.5335 9.5335 15.75 10.5 15.75H13.5C14.4665 15.75 15.25 16.5335 15.25 17.5V19.25C15.25 19.6642 15.5858 20 16 20C16.4142 20 16.75 19.6642 16.75 19.25V17.5C16.75 15.7051 15.2949 14.25 13.5 14.25H10.5ZM5.25 11.75C4.2835 11.75 3.5 12.5335 3.5 13.5V15.25C3.5 15.6642 3.16421 16 2.75 16C2.33579 16 2 15.6642 2 15.25V13.5C2 11.7051 3.45507 10.25 5.25 10.25H6.75C7.16421 10.25 7.5 10.5858 7.5 11C7.5 11.4142 7.16421 11.75 6.75 11.75H5.25ZM17.25 10.25C16.8358 10.25 16.5 10.5858 16.5 11C16.5 11.4142 16.8358 11.75 17.25 11.75H18.75C19.7165 11.75 20.5 12.5335 20.5 13.5V15.25C20.5 15.6642 20.8358 16 21.25 16C21.6642 16 22 15.6642 22 15.25V13.5C22 11.7051 20.5449 10.25 18.75 10.25H17.25Z" fill="#262626"/>
</svg>
