<svg width="current" height="current" viewBox="0 0 24 24" fill="none" xmlns="http://www.w3.org/2000/svg">
<path fill-rule="evenodd" clip-rule="evenodd" d="M8.75 6.75C8.75 4.95507 10.2051 3.5 12 3.5C13.7949 3.5 15.25 4.95507 15.25 6.75C15.25 8.54493 13.7949 10 12 10C10.2051 10 8.75 8.54493 8.75 6.75ZM12 2C9.37665 2 7.25 4.12665 7.25 6.75C7.25 9.37335 9.37665 11.5 12 11.5C14.6234 11.5 16.75 9.37335 16.75 6.75C16.75 4.12665 14.6234 2 12 2ZM12 14.75C15.3362 14.75 18.0853 17.2634 18.4572 20.5H5.5428C5.91465 17.2634 8.66381 14.75 12 14.75ZM12 13.25C7.58172 13.25 4 16.8317 4 21.25C4 21.6642 4.33579 22 4.75 22H19.25C19.6642 22 20 21.6642 20 21.25C20 16.8317 16.4183 13.25 12 13.25Z" fill="#262626"/>
</svg>
