<svg width="current" height="current" viewBox="0 0 24 24" fill="none" xmlns="http://www.w3.org/2000/svg">
<path fill-rule="evenodd" clip-rule="evenodd" d="M12 3.5C7.30558 3.5 3.5 7.30558 3.5 12C3.5 14.4795 4.56164 16.711 6.25516 18.2648C6.34786 18.0478 6.44504 17.8247 6.54895 17.6036C6.80592 17.0567 7.1182 16.4897 7.55571 15.9828C8.47012 14.9233 9.82267 14.25 12 14.25C14.1774 14.25 15.5299 14.9233 16.4443 15.9828C16.8818 16.4897 17.1941 17.0567 17.4511 17.6036C17.555 17.8247 17.6522 18.0478 17.7449 18.2647C19.4384 16.711 20.5 14.4795 20.5 12C20.5 7.30558 16.6944 3.5 12 3.5ZM12 20.5H12C13.6585 20.5 15.2061 20.025 16.5141 19.2036L16.4604 19.0772L16.4296 19.0047C16.3171 18.7397 16.2087 18.4867 16.0935 18.2415C15.8627 17.7503 15.6186 17.3218 15.3088 16.9628C14.7285 16.2905 13.8227 15.75 12 15.75C10.1774 15.75 9.27154 16.2905 8.69128 16.9628C8.38145 17.3218 8.13733 17.7503 7.90657 18.2414C7.79133 18.4867 7.68295 18.7397 7.57044 19.0047L7.53968 19.0772L7.48594 19.2036C8.79394 20.025 10.3415 20.5 12 20.5ZM2 12C2 15.0985 3.40919 17.8678 5.62163 19.7021L5.61905 19.7077L6.05586 20.0744C7.71046 21.4634 9.9366 22 12 22H12C14.114 22 16.2908 21.4624 17.9442 20.0744L18.381 19.7077L18.3784 19.702C20.5908 17.8678 22 15.0984 22 12C22 6.47715 17.5228 2 12 2C6.47715 2 2 6.47715 2 12ZM10.25 9.5C10.25 8.5335 11.0335 7.75 12 7.75C12.9665 7.75 13.75 8.5335 13.75 9.5C13.75 10.4665 12.9665 11.25 12 11.25C11.0335 11.25 10.25 10.4665 10.25 9.5ZM12 6.25C10.2051 6.25 8.75 7.70507 8.75 9.5C8.75 11.2949 10.2051 12.75 12 12.75C13.7949 12.75 15.25 11.2949 15.25 9.5C15.25 7.70507 13.7949 6.25 12 6.25Z" fill="#262626"/>
</svg>
