<svg width="current" height="current" viewBox="0 0 24 24" fill="none" xmlns="http://www.w3.org/2000/svg">
<path fill-rule="evenodd" clip-rule="evenodd" d="M7.25 7C7.25 6.0335 8.0335 5.25 9 5.25H15C15.9665 5.25 16.75 6.0335 16.75 7V17C16.75 17.9665 15.9665 18.75 15 18.75H9C8.0335 18.75 7.25 17.9665 7.25 17V7ZM9 6.75C8.86193 6.75 8.75 6.86193 8.75 7V17C8.75 17.1381 8.86193 17.25 9 17.25H15C15.1381 17.25 15.25 17.1381 15.25 17V7C15.25 6.86193 15.1381 6.75 15 6.75H9ZM20 8.25C19.8619 8.25 19.75 8.36193 19.75 8.5V15.5C19.75 15.6381 19.8619 15.75 20 15.75H22V17.25H20C19.0335 17.25 18.25 16.4665 18.25 15.5V8.5C18.25 7.5335 19.0335 6.75 20 6.75H22V8.25H20ZM4.25 15.5C4.25 15.6381 4.13807 15.75 4 15.75H2V17.25H4C4.9665 17.25 5.75 16.4665 5.75 15.5V8.5C5.75 7.5335 4.9665 6.75 4 6.75H2V8.25H4C4.13807 8.25 4.25 8.36193 4.25 8.5V15.5Z" fill="#262626"/>
</svg>
