<svg width="current" height="current" viewBox="0 0 24 24" fill="none" xmlns="http://www.w3.org/2000/svg">
<path fill-rule="evenodd" clip-rule="evenodd" d="M17 7.25C17.9665 7.25 18.75 8.0335 18.75 9V15C18.75 15.9665 17.9665 16.75 17 16.75H7C6.0335 16.75 5.25 15.9665 5.25 15L5.25 9C5.25 8.0335 6.0335 7.25 7 7.25L17 7.25ZM17.25 9C17.25 8.86193 17.1381 8.75 17 8.75L7 8.75C6.86193 8.75 6.75 8.86193 6.75 9L6.75 15C6.75 15.1381 6.86193 15.25 7 15.25H17C17.1381 15.25 17.25 15.1381 17.25 15V9ZM15.75 20C15.75 19.8619 15.6381 19.75 15.5 19.75H8.5C8.36193 19.75 8.25 19.8619 8.25 20V22H6.75L6.75 20C6.75 19.0335 7.5335 18.25 8.5 18.25H15.5C16.4665 18.25 17.25 19.0335 17.25 20V22H15.75V20ZM8.5 4.25C8.36193 4.25 8.25 4.13807 8.25 4V2L6.75 2L6.75 4C6.75 4.9665 7.5335 5.75 8.5 5.75L15.5 5.75C16.4665 5.75 17.25 4.9665 17.25 4V2L15.75 2V4C15.75 4.13807 15.6381 4.25 15.5 4.25L8.5 4.25Z" fill="#262626"/>
</svg>
