<svg width="current" height="current" viewBox="0 0 24 24" fill="none" xmlns="http://www.w3.org/2000/svg">
<path fill-rule="evenodd" clip-rule="evenodd" d="M20.5 12C20.5 16.6944 16.6944 20.5 12 20.5C7.30558 20.5 3.5 16.6944 3.5 12C3.5 7.30558 7.30558 3.5 12 3.5C16.6944 3.5 20.5 7.30558 20.5 12ZM22 12C22 17.5228 17.5228 22 12 22C6.47715 22 2 17.5228 2 12C2 6.47715 6.47715 2 12 2C17.5228 2 22 6.47715 22 12ZM17.4745 8.59327C17.6992 8.85535 17.6688 9.24991 17.4067 9.47455L10.4067 15.4745C10.1588 15.6871 9.78899 15.6729 9.55806 15.442L6.55806 12.442C6.31398 12.1979 6.31398 11.8021 6.55806 11.5581C6.80214 11.314 7.19786 11.314 7.44194 11.5581L10.0327 14.1488L16.5933 8.52548C16.8553 8.30084 17.2499 8.33119 17.4745 8.59327Z" fill="#262626"/>
</svg>
