<svg width="current" height="current" viewBox="0 0 24 24" fill="none" xmlns="http://www.w3.org/2000/svg">
<path fill-rule="evenodd" clip-rule="evenodd" d="M2 12C2 6.47715 6.47715 2 12 2C17.5228 2 22 6.47715 22 12C22 17.5228 17.5228 22 12 22C6.47715 22 2 17.5228 2 12ZM17.4067 9.47455C17.6688 9.24991 17.6992 8.85535 17.4745 8.59327C17.2499 8.33119 16.8553 8.30084 16.5933 8.52548L10.0327 14.1488L7.44194 11.5581C7.19786 11.314 6.80214 11.314 6.55806 11.5581C6.31398 11.8021 6.31398 12.1979 6.55806 12.442L9.55806 15.442C9.78899 15.6729 10.1588 15.6871 10.4067 15.4745L17.4067 9.47455Z" fill="#262626"/>
</svg>
