<svg width="current" height="current" viewBox="0 0 24 24" fill="none" xmlns="http://www.w3.org/2000/svg">
<path fill-rule="evenodd" clip-rule="evenodd" d="M6.25 3C4.45507 3 3 4.45507 3 6.25V17.75C3 19.5449 4.45507 21 6.25 21H17.75C19.5449 21 21 19.5449 21 17.75V6.25C21 4.45507 19.5449 3 17.75 3H6.25ZM4.5 6.25C4.5 5.2835 5.2835 4.5 6.25 4.5H17.75C18.7165 4.5 19.5 5.2835 19.5 6.25V17.75C19.5 18.7165 18.7165 19.5 17.75 19.5H6.25C5.2835 19.5 4.5 18.7165 4.5 17.75V6.25ZM17.4067 9.47455C17.6688 9.24991 17.6992 8.85535 17.4745 8.59327C17.2499 8.33119 16.8553 8.30084 16.5933 8.52548L10.0327 14.1488L7.44194 11.5581C7.19786 11.314 6.80214 11.314 6.55806 11.5581C6.31398 11.8021 6.31398 12.1979 6.55806 12.442L9.55806 15.442C9.78899 15.6729 10.1588 15.6871 10.4067 15.4745L17.4067 9.47455Z" fill="#262626"/>
</svg>
