<svg width="current" height="current" viewBox="0 0 24 24" fill="none" xmlns="http://www.w3.org/2000/svg">
<path fill-rule="evenodd" clip-rule="evenodd" d="M3 6.25C3 4.45507 4.45507 3 6.25 3H17.75C19.5449 3 21 4.45507 21 6.25V17.75C21 19.5449 19.5449 21 17.75 21H6.25C4.45507 21 3 19.5449 3 17.75V6.25ZM17.4745 8.59327C17.6992 8.85535 17.6688 9.24991 17.4067 9.47455L10.4067 15.4745C10.1588 15.6871 9.78899 15.6729 9.55806 15.442L6.55806 12.442C6.31398 12.1979 6.31398 11.8021 6.55806 11.5581C6.80214 11.314 7.19786 11.314 7.44194 11.5581L10.0327 14.1488L16.5933 8.52548C16.8553 8.30084 17.2499 8.33119 17.4745 8.59327Z" fill="#262626"/>
</svg>
