<svg width="current" height="current" viewBox="0 0 24 24" fill="none" xmlns="http://www.w3.org/2000/svg">
<path fill-rule="evenodd" clip-rule="evenodd" d="M3.21269 4.15974C2.88668 3.90422 2.41526 3.96136 2.15974 4.28737C1.90422 4.61338 1.96136 5.0848 2.28737 5.34032L5.08909 7.53627C4.92511 7.67197 4.76781 7.80956 4.61724 7.94808C3.78594 8.71288 3.14984 9.5144 2.71692 10.202C2.5007 10.5454 2.32967 10.8691 2.21001 11.1537C2.1007 11.4137 2.00003 11.7194 2.00003 12C2.00003 12.2806 2.1007 12.5864 2.21001 12.8464C2.32967 13.131 2.5007 13.4547 2.71692 13.7981C3.14984 14.4857 3.78594 15.2872 4.61724 16.052C6.28108 17.5827 8.76694 19 12 19C14.2527 19 16.1426 18.312 17.6444 17.3769L20.7874 19.8403C21.1134 20.0958 21.5848 20.0387 21.8403 19.7127C22.0958 19.3867 22.0387 18.9153 21.7127 18.6597L3.21269 4.15974ZM16.3751 16.3821L14.2282 14.6993C13.6229 15.1995 12.8466 15.5 12 15.5C10.067 15.5 8.50003 13.933 8.50003 12C8.50003 11.4557 8.6243 10.9404 8.84602 10.4809L6.30148 8.48652C6.06481 8.67012 5.84188 8.85965 5.63283 9.05198C4.90163 9.72468 4.35022 10.4232 3.98627 11.0012C3.80405 11.2906 3.6743 11.5411 3.59279 11.735C3.52798 11.8892 3.50845 11.9729 3.50257 11.9982L3.50213 12L3.50257 12.0019C3.50845 12.0271 3.52798 12.1109 3.59279 12.265C3.6743 12.4589 3.80405 12.7095 3.98627 12.9989C4.35022 13.5769 4.90163 14.2754 5.63283 14.9481C7.09399 16.2924 9.23312 17.5 12 17.5C13.6989 17.5 15.1612 17.0447 16.3751 16.3821ZM10.0777 11.4463C10.0271 11.6221 10 11.8079 10 12C10 13.1046 10.8955 14 12 14C12.363 14 12.7034 13.9033 12.9969 13.7343L10.0777 11.4463ZM20.0138 12.9989C19.7153 13.4729 19.2908 14.0279 18.7445 14.5833L19.9316 15.5137C20.4993 14.9201 20.951 14.3256 21.2831 13.7981C21.4994 13.4547 21.6704 13.131 21.7901 12.8464C21.8994 12.5864 22 12.2806 22 12C22 11.7194 21.8994 11.4137 21.7901 11.1537C21.6704 10.8691 21.4994 10.5454 21.2831 10.202C20.8502 9.5144 20.2141 8.71288 19.3828 7.94808C17.719 6.41736 15.2331 5.00003 12 5.00003C10.3683 5.00003 8.92693 5.36104 7.68549 5.91545L9.053 6.98728C9.93794 6.68361 10.9213 6.50003 12 6.50003C14.7669 6.50003 16.9061 7.70771 18.3672 9.05198C19.0984 9.72468 19.6498 10.4232 20.0138 11.0012C20.196 11.2906 20.3258 11.5411 20.4073 11.735C20.4721 11.8892 20.4916 11.9729 20.4975 11.9982L20.4979 12L20.4975 12.0019C20.4916 12.0271 20.4721 12.1109 20.4073 12.265C20.3258 12.4589 20.196 12.7095 20.0138 12.9989Z" fill="#262626"/>
</svg>
