<svg width="current" height="current" viewBox="0 0 24 24" fill="none" xmlns="http://www.w3.org/2000/svg">
<path fill-rule="evenodd" clip-rule="evenodd" d="M3.50253 12.0019L3.5021 12L3.50253 11.9981C3.50842 11.9729 3.52795 11.8891 3.59275 11.735C3.67427 11.5411 3.80402 11.2906 3.98624 11.0012C4.35019 10.4231 4.9016 9.72465 5.63279 9.05195C7.09396 7.70768 9.23309 6.5 12 6.5C14.7669 6.5 16.906 7.70768 18.3672 9.05195C19.0984 9.72465 19.6498 10.4231 20.0138 11.0012C20.196 11.2906 20.3257 11.5411 20.4072 11.735C20.4721 11.8891 20.4916 11.9729 20.4975 11.9981L20.4979 12L20.4975 12.0019C20.4916 12.0271 20.4721 12.1109 20.4072 12.265C20.3257 12.4589 20.196 12.7094 20.0138 12.9988C19.6498 13.5769 19.0984 14.2754 18.3672 14.9481C16.906 16.2923 14.7669 17.5 12 17.5C9.23309 17.5 7.09396 16.2923 5.63279 14.9481C4.9016 14.2754 4.35019 13.5769 3.98624 12.9988C3.80402 12.7094 3.67427 12.4589 3.59275 12.265C3.52795 12.1109 3.50842 12.0271 3.50253 12.0019ZM12 5C8.76691 5 6.28104 6.41732 4.61721 7.94805C3.7859 8.71285 3.14981 9.51437 2.71689 10.202C2.50067 10.5454 2.32964 10.8691 2.20998 11.1537C2.10067 11.4137 2 11.7194 2 12C2 12.2806 2.10067 12.5863 2.20998 12.8463C2.32964 13.1309 2.50067 13.4546 2.71689 13.798C3.14981 14.4856 3.7859 15.2871 4.61721 16.0519C6.28104 17.5827 8.76691 19 12 19C15.2331 19 17.719 17.5827 19.3828 16.0519C20.2141 15.2871 20.8502 14.4856 21.2831 13.798C21.4993 13.4546 21.6704 13.1309 21.79 12.8463C21.8993 12.5863 22 12.2806 22 12C22 11.7194 21.8993 11.4137 21.79 11.1537C21.6704 10.8691 21.4993 10.5454 21.2831 10.202C20.8502 9.51437 20.2141 8.71285 19.3828 7.94805C17.719 6.41732 15.2331 5 12 5ZM10 12C10 10.8954 10.8954 10 12 10C13.1046 10 14 10.8954 14 12C14 13.1046 13.1046 14 12 14C10.8954 14 10 13.1046 10 12ZM12 8.5C10.067 8.5 8.5 10.067 8.5 12C8.5 13.933 10.067 15.5 12 15.5C13.933 15.5 15.5 13.933 15.5 12C15.5 10.067 13.933 8.5 12 8.5Z" fill="#262626"/>
</svg>
