<svg width="current" height="current" viewBox="0 0 24 24" fill="none" xmlns="http://www.w3.org/2000/svg">
<path fill-rule="evenodd" clip-rule="evenodd" d="M18.1205 5.14951C17.641 4.95801 17.1262 4.85959 16.6063 4.86C16.0839 4.85929 15.5668 4.95889 15.0857 5.15284C14.6047 5.34679 14.1698 5.63111 13.8068 5.9888L12 7.7432V18.5484L19.3986 11.4152C20.1487 10.6901 20.5692 9.71306 20.5692 8.6952C20.5692 7.67735 20.1487 6.70034 19.3986 5.9752C19.0345 5.62172 18.6 5.34101 18.1205 5.14951ZM14.5382 3.89542C15.193 3.63387 15.8961 3.49943 16.6063 3.5C17.3163 3.50019 18.0191 3.63497 18.6739 3.89649C19.3286 4.158 19.9221 4.54102 20.4198 5.0232C21.4326 6.00487 22 7.32593 22 8.702C22 10.0781 21.4326 11.3991 20.4198 12.3808L12 20.5L3.5802 12.3808C2.56745 11.3991 2 10.0781 2 8.702C2 7.32593 2.56745 6.00487 3.5802 5.0232C4.078 4.54128 4.67156 4.15852 5.3263 3.89725C5.98103 3.63598 6.68384 3.50143 7.39375 3.50143C8.10365 3.50143 8.80646 3.63598 9.4612 3.89725C10.1159 4.15852 10.7095 4.54128 11.2073 5.0232L12 5.7848L12.7927 5.0232C13.2899 4.5404 13.8833 4.15698 14.5382 3.89542Z" fill="#262626"/>
</svg>
