<svg width="current" height="current" viewBox="0 0 24 24" fill="none" xmlns="http://www.w3.org/2000/svg">
<path d="M16.6063 4.86C17.1262 4.85958 17.641 4.95801 18.1205 5.14951C18.6 5.341 19.0345 5.62172 19.3986 5.9752C20.1487 6.70034 20.5692 7.67735 20.5692 8.6952C20.5692 9.71306 20.1487 10.6901 19.3986 11.4152L12 18.5484L4.60143 11.4152C3.85128 10.6901 3.43079 9.71306 3.43079 8.6952C3.43079 7.67735 3.85128 6.70034 4.60143 5.9752C4.96571 5.62198 5.40026 5.34141 5.87969 5.14988C6.35912 4.95835 6.87383 4.85971 7.39375 4.85971C7.91366 4.85971 8.42837 4.95835 8.9078 5.14988C9.38724 5.34141 9.82178 5.62198 10.1861 5.9752L12 7.7432L13.8068 5.9888C14.1698 5.63111 14.6047 5.34679 15.0857 5.15284C15.5668 4.95888 16.0839 4.85929 16.6063 4.86ZM16.6063 3.5C15.8961 3.49943 15.193 3.63386 14.5382 3.89542C13.8833 4.15698 13.2899 4.5404 12.7927 5.0232L12 5.7848L11.2073 5.0232C10.7095 4.54127 10.1159 4.15852 9.4612 3.89725C8.80646 3.63598 8.10365 3.50143 7.39375 3.50143C6.68384 3.50143 5.98103 3.63598 5.3263 3.89725C4.67156 4.15852 4.078 4.54127 3.5802 5.0232C2.56745 6.00487 2 7.32592 2 8.702C2 10.0781 2.56745 11.3991 3.5802 12.3808L12 20.5L20.4198 12.3808C21.4326 11.3991 22 10.0781 22 8.702C22 7.32592 21.4326 6.00487 20.4198 5.0232C19.9221 4.54102 19.3286 4.158 18.6739 3.89648C18.0191 3.63497 17.3163 3.50019 16.6063 3.5Z" fill="#262626"/>
</svg>
