<svg width="current" height="current" viewBox="0 0 24 24" fill="none" xmlns="http://www.w3.org/2000/svg">
<path fill-rule="evenodd" clip-rule="evenodd" d="M11.9595 3.39271C12.1063 3.63785 12.101 3.94509 11.946 4.18506C11.1893 5.35586 10.75 6.75049 10.75 8.25002C10.75 12.3922 14.1079 15.75 18.25 15.75C18.4598 15.75 18.6674 15.7414 18.8726 15.7246C19.1574 15.7012 19.4307 15.8417 19.5774 16.0868C19.7242 16.332 19.7189 16.6392 19.5638 16.8792C17.9623 19.3572 15.1732 21 12 21C7.02944 21 3 16.9706 3 12C3 7.28033 6.63244 3.40981 11.2547 3.03048C11.5395 3.00711 11.8128 3.14757 11.9595 3.39271ZM9.941 4.78604C6.80021 5.68071 4.5 8.57203 4.5 12C4.5 16.1422 7.85786 19.5 12 19.5C14.1177 19.5 16.0307 18.6227 17.3952 17.2099C12.8255 16.7794 9.25 12.9323 9.25 8.25002C9.25 7.02319 9.49583 5.85272 9.941 4.78604Z" fill="#262626"/>
</svg>
