<svg width="current" height="current" viewBox="0 0 24 24" fill="none" xmlns="http://www.w3.org/2000/svg">
<path fill-rule="evenodd" clip-rule="evenodd" d="M12.866 3.50551C12.4826 2.8354 11.5174 2.83541 11.134 3.50551L8.5868 7.95792L3.76278 9.13319C3.0469 9.3076 2.76007 10.172 3.22938 10.7407L6.49842 14.7021L6.06793 19.9199C6.0055 20.6767 6.77552 21.2239 7.46834 20.9152L12 18.8956L16.5317 20.9152C17.2245 21.2239 17.9945 20.6767 17.9321 19.9199L17.5016 14.7021L20.7706 10.7407C21.2399 10.172 20.9531 9.3076 20.2372 9.13319L15.4132 7.95792L12.866 3.50551ZM12 5.00741L12 17.3494C12.1383 17.3494 12.2766 17.3782 12.4058 17.4358L16.3708 19.2028L15.993 14.6229C15.9715 14.363 16.0524 14.1051 16.2182 13.9041L19.109 10.401L14.8509 9.36359C14.5848 9.29876 14.357 9.12728 14.2209 8.88934L12 5.00741Z" fill="#262626"/>
</svg>
