<svg width="current" height="current" viewBox="0 0 24 24" fill="none" xmlns="http://www.w3.org/2000/svg">
<path fill-rule="evenodd" clip-rule="evenodd" d="M11.134 3.50551C11.5174 2.83541 12.4826 2.8354 12.866 3.50551L15.4132 7.95792L20.2372 9.13319C20.9531 9.3076 21.2399 10.172 20.7706 10.7407L17.5016 14.7021L17.9321 19.9199C17.9945 20.6767 17.2245 21.2239 16.5317 20.9152L12 18.8956L7.46834 20.9152C6.77552 21.2239 6.0055 20.6767 6.06793 19.9199L6.49842 14.7021L3.22938 10.7407C2.76007 10.172 3.0469 9.3076 3.76278 9.13319L8.5868 7.95792L11.134 3.50551ZM12 5.00741L9.77914 8.88934C9.64301 9.12728 9.41521 9.29876 9.14911 9.36359L4.89098 10.401L7.78178 13.9041C7.94764 14.1051 8.02848 14.363 8.00704 14.6229L7.62919 19.2028L11.5942 17.4358C11.8525 17.3206 12.1475 17.3206 12.4058 17.4358L16.3708 19.2028L15.993 14.6229C15.9715 14.363 16.0524 14.1051 16.2182 13.9041L19.109 10.401L14.8509 9.36359C14.5848 9.29876 14.357 9.12728 14.2209 8.88934L12 5.00741Z" fill="#262626"/>
</svg>
