<svg width="current" height="current" viewBox="0 0 24 24" fill="none" xmlns="http://www.w3.org/2000/svg">
<path fill-rule="evenodd" clip-rule="evenodd" d="M11.25 3.75C11.25 3.33579 11.5858 3 12 3C12.4142 3 12.75 3.33579 12.75 3.75V5.75C12.75 6.16421 12.4142 6.5 12 6.5C11.5858 6.5 11.25 6.16421 11.25 5.75V3.75ZM12 9.5C10.6193 9.5 9.5 10.6193 9.5 12C9.5 13.3807 10.6193 14.5 12 14.5C13.3807 14.5 14.5 13.3807 14.5 12C14.5 10.6193 13.3807 9.5 12 9.5ZM8 12C8 9.79086 9.79086 8 12 8C14.2091 8 16 9.79086 16 12C16 14.2091 14.2091 16 12 16C9.79086 16 8 14.2091 8 12ZM12 17.5C11.5858 17.5 11.25 17.8358 11.25 18.25V20.25C11.25 20.6642 11.5858 21 12 21C12.4142 21 12.75 20.6642 12.75 20.25V18.25C12.75 17.8358 12.4142 17.5 12 17.5ZM3.75 12.75C3.33579 12.75 3 12.4142 3 12C3 11.5858 3.33579 11.25 3.75 11.25H5.75C6.16421 11.25 6.5 11.5858 6.5 12C6.5 12.4142 6.16421 12.75 5.75 12.75H3.75ZM17.5 12C17.5 12.4142 17.8358 12.75 18.25 12.75H20.25C20.6642 12.75 21 12.4142 21 12C21 11.5858 20.6642 11.25 20.25 11.25H18.25C17.8358 11.25 17.5 11.5858 17.5 12ZM17.3033 5.63604C17.5962 5.34315 18.0711 5.34315 18.364 5.63604C18.6569 5.92894 18.6569 6.40381 18.364 6.6967L16.9498 8.11092C16.6569 8.40381 16.182 8.40381 15.8891 8.11092C15.5962 7.81802 15.5962 7.34315 15.8891 7.05026L17.3033 5.63604ZM8.11091 15.8891C7.81802 15.5962 7.34314 15.5962 7.05025 15.8891L5.63604 17.3033C5.34314 17.5962 5.34314 18.0711 5.63604 18.364C5.92893 18.6569 6.40381 18.6569 6.6967 18.364L8.11091 16.9498C8.4038 16.6569 8.4038 16.182 8.11091 15.8891ZM5.63604 6.69671C5.34315 6.40382 5.34315 5.92895 5.63604 5.63605C5.92893 5.34316 6.40381 5.34316 6.6967 5.63605L8.11091 7.05027C8.40381 7.34316 8.40381 7.81803 8.11091 8.11093C7.81802 8.40382 7.34315 8.40382 7.05025 8.11093L5.63604 6.69671ZM15.8891 15.8891C15.5962 16.182 15.5962 16.6569 15.8891 16.9498L17.3033 18.364C17.5962 18.6569 18.0711 18.6569 18.364 18.364C18.6569 18.0711 18.6569 17.5962 18.364 17.3033L16.9497 15.8891C16.6569 15.5962 16.182 15.5962 15.8891 15.8891Z" fill="#262626"/>
</svg>
