<svg width="current" height="current" viewBox="0 0 24 24" fill="none" xmlns="http://www.w3.org/2000/svg">
<path fill-rule="evenodd" clip-rule="evenodd" d="M4.3292 5.16458C5.17256 3.47791 6.97158 3 9.5 3C10.6091 3 12.1539 3.33843 13.5669 3.71247C14.6808 4.00732 15.7741 4.34176 16.5897 4.59127C16.7794 4.6493 16.9541 4.70273 17.1105 4.75H19C19.9665 4.75 20.75 5.5335 20.75 6.5V13.5C20.75 14.4665 19.9665 15.25 19 15.25H17C16.7034 15.25 16.3983 15.4093 16.0557 15.8553C15.7097 16.3058 15.4127 16.9411 15.1359 17.6483C15.013 17.9624 14.8992 18.2769 14.7876 18.5853C14.7754 18.619 14.7632 18.6526 14.751 18.6862C14.6298 19.0207 14.5084 19.3525 14.3867 19.6422C14.2686 19.9233 14.1303 20.2138 13.9632 20.4438C13.8185 20.6429 13.5058 21 13 21C12.2486 21 11.3183 20.5664 10.5947 19.8428C9.84167 19.0898 9.25 17.9661 9.25 16.5C9.25 15.2935 8.99807 15.0395 8.8525 14.9485C8.74283 14.88 8.56158 14.8191 8.2348 14.785C7.90668 14.7508 7.51209 14.75 7 14.75C5.8359 14.75 4.86916 14.3732 4.1821 13.8704C3.84012 13.6202 3.55736 13.3313 3.35428 13.0295C3.15964 12.7401 3.00001 12.3808 3 12C2.99999 11.4836 3.10174 10.9354 3.2411 10.351C3.32726 9.98981 3.436 9.58342 3.55414 9.14195C3.62503 8.87703 3.6993 8.59947 3.7741 8.31147C3.90067 7.82411 3.91561 7.44657 3.93207 7.03044C3.93433 6.9734 3.93661 6.91564 3.93922 6.85677C3.96116 6.36116 4.00784 5.80728 4.3292 5.16458ZM16.25 6.05602C16.2118 6.04434 16.173 6.03247 16.1337 6.02044C15.3191 5.7713 14.2658 5.44914 13.1831 5.16253C11.7628 4.78657 10.3909 4.5 9.5 4.5C7.02842 4.5 6.09241 4.99228 5.67083 5.83542C5.49218 6.19272 5.45683 6.49208 5.43775 6.92309C5.43548 6.97436 5.43347 7.02767 5.43139 7.08303C5.41564 7.50094 5.39549 8.03566 5.22593 8.68853C5.14365 9.00535 5.06632 9.29412 4.99464 9.56178C4.88145 9.98443 4.78237 10.3544 4.70017 10.699C4.56744 11.2556 4.49999 11.6648 4.5 12C4.5 11.9961 4.49993 11.9941 4.50011 11.9941C4.50121 11.9939 4.51134 12.0621 4.59885 12.1922C4.69265 12.3316 4.84739 12.4985 5.06791 12.6599C5.50585 12.9804 6.1641 13.25 7 13.25H7.02716C7.50572 13.25 7.97615 13.25 8.3902 13.2931C8.81342 13.3372 9.25717 13.4325 9.6475 13.6765C10.5019 14.2105 10.75 15.2065 10.75 16.5C10.75 17.5339 11.1583 18.2852 11.6553 18.7822C12.0721 19.199 12.5161 19.4058 12.8063 19.4738C12.8599 19.3816 12.9256 19.2472 13.0039 19.061C13.1087 18.8115 13.2178 18.5145 13.3408 18.1752C13.3529 18.1418 13.3651 18.108 13.3774 18.0739C13.4882 17.7677 13.6087 17.4349 13.7391 17.1017C14.0248 16.3714 14.3841 15.5692 14.8661 14.9416C15.214 14.4888 15.6692 14.0732 16.25 13.8739V6.05602ZM17.75 13.75H19C19.1381 13.75 19.25 13.6381 19.25 13.5V6.5C19.25 6.36193 19.1381 6.25 19 6.25H17.75V13.75ZM12.7175 19.601C12.7175 19.6005 12.721 19.5962 12.7283 19.5897C12.7211 19.5982 12.7175 19.6015 12.7175 19.601Z" fill="#262626"/>
</svg>
