<svg width="current" height="current" viewBox="0 0 24 24" fill="none" xmlns="http://www.w3.org/2000/svg">
<path fill-rule="evenodd" clip-rule="evenodd" d="M19.4208 18.8354C18.5774 20.5221 16.7784 21 14.25 21C13.1409 21 11.5961 20.6616 10.1831 20.2875C9.06923 19.9927 7.97594 19.6582 7.16027 19.4087C6.9706 19.3507 6.79593 19.2973 6.63952 19.25L4.75 19.25C3.7835 19.25 3 18.4665 3 17.5L3 10.5C3 9.5335 3.7835 8.75 4.75 8.75L6.75 8.75C7.04658 8.75 7.35168 8.59072 7.69428 8.1447C8.04032 7.69419 8.33733 7.05894 8.61407 6.3517C8.73698 6.03759 8.85081 5.72313 8.96244 5.41471C8.97464 5.38102 8.98681 5.34739 8.99896 5.31385C9.12017 4.97931 9.24155 4.64746 9.36328 4.35784C9.48145 4.07667 9.6197 3.78616 9.78684 3.55616C9.93152 3.35708 10.2442 3 10.75 3C11.5014 3 12.4317 3.43355 13.1553 4.15717C13.9083 4.91017 14.5 6.03389 14.5 7.5C14.5 8.70646 14.7519 8.96052 14.8975 9.0515C15.0072 9.12004 15.1884 9.18093 15.5152 9.21497C15.8433 9.24915 16.2379 9.25 16.75 9.25C17.9141 9.25 18.8808 9.62682 19.5679 10.1296C19.9099 10.3798 20.1926 10.6687 20.3957 10.9705C20.5904 11.2599 20.75 11.6192 20.75 12C20.75 12.5164 20.6483 13.0646 20.5089 13.649C20.4227 14.0102 20.314 14.4166 20.1959 14.858C20.125 15.123 20.0507 15.4005 19.9759 15.6885C19.8493 16.1759 19.8344 16.5534 19.8179 16.9696C19.8157 17.0266 19.8134 17.0844 19.8108 17.1432C19.7888 17.6388 19.7422 18.1927 19.4208 18.8354ZM7.5 17.944C7.5382 17.9557 7.57698 17.9675 7.61632 17.9796C8.43087 18.2287 9.48417 18.5509 10.5669 18.8375C11.9872 19.2134 13.3591 19.5 14.25 19.5C16.7216 19.5 17.6576 19.0077 18.0792 18.1646C18.2578 17.8073 18.2932 17.5079 18.3122 17.0769C18.3145 17.0256 18.3165 16.9723 18.3186 16.917C18.3344 16.4991 18.3545 15.9643 18.5241 15.3115C18.6063 14.9947 18.6837 14.7059 18.7554 14.4382C18.8685 14.0156 18.9676 13.6456 19.0498 13.301C19.1826 12.7444 19.25 12.3352 19.25 12C19.25 12.0039 19.2501 12.0059 19.2499 12.0059C19.2488 12.0061 19.2387 11.9379 19.1511 11.8078C19.0574 11.6684 18.9026 11.5015 18.6821 11.3401C18.2442 11.0196 17.5859 10.75 16.75 10.75L16.7228 10.75C16.2443 10.75 15.7738 10.75 15.3598 10.7069C14.9366 10.6628 14.4928 10.5675 14.1025 10.3235C13.2481 9.78948 13 8.79354 13 7.5C13 6.46611 12.5917 5.71482 12.0947 5.21783C11.6779 4.80102 11.2339 4.59421 10.9437 4.52618C10.8901 4.61835 10.8244 4.75284 10.7461 4.93903C10.6413 5.18848 10.5322 5.48553 10.4092 5.82482C10.3971 5.85824 10.3849 5.89202 10.3726 5.92614C10.2618 6.23227 10.1413 6.56511 10.0109 6.8983C9.72518 7.62855 9.36594 8.4308 8.88386 9.05843C8.53604 9.51125 8.08078 9.92679 7.5 10.1261L7.5 17.944ZM6 10.25L4.75 10.25C4.61193 10.25 4.5 10.3619 4.5 10.5L4.5 17.5C4.5 17.6381 4.61193 17.75 4.75 17.75L6 17.75L6 10.25ZM11.0325 4.39903C11.0325 4.39953 11.029 4.40378 11.0217 4.41026C11.0289 4.40178 11.0325 4.39854 11.0325 4.39903Z" fill="#262626"/>
</svg>
