<svg width="current" height="current" viewBox="0 0 24 24" fill="none" xmlns="http://www.w3.org/2000/svg">
<path fill-rule="evenodd" clip-rule="evenodd" d="M4.3292 5.16458C5.17256 3.47791 6.97158 3 9.5 3C10.6091 3 12.1539 3.33843 13.5669 3.71247C14.6808 4.00732 15.7741 4.34176 16.5897 4.59128L16.5956 4.59309C16.783 4.65041 16.9557 4.70322 17.1105 4.75L19 4.75C19.9665 4.75 20.75 5.5335 20.75 6.5V13.5C20.75 14.4665 19.9665 15.25 19 15.25H17C16.7034 15.25 16.3983 15.4093 16.0557 15.8553C15.7097 16.3058 15.4127 16.9411 15.1359 17.6483C15.013 17.9623 14.8992 18.2767 14.7876 18.5851L14.751 18.6862C14.6298 19.0207 14.5084 19.3525 14.3867 19.6422C14.2686 19.9233 14.1303 20.2138 13.9632 20.4438C13.8185 20.6429 13.5058 21 13 21C12.2486 21 11.3183 20.5664 10.5947 19.8428C9.84166 19.0898 9.25 17.9661 9.25 16.5C9.25 15.2935 8.99807 15.0395 8.8525 14.9485C8.74283 14.88 8.56157 14.8191 8.23479 14.785C7.90668 14.7508 7.51209 14.75 7 14.75C5.8359 14.75 4.86916 14.3732 4.1821 13.8704C3.84012 13.6202 3.55736 13.3313 3.35428 13.0294C3.15964 12.7401 3.00001 12.3808 3 12C2.99999 11.4836 3.10174 10.9354 3.2411 10.351C3.32722 9.98995 3.43592 9.58372 3.554 9.14244C3.62488 8.8776 3.69933 8.59937 3.7741 8.31147C3.90067 7.82411 3.91561 7.44657 3.93207 7.03044C3.93433 6.97341 3.93661 6.91563 3.93922 6.85677C3.96116 6.36116 4.00784 5.80728 4.3292 5.16458ZM16.25 13.5C16.25 13.9142 16.5858 14.25 17 14.25C17.4142 14.25 17.75 13.9142 17.75 13.5L17.75 6.5C17.75 6.08579 17.4142 5.75 17 5.75C16.5858 5.75 16.25 6.08579 16.25 6.5L16.25 13.5Z" fill="#262626"/>
</svg>
