<svg width="current" height="current" viewBox="0 0 24 24" fill="none" xmlns="http://www.w3.org/2000/svg">
<path fill-rule="evenodd" clip-rule="evenodd" d="M19.4208 18.8354C18.5774 20.5221 16.7784 21 14.25 21C13.1409 21 11.5961 20.6616 10.1831 20.2875C9.06923 19.9927 7.97594 19.6582 7.16027 19.4087L7.15925 19.4084L7.15436 19.4069C6.96696 19.3496 6.79431 19.2968 6.63952 19.25H4.75C3.7835 19.25 3 18.4665 3 17.5V10.5C3 9.5335 3.7835 8.75 4.75 8.75H6.75C7.04658 8.75 7.35168 8.59072 7.69428 8.1447C8.04032 7.69419 8.33733 7.05894 8.61407 6.3517C8.73696 6.03766 8.85076 5.72326 8.96237 5.41491L8.96243 5.41475L8.96244 5.41471L8.99896 5.31385C9.12017 4.97931 9.24155 4.64746 9.36328 4.35784C9.48145 4.07667 9.6197 3.78616 9.78684 3.55616C9.93152 3.35708 10.2442 3 10.75 3C11.5014 3 12.4317 3.43355 13.1553 4.15717C13.9083 4.91017 14.5 6.03389 14.5 7.5C14.5 8.70646 14.7519 8.96052 14.8975 9.0515C15.0072 9.12004 15.1884 9.18093 15.5152 9.21497C15.8433 9.24915 16.2379 9.25 16.75 9.25C17.9141 9.25 18.8808 9.62682 19.5679 10.1296C19.9099 10.3798 20.1926 10.6687 20.3957 10.9705C20.5904 11.2599 20.75 11.6192 20.75 12C20.75 12.5164 20.6483 13.0646 20.5089 13.649C20.4228 14.0101 20.3141 14.4163 20.196 14.8576L20.1959 14.8579L20.1959 14.858L20.1958 14.8581L20.1958 14.8583C20.1249 15.1232 20.0507 15.4006 19.9759 15.6885C19.8493 16.1759 19.8344 16.5534 19.8179 16.9696V16.9696V16.9696C19.8157 17.0266 19.8134 17.0844 19.8108 17.1432C19.7888 17.6388 19.7422 18.1927 19.4208 18.8354ZM7.5 10.5C7.5 10.0858 7.16421 9.75 6.75 9.75C6.33579 9.75 6 10.0858 6 10.5V17.5C6 17.9142 6.33579 18.25 6.75 18.25C7.16421 18.25 7.5 17.9142 7.5 17.5V10.5Z" fill="#262626"/>
</svg>
