<svg width="current" height="current" viewBox="0 0 24 24" fill="none" xmlns="http://www.w3.org/2000/svg">
<path fill-rule="evenodd" clip-rule="evenodd" d="M2 12C2 6.47715 6.47715 2 12 2C17.5228 2 22 6.47715 22 12V12.0037V12.0075V12.0112V12.0149V12.0187V12.0224V12.0262V12.03V12.0337V12.0375V12.0413V12.0451V12.0488V12.0526V12.0564V12.0602V12.064V12.0678V12.0716V12.0755V12.0793V12.0831V12.0869V12.0908V12.0946V12.0985V12.1023V12.1061V12.11V12.1139V12.1177V12.1216V12.1255V12.1293V12.1332V12.1371V12.141V12.1448V12.1487V12.1526V12.1565V12.1604V12.1643V12.1682V12.1721V12.1761V12.18V12.1839V12.1878V12.1917V12.1957V12.1996V12.2035V12.2075V12.2114V12.2153V12.2193V12.2232V12.2272V12.2311V12.2351V12.239V12.243V12.2469V12.2509V12.2549V12.2588V12.2628V12.2668V12.2707V12.2747V12.2787V12.2826V12.2866V12.2906V12.2946V12.2986V12.3025V12.3065V12.3105V12.3145V12.3185V12.3225V12.3265V12.3305V12.3345V12.3384V12.3424V12.3464V12.3504V12.3544V12.3584V12.3624V12.3664V12.3704V12.3744V12.3784V12.3824V12.3864V12.3904V12.3945V12.3985V12.4025V12.4065V12.4105V12.4145V12.4185V12.4225V12.4265V12.4305V12.4345V12.4385V12.4425V12.4465V12.4505V12.4545V12.4585V12.4625V12.4665V12.4705V12.4745V12.4785V12.4825V12.4865V12.4905V12.4945V12.4985V12.5025V12.5065V12.5105V12.5145V12.5185V12.5225V12.5264V12.5304V12.5344V12.5384V12.5424V12.5464V12.5503V12.5543V12.5583V12.5623V12.5662V12.5702V12.5742V12.5782V12.5821V12.5861V12.59V12.594V12.598V12.6019V12.6059V12.6098V12.6138V12.6177V12.6216V12.6256V12.6295V12.6335V12.6374V12.6413V12.6453V12.6492V12.6531V12.657V12.6609V12.6648V12.6688V12.6727V12.6766V12.6805V12.6844V12.6883V12.6921V12.696V12.6999V12.7038V12.7077V12.7116V12.7154V12.7193V12.7232V12.727V12.7309V12.7347V12.7386V12.7424V12.7462V12.7501V12.7539V12.7577V12.7616V12.7654V12.7692V12.773V12.7768V12.7806V12.7844V12.7882V12.792V12.7958V12.7995V12.8033V12.8071V12.8109V12.8146V12.8184V12.8221V12.8259V12.8296V12.8333V12.8371V12.8408V12.8445V12.8482V12.8519V12.8556V12.8593V12.863V12.8667V12.8704V12.874V12.8777V12.8814V12.885V12.8887V12.8923V12.896V12.8996V12.9032V12.9069V12.9105V12.9141V12.9177V12.9213V12.9249V12.9284V12.932V12.9356V12.9392V12.9427V12.9463V12.9498V12.9533V12.9569V12.9604V12.9639V12.9674V12.9709V12.9744V12.9779V12.9814V12.9849V12.9883V12.9918V12.9952V12.9987V13.0021V13.0056V13.009V13.0124V13.0158V13.0192V13.0226V13.026V13.0294V13.0327V13.0361V13.0394V13.0428V13.0461V13.0495V13.0528V13.0561V13.0594V13.0627V13.066V13.0693V13.0725V13.0758V13.079V13.0823V13.0855V13.0887V13.092V13.0952V13.0984V13.1016V13.1048V13.1079V13.1111V13.1143V13.1174V13.1205V13.1237V13.1268V13.1299V13.133V13.1361V13.1392V13.1422V13.1453V13.1484V13.1514V13.1544V13.1575V13.1605V13.1635V13.1665V13.1695V13.1724V13.1754V13.1784V13.1813V13.1842V13.1872V13.1901V13.193V13.1959V13.1987V13.2016V13.2045V13.2073V13.2102V13.213V13.2158V13.2186V13.2214V13.2242V13.227V13.2297V13.2325V13.2352V13.238V13.2407V13.2434V13.2461V13.2488V13.2515V13.2541V13.2568V13.2594V13.262V13.2647V13.2673V13.2699V13.2724V13.275V13.2776V13.2801V13.2826V13.2852V13.2877V13.2902V13.2927V13.2951V13.2976V13.3V13.3025V13.3049V13.3073V13.3097V13.3121V13.3145V13.3168V13.3192V13.3215V13.3238V13.3262V13.3285V13.3307V13.333V13.3353V13.3375V13.3397V13.342V13.3442V13.3464V13.3485V13.3507V13.3529V13.355V13.3571V13.3592V13.3613V13.3634V13.3655V13.3675V13.3696V13.3716V13.3736V13.3756V13.3776V13.3796V13.3816V13.3835V13.3854V13.3874V13.3893V13.3911V13.393V13.3949V13.3967V13.3985V13.4004V13.4022V13.4039V13.4057V13.4075V13.4092V13.4109V13.4127V13.4144V13.416V13.4177V13.4194V13.421V13.4226V13.4242V13.4258V13.4274V13.4289V13.4305V13.432V13.4335V13.435V13.4365V13.438V13.4394V13.4409V13.4423V13.4437V13.4451V13.4464V13.4478V13.4491V13.4505V13.4518V13.453V13.4543V13.4556V13.4568V13.458V13.4592V13.4604V13.4616V13.4628V13.4639V13.465V13.4661V13.4672V13.4683V13.4694V13.4704V13.4714V13.4724V13.4734V13.4744V13.4753V13.4763V13.4772V13.4781V13.479V13.4799V13.4807V13.4815V13.4824V13.4832V13.4839V13.4847V13.4854V13.4862V13.4869V13.4876V13.4882V13.4889V13.4895V13.4901V13.4907V13.4913V13.4919V13.4924V13.4929V13.4935V13.4939V13.4944V13.4949V13.4953V13.4957V13.4961V13.4965V13.4968V13.4972V13.4975V13.4978V13.4981V13.4983V13.4986V13.4988V13.499V13.4992V13.4994V13.4995V13.4996V13.4998V13.4998V13.4999V13.5V13.5C22 15.364 20.489 16.875 18.625 16.875C17.3633 16.875 16.2634 16.1827 15.6842 15.1573C15.6032 15.2346 15.5204 15.3091 15.4368 15.3806C14.9285 15.815 14.3406 16.1781 13.7814 16.4044C13.2303 16.6275 12.6285 16.75 12 16.75C9.37665 16.75 7.25 14.6234 7.25 12C7.25 9.37665 9.37665 7.25 12 7.25C14.6234 7.25 16.75 9.37665 16.75 12V12.0034V12.0069V12.0103V12.0137V12.0171V12.0205V12.0239V12.0273V12.0307V12.0341V12.0375V12.0409V12.0443V12.0477V12.0511V12.0544V12.0578V12.0612V12.0645V12.0679V12.0713V12.0746V12.078V12.0813V12.0847V12.088V12.0913V12.0947V12.098V12.1013V12.1046V12.1079V12.1112V12.1146V12.1179V12.1212V12.1245V12.1278V12.131V12.1343V12.1376V12.1409V12.1442V12.1474V12.1507V12.154V12.1572V12.1605V12.1638V12.167V12.1703V12.1735V12.1768V12.18V12.1832V12.1865V12.1897V12.1929V12.1961V12.1994V12.2026V12.2058V12.209V12.2122V12.2154V12.2186V12.2218V12.225V12.2282V12.2314V12.2346V12.2378V12.2409V12.2441V12.2473V12.2505V12.2536V12.2568V12.2599V12.2631V12.2663V12.2694V12.2726V12.2757V12.2788V12.282V12.2851V12.2883V12.2914V12.2945V12.2976V12.3008V12.3039V12.307V12.3101V12.3132V12.3163V12.3194V12.3225V12.3256V12.3287V12.3318V12.3349V12.338V12.3411V12.3442V12.3472V12.3503V12.3534V12.3565V12.3595V12.3626V12.3657V12.3687V12.3718V12.3748V12.3779V12.3809V12.384V12.387V12.3901V12.3931V12.3962V12.3992V12.4022V12.4053V12.4083V12.4113V12.4143V12.4174V12.4204V12.4234V12.4264V12.4294V12.4324V12.4354V12.4384V12.4414V12.4444V12.4474V12.4504V12.4534V12.4564V12.4594V12.4624V12.4654V12.4683V12.4713V12.4743V12.4773V12.4802V12.4832V12.4862V12.4891V12.4921V12.4951V12.498V12.501V12.5039V12.5069V12.5098V12.5128V12.5157V12.5187V12.5216V12.5246V12.5275V12.5304V12.5334V12.5363V12.5392V12.5422V12.5451V12.548V12.5509V12.5539V12.5568V12.5597V12.5626V12.5655V12.5684V12.5713V12.5742V12.5771V12.5801V12.583V12.5859V12.5888V12.5916V12.5945V12.5974V12.6003V12.6032V12.6061V12.609V12.6119V12.6148V12.6176V12.6205V12.6234V12.6263V12.6291V12.632V12.6349V12.6378V12.6406V12.6435V12.6464V12.6492V12.6521V12.6549V12.6578V12.6607V12.6635V12.6664V12.6692V12.6721V12.6749V12.6778V12.6806V12.6835V12.6863V12.6892V12.692V12.6948V12.6977V12.7005V12.7034V12.7062V12.709V12.7119V12.7147V12.7175V12.7203V12.7232V12.726V12.7288V12.7316V12.7345V12.7373V12.7401V12.7429V12.7457V12.7486V12.7514V12.7542V12.757V12.7598V12.7626V12.7654V12.7682V12.7711V12.7739V12.7767V12.7795V12.7823V12.7851V12.7879V12.7907V12.7935V12.7963V12.7991V12.8019V12.8047V12.8075V12.8103V12.8131V12.8159V12.8186V12.8214V12.8242V12.827V12.8298V12.8326V12.8354V12.8382V12.841V12.8437V12.8465V12.8493V12.8521V12.8549V12.8577V12.8604V12.8632V12.866V12.8688V12.8716V12.8743V12.8771V12.8799V12.8827V12.8854V12.8882V12.891V12.8938V12.8965V12.8993V12.9021V12.9048V12.9076V12.9104V12.9132V12.9159V12.9187V12.9215V12.9242V12.927V12.9298V12.9325V12.9353V12.9381V12.9408V12.9436V12.9464V12.9491V12.9519V12.9547V12.9574V12.9602V12.963V12.9657V12.9685V12.9713V12.974V12.9768V12.9795V12.9823V12.9851V12.9878V12.9906V12.9934V12.9961V12.9989V13.0016V13.0044V13.0072V13.0099V13.0127V13.0154V13.0182V13.021V13.0237V13.0265V13.0293V13.032V13.0348V13.0375V13.0403V13.0431V13.0458V13.0486V13.0513V13.0541V13.0569V13.0596V13.0624V13.0652V13.0679V13.0707V13.0735V13.0762V13.079V13.0817V13.0845V13.0873V13.09V13.0928V13.0956V13.0983V13.1011V13.1039V13.1066V13.1094V13.1122V13.1149V13.1177V13.1205V13.1233V13.126V13.1288V13.1316V13.1343V13.1371V13.1399V13.1427V13.1454V13.1482V13.151V13.1537V13.1565V13.1593V13.1621V13.1649V13.1676V13.1704V13.1732V13.176V13.1787V13.1815V13.1843V13.1871V13.1899V13.1927V13.1954V13.1982V13.201V13.2038V13.2066V13.2094V13.2122V13.215V13.2177V13.2205V13.2233V13.2261V13.2289V13.2317V13.2345V13.2373V13.2401V13.2429V13.2457V13.2485V13.2513V13.2541V13.2569V13.2597V13.2625V13.2653V13.2681V13.2709V13.2738V13.2766V13.2794V13.2822V13.285V13.2878V13.2906V13.2935V13.2963V13.2991V13.3019V13.3047V13.3076V13.3104V13.3132V13.316V13.3189V13.3217V13.3245V13.3273V13.3302V13.333V13.3359V13.3387V13.3415V13.3444V13.3472V13.35V13.3529V13.3557V13.3586V13.3614V13.3643V13.3671V13.37V13.3728V13.3757V13.3785V13.3814V13.3843V13.3871V13.39V13.3929V13.3957V13.3986V13.4015V13.4043V13.4072V13.4101V13.4129V13.4158V13.4187V13.4216V13.4245V13.4273V13.4302V13.4331V13.436V13.4389V13.4418V13.4447V13.4476V13.4505V13.4534V13.4563V13.4592V13.4621V13.465V13.4679V13.4708V13.4737V13.4766V13.4795V13.4825V13.4854V13.4883V13.4912V13.4941V13.4971V13.5C16.75 14.5355 17.5895 15.375 18.625 15.375C19.6605 15.375 20.5 14.5355 20.5 13.5V13.5V13.4999V13.4998V13.4998V13.4996V13.4995V13.4994V13.4992V13.499V13.4988V13.4986V13.4983V13.4981V13.4978V13.4975V13.4972V13.4968V13.4965V13.4961V13.4957V13.4953V13.4949V13.4944V13.4939V13.4935V13.4929V13.4924V13.4919V13.4913V13.4907V13.4901V13.4895V13.4889V13.4882V13.4876V13.4869V13.4862V13.4854V13.4847V13.4839V13.4832V13.4824V13.4815V13.4807V13.4799V13.479V13.4781V13.4772V13.4763V13.4753V13.4744V13.4734V13.4724V13.4714V13.4704V13.4694V13.4683V13.4672V13.4661V13.465V13.4639V13.4628V13.4616V13.4604V13.4592V13.458V13.4568V13.4556V13.4543V13.453V13.4518V13.4505V13.4491V13.4478V13.4464V13.4451V13.4437V13.4423V13.4409V13.4394V13.438V13.4365V13.435V13.4335V13.432V13.4305V13.4289V13.4274V13.4258V13.4242V13.4226V13.421V13.4194V13.4177V13.416V13.4144V13.4127V13.4109V13.4092V13.4075V13.4057V13.4039V13.4022V13.4004V13.3985V13.3967V13.3949V13.393V13.3911V13.3893V13.3874V13.3854V13.3835V13.3816V13.3796V13.3776V13.3756V13.3736V13.3716V13.3696V13.3675V13.3655V13.3634V13.3613V13.3592V13.3571V13.355V13.3529V13.3507V13.3485V13.3464V13.3442V13.342V13.3397V13.3375V13.3353V13.333V13.3307V13.3285V13.3262V13.3238V13.3215V13.3192V13.3168V13.3145V13.3121V13.3097V13.3073V13.3049V13.3025V13.3V13.2976V13.2951V13.2927V13.2902V13.2877V13.2852V13.2826V13.2801V13.2776V13.275V13.2724V13.2699V13.2673V13.2647V13.262V13.2594V13.2568V13.2541V13.2515V13.2488V13.2461V13.2434V13.2407V13.238V13.2352V13.2325V13.2297V13.227V13.2242V13.2214V13.2186V13.2158V13.213V13.2102V13.2073V13.2045V13.2016V13.1987V13.1959V13.193V13.1901V13.1872V13.1842V13.1813V13.1784V13.1754V13.1724V13.1695V13.1665V13.1635V13.1605V13.1575V13.1544V13.1514V13.1484V13.1453V13.1422V13.1392V13.1361V13.133V13.1299V13.1268V13.1237V13.1205V13.1174V13.1143V13.1111V13.1079V13.1048V13.1016V13.0984V13.0952V13.092V13.0887V13.0855V13.0823V13.079V13.0758V13.0725V13.0693V13.066V13.0627V13.0594V13.0561V13.0528V13.0495V13.0461V13.0428V13.0394V13.0361V13.0327V13.0294V13.026V13.0226V13.0192V13.0158V13.0124V13.009V13.0056V13.0021V12.9987V12.9952V12.9918V12.9883V12.9849V12.9814V12.9779V12.9744V12.9709V12.9674V12.9639V12.9604V12.9569V12.9533V12.9498V12.9463V12.9427V12.9392V12.9356V12.932V12.9284V12.9249V12.9213V12.9177V12.9141V12.9105V12.9069V12.9032V12.8996V12.896V12.8923V12.8887V12.885V12.8814V12.8777V12.874V12.8704V12.8667V12.863V12.8593V12.8556V12.8519V12.8482V12.8445V12.8408V12.8371V12.8333V12.8296V12.8259V12.8221V12.8184V12.8146V12.8109V12.8071V12.8033V12.7995V12.7958V12.792V12.7882V12.7844V12.7806V12.7768V12.773V12.7692V12.7654V12.7616V12.7577V12.7539V12.7501V12.7462V12.7424V12.7386V12.7347V12.7309V12.727V12.7232V12.7193V12.7154V12.7116V12.7077V12.7038V12.6999V12.696V12.6921V12.6883V12.6844V12.6805V12.6766V12.6727V12.6688V12.6648V12.6609V12.657V12.6531V12.6492V12.6453V12.6413V12.6374V12.6335V12.6295V12.6256V12.6216V12.6177V12.6138V12.6098V12.6059V12.6019V12.598V12.594V12.59V12.5861V12.5821V12.5782V12.5742V12.5702V12.5662V12.5623V12.5583V12.5543V12.5503V12.5464V12.5424V12.5384V12.5344V12.5304V12.5264V12.5225V12.5185V12.5145V12.5105V12.5065V12.5025V12.4985V12.4945V12.4905V12.4865V12.4825V12.4785V12.4745V12.4705V12.4665V12.4625V12.4585V12.4545V12.4505V12.4465V12.4425V12.4385V12.4345V12.4305V12.4265V12.4225V12.4185V12.4145V12.4105V12.4065V12.4025V12.3985V12.3945V12.3904V12.3864V12.3824V12.3784V12.3744V12.3704V12.3664V12.3624V12.3584V12.3544V12.3504V12.3464V12.3424V12.3384V12.3345V12.3305V12.3265V12.3225V12.3185V12.3145V12.3105V12.3065V12.3025V12.2986V12.2946V12.2906V12.2866V12.2826V12.2787V12.2747V12.2707V12.2668V12.2628V12.2588V12.2549V12.2509V12.2469V12.243V12.239V12.2351V12.2311V12.2272V12.2232V12.2193V12.2153V12.2114V12.2075V12.2035V12.1996V12.1957V12.1917V12.1878V12.1839V12.18V12.1761V12.1721V12.1682V12.1643V12.1604V12.1565V12.1526V12.1487V12.1448V12.141V12.1371V12.1332V12.1293V12.1255V12.1216V12.1177V12.1139V12.11V12.1061V12.1023V12.0985V12.0946V12.0908V12.0869V12.0831V12.0793V12.0755V12.0716V12.0678V12.064V12.0602V12.0564V12.0526V12.0488V12.0451V12.0413V12.0375V12.0337V12.03V12.0262V12.0224V12.0187V12.0149V12.0112V12.0075V12.0037V12C20.5 7.30558 16.6944 3.5 12 3.5C7.30558 3.5 3.5 7.30558 3.5 12C3.5 16.6944 7.30558 20.5 12 20.5C12.4142 20.5 12.75 20.8358 12.75 21.25C12.75 21.6642 12.4142 22 12 22C6.47715 22 2 17.5228 2 12ZM12 8.75C10.2051 8.75 8.75 10.2051 8.75 12C8.75 13.7949 10.2051 15.25 12 15.25C12.4324 15.25 12.8433 15.166 13.2186 15.014C13.6136 14.8542 14.0645 14.5802 14.4622 14.2403C14.812 13.9413 15.0856 13.6213 15.25 13.3236V13.3217V13.3189V13.316V13.3132V13.3104V13.3076V13.3047V13.3019V13.2991V13.2963V13.2935V13.2906V13.2878V13.285V13.2822V13.2794V13.2766V13.2738V13.2709V13.2681V13.2653V13.2625V13.2597V13.2569V13.2541V13.2513V13.2485V13.2457V13.2429V13.2401V13.2373V13.2345V13.2317V13.2289V13.2261V13.2233V13.2205V13.2177V13.215V13.2122V13.2094V13.2066V13.2038V13.201V13.1982V13.1954V13.1927V13.1899V13.1871V13.1843V13.1815V13.1787V13.176V13.1732V13.1704V13.1676V13.1649V13.1621V13.1593V13.1565V13.1537V13.151V13.1482V13.1454V13.1427V13.1399V13.1371V13.1343V13.1316V13.1288V13.126V13.1233V13.1205V13.1177V13.1149V13.1122V13.1094V13.1066V13.1039V13.1011V13.0983V13.0956V13.0928V13.09V13.0873V13.0845V13.0817V13.079V13.0762V13.0735V13.0707V13.0679V13.0652V13.0624V13.0596V13.0569V13.0541V13.0513V13.0486V13.0458V13.0431V13.0403V13.0375V13.0348V13.032V13.0293V13.0265V13.0237V13.021V13.0182V13.0154V13.0127V13.0099V13.0072V13.0044V13.0016V12.9989V12.9961V12.9934V12.9906V12.9878V12.9851V12.9823V12.9795V12.9768V12.974V12.9713V12.9685V12.9657V12.963V12.9602V12.9574V12.9547V12.9519V12.9491V12.9464V12.9436V12.9408V12.9381V12.9353V12.9325V12.9298V12.927V12.9242V12.9215V12.9187V12.9159V12.9132V12.9104V12.9076V12.9048V12.9021V12.8993V12.8965V12.8938V12.891V12.8882V12.8854V12.8827V12.8799V12.8771V12.8743V12.8716V12.8688V12.866V12.8632V12.8604V12.8577V12.8549V12.8521V12.8493V12.8465V12.8437V12.841V12.8382V12.8354V12.8326V12.8298V12.827V12.8242V12.8214V12.8186V12.8159V12.8131V12.8103V12.8075V12.8047V12.8019V12.7991V12.7963V12.7935V12.7907V12.7879V12.7851V12.7823V12.7795V12.7767V12.7739V12.7711V12.7682V12.7654V12.7626V12.7598V12.757V12.7542V12.7514V12.7486V12.7457V12.7429V12.7401V12.7373V12.7345V12.7316V12.7288V12.726V12.7232V12.7203V12.7175V12.7147V12.7119V12.709V12.7062V12.7034V12.7005V12.6977V12.6948V12.692V12.6892V12.6863V12.6835V12.6806V12.6778V12.6749V12.6721V12.6692V12.6664V12.6635V12.6607V12.6578V12.6549V12.6521V12.6492V12.6464V12.6435V12.6406V12.6378V12.6349V12.632V12.6291V12.6263V12.6234V12.6205V12.6176V12.6148V12.6119V12.609V12.6061V12.6032V12.6003V12.5974V12.5945V12.5916V12.5888V12.5859V12.583V12.5801V12.5771V12.5742V12.5713V12.5684V12.5655V12.5626V12.5597V12.5568V12.5539V12.5509V12.548V12.5451V12.5422V12.5392V12.5363V12.5334V12.5304V12.5275V12.5246V12.5216V12.5187V12.5157V12.5128V12.5098V12.5069V12.5039V12.501V12.498V12.4951V12.4921V12.4891V12.4862V12.4832V12.4802V12.4773V12.4743V12.4713V12.4683V12.4654V12.4624V12.4594V12.4564V12.4534V12.4504V12.4474V12.4444V12.4414V12.4384V12.4354V12.4324V12.4294V12.4264V12.4234V12.4204V12.4174V12.4143V12.4113V12.4083V12.4053V12.4022V12.3992V12.3962V12.3931V12.3901V12.387V12.384V12.3809V12.3779V12.3748V12.3718V12.3687V12.3657V12.3626V12.3595V12.3565V12.3534V12.3503V12.3472V12.3442V12.3411V12.338V12.3349V12.3318V12.3287V12.3256V12.3225V12.3194V12.3163V12.3132V12.3101V12.307V12.3039V12.3008V12.2976V12.2945V12.2914V12.2883V12.2851V12.282V12.2788V12.2757V12.2726V12.2694V12.2663V12.2631V12.2599V12.2568V12.2536V12.2505V12.2473V12.2441V12.2409V12.2378V12.2346V12.2314V12.2282V12.225V12.2218V12.2186V12.2154V12.2122V12.209V12.2058V12.2026V12.1994V12.1961V12.1929V12.1897V12.1865V12.1832V12.18V12.1768V12.1735V12.1703V12.167V12.1638V12.1605V12.1572V12.154V12.1507V12.1474V12.1442V12.1409V12.1376V12.1343V12.131V12.1278V12.1245V12.1212V12.1179V12.1146V12.1112V12.1079V12.1046V12.1013V12.098V12.0947V12.0913V12.088V12.0847V12.0813V12.078V12.0746V12.0713V12.0679V12.0645V12.0612V12.0578V12.0544V12.0511V12.0477V12.0443V12.0409V12.0375V12.0341V12.0307V12.0273V12.0239V12.0205V12.0171V12.0137V12.0103V12.0069V12.0034V12C15.25 10.2051 13.7949 8.75 12 8.75Z" fill="#262626"/>
</svg>
