<svg width="current" height="current" viewBox="0 0 24 24" fill="none" xmlns="http://www.w3.org/2000/svg">
<path fill-rule="evenodd" clip-rule="evenodd" d="M11.2369 2.88943C11.3139 2.48244 11.0464 2.09009 10.6394 2.01309C10.2324 1.93609 9.84007 2.2036 9.76307 2.6106L8.79075 7.75001H4.75C4.33579 7.75001 4 8.0858 4 8.50001C4 8.91423 4.33579 9.25001 4.75 9.25001H8.50697L7.46643 14.75H4.75C4.33579 14.75 4 15.0858 4 15.5C4 15.9142 4.33579 16.25 4.75 16.25H7.18264L6.26307 21.1106C6.18607 21.5176 6.45359 21.9099 6.86058 21.9869C7.26758 22.0639 7.65993 21.7964 7.73693 21.3894L8.70925 16.25H13.6826L12.7631 21.1106C12.6861 21.5176 12.9536 21.9099 13.3606 21.9869C13.7676 22.0639 14.1599 21.7964 14.2369 21.3894L15.2093 16.25H19.25C19.6642 16.25 20 15.9142 20 15.5C20 15.0858 19.6642 14.75 19.25 14.75H15.493L16.5336 9.25001H19.25C19.6642 9.25001 20 8.91423 20 8.50001C20 8.0858 19.6642 7.75001 19.25 7.75001H16.8174L17.7369 2.88943C17.8139 2.48244 17.5464 2.09009 17.1394 2.01309C16.7324 1.93609 16.3401 2.2036 16.2631 2.6106L15.2907 7.75001H10.3174L11.2369 2.88943ZM13.9664 14.75L15.007 9.25001H10.0336L8.99303 14.75H13.9664Z" fill="#262626"/>
</svg>
