<svg width="current" height="current" viewBox="0 0 24 24" fill="none" xmlns="http://www.w3.org/2000/svg">
<path fill-rule="evenodd" clip-rule="evenodd" d="M3 6.25C3 4.45507 4.45507 3 6.25 3H17.75C19.5449 3 21 4.45507 21 6.25V17.75C21 19.5449 19.5449 21 17.75 21H6.25C4.45507 21 3 19.5449 3 17.75V6.25ZM6.25 4.5C5.2835 4.5 4.5 5.2835 4.5 6.25V17.75C4.5 18.7165 5.2835 19.5 6.25 19.5H17.75C18.7165 19.5 19.5 18.7165 19.5 17.75V6.25C19.5 5.2835 18.7165 4.5 17.75 4.5H6.25ZM8.75 8.25C8.75 7.83579 9.08579 7.5 9.5 7.5H17C17.4142 7.5 17.75 7.83579 17.75 8.25C17.75 8.66421 17.4142 9 17 9H9.5C9.08579 9 8.75 8.66421 8.75 8.25ZM9.5 15C9.08579 15 8.75 15.3358 8.75 15.75C8.75 16.1642 9.08579 16.5 9.5 16.5H17C17.4142 16.5 17.75 16.1642 17.75 15.75C17.75 15.3358 17.4142 15 17 15H9.5ZM8.75 12C8.75 11.5858 9.08579 11.25 9.5 11.25H17C17.4142 11.25 17.75 11.5858 17.75 12C17.75 12.4142 17.4142 12.75 17 12.75H9.5C9.08579 12.75 8.75 12.4142 8.75 12ZM7 9C7.41421 9 7.75 8.66421 7.75 8.25C7.75 7.83579 7.41421 7.5 7 7.5C6.58579 7.5 6.25 7.83579 6.25 8.25C6.25 8.66421 6.58579 9 7 9ZM7.75 15.75C7.75 16.1642 7.41421 16.5 7 16.5C6.58579 16.5 6.25 16.1642 6.25 15.75C6.25 15.3358 6.58579 15 7 15C7.41421 15 7.75 15.3358 7.75 15.75ZM7 12.75C7.41421 12.75 7.75 12.4142 7.75 12C7.75 11.5858 7.41421 11.25 7 11.25C6.58579 11.25 6.25 11.5858 6.25 12C6.25 12.4142 6.58579 12.75 7 12.75Z" fill="#262626"/>
</svg>
