<svg width="current" height="current" viewBox="0 0 24 24" fill="none" xmlns="http://www.w3.org/2000/svg">
<path fill-rule="evenodd" clip-rule="evenodd" d="M3 8C3.55228 8 4 7.55228 4 7C4 6.44772 3.55228 6 3 6C2.44772 6 2 6.44772 2 7C2 7.55228 2.44772 8 3 8ZM6.25 6.25C5.83579 6.25 5.5 6.58579 5.5 7C5.5 7.41421 5.83579 7.75 6.25 7.75H21.25C21.6642 7.75 22 7.41421 22 7C22 6.58579 21.6642 6.25 21.25 6.25H6.25ZM6.25 16.25C5.83579 16.25 5.5 16.5858 5.5 17C5.5 17.4142 5.83579 17.75 6.25 17.75H21.25C21.6642 17.75 22 17.4142 22 17C22 16.5858 21.6642 16.25 21.25 16.25H6.25ZM5.5 12C5.5 11.5858 5.83579 11.25 6.25 11.25H21.25C21.6642 11.25 22 11.5858 22 12C22 12.4142 21.6642 12.75 21.25 12.75H6.25C5.83579 12.75 5.5 12.4142 5.5 12ZM4 17C4 17.5523 3.55228 18 3 18C2.44772 18 2 17.5523 2 17C2 16.4477 2.44772 16 3 16C3.55228 16 4 16.4477 4 17ZM3 13C3.55228 13 4 12.5523 4 12C4 11.4477 3.55228 11 3 11C2.44772 11 2 11.4477 2 12C2 12.5523 2.44772 13 3 13Z" fill="#262626"/>
</svg>
