<svg width="current" height="current" viewBox="0 0 24 24" fill="none" xmlns="http://www.w3.org/2000/svg">
<path fill-rule="evenodd" clip-rule="evenodd" d="M3 6.25C3 4.45507 4.45507 3 6.25 3H17.75C19.5449 3 21 4.45507 21 6.25V17.75C21 19.5449 19.5449 21 17.75 21H6.25C4.45507 21 3 19.5449 3 17.75V6.25ZM6.25 4.5C5.2835 4.5 4.5 5.2835 4.5 6.25V17.75C4.5 18.7165 5.2835 19.5 6.25 19.5H17.75C18.7165 19.5 19.5 18.7165 19.5 17.75V6.25C19.5 5.2835 18.7165 4.5 17.75 4.5H6.25ZM9.5 7.5C9.08579 7.5 8.75 7.83579 8.75 8.25C8.75 8.66421 9.08579 9 9.5 9H17C17.4142 9 17.75 8.66421 17.75 8.25C17.75 7.83579 17.4142 7.5 17 7.5H9.5ZM8.75 15.75C8.75 15.3358 9.08579 15 9.5 15H17C17.4142 15 17.75 15.3358 17.75 15.75C17.75 16.1642 17.4142 16.5 17 16.5H9.5C9.08579 16.5 8.75 16.1642 8.75 15.75ZM8.75 12C8.75 11.5858 9.08579 11.25 9.5 11.25H17C17.4142 11.25 17.75 11.5858 17.75 12C17.75 12.4142 17.4142 12.75 17 12.75H9.5C9.08579 12.75 8.75 12.4142 8.75 12ZM6.99127 17.2106C6.41536 17.2106 6.00524 16.8791 6 16.4054H6.60035C6.60558 16.5821 6.76963 16.7024 6.99476 16.7042C7.21814 16.7024 7.3787 16.5712 7.37521 16.3799C7.3787 16.1887 7.20767 16.0539 6.9424 16.052H6.69808V15.6076H6.9424C7.17277 15.6094 7.33333 15.48 7.33333 15.2906C7.33333 15.1121 7.1972 14.9864 6.99476 14.9846C6.78708 14.9864 6.62478 15.1102 6.62129 15.2942H6.04887C6.05585 14.8261 6.45375 14.5 6.99825 14.5C7.53751 14.5 7.90749 14.8243 7.90575 15.2542C7.90749 15.5493 7.70156 15.7551 7.41011 15.8006V15.8189C7.79755 15.868 8.00173 16.0994 7.99999 16.4273C8.00173 16.8845 7.58114 17.2106 6.99127 17.2106ZM7.2497 9.63772V7H6.69472L6.06995 7.40805V7.94725L6.63888 7.58292H6.65284V9.63772H7.2497ZM6.03491 12.8707V13.3189H7.90226V12.8161H6.86213V12.7979L7.17976 12.4918C7.726 11.9945 7.86911 11.7413 7.87085 11.4389C7.86911 10.9671 7.49738 10.6447 6.92845 10.6447C6.37173 10.6447 5.99826 10.9799 6.00001 11.5118H6.56545C6.5637 11.2732 6.70855 11.1311 6.92496 11.1293C7.13787 11.1311 7.29319 11.2659 7.29494 11.4863C7.29319 11.6867 7.17103 11.8215 6.95637 12.0255L6.03491 12.8707Z" fill="#262626"/>
</svg>
