<svg width="current" height="current" viewBox="0 0 24 24" fill="none" xmlns="http://www.w3.org/2000/svg">
<path fill-rule="evenodd" clip-rule="evenodd" d="M3.78033 5.59009V8.41821H3.11237V6.21509H3.09674L2.46002 6.60571V6.02759L3.15924 5.59009H3.78033ZM2.09907 12.9568V13.4373H4.18891V12.8982H3.02485V12.8787L3.38032 12.5505C3.99164 12.0173 4.1518 11.7458 4.15375 11.4216C4.1518 10.9158 3.73579 10.5701 3.09907 10.5701C2.47602 10.5701 2.05805 10.9294 2.06 11.4998H2.69282C2.69086 11.2439 2.85297 11.0916 3.09516 11.0896C3.33344 11.0916 3.50727 11.2361 3.50922 11.4724C3.50727 11.6873 3.37055 11.8318 3.13032 12.0505L2.09907 12.9568ZM3.10938 18.4563C2.46484 18.4563 2.00586 18.1008 2 17.593H2.67188C2.67773 17.7825 2.86133 17.9114 3.11328 17.9133C3.36328 17.9114 3.54297 17.7708 3.53906 17.5657C3.54297 17.3606 3.35156 17.2161 3.05469 17.2141H2.78125V16.7375H3.05469C3.3125 16.7395 3.49219 16.6008 3.49219 16.3977C3.49219 16.2063 3.33984 16.0715 3.11328 16.0696C2.88086 16.0715 2.69922 16.2043 2.69531 16.4016H2.05469C2.0625 15.8997 2.50781 15.55 3.11719 15.55C3.7207 15.55 4.13477 15.8977 4.13281 16.3586C4.13477 16.675 3.9043 16.8958 3.57812 16.9446V16.9641C4.01172 17.0168 4.24023 17.2649 4.23828 17.6165C4.24023 18.1067 3.76953 18.4563 3.10938 18.4563ZM5.5 7.00006C5.5 6.58585 5.83579 6.25006 6.25 6.25006H21.25C21.6642 6.25006 22 6.58585 22 7.00006C22 7.41427 21.6642 7.75006 21.25 7.75006H6.25C5.83579 7.75006 5.5 7.41427 5.5 7.00006ZM5.5 17.0001C5.5 16.5858 5.83579 16.2501 6.25 16.2501H21.25C21.6642 16.2501 22 16.5858 22 17.0001C22 17.4143 21.6642 17.7501 21.25 17.7501H6.25C5.83579 17.7501 5.5 17.4143 5.5 17.0001ZM6.25 11.2501C5.83579 11.2501 5.5 11.5858 5.5 12.0001C5.5 12.4143 5.83579 12.7501 6.25 12.7501H21.25C21.6642 12.7501 22 12.4143 22 12.0001C22 11.5858 21.6642 11.2501 21.25 11.2501H6.25Z" fill="#262626"/>
</svg>
