<svg width="current" height="current" viewBox="0 0 24 24" fill="none" xmlns="http://www.w3.org/2000/svg">
<path fill-rule="evenodd" clip-rule="evenodd" d="M18.5409 10.0555C19.8101 8.78629 19.8101 6.7285 18.5409 5.4593C17.2717 4.19009 15.2139 4.19009 13.9447 5.4593L11.1163 8.28772C9.84711 9.55693 9.84711 11.6147 11.1163 12.8839C11.4092 13.1768 11.4092 13.6517 11.1163 13.9446C10.8234 14.2375 10.3485 14.2375 10.0557 13.9446C8.20066 12.0896 8.20066 9.08205 10.0557 7.22706L12.8841 4.39864C14.7391 2.54365 17.7466 2.54365 19.6016 4.39864C21.4566 6.25363 21.4566 9.26116 19.6016 11.1162L18.1874 12.5304C17.8945 12.8233 17.4196 12.8233 17.1267 12.5304C16.8338 12.2375 16.8338 11.7626 17.1267 11.4697L18.5409 10.0555ZM5.45946 13.9446C4.19025 15.2138 4.19025 17.2716 5.45946 18.5408C6.72866 19.81 8.78645 19.81 10.0557 18.5408L12.8841 15.7123C14.1533 14.4431 14.1533 12.3854 12.8841 11.1162C12.5912 10.8233 12.5912 10.3484 12.8841 10.0555C13.177 9.7626 13.6518 9.7626 13.9447 10.0555C15.7997 11.9105 15.7997 14.918 13.9447 16.773L11.1163 19.6014C9.26132 21.4564 6.25379 21.4564 4.3988 19.6014C2.54381 17.7464 2.54381 14.7389 4.3988 12.8839L5.81301 11.4697C6.1059 11.1768 6.58078 11.1768 6.87367 11.4697C7.16656 11.7626 7.16656 12.2375 6.87367 12.5304L5.45946 13.9446Z" fill="#262626"/>
</svg>
