<svg width="current" height="current" viewBox="0 0 24 24" fill="none" xmlns="http://www.w3.org/2000/svg">
<path fill-rule="evenodd" clip-rule="evenodd" d="M7.25 4.5C5.73122 4.5 4.5 5.73122 4.5 7.25C4.5 8.76878 5.73122 10 7.25 10C8.76878 10 10 8.76878 10 7.25C10 5.73122 8.76878 4.5 7.25 4.5ZM3 7.25C3 4.90279 4.90279 3 7.25 3C8.87416 3 10.2855 3.91106 11.0009 5.25H16.5C18.2949 5.25 19.75 6.70507 19.75 8.5V15.5C19.75 16.04 19.6183 16.5493 19.3853 16.9974L20.8301 19.5C21.215 20.1667 20.7339 21 19.9641 21H13.0359C12.2661 21 11.785 20.1667 12.1699 19.5L12.6029 18.75H7.5C5.70507 18.75 4.25 17.2949 4.25 15.5V10.2604C3.47784 9.49089 3 8.42625 3 7.25ZM5.75 11.2277V15.5C5.75 16.4665 6.5335 17.25 7.5 17.25H13.4689L15.634 13.5C16.0189 12.8333 16.9811 12.8333 17.366 13.5L18.25 15.0311V8.5C18.25 7.5335 17.4665 6.75 16.5 6.75H11.4709C11.4901 6.91399 11.5 7.08084 11.5 7.25C11.5 9.59721 9.59721 11.5 7.25 11.5C6.72198 11.5 6.21644 11.4037 5.75 11.2277ZM16.5 15L13.9019 19.5H19.0981L16.5 15Z" fill="#262626"/>
</svg>
