<svg width="current" height="current" viewBox="0 0 24 24" fill="none" xmlns="http://www.w3.org/2000/svg">
<path fill-rule="evenodd" clip-rule="evenodd" d="M3 6.25C3 4.45507 4.45507 3 6.25 3H17.75C19.5449 3 21 4.45507 21 6.25V13.25C21 15.0449 19.5449 16.5 17.75 16.5H6.25C4.45507 16.5 3 15.0449 3 13.25V6.25ZM6.25 4.5C5.2835 4.5 4.5 5.2835 4.5 6.25V10.1893L6.18718 8.50216C6.67534 8.014 7.4668 8.014 7.95495 8.50216L14.0211 14.5683L17.2588 11.3306C17.7469 10.8424 18.5384 10.8424 19.0265 11.3306L19.5 11.8041V6.25C19.5 5.2835 18.7165 4.5 17.75 4.5H6.25ZM19.4024 13.8278L18.1426 12.568L15.7107 15H17.75C18.514 15 19.1637 14.5104 19.4024 13.8278ZM4.5 13.25V12.3107L7.07107 9.73959L12.3315 15H6.25C5.2835 15 4.5 14.2165 4.5 13.25ZM3 20.25C3 19.8358 3.33579 19.5 3.75 19.5H12.25C12.6642 19.5 13 19.8358 13 20.25C13 20.6642 12.6642 21 12.25 21H3.75C3.33579 21 3 20.6642 3 20.25ZM15.25 19.5C14.8358 19.5 14.5 19.8358 14.5 20.25C14.5 20.6642 14.8358 21 15.25 21H20.25C20.6642 21 21 20.6642 21 20.25C21 19.8358 20.6642 19.5 20.25 19.5H15.25ZM15.5 7.5C15.5 6.94772 15.9477 6.5 16.5 6.5C17.0523 6.5 17.5 6.94772 17.5 7.5C17.5 8.05228 17.0523 8.5 16.5 8.5C15.9477 8.5 15.5 8.05228 15.5 7.5ZM16.5 5.5C15.3954 5.5 14.5 6.39543 14.5 7.5C14.5 8.60457 15.3954 9.5 16.5 9.5C17.6046 9.5 18.5 8.60457 18.5 7.5C18.5 6.39543 17.6046 5.5 16.5 5.5Z" fill="#262626"/>
</svg>
