<svg width="current" height="current" viewBox="0 0 24 24" fill="none" xmlns="http://www.w3.org/2000/svg">
<path fill-rule="evenodd" clip-rule="evenodd" d="M9.25 3C7.73122 3 6.5 4.23122 6.5 5.75V6.5H5.75C4.23122 6.5 3 7.73122 3 9.25V18.25C3 19.7688 4.23122 21 5.75 21H14.75C16.2688 21 17.5 19.7688 17.5 18.25V17.5H18.25C19.7688 17.5 21 16.2688 21 14.75V5.75C21 4.23122 19.7688 3 18.25 3H9.25ZM14.75 6.5H8V5.75C8 5.05964 8.55964 4.5 9.25 4.5H18.25C18.9404 4.5 19.5 5.05964 19.5 5.75V14.75C19.5 15.4404 18.9404 16 18.25 16H17.5V9.25C17.5 7.73122 16.2688 6.5 14.75 6.5ZM5.75 8C5.05964 8 4.5 8.55964 4.5 9.25V15.1893L5.62652 14.0628C6.30994 13.3794 7.41798 13.3794 8.1014 14.0628L12.614 18.5754L16 15.1893V9.25C16 8.55964 15.4404 8 14.75 8H5.75ZM14.75 19.5H13.8107L16 17.3107V18.25C16 18.9404 15.4404 19.5 14.75 19.5ZM11.4173 19.5L7.04074 15.1235C6.94311 15.0258 6.78482 15.0258 6.68718 15.1235L4.5 17.3107V18.25C4.5 18.9404 5.05964 19.5 5.75 19.5H11.4173ZM12 11C12 10.4477 12.4477 10 13 10C13.5523 10 14 10.4477 14 11C14 11.5523 13.5523 12 13 12C12.4477 12 12 11.5523 12 11ZM13 9C11.8954 9 11 9.89543 11 11C11 12.1046 11.8954 13 13 13C14.1046 13 15 12.1046 15 11C15 9.89543 14.1046 9 13 9Z" fill="#262626"/>
</svg>
