<svg width="current" height="current" viewBox="0 0 24 24" fill="none" xmlns="http://www.w3.org/2000/svg">
<path fill-rule="evenodd" clip-rule="evenodd" d="M6.25 3C4.45507 3 3 4.45507 3 6.25V17.75C3 19.5449 4.45507 21 6.25 21H17.75C19.5449 21 21 19.5449 21 17.75V6.25C21 4.45507 19.5449 3 17.75 3H6.25ZM4.5 6.25C4.5 5.2835 5.2835 4.5 6.25 4.5H17.75C18.7165 4.5 19.5 5.2835 19.5 6.25V15.5398L19.4372 15.477C18.7538 14.7936 17.6457 14.7936 16.9623 15.477L13.7353 18.7041L6.97271 11.9415C6.29001 11.2588 5.18359 11.2581 4.5 11.9393V6.25ZM18.3765 16.5377L19.5 17.6612V17.75C19.5 18.7165 18.7165 19.5 17.75 19.5H15.0607L18.023 16.5377C18.1206 16.4401 18.2789 16.4401 18.3765 16.5377ZM4.5 14.0606V17.75C4.5 18.7165 5.2835 19.5 6.25 19.5H12.4099L5.91205 13.0021C5.81442 12.9045 5.65613 12.9045 5.5585 13.0021L4.5 14.0606ZM14.25 8.5C14.25 7.80964 14.8096 7.25 15.5 7.25C16.1904 7.25 16.75 7.80964 16.75 8.5C16.75 9.19036 16.1904 9.75 15.5 9.75C14.8096 9.75 14.25 9.19036 14.25 8.5ZM15.5 5.75C13.9812 5.75 12.75 6.98122 12.75 8.5C12.75 10.0188 13.9812 11.25 15.5 11.25C17.0188 11.25 18.25 10.0188 18.25 8.5C18.25 6.98122 17.0188 5.75 15.5 5.75Z" fill="#262626"/>
</svg>
