<svg width="current" height="current" viewBox="0 0 24 24" fill="none" xmlns="http://www.w3.org/2000/svg">
<path fill-rule="evenodd" clip-rule="evenodd" d="M20.1987 3.6224C19.3688 2.79253 18.0233 2.79253 17.1935 3.6224L16.1328 4.68306L15.6909 5.125L11.1831 9.6328C11.0658 9.75002 11 9.90899 11 10.0747V12.1961C11 12.5412 11.2798 12.8211 11.625 12.8211H13.7463C13.9121 12.8211 14.0711 12.7552 14.1883 12.638L18.6961 8.1302L19.138 7.68826L20.1987 6.6276C21.0285 5.79774 21.0285 4.45226 20.1987 3.6224ZM18.6961 6.36244L19.3148 5.74372C19.6565 5.40201 19.6565 4.84799 19.3148 4.50628C18.9731 4.16457 18.4191 4.16457 18.0774 4.50628L17.4586 5.125L18.6961 6.36244ZM16.5747 6.00888L12.25 10.3336L12.25 11.5711H13.4874L17.8122 7.24632L16.5747 6.00888ZM14.93 5L13.4 6.5H6.25C5.2835 6.5 4.5 7.2835 4.5 8.25V17.75C4.5 18.7165 5.2835 19.5 6.25 19.5H15.75C16.7165 19.5 17.5 18.7165 17.5 17.75V10.21L19 8.71L19 17.75C19 19.5449 17.5449 21 15.75 21H6.25C4.45507 21 3 19.5449 3 17.75V8.25C3 6.45507 4.45507 5 6.25 5H14.93Z" fill="#262626"/>
</svg>
