<svg width="current" height="current" viewBox="0 0 24 24" fill="none" xmlns="http://www.w3.org/2000/svg">
<path fill-rule="evenodd" clip-rule="evenodd" d="M19.1987 2.6224C18.3688 1.79253 17.0233 1.79253 16.1935 2.6224L15.1328 3.68306L14.6909 4.125L10.1831 8.6328C10.0658 8.75002 10 8.90899 10 9.07475V11.1961C10 11.5412 10.2798 11.8211 10.625 11.8211H12.7463C12.9121 11.8211 13.0711 11.7552 13.1883 11.638L17.6961 7.1302L18.138 6.68826L19.1987 5.6276C20.0285 4.79774 20.0285 3.45226 19.1987 2.6224ZM17.6961 5.36244L18.3148 4.74372C18.6565 4.40201 18.6565 3.84799 18.3148 3.50628C17.9731 3.16457 17.4191 3.16457 17.0774 3.50628L16.4586 4.125L17.6961 5.36244ZM15.5747 5.00888L11.25 9.33363L11.25 10.5711H12.4874L16.8122 6.24632L15.5747 5.00888ZM7.25 5.5H12.4249L13.9609 4H7.25C5.45507 4 4 5.45507 4 7.25V18.75C4 20.5449 5.45507 22 7.25 22H14.75C16.5449 22 18 20.5449 18 18.75V7.71779L16.5 9.21779V18.75C16.5 19.7165 15.7165 20.5 14.75 20.5H7.25C6.2835 20.5 5.5 19.7165 5.5 18.75V7.25C5.5 6.2835 6.2835 5.5 7.25 5.5ZM7.5 14.375C7.5 14.0298 7.77982 13.75 8.125 13.75H13.875C14.2202 13.75 14.5 14.0298 14.5 14.375C14.5 14.7202 14.2202 15 13.875 15H8.125C7.77982 15 7.5 14.7202 7.5 14.375ZM8.125 16.25C7.77982 16.25 7.5 16.5298 7.5 16.875C7.5 17.2202 7.77982 17.5 8.125 17.5H11.875C12.2202 17.5 12.5 17.2202 12.5 16.875C12.5 16.5298 12.2202 16.25 11.875 16.25H8.125Z" fill="#262626"/>
</svg>
