<svg width="current" height="current" viewBox="0 0 24 24" fill="none" xmlns="http://www.w3.org/2000/svg">
<path fill-rule="evenodd" clip-rule="evenodd" d="M20.0481 4.0481C18.7789 2.77889 16.7211 2.77889 15.4519 4.0481L13.5074 5.99264L12.977 6.52297L3.4511 16.0489C3.31148 16.1885 3.23255 16.3776 3.23144 16.575L3.21143 20.1306C3.2103 20.3309 3.2894 20.5234 3.43109 20.6651C3.57277 20.8068 3.76527 20.8859 3.96564 20.8848L7.52119 20.8648C7.71863 20.8636 7.90768 20.7847 8.04729 20.6451L17.5732 11.1192L18.1036 10.5888L20.0481 8.64429C21.3173 7.37509 21.3173 5.3173 20.0481 4.0481ZM17.5732 8.99784L18.9874 7.58363C19.6709 6.90021 19.6709 5.79217 18.9874 5.10876C18.304 4.42534 17.196 4.42534 16.5126 5.10876L15.0983 6.52297L17.5732 8.99784ZM16.5126 10.0585L14.0377 7.58363L4.72968 16.8916L4.71568 19.3805L7.20456 19.3665L16.5126 10.0585Z" fill="#262626"/>
</svg>
