<svg width="current" height="current" viewBox="0 0 24 24" fill="none" xmlns="http://www.w3.org/2000/svg">
<path fill-rule="evenodd" clip-rule="evenodd" d="M12 20.5C16.6944 20.5 20.5 16.6944 20.5 12C20.5 7.30558 16.6944 3.5 12 3.5C7.30558 3.5 3.5 7.30558 3.5 12C3.5 16.6944 7.30558 20.5 12 20.5ZM12 22C17.5228 22 22 17.5228 22 12C22 6.47715 17.5228 2 12 2C6.47715 2 2 6.47715 2 12C2 17.5228 6.47715 22 12 22ZM13.2474 7.2526C14.0773 6.42274 15.4227 6.42274 16.2526 7.2526C17.0825 8.08247 17.0825 9.42794 16.2526 10.2578L15.1919 11.3185L14.75 11.7604L10.2422 16.2682C10.125 16.3854 9.96601 16.4513 9.80025 16.4513H7.67893C7.33375 16.4513 7.05393 16.1714 7.05393 15.8263V13.705C7.05393 13.5392 7.11978 13.3802 7.23699 13.263L11.7448 8.7552L12.1867 8.31326L13.2474 7.2526ZM15.3687 9.37392L14.75 9.99264L13.5126 8.7552L14.1313 8.13649C14.473 7.79478 15.027 7.79478 15.3687 8.13649C15.7104 8.47819 15.7104 9.03221 15.3687 9.37392ZM8.30393 13.9638L12.6287 9.63909L13.8661 10.8765L9.54137 15.2013H8.30393L8.30393 13.9638Z" fill="#262626"/>
</svg>
