<svg width="current" height="current" viewBox="0 0 24 24" fill="none" xmlns="http://www.w3.org/2000/svg">
<path fill-rule="evenodd" clip-rule="evenodd" d="M5.25 3C4.00736 3 3 4.00736 3 5.25V18.75C3 19.9926 4.00736 21 5.25 21H8.75C9.99264 21 11 19.9926 11 18.75V5.25C11 4.00736 9.99264 3 8.75 3H5.25ZM4.5 5.25C4.5 4.83579 4.83579 4.5 5.25 4.5H8.75C9.16421 4.5 9.5 4.83579 9.5 5.25V18.75C9.5 19.1642 9.16421 19.5 8.75 19.5H5.25C4.83579 19.5 4.5 19.1642 4.5 18.75V5.25ZM15.25 3C14.0074 3 13 4.00736 13 5.25V18.75C13 19.9926 14.0074 21 15.25 21H18.75C19.9926 21 21 19.9926 21 18.75V5.25C21 4.00736 19.9926 3 18.75 3H15.25ZM14.5 5.25C14.5 4.83579 14.8358 4.5 15.25 4.5H18.75C19.1642 4.5 19.5 4.83579 19.5 5.25V18.75C19.5 19.1642 19.1642 19.5 18.75 19.5H15.25C14.8358 19.5 14.5 19.1642 14.5 18.75V5.25Z" fill="#262626"/>
</svg>
