<svg width="current" height="current" viewBox="0 0 24 24" fill="none" xmlns="http://www.w3.org/2000/svg">
<path fill-rule="evenodd" clip-rule="evenodd" d="M21 5.25C21 4.00736 19.9926 3 18.75 3L5.25 3C4.00736 3 3 4.00736 3 5.25L3 8.75C3 9.99264 4.00736 11 5.25 11L18.75 11C19.9926 11 21 9.99264 21 8.75V5.25ZM18.75 4.5C19.1642 4.5 19.5 4.83579 19.5 5.25V8.75C19.5 9.16421 19.1642 9.5 18.75 9.5L5.25 9.5C4.83579 9.5 4.5 9.16421 4.5 8.75L4.5 5.25C4.5 4.83579 4.83579 4.5 5.25 4.5L18.75 4.5ZM21 15.25C21 14.0074 19.9926 13 18.75 13L5.25 13C4.00736 13 3 14.0074 3 15.25L3 18.75C3 19.9926 4.00736 21 5.25 21H18.75C19.9926 21 21 19.9926 21 18.75V15.25ZM18.75 14.5C19.1642 14.5 19.5 14.8358 19.5 15.25V18.75C19.5 19.1642 19.1642 19.5 18.75 19.5H5.25C4.83578 19.5 4.5 19.1642 4.5 18.75L4.5 15.25C4.5 14.8358 4.83579 14.5 5.25 14.5L18.75 14.5Z" fill="#262626"/>
</svg>
