<svg width="current" height="current" viewBox="0 0 24 24" fill="none" xmlns="http://www.w3.org/2000/svg">
<path fill-rule="evenodd" clip-rule="evenodd" d="M8.5 3.75C8.5 3.33579 8.83579 3 9.25 3H20.25C20.6642 3 21 3.33579 21 3.75C21 4.16421 20.6642 4.5 20.25 4.5H15.5V20.25C15.5 20.6642 15.1642 21 14.75 21C14.3358 21 14 20.6642 14 20.25V4.5H9.25C8.83579 4.5 8.5 4.16421 8.5 3.75ZM8.5 20.25V10H11.75C12.1642 10 12.5 9.66421 12.5 9.25C12.5 8.83579 12.1642 8.5 11.75 8.5H3.75C3.33579 8.5 3 8.83579 3 9.25C3 9.66421 3.33579 10 3.75 10H7V20.25C7 20.6642 7.33579 21 7.75 21C8.16421 21 8.5 20.6642 8.5 20.25Z" fill="#262626"/>
</svg>
