<svg width="current" height="current" viewBox="0 0 24 24" fill="none" xmlns="http://www.w3.org/2000/svg">
<path fill-rule="evenodd" clip-rule="evenodd" d="M5.75 7.875C5.75 7.10959 6.28137 6.28181 7.43102 5.60434C8.56356 4.93695 10.1772 4.5 12 4.5C13.8228 4.5 15.4364 4.93695 16.569 5.60434C17.7186 6.28181 18.25 7.10959 18.25 7.875C18.25 8.28921 18.5858 8.625 19 8.625C19.4142 8.625 19.75 8.28921 19.75 7.875C19.75 6.36224 18.7144 5.12752 17.3305 4.31203C15.9296 3.48646 14.0432 3 12 3C9.95679 3 8.07045 3.48646 6.66948 4.31203C5.28563 5.12752 4.25 6.36224 4.25 7.875C4.25 8.56169 4.4634 9.1911 4.8259 9.75H6.84881C6.10074 9.15987 5.75 8.49685 5.75 7.875ZM12 11.25H6.36811H3.75C3.33579 11.25 3 11.5858 3 12C3 12.4142 3.33579 12.75 3.75 12.75H12C13.8228 12.75 15.4364 13.1869 16.569 13.8543C17.7186 14.5318 18.25 15.3596 18.25 16.125C18.25 16.8904 17.7186 17.7182 16.569 18.3957C15.4364 19.063 13.8228 19.5 12 19.5C10.1772 19.5 8.56356 19.063 7.43102 18.3957C6.28137 17.7182 5.75 16.8904 5.75 16.125C5.75 15.7108 5.41421 15.375 5 15.375C4.58579 15.375 4.25 15.7108 4.25 16.125C4.25 17.6378 5.28563 18.8725 6.66948 19.688C8.07045 20.5135 9.95679 21 12 21C14.0432 21 15.9296 20.5135 17.3305 19.688C18.7144 18.8725 19.75 17.6378 19.75 16.125C19.75 14.7242 18.862 13.5619 17.6319 12.75H20.25C20.6642 12.75 21 12.4142 21 12C21 11.5858 20.6642 11.25 20.25 11.25H12Z" fill="#262626"/>
</svg>
