<svg width="current" height="current" viewBox="0 0 24 24" fill="none" xmlns="http://www.w3.org/2000/svg">
<path fill-rule="evenodd" clip-rule="evenodd" d="M2.75 4.5C2.33579 4.5 2 4.83579 2 5.25C2 5.66421 2.33579 6 2.75 6H10.5C10.9142 6 11.25 5.66421 11.25 5.25C11.25 4.83579 10.9142 4.5 10.5 4.5H2.75ZM13.5 4.5C13.0858 4.5 12.75 4.83579 12.75 5.25C12.75 5.66421 13.0858 6 13.5 6H21.25C21.6642 6 22 5.66421 22 5.25C22 4.83579 21.6642 4.5 21.25 4.5H13.5ZM2 9.75C2 9.33579 2.33579 9 2.75 9H10.5C10.9142 9 11.25 9.33579 11.25 9.75C11.25 10.1642 10.9142 10.5 10.5 10.5H2.75C2.33579 10.5 2 10.1642 2 9.75ZM13.5 9C13.0858 9 12.75 9.33579 12.75 9.75C12.75 10.1642 13.0858 10.5 13.5 10.5H21.25C21.6642 10.5 22 10.1642 22 9.75C22 9.33579 21.6642 9 21.25 9H13.5ZM2 14.25C2 13.8358 2.33579 13.5 2.75 13.5H10.5C10.9142 13.5 11.25 13.8358 11.25 14.25C11.25 14.6642 10.9142 15 10.5 15H2.75C2.33579 15 2 14.6642 2 14.25ZM13.5 13.5C13.0858 13.5 12.75 13.8358 12.75 14.25C12.75 14.6642 13.0858 15 13.5 15H21.25C21.6642 15 22 14.6642 22 14.25C22 13.8358 21.6642 13.5 21.25 13.5H13.5ZM2 18.75C2 18.3358 2.33579 18 2.75 18H10.5C10.9142 18 11.25 18.3358 11.25 18.75C11.25 19.1642 10.9142 19.5 10.5 19.5H2.75C2.33579 19.5 2 19.1642 2 18.75ZM13.5 18C13.0858 18 12.75 18.3358 12.75 18.75C12.75 19.1642 13.0858 19.5 13.5 19.5H21.25C21.6642 19.5 22 19.1642 22 18.75C22 18.3358 21.6642 18 21.25 18H13.5Z" fill="#262626"/>
</svg>
