<svg width="current" height="current" viewBox="0 0 24 24" fill="none" xmlns="http://www.w3.org/2000/svg">
<path fill-rule="evenodd" clip-rule="evenodd" d="M14.7498 4.25C14.7498 3.55964 15.3095 3 15.9998 3C16.6902 3 17.2498 3.55964 17.2498 4.25V10.75H19.7498C20.4402 10.75 20.9998 11.3096 20.9998 12C20.9998 12.6904 20.4402 13.25 19.7498 13.25H17.2498V19.75C17.2498 20.4404 16.6902 21 15.9998 21C15.3095 21 14.7498 20.4404 14.7498 19.75V4.25ZM10.9998 5.25C11.6902 5.25 12.2498 5.80964 12.2498 6.5C12.2498 11.8614 9.53415 16.6032 4.7452 18.6703C4.11136 18.9439 3.37576 18.6518 3.10218 18.018C2.82859 17.3842 3.12063 16.6486 3.75447 16.375C7.14298 14.9124 9.31346 11.7014 9.6909 7.75H4.24982C3.55946 7.75 2.99982 7.19036 2.99982 6.5C2.99982 5.80964 3.55946 5.25 4.24982 5.25H10.9998H10.9998Z" fill="#262626"/>
</svg>
