<svg width="current" height="current" viewBox="0 0 24 24" fill="none" xmlns="http://www.w3.org/2000/svg">
<path fill-rule="evenodd" clip-rule="evenodd" d="M3.75 4.5C3.33579 4.5 3 4.83579 3 5.25C3 5.66421 3.33579 6 3.75 6H20.25C20.6642 6 21 5.66421 21 5.25C21 4.83579 20.6642 4.5 20.25 4.5H3.75ZM6.75 9C6.33579 9 6 9.33579 6 9.75C6 10.1642 6.33579 10.5 6.75 10.5H17.25C17.6642 10.5 18 10.1642 18 9.75C18 9.33579 17.6642 9 17.25 9H6.75ZM3 14.25C3 13.8358 3.33579 13.5 3.75 13.5H20.25C20.6642 13.5 21 13.8358 21 14.25C21 14.6642 20.6642 15 20.25 15H3.75C3.33579 15 3 14.6642 3 14.25ZM6.75 18C6.33579 18 6 18.3358 6 18.75C6 19.1642 6.33579 19.5 6.75 19.5H17.25C17.6642 19.5 18 19.1642 18 18.75C18 18.3358 17.6642 18 17.25 18H6.75Z" fill="#262626"/>
</svg>
