<svg width="current" height="current" viewBox="0 0 24 24" fill="none" xmlns="http://www.w3.org/2000/svg">
<path fill-rule="evenodd" clip-rule="evenodd" d="M3.75 4.5C3.33579 4.5 3 4.83579 3 5.25C3 5.66421 3.33579 6 3.75 6H7.25C7.66421 6 8 5.66421 8 5.25C8 4.83579 7.66421 4.5 7.25 4.5H3.75ZM3.75 9C3.33579 9 3 9.33579 3 9.75C3 10.1642 3.33579 10.5 3.75 10.5H7.25C7.66421 10.5 8 10.1642 8 9.75C8 9.33579 7.66421 9 7.25 9H3.75ZM3 14.25C3 13.8358 3.33579 13.5 3.75 13.5H7.25C7.66421 13.5 8 13.8358 8 14.25C8 14.6642 7.66421 15 7.25 15H3.75C3.33579 15 3 14.6642 3 14.25ZM3.75 18C3.33579 18 3 18.3358 3 18.75C3 19.1642 3.33579 19.5 3.75 19.5H7.25C7.66421 19.5 8 19.1642 8 18.75C8 18.3358 7.66421 18 7.25 18H3.75Z" fill="#262626"/>
</svg>
