<svg width="current" height="current" viewBox="0 0 24 24" fill="none" xmlns="http://www.w3.org/2000/svg">
<path fill-rule="evenodd" clip-rule="evenodd" d="M17 2C16.5858 2 16.25 2.33579 16.25 2.75V13.5C16.25 15.8472 14.3472 17.75 12 17.75C9.65279 17.75 7.75 15.8472 7.75 13.5V2.75C7.75 2.33579 7.41421 2 7 2C6.58579 2 6.25 2.33579 6.25 2.75V13.5C6.25 16.6756 8.82436 19.25 12 19.25C15.1756 19.25 17.75 16.6756 17.75 13.5V2.75C17.75 2.33579 17.4142 2 17 2ZM4.75 20.5C4.33579 20.5 4 20.8358 4 21.25C4 21.6642 4.33579 22 4.75 22H19.25C19.6642 22 20 21.6642 20 21.25C20 20.8358 19.6642 20.5 19.25 20.5H4.75Z" fill="#262626"/>
</svg>
