<svg width="current" height="current" viewBox="0 0 24 24" fill="none" xmlns="http://www.w3.org/2000/svg">
<path fill-rule="evenodd" clip-rule="evenodd" d="M7 3.75C7 3.33579 7.33579 3 7.75 3H13.25H14.75H20.25C20.6642 3 21 3.33579 21 3.75C21 4.16421 20.6642 4.5 20.25 4.5H14.4167L11.0833 19.5H16.25C16.6642 19.5 17 19.8358 17 20.25C17 20.6642 16.6642 21 16.25 21H10.75H9.25H3.75C3.33579 21 3 20.6642 3 20.25C3 19.8358 3.33579 19.5 3.75 19.5H9.58333L12.9167 4.5H7.75C7.33579 4.5 7 4.16421 7 3.75Z" fill="#262626"/>
</svg>
