<svg width="current" height="current" viewBox="0 0 24 24" fill="none" xmlns="http://www.w3.org/2000/svg">
<path fill-rule="evenodd" clip-rule="evenodd" d="M3.75 4.5C3.33579 4.5 3 4.83579 3 5.25C3 5.66421 3.33579 6 3.75 6H11.5C11.9142 6 12.25 5.66421 12.25 5.25C12.25 4.83579 11.9142 4.5 11.5 4.5H3.75ZM3 9.75C3 9.33579 3.33579 9 3.75 9H11.5C11.9142 9 12.25 9.33579 12.25 9.75C12.25 10.1642 11.9142 10.5 11.5 10.5H3.75C3.33579 10.5 3 10.1642 3 9.75ZM3 14.25C3 13.8358 3.33579 13.5 3.75 13.5H11.5C11.9142 13.5 12.25 13.8358 12.25 14.25C12.25 14.6642 11.9142 15 11.5 15H3.75C3.33579 15 3 14.6642 3 14.25ZM3 18.75C3 18.3358 3.33579 18 3.75 18H11.5C11.9142 18 12.25 18.3358 12.25 18.75C12.25 19.1642 11.9142 19.5 11.5 19.5H3.75C3.33579 19.5 3 19.1642 3 18.75Z" fill="#262626"/>
</svg>
