<svg width="current" height="current" viewBox="0 0 24 24" fill="none" xmlns="http://www.w3.org/2000/svg">
<path fill-rule="evenodd" clip-rule="evenodd" d="M5.75 5.5C4.7835 5.5 4 6.2835 4 7.25V11C4 11.9665 4.7835 12.75 5.75 12.75H9.5C10.4665 12.75 11.25 11.9665 11.25 11V7.25C11.25 6.2835 10.4665 5.5 9.5 5.5H5.75ZM5.5 7.25C5.5 7.11193 5.61193 7 5.75 7H9.5C9.63807 7 9.75 7.11193 9.75 7.25V11C9.75 11.1381 9.63807 11.25 9.5 11.25H5.75C5.61193 11.25 5.5 11.1381 5.5 11V7.25ZM14.5 5.5C13.5335 5.5 12.75 6.2835 12.75 7.25V11C12.75 11.9665 13.5335 12.75 14.5 12.75H18.25C19.2165 12.75 20 11.9665 20 11V7.25C20 6.2835 19.2165 5.5 18.25 5.5H14.5ZM14.25 7.25C14.25 7.11193 14.3619 7 14.5 7H18.25C18.3881 7 18.5 7.11193 18.5 7.25V11C18.5 11.1381 18.3881 11.25 18.25 11.25H14.5C14.3619 11.25 14.25 11.1381 14.25 11V7.25ZM4 15C4 14.5858 4.33579 14.25 4.75 14.25H10.5C10.9142 14.25 11.25 14.5858 11.25 15C11.25 15.4142 10.9142 15.75 10.5 15.75H4.75C4.33579 15.75 4 15.4142 4 15ZM4.75 17.25C4.33579 17.25 4 17.5858 4 18C4 18.4142 4.33579 18.75 4.75 18.75H8.5C8.91421 18.75 9.25 18.4142 9.25 18C9.25 17.5858 8.91421 17.25 8.5 17.25H4.75ZM12.75 18C12.75 17.5858 13.0858 17.25 13.5 17.25H17.25C17.6642 17.25 18 17.5858 18 18C18 18.4142 17.6642 18.75 17.25 18.75H13.5C13.0858 18.75 12.75 18.4142 12.75 18ZM13.5 14.25C13.0858 14.25 12.75 14.5858 12.75 15C12.75 15.4142 13.0858 15.75 13.5 15.75H19.25C19.6642 15.75 20 15.4142 20 15C20 14.5858 19.6642 14.25 19.25 14.25H13.5Z" fill="#262626"/>
</svg>
