<svg width="current" height="current" viewBox="0 0 24 24" fill="none" xmlns="http://www.w3.org/2000/svg">
<path fill-rule="evenodd" clip-rule="evenodd" d="M6.5 2.25C5.25736 2.25 4.25 3.25736 4.25 4.5V9.75V11V12.25V19.5C4.25 20.7426 5.25736 21.75 6.5 21.75H13.75C17.0637 21.75 19.75 19.0637 19.75 15.75C19.75 13.1719 18.124 10.9736 15.8415 10.1246C16.4139 9.31145 16.75 8.31997 16.75 7.25C16.75 4.48858 14.5114 2.25 11.75 2.25H6.5ZM11.75 9.75C13.1307 9.75 14.25 8.63071 14.25 7.25C14.25 5.86929 13.1307 4.75 11.75 4.75H6.75V9.75H11.75ZM6.75 12.25V19.25H13.75C15.683 19.25 17.25 17.683 17.25 15.75C17.25 13.817 15.683 12.25 13.75 12.25H11.75H6.75Z" fill="#262626"/>
</svg>
