<svg width="current" height="current" viewBox="0 0 24 24" fill="none" xmlns="http://www.w3.org/2000/svg">
<path fill-rule="evenodd" clip-rule="evenodd" d="M3.75 4.5C3.33579 4.5 3 4.83579 3 5.25C3 5.66421 3.33579 6 3.75 6H7.25C7.66421 6 8 5.66421 8 5.25C8 4.83579 7.66421 4.5 7.25 4.5H3.75ZM3.75 9C3.33579 9 3 9.33579 3 9.75C3 10.1642 3.33579 10.5 3.75 10.5H7.25C7.66421 10.5 8 10.1642 8 9.75C8 9.33579 7.66421 9 7.25 9H3.75ZM3 14.25C3 13.8358 3.33579 13.5 3.75 13.5H7.25C7.66421 13.5 8 13.8358 8 14.25C8 14.6642 7.66421 15 7.25 15H3.75C3.33579 15 3 14.6642 3 14.25ZM3.75 18C3.33579 18 3 18.3358 3 18.75C3 19.1642 3.33579 19.5 3.75 19.5H7.25C7.66421 19.5 8 19.1642 8 18.75C8 18.3358 7.66421 18 7.25 18H3.75ZM9.5 5.25C9.5 4.83579 9.83579 4.5 10.25 4.5H13.75C14.1642 4.5 14.5 4.83579 14.5 5.25C14.5 5.66421 14.1642 6 13.75 6H10.25C9.83579 6 9.5 5.66421 9.5 5.25ZM10.25 9C9.83579 9 9.5 9.33579 9.5 9.75C9.5 10.1642 9.83579 10.5 10.25 10.5H13.75C14.1642 10.5 14.5 10.1642 14.5 9.75C14.5 9.33579 14.1642 9 13.75 9H10.25ZM9.5 14.25C9.5 13.8358 9.83579 13.5 10.25 13.5H13.75C14.1642 13.5 14.5 13.8358 14.5 14.25C14.5 14.6642 14.1642 15 13.75 15H10.25C9.83579 15 9.5 14.6642 9.5 14.25ZM10.25 18C9.83579 18 9.5 18.3358 9.5 18.75C9.5 19.1642 9.83579 19.5 10.25 19.5H13.75C14.1642 19.5 14.5 19.1642 14.5 18.75C14.5 18.3358 14.1642 18 13.75 18H10.25ZM16 5.25C16 4.83579 16.3358 4.5 16.75 4.5H20.25C20.6642 4.5 21 4.83579 21 5.25C21 5.66421 20.6642 6 20.25 6H16.75C16.3358 6 16 5.66421 16 5.25ZM16.75 9C16.3358 9 16 9.33579 16 9.75C16 10.1642 16.3358 10.5 16.75 10.5H20.25C20.6642 10.5 21 10.1642 21 9.75C21 9.33579 20.6642 9 20.25 9H16.75ZM16 14.25C16 13.8358 16.3358 13.5 16.75 13.5H20.25C20.6642 13.5 21 13.8358 21 14.25C21 14.6642 20.6642 15 20.25 15H16.75C16.3358 15 16 14.6642 16 14.25ZM16.75 18C16.3358 18 16 18.3358 16 18.75C16 19.1642 16.3358 19.5 16.75 19.5H20.25C20.6642 19.5 21 19.1642 21 18.75C21 18.3358 20.6642 18 20.25 18H16.75Z" fill="#262626"/>
</svg>
