<svg width="current" height="current" viewBox="0 0 24 24" fill="none" xmlns="http://www.w3.org/2000/svg">
<path fill-rule="evenodd" clip-rule="evenodd" d="M5.75 4C4.7835 4 4 4.7835 4 5.75V9.5C4 10.4665 4.7835 11.25 5.75 11.25H9.5C10.4665 11.25 11.25 10.4665 11.25 9.5V5.75C11.25 4.7835 10.4665 4 9.5 4H5.75ZM5.5 5.75C5.5 5.61193 5.61193 5.5 5.75 5.5H9.5C9.63807 5.5 9.75 5.61193 9.75 5.75V9.5C9.75 9.63807 9.63807 9.75 9.5 9.75H5.75C5.61193 9.75 5.5 9.63807 5.5 9.5V5.75ZM5.75 12.75C4.7835 12.75 4 13.5335 4 14.5V18.25C4 19.2165 4.7835 20 5.75 20H9.5C10.4665 20 11.25 19.2165 11.25 18.25V14.5C11.25 13.5335 10.4665 12.75 9.5 12.75H5.75ZM5.5 14.5C5.5 14.3619 5.61193 14.25 5.75 14.25H9.5C9.63807 14.25 9.75 14.3619 9.75 14.5V18.25C9.75 18.3881 9.63807 18.5 9.5 18.5H5.75C5.61193 18.5 5.5 18.3881 5.5 18.25V14.5ZM12.75 8.75C12.75 8.33579 13.0858 8 13.5 8H17.25C17.6642 8 18 8.33579 18 8.75C18 9.16421 17.6642 9.5 17.25 9.5H13.5C13.0858 9.5 12.75 9.16421 12.75 8.75ZM13.5 16.75C13.0858 16.75 12.75 17.0858 12.75 17.5C12.75 17.9142 13.0858 18.25 13.5 18.25H17.25C17.6642 18.25 18 17.9142 18 17.5C18 17.0858 17.6642 16.75 17.25 16.75H13.5ZM12.75 6.25C12.75 5.83579 13.0858 5.5 13.5 5.5H19.25C19.6642 5.5 20 5.83579 20 6.25C20 6.66421 19.6642 7 19.25 7H13.5C13.0858 7 12.75 6.66421 12.75 6.25ZM13.5 14.25C13.0858 14.25 12.75 14.5858 12.75 15C12.75 15.4142 13.0858 15.75 13.5 15.75H19.25C19.6642 15.75 20 15.4142 20 15C20 14.5858 19.6642 14.25 19.25 14.25H13.5Z" fill="#262626"/>
</svg>
