<svg width="current" height="current" viewBox="0 0 24 24" fill="none" xmlns="http://www.w3.org/2000/svg">
<path fill-rule="evenodd" clip-rule="evenodd" d="M12.545 3.37043C12.4558 3.1467 12.24 3 12 3C11.76 3 11.5442 3.1467 11.455 3.37043L7.54214 13.1917C7.42175 13.4939 7.56814 13.8368 7.86911 13.9577C8.17008 14.0786 8.51166 13.9316 8.63205 13.6294L9.7366 10.857H14.2634L15.368 13.6294C15.4883 13.9316 15.8299 14.0786 16.1309 13.9577C16.4319 13.8368 16.5783 13.4939 16.4579 13.1917L12.545 3.37043ZM12 5.17596L13.7939 9.67848H10.2061L12 5.17596ZM4.75 15C3.7835 15 3 15.7835 3 16.75V19.25C3 20.2165 3.7835 21 4.75 21H19.25C20.2165 21 21 20.2165 21 19.25V16.75C21 15.7835 20.2165 15 19.25 15H4.75ZM4.5 16.75C4.5 16.6119 4.61193 16.5 4.75 16.5H19.25C19.3881 16.5 19.5 16.6119 19.5 16.75V19.25C19.5 19.3881 19.3881 19.5 19.25 19.5H4.75C4.61193 19.5 4.5 19.3881 4.5 19.25V16.75Z" fill="#262626"/>
</svg>
