<svg width="current" height="current" viewBox="0 0 24 24" fill="none" xmlns="http://www.w3.org/2000/svg">
<path fill-rule="evenodd" clip-rule="evenodd" d="M12 2C11.5858 2 11.25 2.33579 11.25 2.75V10.1893L5.98957 4.92891C5.69668 4.63601 5.22181 4.63601 4.92891 4.92891C4.63602 5.2218 4.63602 5.69667 4.92891 5.98957L10.1893 11.25H2.75C2.33579 11.25 2 11.5858 2 12C2 12.4142 2.33579 12.75 2.75 12.75H10.1893L4.92891 18.0104C4.63601 18.3033 4.63601 18.7782 4.92891 19.0711C5.2218 19.364 5.69667 19.364 5.98957 19.0711L11.25 13.8107V21.25C11.25 21.6642 11.5858 22 12 22C12.4142 22 12.75 21.6642 12.75 21.25V13.8107L18.0104 19.071C18.3033 19.3639 18.7782 19.3639 19.071 19.071C19.3639 18.7781 19.3639 18.3033 19.071 18.0104L13.8107 12.75H21.25C21.6642 12.75 22 12.4142 22 12C22 11.5858 21.6642 11.25 21.25 11.25H13.8107L19.071 5.98961C19.3639 5.69672 19.3639 5.22184 19.071 4.92895C18.7781 4.63606 18.3033 4.63606 18.0104 4.92895L12.75 10.1893V2.75C12.75 2.33579 12.4142 2 12 2Z" fill="#262626"/>
</svg>
