<svg width="current" height="current" viewBox="0 0 24 24" fill="none" xmlns="http://www.w3.org/2000/svg">
<path fill-rule="evenodd" clip-rule="evenodd" d="M3 5.25C3 4.83579 3.33579 4.5 3.75 4.5H20.25C20.6642 4.5 21 4.83579 21 5.25C21 5.66421 20.6642 6 20.25 6H3.75C3.33579 6 3 5.66421 3 5.25ZM10 9.75C10 9.33579 10.3358 9 10.75 9H20.25C20.6642 9 21 9.33579 21 9.75C21 10.1642 20.6642 10.5 20.25 10.5H10.75C10.3358 10.5 10 10.1642 10 9.75ZM10.75 13.5C10.3358 13.5 10 13.8358 10 14.25C10 14.6642 10.3358 15 10.75 15H20.25C20.6642 15 21 14.6642 21 14.25C21 13.8358 20.6642 13.5 20.25 13.5H10.75ZM3 18.75C3 18.3358 3.33579 18 3.75 18H20.25C20.6642 18 21 18.3358 21 18.75C21 19.1642 20.6642 19.5 20.25 19.5H3.75C3.33579 19.5 3 19.1642 3 18.75ZM3.25678 11.5846C2.91441 11.7558 2.91441 12.2442 3.25678 12.4154L7.32775 14.4504C7.6366 14.6048 8 14.3802 8 14.035V9.965C8 9.61977 7.6366 9.39524 7.32775 9.54963L3.25678 11.5846Z" fill="#262626"/>
</svg>
