<svg width="current" height="current" viewBox="0 0 24 24" fill="none" xmlns="http://www.w3.org/2000/svg">
<path fill-rule="evenodd" clip-rule="evenodd" d="M3 6.25C3 4.45507 4.45507 3 6.25 3H8H8.75H15H17.75C19.5449 3 21 4.45507 21 6.25V13.75C21 15.3351 19.8652 16.6552 18.3636 16.9422V19.5H20.25C20.6642 19.5 21 19.8358 21 20.25C21 20.6642 20.6642 21 20.25 21H17.75H15.5H6.25H5.75C4.23122 21 3 19.7688 3 18.25C3 18.1693 3.00348 18.0894 3.01029 18.0105C3.00347 17.9246 3 17.8377 3 17.75V6.25ZM6.25 19.5C5.37575 19.5 4.65123 18.8589 4.52089 18.0212C4.62837 17.4401 5.13779 17 5.75 17H8H8.75H15.5H16.8636V19.5H15.5H6.25ZM15.5 15.5H17.6136H17.75C18.7165 15.5 19.5 14.7165 19.5 13.75V6.25C19.5 5.2835 18.7165 4.5 17.75 4.5H15H9.5V15.5H15.5ZM8 15.5V4.5H6.25C5.2835 4.5 4.5 5.2835 4.5 6.25V15.7999C4.87503 15.6081 5.29989 15.5 5.75 15.5H8ZM11.5 7.25C11.5 6.83579 11.8358 6.5 12.25 6.5H16.75C17.1642 6.5 17.5 6.83579 17.5 7.25C17.5 7.66421 17.1642 8 16.75 8H12.25C11.8358 8 11.5 7.66421 11.5 7.25ZM12.25 9.5C11.8358 9.5 11.5 9.83579 11.5 10.25C11.5 10.6642 11.8358 11 12.25 11H16.75C17.1642 11 17.5 10.6642 17.5 10.25C17.5 9.83579 17.1642 9.5 16.75 9.5H12.25Z" fill="#262626"/>
</svg>
