<svg width="current" height="current" viewBox="0 0 24 24" fill="none" xmlns="http://www.w3.org/2000/svg">
<path fill-rule="evenodd" clip-rule="evenodd" d="M7.35352 5.5H7.25C6.2835 5.5 5.5 6.2835 5.5 7.25V18.75C5.5 19.7165 6.2835 20.5 7.25 20.5H16.75C17.7165 20.5 18.5 19.7165 18.5 18.75V7.25C18.5 6.2835 17.7165 5.5 16.75 5.5H16.6465C16.32 6.65425 15.2588 7.5 14 7.5H10C8.74122 7.5 7.67998 6.65425 7.35352 5.5ZM16.6465 4H16.75C18.5449 4 20 5.45507 20 7.25V18.75C20 20.5449 18.5449 22 16.75 22H7.25C5.45507 22 4 20.5449 4 18.75V7.25C4 5.45507 5.45507 4 7.25 4H7.35352C7.67998 2.84575 8.74122 2 10 2H14C15.2588 2 16.32 2.84575 16.6465 4ZM8.75 4.75C8.75 4.05964 9.30964 3.5 10 3.5H14C14.6904 3.5 15.25 4.05964 15.25 4.75C15.25 5.44036 14.6904 6 14 6H10C9.30964 6 8.75 5.44036 8.75 4.75ZM8.5 10.5C8.5 10.9142 8.16421 11.25 7.75 11.25C7.33579 11.25 7 10.9142 7 10.5C7 10.0858 7.33579 9.75 7.75 9.75C8.16421 9.75 8.5 10.0858 8.5 10.5ZM7.75 14.75C8.16421 14.75 8.5 14.4142 8.5 14C8.5 13.5858 8.16421 13.25 7.75 13.25C7.33579 13.25 7 13.5858 7 14C7 14.4142 7.33579 14.75 7.75 14.75ZM8.5 17.5C8.5 17.9142 8.16421 18.25 7.75 18.25C7.33579 18.25 7 17.9142 7 17.5C7 17.0858 7.33579 16.75 7.75 16.75C8.16421 16.75 8.5 17.0858 8.5 17.5ZM10.25 9.75C9.83579 9.75 9.5 10.0858 9.5 10.5C9.5 10.9142 9.83579 11.25 10.25 11.25H16.25C16.6642 11.25 17 10.9142 17 10.5C17 10.0858 16.6642 9.75 16.25 9.75H10.25ZM9.5 14C9.5 13.5858 9.83579 13.25 10.25 13.25H16.25C16.6642 13.25 17 13.5858 17 14C17 14.4142 16.6642 14.75 16.25 14.75H10.25C9.83579 14.75 9.5 14.4142 9.5 14ZM10.25 16.75C9.83579 16.75 9.5 17.0858 9.5 17.5C9.5 17.9142 9.83579 18.25 10.25 18.25H16.25C16.6642 18.25 17 17.9142 17 17.5C17 17.0858 16.6642 16.75 16.25 16.75H10.25Z" fill="#262626"/>
</svg>
