<svg width="current" height="current" viewBox="0 0 24 24" fill="none" xmlns="http://www.w3.org/2000/svg">
<path fill-rule="evenodd" clip-rule="evenodd" d="M7.25 5.5H7.35352C7.67998 6.65425 8.74122 7.5 10 7.5H14C15.2588 7.5 16.32 6.65425 16.6465 5.5H16.75C17.7165 5.5 18.5 6.2835 18.5 7.25V18.75C18.5 19.7165 17.7165 20.5 16.75 20.5H7.25C6.2835 20.5 5.5 19.7165 5.5 18.75V7.25C5.5 6.2835 6.2835 5.5 7.25 5.5ZM16.75 4H16.6465C16.32 2.84575 15.2588 2 14 2H10C8.74122 2 7.67998 2.84575 7.35352 4H7.25C5.45507 4 4 5.45507 4 7.25V18.75C4 20.5449 5.45507 22 7.25 22H16.75C18.5449 22 20 20.5449 20 18.75V7.25C20 5.45507 18.5449 4 16.75 4ZM10 3.5C9.30964 3.5 8.75 4.05964 8.75 4.75C8.75 5.44036 9.30964 6 10 6H14C14.6904 6 15.25 5.44036 15.25 4.75C15.25 4.05964 14.6904 3.5 14 3.5H10ZM14.5921 12.2902C14.8215 12.0322 14.7982 11.6372 14.5402 11.4079C14.2822 11.1786 13.8872 11.2018 13.6579 11.4598L11.4583 13.9343L10.5921 12.9598C10.3628 12.7018 9.96777 12.6786 9.70978 12.9079C9.45179 13.1372 9.42855 13.5322 9.65788 13.7902L10.9912 15.2902C11.1098 15.4237 11.2798 15.5 11.4583 15.5C11.6369 15.5 11.8069 15.4237 11.9255 15.2902L14.5921 12.2902Z" fill="#262626"/>
</svg>
