<svg width="current" height="current" viewBox="0 0 24 24" fill="none" xmlns="http://www.w3.org/2000/svg">
<path fill-rule="evenodd" clip-rule="evenodd" d="M2 7.25C2 5.45507 3.45507 4 5.25 4H18.75C20.5449 4 22 5.45507 22 7.25V16.75C22 18.5449 20.5449 20 18.75 20H5.25C3.45507 20 2 18.5449 2 16.75V7.25ZM5.25 5.5C4.2835 5.5 3.5 6.2835 3.5 7.25V16.75C3.5 17.7165 4.2835 18.5 5.25 18.5H18.75C19.7165 18.5 20.5 17.7165 20.5 16.75V7.25C20.5 6.2835 19.7165 5.5 18.75 5.5H5.25ZM9.5 10C9.5 10.8284 8.82843 11.5 8 11.5C7.17157 11.5 6.5 10.8284 6.5 10C6.5 9.17157 7.17157 8.5 8 8.5C8.82843 8.5 9.5 9.17157 9.5 10ZM6.25 12.5C5.83579 12.5 5.5 12.8358 5.5 13.25V13.5C5.5 14.6046 6.39543 15.5 7.5 15.5H8.5C9.60457 15.5 10.5 14.6046 10.5 13.5V13.25C10.5 12.8358 10.1642 12.5 9.75 12.5H6.25ZM12.5 10.25C12.5 9.83579 12.8358 9.5 13.25 9.5H17.75C18.1642 9.5 18.5 9.83579 18.5 10.25C18.5 10.6642 18.1642 11 17.75 11H13.25C12.8358 11 12.5 10.6642 12.5 10.25ZM13.25 13C12.8358 13 12.5 13.3358 12.5 13.75C12.5 14.1642 12.8358 14.5 13.25 14.5H17.75C18.1642 14.5 18.5 14.1642 18.5 13.75C18.5 13.3358 18.1642 13 17.75 13H13.25Z" fill="#262626"/>
</svg>
