<svg width="current" height="current" viewBox="0 0 24 24" fill="none" xmlns="http://www.w3.org/2000/svg">
<path fill-rule="evenodd" clip-rule="evenodd" d="M5.5 4.24001C5.5 3.55517 6.05517 3 6.74001 3H18.5C19.8807 3 21 4.11929 21 5.5V17.25C21 17.9404 20.4404 18.5 19.75 18.5V6.74001C19.75 5.35929 18.6307 4.24001 17.25 4.24001H5.5ZM6.25 5.5C4.45507 5.5 3 6.95507 3 8.75V17.75C3 19.5449 4.45507 21 6.25 21H15.25C17.0449 21 18.5 19.5449 18.5 17.75V8.75C18.5 6.95507 17.0449 5.5 15.25 5.5H6.25ZM4.5 8.75C4.5 7.7835 5.2835 7 6.25 7H15.25C16.2165 7 17 7.7835 17 8.75V17.75C17 18.7165 16.2165 19.5 15.25 19.5H6.25C5.2835 19.5 4.5 18.7165 4.5 17.75V8.75Z" fill="#262626"/>
</svg>
