<svg width="current" height="current" viewBox="0 0 24 24" fill="none" xmlns="http://www.w3.org/2000/svg">
<path fill-rule="evenodd" clip-rule="evenodd" d="M5.54839 5.25C5.54839 4.2835 6.35716 3.5 7.35484 3.5H11.2258V9.5C11.2258 11.2949 12.7278 12.75 14.5806 12.75H18.4516V18.75C18.4516 19.7165 17.6428 20.5 16.6452 20.5H7.35484C6.35716 20.5 5.54839 19.7165 5.54839 18.75V5.25ZM17.669 11.25L12.7742 4.98394V9.5C12.7742 10.4665 13.583 11.25 14.5806 11.25H17.669ZM7.35484 2C5.50201 2 4 3.45507 4 5.25V18.75C4 20.5449 5.50201 22 7.35484 22H16.6452C18.498 22 20 20.5449 20 18.75V12C20 11.8366 19.9449 11.6777 19.8432 11.5474L12.6173 2.29742C12.471 2.11008 12.2425 2 12 2H7.35484Z" fill="#262626"/>
</svg>
