<svg width="current" height="current" viewBox="0 0 24 24" fill="none" xmlns="http://www.w3.org/2000/svg">
<path fill-rule="evenodd" clip-rule="evenodd" d="M5.25 5.5C4.2835 5.5 3.5 6.2835 3.5 7.25V16.75C3.5 17.7165 4.2835 18.5 5.25 18.5H18.75C19.7165 18.5 20.5 17.7165 20.5 16.75V10C20.5 9.0335 19.7165 8.25 18.75 8.25H15.1486C13.9287 8.25 12.8173 7.54899 12.2919 6.44805C12.0154 5.86882 11.4307 5.5 10.7889 5.5H5.25ZM2 7.25C2 5.45507 3.45507 4 5.25 4H10.7889C12.0088 4 13.1202 4.70101 13.6456 5.80195C13.9221 6.38118 14.5068 6.75 15.1486 6.75H18.75C20.5449 6.75 22 8.20507 22 10V16.75C22 18.5449 20.5449 20 18.75 20H5.25C3.45507 20 2 18.5449 2 16.75V7.25Z" fill="#262626"/>
</svg>
