<svg width="current" height="current" viewBox="0 0 24 24" fill="none" xmlns="http://www.w3.org/2000/svg">
<path fill-rule="evenodd" clip-rule="evenodd" d="M4.5 9.5V4.5H5.82295L7.6118 5.39443C7.75066 5.46386 7.90377 5.5 8.05902 5.5H9.5V9.5H4.5ZM4 3C3.44771 3 3 3.44772 3 4V10C3 10.5523 3.44772 11 4 11H10C10.5523 11 11 10.5523 11 10V5C11 4.44772 10.5523 4 10 4H8.17705L6.3882 3.10557C6.24934 3.03615 6.09623 3 5.94098 3H4ZM4.5 19.5V14.5H5.82295L7.6118 15.3944C7.75066 15.4639 7.90377 15.5 8.05902 15.5H9.5V19.5H4.5ZM4 13C3.44771 13 3 13.4477 3 14V20C3 20.5523 3.44772 21 4 21H10C10.5523 21 11 20.5523 11 20V15C11 14.4477 10.5523 14 10 14H8.17705L6.3882 13.1056C6.24934 13.0361 6.09623 13 5.94098 13H4ZM14.5 4.5V9.5H19.5V5.5H18.059C17.9038 5.5 17.7507 5.46386 17.6118 5.39443L15.8229 4.5H14.5ZM13 4C13 3.44772 13.4477 3 14 3H15.941C16.0962 3 16.2493 3.03615 16.3882 3.10557L18.1771 4H20C20.5523 4 21 4.44772 21 5V10C21 10.5523 20.5523 11 20 11H14C13.4477 11 13 10.5523 13 10V4ZM14.5 19.5V14.5H15.8229L17.6118 15.3944C17.7507 15.4639 17.9038 15.5 18.059 15.5H19.5V19.5H14.5ZM14 13C13.4477 13 13 13.4477 13 14V20C13 20.5523 13.4477 21 14 21H20C20.5523 21 21 20.5523 21 20V15C21 14.4477 20.5523 14 20 14H18.1771L16.3882 13.1056C16.2493 13.0361 16.0962 13 15.941 13H14Z" fill="#262626"/>
</svg>
