<svg width="current" height="current" viewBox="0 0 24 24" fill="none" xmlns="http://www.w3.org/2000/svg">
<path fill-rule="evenodd" clip-rule="evenodd" d="M5.25 4.5C4.2835 4.5 3.5 5.2835 3.5 6.25V15.75C3.5 16.7165 4.2835 17.5 5.25 17.5H10.3135C10.4858 18.0335 10.7253 18.5368 11.0218 19H5.25C3.45507 19 2 17.5449 2 15.75V6.25C2 4.45507 3.45507 3 5.25 3H10.7889C12.0088 3 13.1202 3.70101 13.6456 4.80195C13.9221 5.38118 14.5068 5.75 15.1486 5.75H18.75C20.5449 5.75 22 7.20507 22 9V12.0343C21.5987 11.3987 21.0902 10.8376 20.5 10.3762V9C20.5 8.0335 19.7165 7.25 18.75 7.25H15.1486C13.9287 7.25 12.8173 6.54899 12.2919 5.44805C12.0154 4.86882 11.4307 4.5 10.7889 4.5H5.25ZM19.5052 18.5052C21.1649 16.8455 21.1649 14.1545 19.5052 12.4948C17.8455 10.8351 15.1545 10.8351 13.4948 12.4948C11.8351 14.1545 11.8351 16.8455 13.4948 18.5052C15.1545 20.1649 17.8455 20.1649 19.5052 18.5052ZM12.6109 19.3891C14.7588 21.537 18.2412 21.537 20.3891 19.3891C22.537 17.2412 22.537 13.7588 20.3891 11.6109C18.2412 9.46303 14.7588 9.46303 12.6109 11.6109C10.463 13.7588 10.463 17.2412 12.6109 19.3891ZM16.5 18.5999C16.1548 18.5999 15.875 18.3201 15.875 17.9749V16.125H14.0251C13.6799 16.125 13.4001 15.8452 13.4001 15.5C13.4001 15.1548 13.6799 14.875 14.0251 14.875H15.875L15.875 13.0251C15.875 12.6799 16.1548 12.4001 16.5 12.4001C16.8452 12.4001 17.125 12.6799 17.125 13.0251V14.875H18.9749C19.3201 14.875 19.5999 15.1548 19.5999 15.5C19.5999 15.8452 19.3201 16.125 18.9749 16.125H17.125V17.9749C17.125 18.3201 16.8452 18.5999 16.5 18.5999Z" fill="#262626"/>
</svg>
