<svg width="current" height="current" viewBox="0 0 24 24" fill="none" xmlns="http://www.w3.org/2000/svg">
<path fill-rule="evenodd" clip-rule="evenodd" d="M5.25 5.25C5.25 3.45507 6.70507 2 8.5 2H15.5C17.2949 2 18.75 3.45507 18.75 5.25V18.75C18.75 20.5449 17.2949 22 15.5 22H8.5C6.70507 22 5.25 20.5449 5.25 18.75V5.25ZM8.5 3.5C7.5335 3.5 6.75 4.2835 6.75 5.25V18.75C6.75 19.7165 7.5335 20.5 8.5 20.5H15.5C16.4665 20.5 17.25 19.7165 17.25 18.75V5.25C17.25 4.2835 16.4665 3.5 15.5 3.5H8.5ZM8.5 5.75C8.5 5.33579 8.83579 5 9.25 5H14.75C15.1642 5 15.5 5.33579 15.5 5.75C15.5 6.16421 15.1642 6.5 14.75 6.5H9.25C8.83579 6.5 8.5 6.16421 8.5 5.75ZM9.25 8C8.83579 8 8.5 8.33579 8.5 8.75C8.5 9.16421 8.83579 9.5 9.25 9.5H14.75C15.1642 9.5 15.5 9.16421 15.5 8.75C15.5 8.33579 15.1642 8 14.75 8H9.25ZM8.5 11.75C8.5 11.3358 8.83579 11 9.25 11H11.75C12.1642 11 12.5 11.3358 12.5 11.75C12.5 12.1642 12.1642 12.5 11.75 12.5H9.25C8.83579 12.5 8.5 12.1642 8.5 11.75ZM9.25 17.5C8.83579 17.5 8.5 17.8358 8.5 18.25C8.5 18.6642 8.83579 19 9.25 19H11.75C12.1642 19 12.5 18.6642 12.5 18.25C12.5 17.8358 12.1642 17.5 11.75 17.5H9.25Z" fill="#262626"/>
</svg>
