<svg width="current" height="current" viewBox="0 0 24 24" fill="none" xmlns="http://www.w3.org/2000/svg">
<path fill-rule="evenodd" clip-rule="evenodd" d="M7.75 3H7V3.75V7.5V15.7999C6.62497 15.6081 6.20011 15.5 5.75 15.5C4.23122 15.5 3 16.7312 3 18.25C3 19.7688 4.23122 21 5.75 21C7.26878 21 8.5 19.7688 8.5 18.25V8.25H19.5V15.7999C19.125 15.6081 18.7001 15.5 18.25 15.5C16.7312 15.5 15.5 16.7312 15.5 18.25C15.5 19.7688 16.7312 21 18.25 21C19.7688 21 21 19.7688 21 18.25V8.25V7.5V3.75V3H20.25H7.75ZM19.5 4.5H8.5V6.75H19.5V4.5ZM5.75 17C6.44036 17 7 17.5596 7 18.25C7 18.9404 6.44036 19.5 5.75 19.5C5.05964 19.5 4.5 18.9404 4.5 18.25C4.5 17.5596 5.05964 17 5.75 17ZM18.25 17C18.9404 17 19.5 17.5596 19.5 18.25C19.5 18.9404 18.9404 19.5 18.25 19.5C17.5596 19.5 17 18.9404 17 18.25C17 17.5596 17.5596 17 18.25 17Z" fill="#262626"/>
</svg>
