<svg width="current" height="current" viewBox="0 0 24 24" fill="none" xmlns="http://www.w3.org/2000/svg">
<path fill-rule="evenodd" clip-rule="evenodd" d="M3 6.25C3 4.45507 4.45507 3 6.25 3H17.75C19.5449 3 21 4.45507 21 6.25V12V14.0625C21 14.2614 20.921 14.4522 20.7803 14.5928L14.5928 20.7803C14.4522 20.921 14.2614 21 14.0625 21H12H6.25C4.45507 21 3 19.5449 3 17.75V6.25ZM6.25 4.5C5.2835 4.5 4.5 5.2835 4.5 6.25V17.75C4.5 18.7165 5.2835 19.5 6.25 19.5H12H13.3125V16.5625C13.3125 14.7676 14.7676 13.3125 16.5625 13.3125H19.5V12V6.25C19.5 5.2835 18.7165 4.5 17.75 4.5H6.25ZM18.4393 14.8125H16.5625C15.596 14.8125 14.8125 15.596 14.8125 16.5625V18.4393L18.4393 14.8125ZM7 7.75C7 7.33579 7.33579 7 7.75 7H16.25C16.6642 7 17 7.33579 17 7.75C17 8.16421 16.6642 8.5 16.25 8.5H7.75C7.33579 8.5 7 8.16421 7 7.75ZM7.75 10.5C7.33579 10.5 7 10.8358 7 11.25C7 11.6642 7.33579 12 7.75 12H11.75C12.1642 12 12.5 11.6642 12.5 11.25C12.5 10.8358 12.1642 10.5 11.75 10.5H7.75Z" fill="#262626"/>
</svg>
