<svg width="current" height="current" viewBox="0 0 24 24" fill="none" xmlns="http://www.w3.org/2000/svg">
<path fill-rule="evenodd" clip-rule="evenodd" d="M3 4.75C3 3.7835 3.7835 3 4.75 3H19.25C20.2165 3 21 3.7835 21 4.75V6.75C21 7.7165 20.2165 8.5 19.25 8.5H4.75C3.7835 8.5 3 7.7165 3 6.75V4.75ZM4.75 4.5C4.61193 4.5 4.5 4.61193 4.5 4.75V6.75C4.5 6.88807 4.61193 7 4.75 7H19.25C19.3881 7 19.5 6.88807 19.5 6.75V4.75C19.5 4.61193 19.3881 4.5 19.25 4.5H4.75ZM3 11.25C3 10.2835 3.7835 9.5 4.75 9.5H11.75C12.7165 9.5 13.5 10.2835 13.5 11.25V19.25C13.5 20.2165 12.7165 21 11.75 21H4.75C3.7835 21 3 20.2165 3 19.25V11.25ZM4.75 11C4.61193 11 4.5 11.1119 4.5 11.25V19.25C4.5 19.3881 4.61193 19.5 4.75 19.5H11.75C11.8881 19.5 12 19.3881 12 19.25V11.25C12 11.1119 11.8881 11 11.75 11H4.75ZM16.25 9.5C15.2835 9.5 14.5 10.2835 14.5 11.25V19.25C14.5 20.2165 15.2835 21 16.25 21H19.25C20.2165 21 21 20.2165 21 19.25V11.25C21 10.2835 20.2165 9.5 19.25 9.5H16.25ZM16 11.25C16 11.1119 16.1119 11 16.25 11H19.25C19.3881 11 19.5 11.1119 19.5 11.25V19.25C19.5 19.3881 19.3881 19.5 19.25 19.5H16.25C16.1119 19.5 16 19.3881 16 19.25V11.25Z" fill="#262626"/>
</svg>
