<svg width="current" height="current" viewBox="0 0 24 24" fill="none" xmlns="http://www.w3.org/2000/svg">
<path fill-rule="evenodd" clip-rule="evenodd" d="M5.25 5.25C3.45507 5.25 2 6.70507 2 8.5V15.5C2 17.2949 3.45507 18.75 5.25 18.75H18.75C20.5449 18.75 22 17.2949 22 15.5V8.5C22 6.70507 20.5449 5.25 18.75 5.25H5.25ZM3.5 8.5C3.5 7.5335 4.2835 6.75 5.25 6.75H18.75C19.7165 6.75 20.5 7.5335 20.5 8.5V15.5C20.5 16.4665 19.7165 17.25 18.75 17.25H5.25C4.2835 17.25 3.5 16.4665 3.5 15.5V8.5ZM6.5 9.25C6.5 8.83579 6.83579 8.5 7.25 8.5C7.66421 8.5 8 8.83579 8 9.25V11H9.5V9.25C9.5 8.83579 9.83579 8.5 10.25 8.5C10.6642 8.5 11 8.83579 11 9.25V14.75C11 15.1642 10.6642 15.5 10.25 15.5C9.83579 15.5 9.5 15.1642 9.5 14.75V12.5H8H7.5C6.94772 12.5 6.5 12.0523 6.5 11.5V11V9.25ZM12.75 9.25197C12.75 8.83667 13.0867 8.5 13.502 8.5C13.9173 8.5 14.2539 8.83667 14.2539 9.25197V10.6875L16.2163 8.73033C16.51 8.43743 16.9861 8.43743 17.2798 8.73033C17.5734 9.02322 17.5734 9.49809 17.2798 9.79099L15.0595 12.0054L17.2796 14.2197C17.5733 14.5126 17.5733 14.9874 17.2796 15.2803C16.986 15.5732 16.5099 15.5732 16.2162 15.2803L14.2539 13.3232V14.748C14.2539 15.1633 13.9173 15.5 13.502 15.5C13.0867 15.5 12.75 15.1633 12.75 14.748V9.25197Z" fill="#262626"/>
</svg>
