<svg width="current" height="current" viewBox="0 0 24 24" fill="none" xmlns="http://www.w3.org/2000/svg">
<path fill-rule="evenodd" clip-rule="evenodd" d="M9.75 3C9.33579 3 9 3.33579 9 3.75C9 4.16421 9.33579 4.5 9.75 4.5H14.25C14.6642 4.5 15 4.16421 15 3.75C15 3.33579 14.6642 3 14.25 3H9.75ZM7 6C7 5.58579 7.33579 5.25 7.75 5.25H16.25C16.6642 5.25 17 5.58579 17 6C17 6.41421 16.6642 6.75 16.25 6.75H7.75C7.33579 6.75 7 6.41421 7 6ZM6.25 7.5C4.45507 7.5 3 8.95507 3 10.75V17.75C3 19.5449 4.45507 21 6.25 21H17.75C19.5449 21 21 19.5449 21 17.75V10.75C21 8.95507 19.5449 7.5 17.75 7.5H6.25ZM4.5 10.75C4.5 9.7835 5.2835 9 6.25 9H17.75C18.7165 9 19.5 9.7835 19.5 10.75V17.75C19.5 18.7165 18.7165 19.5 17.75 19.5H6.25C5.2835 19.5 4.5 18.7165 4.5 17.75V10.75ZM10.3911 10.86C10.1596 10.7186 9.86975 10.7131 9.63313 10.8459C9.39651 10.9786 9.25 11.2287 9.25 11.5V17C9.25 17.2713 9.39651 17.5214 9.63313 17.6541C9.86975 17.7869 10.1596 17.7814 10.3911 17.64L14.8911 14.89C15.114 14.7537 15.25 14.5113 15.25 14.25C15.25 13.9887 15.114 13.7463 14.8911 13.61L10.3911 10.86ZM13.0617 14.25L10.75 15.6627V12.8373L13.0617 14.25Z" fill="#262626"/>
</svg>
