<svg width="current" height="current" viewBox="0 0 24 24" fill="none" xmlns="http://www.w3.org/2000/svg">
<path fill-rule="evenodd" clip-rule="evenodd" d="M5.25 4C3.45507 4 2 5.45507 2 7.25V16.75C2 18.5449 3.45507 20 5.25 20H18.75C20.5449 20 22 18.5449 22 16.75V7.25C22 5.45507 20.5449 4 18.75 4H5.25ZM3.5 7.25C3.5 6.2835 4.2835 5.5 5.25 5.5H18.75C19.7165 5.5 20.5 6.2835 20.5 7.25V16.75C20.5 17.7165 19.7165 18.5 18.75 18.5H5.25C4.2835 18.5 3.5 17.7165 3.5 16.75V7.25ZM10.3859 8.35688C10.1542 8.21786 9.86561 8.21422 9.63048 8.34735C9.39534 8.48048 9.25 8.7298 9.25 9V15C9.25 15.2702 9.39534 15.5195 9.63048 15.6526C9.86561 15.7858 10.1542 15.7821 10.3859 15.6431L15.3859 12.6431C15.6118 12.5076 15.75 12.2634 15.75 12C15.75 11.7366 15.6118 11.4924 15.3859 11.3569L10.3859 8.35688ZM13.5423 12L10.75 13.6754V10.3246L13.5423 12Z" fill="#262626"/>
</svg>
