<svg width="current" height="current" viewBox="0 0 24 24" fill="none" xmlns="http://www.w3.org/2000/svg">
<path fill-rule="evenodd" clip-rule="evenodd" d="M5.25 5.25C3.45507 5.25 2 6.70507 2 8.5V15.5C2 17.2949 3.45507 18.75 5.25 18.75H18.75C20.5449 18.75 22 17.2949 22 15.5V8.5C22 6.70507 20.5449 5.25 18.75 5.25H5.25ZM3.5 8.5C3.5 7.5335 4.2835 6.75 5.25 6.75H18.75C19.7165 6.75 20.5 7.5335 20.5 8.5V15.5C20.5 16.4665 19.7165 17.25 18.75 17.25H5.25C4.2835 17.25 3.5 16.4665 3.5 15.5V8.5ZM5.25 10.75C5.25 9.50736 6.25736 8.5 7.5 8.5H10.5C10.9142 8.5 11.25 8.83579 11.25 9.25C11.25 9.66421 10.9142 10 10.5 10H7.5C7.08579 10 6.75 10.3358 6.75 10.75C6.75 11.1642 7.08579 11.5 7.5 11.5H9.25C10.3546 11.5 11.25 12.3954 11.25 13.5C11.25 14.6046 10.3546 15.5 9.25 15.5H6C5.58579 15.5 5.25 15.1642 5.25 14.75C5.25 14.3358 5.58579 14 6 14H9.25C9.52614 14 9.75 13.7761 9.75 13.5C9.75 13.2239 9.52614 13 9.25 13H7.5C6.25736 13 5.25 11.9926 5.25 10.75ZM12.75 9.75C12.75 9.05964 13.3096 8.5 14 8.5H15.25C17.183 8.5 18.75 10.067 18.75 12C18.75 13.933 17.183 15.5 15.25 15.5H14C13.3096 15.5 12.75 14.9404 12.75 14.25V9.75ZM14.25 10V14H15.25C16.3546 14 17.25 13.1046 17.25 12C17.25 10.8954 16.3546 10 15.25 10H14.25Z" fill="#262626"/>
</svg>
