<svg width="current" height="current" viewBox="0 0 24 24" fill="none" xmlns="http://www.w3.org/2000/svg">
<path fill-rule="evenodd" clip-rule="evenodd" d="M2 8.5C2 6.70507 3.45507 5.25 5.25 5.25H18.75C20.5449 5.25 22 6.70507 22 8.5V15.5C22 17.2949 20.5449 18.75 18.75 18.75H5.25C3.45507 18.75 2 17.2949 2 15.5V8.5ZM5.25 6.75C4.2835 6.75 3.5 7.5335 3.5 8.5V15.5C3.5 16.4665 4.2835 17.25 5.25 17.25H18.75C19.7165 17.25 20.5 16.4665 20.5 15.5V8.5C20.5 7.5335 19.7165 6.75 18.75 6.75H5.25ZM9 10.25C8.0335 10.25 7.25 11.0335 7.25 12C7.25 12.9665 8.0335 13.75 9 13.75C9.3949 13.75 9.7573 13.6201 10.0497 13.4004C10.3809 13.1516 10.8511 13.2183 11.0999 13.5495C11.3487 13.8807 11.2819 14.3508 10.9508 14.5996C10.4074 15.0078 9.73092 15.25 9 15.25C7.20507 15.25 5.75 13.7949 5.75 12C5.75 10.2051 7.20507 8.75 9 8.75C9.73092 8.75 10.4074 8.99219 10.9508 9.40038C11.2819 9.64919 11.3487 10.1193 11.0999 10.4505C10.8511 10.7817 10.3809 10.8484 10.0497 10.5996C9.7573 10.3799 9.3949 10.25 9 10.25ZM14.25 12C14.25 11.0335 15.0335 10.25 16 10.25C16.3949 10.25 16.7573 10.3799 17.0497 10.5996C17.3809 10.8484 17.8511 10.7817 18.0999 10.4505C18.3487 10.1193 18.2819 9.64919 17.9508 9.40038C17.4074 8.99219 16.7309 8.75 16 8.75C14.2051 8.75 12.75 10.2051 12.75 12C12.75 13.7949 14.2051 15.25 16 15.25C16.7309 15.25 17.4074 15.0078 17.9508 14.5996C18.2819 14.3508 18.3487 13.8807 18.0999 13.5495C17.8511 13.2183 17.3809 13.1516 17.0497 13.4004C16.7573 13.6201 16.3949 13.75 16 13.75C15.0335 13.75 14.25 12.9665 14.25 12Z" fill="#262626"/>
</svg>
