<svg width="current" height="current" viewBox="0 0 24 24" fill="none" xmlns="http://www.w3.org/2000/svg">
<path d="M19.0301 9.14118C17.8012 9.88235 17.0422 11.1529 17.0422 12.5647C17.0422 14.1529 18.0181 15.6 19.5 16.2C19.2108 17.1176 18.7771 17.9647 18.2349 18.7412C17.4398 19.8353 16.6084 20.9647 15.3795 20.9647C14.1506 20.9647 13.7892 20.2588 12.3434 20.2588C10.9337 20.2588 10.4277 21 9.27108 21C8.11446 21 7.31928 19.9765 6.41566 18.7059C5.22289 16.9412 4.53614 14.8941 4.5 12.7412C4.5 9.24706 6.81325 7.37647 9.12651 7.37647C10.3554 7.37647 11.3675 8.15294 12.1265 8.15294C12.8494 8.15294 14.006 7.34118 15.3795 7.34118C16.8253 7.30588 18.1988 7.97647 19.0301 9.14118ZM14.7289 5.85882C15.3434 5.15294 15.6687 4.27059 15.7048 3.35294C15.7048 3.24706 15.7048 3.10588 15.6687 3C14.6205 3.10588 13.6446 3.6 12.9578 4.37647C12.3434 5.04706 11.9819 5.89412 11.9458 6.81176C11.9458 6.91765 11.9458 7.02353 11.9819 7.12941C12.0542 7.12941 12.1627 7.16471 12.2349 7.16471C13.2108 7.09412 14.1145 6.6 14.7289 5.85882Z" fill="#262626"/>
</svg>
