<svg width="current" height="current" viewBox="0 0 24 24" fill="none" xmlns="http://www.w3.org/2000/svg">
<path fill-rule="evenodd" clip-rule="evenodd" d="M15.6943 7.92545C14.7426 7.03364 13.532 6.57954 12.1837 6.57954C9.79174 6.57954 7.76716 8.16273 7.04499 10.29L7.04498 10.29C6.86131 10.83 6.75696 11.4068 6.75696 11.9999C6.75696 12.5931 6.86132 13.1699 7.04499 13.7099C7.76716 15.8373 9.79174 17.4205 12.1837 17.4205C13.4193 17.4205 14.4712 17.1014 15.2936 16.5614L15.2936 16.5614C16.2662 15.9232 16.9133 14.97 17.1262 13.845H12.1837V10.3636H20.833C20.9416 10.9527 21 11.5664 21 12.2046C21 14.9455 19.9982 17.2527 18.2616 18.8196H18.2616L18.2616 18.8196C16.7421 20.1941 14.6633 21 12.1837 21C8.59369 21 5.48794 18.9832 3.97681 16.0418L3.97681 16.0418C3.35482 14.8268 3 13.4522 3 11.9999C2.99943 10.5964 3.33395 9.21229 3.97681 7.95813H3.97683C5.48797 5.01679 8.59371 3 12.1837 3C14.6591 3 16.7379 3.89182 18.3284 5.34409L15.6943 7.92545Z" fill="#262626"/>
</svg>
