<svg width="current" height="current" viewBox="0 0 24 24" fill="none" xmlns="http://www.w3.org/2000/svg">
<path d="M20.9999 12.2046C20.9999 11.5664 20.9415 10.9527 20.8329 10.3636H12.1836V13.845H17.1261C16.9132 14.97 16.2662 15.9232 15.2935 16.5614V18.8196H18.2615C19.9981 17.2527 20.9999 14.9455 20.9999 12.2046Z" fill="#4285F4"/>
<path d="M12.1834 21C14.663 21 16.7419 20.194 18.2613 18.8195L15.2934 16.5613C14.471 17.1013 13.419 17.4204 12.1834 17.4204C9.7915 17.4204 7.76691 15.8372 7.04474 13.71H3.97656V16.0418C5.48769 18.9831 8.59344 21 12.1834 21Z" fill="#34A853"/>
<path d="M7.04499 13.7099C6.86132 13.1699 6.75696 12.5931 6.75696 11.9999C6.75696 11.4068 6.86132 10.8299 7.04499 10.2899V7.95813H3.97681C3.33395 9.21229 2.99943 10.5964 3 11.9999C3 13.4522 3.35482 14.8268 3.97681 16.0418L7.04499 13.7099Z" fill="#FBBC05"/>
<path d="M12.1834 6.57954C13.5318 6.57954 14.7423 7.03364 15.6941 7.92545L18.3281 5.34409C16.7377 3.89182 14.6588 3 12.1834 3C8.59344 3 5.48769 5.01682 3.97656 7.95818L7.04474 10.29C7.76691 8.16273 9.7915 6.57954 12.1834 6.57954Z" fill="#EA4335"/>
</svg>
