<svg width="current" height="current" viewBox="0 0 24 24" fill="none" xmlns="http://www.w3.org/2000/svg">
<path d="M8.27259 3.06294C7.31499 3.10812 6.66105 3.26094 6.08937 3.48559C5.4977 3.71617 4.99622 4.02559 4.49726 4.52635C3.9983 5.02711 3.69104 5.52895 3.46208 6.12151C3.2405 6.69446 3.09037 7.34894 3.04807 8.30708C3.00577 9.26523 2.99641 9.57321 3.00109 12.0173C3.00577 14.4613 3.01657 14.7677 3.06301 15.7278C3.10873 16.6852 3.26102 17.339 3.48566 17.9108C3.7166 18.5025 4.02566 19.0038 4.5266 19.5029C5.02754 20.0021 5.52902 20.3086 6.12303 20.5379C6.69543 20.7592 7.35009 20.91 8.30805 20.9519C9.26602 20.9939 9.57436 21.0036 12.0177 20.9989C14.461 20.9942 14.7686 20.9834 15.7286 20.9379C16.6885 20.8924 17.3389 20.739 17.9109 20.5154C18.5026 20.284 19.0042 19.9754 19.503 19.4743C20.0018 18.9732 20.3089 18.471 20.5377 17.8781C20.7594 17.3057 20.9101 16.651 20.9517 15.6938C20.9936 14.7331 21.0035 14.4264 20.9988 11.9827C20.9941 9.53901 20.9832 9.23265 20.9376 8.27288C20.8921 7.31312 20.7396 6.66134 20.5152 6.08911C20.2839 5.49745 19.9752 4.99651 19.4744 4.49701C18.9736 3.99751 18.4711 3.69061 17.8783 3.46237C17.3056 3.24078 16.6513 3.08976 15.6933 3.04836C14.7353 3.00696 14.427 2.99634 11.9828 3.00102C9.53854 3.0057 9.23254 3.01614 8.27259 3.06294ZM8.37771 19.3328C7.50021 19.2947 7.02375 19.1489 6.70623 19.0268C6.28575 18.8648 5.98623 18.669 5.66978 18.3556C5.35334 18.0422 5.15894 17.7416 4.99478 17.3221C4.87148 17.0045 4.72298 16.5286 4.68194 15.6511C4.6373 14.7027 4.62794 14.4179 4.62272 12.0151C4.6175 9.61227 4.62668 9.32787 4.66826 8.37908C4.7057 7.5023 4.8524 7.0253 4.97426 6.70796C5.13626 6.28694 5.33138 5.98795 5.64548 5.67169C5.95958 5.35543 6.25929 5.16067 6.67923 4.99651C6.99639 4.87267 7.47231 4.72543 8.34945 4.68367C9.2986 4.63867 9.583 4.62967 11.9855 4.62445C14.3879 4.61923 14.6731 4.62823 15.6226 4.66999C16.4993 4.70815 16.9765 4.85341 17.2935 4.97599C17.7142 5.13799 18.0135 5.33257 18.3298 5.64721C18.646 5.96185 18.841 6.26048 19.0051 6.68132C19.1292 6.99758 19.2764 7.47332 19.3178 8.351C19.363 9.30015 19.3732 9.58473 19.3776 11.987C19.3819 14.3893 19.3734 14.6746 19.3318 15.623C19.2935 16.5005 19.1481 16.9772 19.0258 17.2951C18.8638 17.7154 18.6685 18.0151 18.3542 18.3311C18.04 18.6472 17.7406 18.842 17.3205 19.0061C17.0037 19.1298 16.5272 19.2774 15.6508 19.3192C14.7017 19.3638 14.4173 19.3732 12.0139 19.3784C9.61054 19.3836 9.32704 19.3739 8.37789 19.3328M15.7147 7.18982C15.7151 7.40344 15.7788 7.61215 15.8978 7.78957C16.0167 7.96698 16.1857 8.10513 16.3832 8.18653C16.5807 8.26793 16.7979 8.28894 17.0073 8.24689C17.2168 8.20484 17.409 8.10162 17.5598 7.95029C17.7106 7.79896 17.8131 7.60632 17.8544 7.39673C17.8956 7.18714 17.8738 6.97001 17.7917 6.77281C17.7096 6.5756 17.5708 6.40719 17.393 6.28885C17.2151 6.17052 17.0062 6.10759 16.7926 6.10801C16.5062 6.10859 16.2318 6.22287 16.0296 6.42574C15.8275 6.62861 15.7142 6.90345 15.7147 7.18982ZM7.37889 12.009C7.38393 14.5614 9.45682 16.6258 12.0087 16.621C14.5606 16.6161 16.6264 14.5434 16.6216 11.991C16.6167 9.43857 14.5433 7.3736 11.991 7.37864C9.43882 7.38368 7.37403 9.45693 7.37889 12.009ZM8.99998 12.0057C8.9988 11.4124 9.17361 10.832 9.50228 10.338C9.83096 9.84398 10.2987 9.45853 10.8465 9.23037C11.3942 9.00222 11.9973 8.94162 12.5795 9.05622C13.1617 9.17083 13.6968 9.4555 14.1172 9.87423C14.5376 10.293 14.8244 10.827 14.9413 11.4087C15.0582 11.9904 15 12.5937 14.774 13.1424C14.548 13.691 14.1644 14.1603 13.6717 14.491C13.179 14.8216 12.5993 14.9987 12.006 14.9999C11.612 15.0007 11.2217 14.9239 10.8574 14.7739C10.4931 14.6238 10.1619 14.4035 9.88277 14.1255C9.60363 13.8474 9.38199 13.5171 9.23052 13.1534C9.07905 12.7897 9.00071 12.3997 8.99998 12.0057Z" fill="#262626"/>
</svg>
