<svg width="current" height="current" viewBox="0 0 24 24" fill="none" xmlns="http://www.w3.org/2000/svg">
<path d="M15.9184 6C14.4425 6 13.2887 7.11523 12.2443 8.53192C10.809 6.69858 9.60873 6 8.17232 6C5.24381 6 3 9.82345 3 13.8703C3 16.4028 4.22122 18 6.26673 18C7.73896 18 8.79778 17.3037 10.6801 14.0028C10.6801 14.0028 11.4648 12.6127 12.0045 11.6551C12.1937 11.9615 12.3929 12.2916 12.6022 12.6455L13.4849 14.1352C15.2043 17.0217 16.1623 18 17.8983 18C19.891 18 21 16.3809 21 13.7959C21 9.55862 18.7056 6 15.9184 6ZM9.24473 13.109C7.71861 15.509 7.19065 16.0469 6.34097 16.0469C5.46655 16.0469 4.94684 15.2768 4.94684 13.9034C4.94684 10.9655 6.40697 7.96138 8.14757 7.96138C9.09016 7.96138 9.87785 8.5075 11.0844 10.2403C9.93873 12.0033 9.24473 13.109 9.24473 13.109ZM15.0045 12.8068L13.9492 11.0411C13.6636 10.5751 13.3891 10.1461 13.1258 9.75429C14.0769 8.28147 14.8615 7.54759 15.7947 7.54759C17.7333 7.54759 19.2841 10.411 19.2841 13.9283C19.2841 15.269 18.8464 16.0469 17.9395 16.0469C17.0703 16.0469 16.655 15.471 15.0045 12.8068Z" fill="#262626"/>
</svg>
