<svg width="current" height="current" viewBox="0 0 24 24" fill="none" xmlns="http://www.w3.org/2000/svg">
<path fill-rule="evenodd" clip-rule="evenodd" d="M6.25 3C4.45507 3 3 4.45507 3 6.25V17.75C3 19.5449 4.45507 21 6.25 21H17.75C19.5449 21 21 19.5449 21 17.75V6.25C21 4.45507 19.5449 3 17.75 3H6.25ZM4.5 6.25C4.5 5.2835 5.2835 4.5 6.25 4.5H17.75C18.7165 4.5 19.5 5.2835 19.5 6.25V6.75H4.5V6.25ZM4.5 8.25V17.75C4.5 18.7165 5.2835 19.5 6.25 19.5H17.75C18.7165 19.5 19.5 18.7165 19.5 17.75V8.25H4.5ZM9 15.75V11.75C9 11.0596 8.44036 10.5 7.75 10.5C7.05964 10.5 6.5 11.0596 6.5 11.75V15.75C6.5 16.4404 7.05964 17 7.75 17C8.44036 17 9 16.4404 9 15.75ZM13.25 11.75C13.25 11.0596 12.6904 10.5 12 10.5C11.3096 10.5 10.75 11.0596 10.75 11.75V15.75C10.75 16.4404 11.3096 17 12 17C12.6904 17 13.25 16.4404 13.25 15.75V11.75ZM17.5 15.75V11.75C17.5 11.0596 16.9404 10.5 16.25 10.5C15.5596 10.5 15 11.0596 15 11.75V15.75C15 16.4404 15.5596 17 16.25 17C16.9404 17 17.5 16.4404 17.5 15.75Z" fill="#262626"/>
</svg>
