<svg width="current" height="current" viewBox="0 0 24 24" fill="none" xmlns="http://www.w3.org/2000/svg">
<path fill-rule="evenodd" clip-rule="evenodd" d="M3 6.25C3 4.45507 4.45507 3 6.25 3H17.75C19.5449 3 21 4.45507 21 6.25V17.75C21 19.5449 19.5449 21 17.75 21H6.25C4.45507 21 3 19.5449 3 17.75V6.25ZM6.25 4.5C5.2835 4.5 4.5 5.2835 4.5 6.25V6.75H19.5V6.25C19.5 5.2835 18.7165 4.5 17.75 4.5H6.25ZM4.5 17.75V8.25H19.5V17.75C19.5 18.7165 18.7165 19.5 17.75 19.5H6.25C5.2835 19.5 4.5 18.7165 4.5 17.75ZM7.75 13C8.44036 13 9 12.4404 9 11.75C9 11.0596 8.44036 10.5 7.75 10.5C7.05964 10.5 6.5 11.0596 6.5 11.75C6.5 12.4404 7.05964 13 7.75 13ZM12 13C12.6904 13 13.25 12.4404 13.25 11.75C13.25 11.0596 12.6904 10.5 12 10.5C11.3096 10.5 10.75 11.0596 10.75 11.75C10.75 12.4404 11.3096 13 12 13ZM16.25 13C16.9404 13 17.5 12.4404 17.5 11.75C17.5 11.0596 16.9404 10.5 16.25 10.5C15.5596 10.5 15 11.0596 15 11.75C15 12.4404 15.5596 13 16.25 13Z" fill="#262626"/>
</svg>
