<svg width="current" height="current" viewBox="0 0 24 24" fill="none" xmlns="http://www.w3.org/2000/svg">
<path fill-rule="evenodd" clip-rule="evenodd" d="M17.75 4.5H6.25C5.2835 4.5 4.5 5.2835 4.5 6.25V6.62868V7.68934L5.21967 6.96967C5.51256 6.67678 5.98744 6.67678 6.28033 6.96967C6.57322 7.26256 6.57322 7.73744 6.28033 8.03033L4.28033 10.0303C4.13968 10.171 3.94891 10.25 3.75 10.25C3.55109 10.25 3.36032 10.171 3.21967 10.0303L1.21967 8.03033C0.926777 7.73744 0.926777 7.26256 1.21967 6.96967C1.51256 6.67678 1.98744 6.67678 2.28033 6.96967L3 7.68934L3 6C3 5.92133 3.01211 5.84548 3.03458 5.77423C3.26479 4.20484 4.61669 3 6.25 3H17.75C19.5449 3 21 4.45507 21 6.25V17.75C21 19.5449 19.5449 21 17.75 21H6.25C4.45508 21 3 19.5449 3 17.75V10.7995C3.46259 11.0668 4.03741 11.0668 4.5 10.7995V17.75C4.5 18.7165 5.2835 19.5 6.25 19.5H17.75C18.7165 19.5 19.5 18.7165 19.5 17.75V8.25H6.86809C7.24311 7.83144 7.34194 7.25289 7.16458 6.75H19.5V6.25C19.5 5.2835 18.7165 4.5 17.75 4.5ZM9 11.75C9 12.4404 8.44036 13 7.75 13C7.05964 13 6.5 12.4404 6.5 11.75C6.5 11.0596 7.05964 10.5 7.75 10.5C8.44036 10.5 9 11.0596 9 11.75ZM7.75 17C8.44036 17 9 16.4404 9 15.75C9 15.0596 8.44036 14.5 7.75 14.5C7.05964 14.5 6.5 15.0596 6.5 15.75C6.5 16.4404 7.05964 17 7.75 17ZM13.25 11.75C13.25 12.4404 12.6904 13 12 13C11.3096 13 10.75 12.4404 10.75 11.75C10.75 11.0596 11.3096 10.5 12 10.5C12.6904 10.5 13.25 11.0596 13.25 11.75ZM16.25 13C16.9404 13 17.5 12.4404 17.5 11.75C17.5 11.0596 16.9404 10.5 16.25 10.5C15.5596 10.5 15 11.0596 15 11.75C15 12.4404 15.5596 13 16.25 13ZM13.25 15.75C13.25 16.4404 12.6904 17 12 17C11.3096 17 10.75 16.4404 10.75 15.75C10.75 15.0596 11.3096 14.5 12 14.5C12.6904 14.5 13.25 15.0596 13.25 15.75Z" fill="#262626"/>
</svg>
