<svg width="current" height="current" viewBox="0 0 24 24" fill="none" xmlns="http://www.w3.org/2000/svg">
<path fill-rule="evenodd" clip-rule="evenodd" d="M6.25 4.5H17.75C18.7165 4.5 19.5 5.2835 19.5 6.25V6.75H4.5V6.25C4.5 5.2835 5.2835 4.5 6.25 4.5ZM4.5 8.25V17.75C4.5 18.7165 5.2835 19.5 6.25 19.5H17.75C18.7165 19.5 19.5 18.7165 19.5 17.75V8.25H4.5ZM3 6.25C3 4.45508 4.45507 3 6.25 3H17.75C19.5449 3 21 4.45507 21 6.25V17.75C21 19.5449 19.5449 21 17.75 21H6.25C4.45508 21 3 19.5449 3 17.75V6.25Z" fill="#262626"/>
</svg>
