<svg width="current" height="current" viewBox="0 0 24 24" fill="none" xmlns="http://www.w3.org/2000/svg">
<path fill-rule="evenodd" clip-rule="evenodd" d="M5.25 2C3.45507 2 2 3.45508 2 5.25V16.75C2 18.5449 3.45508 20 5.25 20H16.75C18.5449 20 20 18.5449 20 16.75V5.25C20 3.45507 18.5449 2 16.75 2H5.25ZM16.75 3.5H5.25C4.2835 3.5 3.5 4.2835 3.5 5.25V5.75H18.5V5.25C18.5 4.2835 17.7165 3.5 16.75 3.5ZM3.5 16.75V7.25H18.5V16.75C18.5 17.7165 17.7165 18.5 16.75 18.5H5.25C4.2835 18.5 3.5 17.7165 3.5 16.75Z" fill="#262626"/>
<path d="M8.24996 23C7.09935 23 6.0884 22.4021 5.51086 21.5H19.75C20.6316 21.5 21.3609 20.8481 21.4822 20H21.5V5.51093C22.402 6.08846 23 7.09941 23 8.25002V19.75C23 21.5449 21.5449 23 19.75 23H8.24996Z" fill="#262626"/>
</svg>
