<svg width="current" height="current" viewBox="0 0 24 24" fill="none" xmlns="http://www.w3.org/2000/svg">
<path fill-rule="evenodd" clip-rule="evenodd" d="M3.5 12C3.5 16.6944 7.30558 20.5 12 20.5C16.6944 20.5 20.5 16.6944 20.5 12C20.5 7.30558 16.6944 3.5 12 3.5C7.30558 3.5 3.5 7.30558 3.5 12ZM2 12C2 17.5228 6.47715 22 12 22C17.5228 22 22 17.5228 22 12C22 6.47715 17.5228 2 12 2C6.47715 2 2 6.47715 2 12ZM12 4.75C11.5858 4.75 11.25 5.08579 11.25 5.5V11.567L7.29499 13.8505C6.93628 14.0576 6.81337 14.5163 7.02049 14.875C7.2276 15.2337 7.68629 15.3566 8.04501 15.1495L12.3626 12.6567C12.3887 12.6423 12.4138 12.6263 12.4379 12.6089C12.5266 12.5453 12.5977 12.4651 12.6496 12.3751C12.7017 12.2851 12.7356 12.1834 12.7463 12.0748C12.7493 12.0452 12.7505 12.0155 12.75 11.9856V5.5C12.75 5.08579 12.4142 4.75 12 4.75Z" fill="#262626"/>
</svg>
