<svg width="current" height="current" viewBox="0 0 24 24" fill="none" xmlns="http://www.w3.org/2000/svg">
<path fill-rule="evenodd" clip-rule="evenodd" d="M20.5 12C20.5 16.6944 16.6944 20.5 12 20.5C7.30558 20.5 3.5 16.6944 3.5 12C3.5 7.30558 7.30558 3.5 12 3.5C16.6944 3.5 20.5 7.30558 20.5 12ZM22 12C22 17.5228 17.5228 22 12 22C6.47715 22 2 17.5228 2 12C2 6.47715 6.47715 2 12 2C17.5228 2 22 6.47715 22 12ZM12 4.75C12.4142 4.75 12.75 5.08579 12.75 5.5V11.567L16.705 13.8505C17.0637 14.0576 17.1866 14.5163 16.9795 14.875C16.7724 15.2337 16.3137 15.3566 15.955 15.1495L11.6374 12.6567C11.6113 12.6423 11.5862 12.6263 11.5621 12.6089C11.4734 12.5453 11.4023 12.4651 11.3504 12.3751C11.2983 12.2851 11.2644 12.1834 11.2537 12.0748C11.2507 12.0452 11.2495 12.0155 11.25 11.9856V5.5C11.25 5.08579 11.5858 4.75 12 4.75Z" fill="#262626"/>
</svg>
