<svg width="current" height="current" viewBox="0 0 24 24" fill="none" xmlns="http://www.w3.org/2000/svg">
<path fill-rule="evenodd" clip-rule="evenodd" d="M20.5 12C20.5 16.6944 16.6944 20.5 12 20.5C7.30558 20.5 3.5 16.6944 3.5 12C3.5 7.30558 7.30558 3.5 12 3.5C16.6944 3.5 20.5 7.30558 20.5 12ZM22 12C22 17.5228 17.5228 22 12 22C6.47715 22 2 17.5228 2 12C2 6.47715 6.47715 2 12 2C17.5228 2 22 6.47715 22 12ZM12 4.75C12.4142 4.75 12.75 5.08579 12.75 5.5V9.20102L13.8505 7.29498C14.0576 6.93626 14.5163 6.81336 14.875 7.02047C15.2337 7.22758 15.3566 7.68627 15.1495 8.04499L12.6568 12.3624C12.6421 12.389 12.6258 12.4146 12.6081 12.4391C12.5451 12.5265 12.466 12.5968 12.3772 12.6484C12.2864 12.7014 12.1833 12.7358 12.0733 12.7465C11.9861 12.7551 11.8969 12.7485 11.8098 12.7257C11.7184 12.7018 11.6338 12.6611 11.5595 12.6071C11.4725 12.5441 11.4024 12.465 11.3511 12.3763C11.2984 12.2856 11.2642 12.1829 11.2535 12.0733C11.2507 12.0442 11.2495 12.0149 11.25 11.9856V5.5C11.25 5.08579 11.5858 4.75 12 4.75Z" fill="#262626"/>
</svg>
