<svg width="current" height="current" viewBox="0 0 24 24" fill="none" xmlns="http://www.w3.org/2000/svg">
<path fill-rule="evenodd" clip-rule="evenodd" d="M3.5 12C3.5 16.6944 7.30558 20.5 12 20.5C16.6944 20.5 20.5 16.6944 20.5 12C20.5 7.30558 16.6944 3.5 12 3.5C7.30558 3.5 3.5 7.30558 3.5 12ZM2 12C2 17.5228 6.47715 22 12 22C17.5228 22 22 17.5228 22 12C22 6.47715 17.5228 2 12 2C6.47715 2 2 6.47715 2 12ZM12 4.75C11.5858 4.75 11.25 5.08579 11.25 5.5V10.6994L8.05566 8.85086C7.69715 8.64339 7.23833 8.76583 7.03086 9.12434C6.82339 9.48285 6.94583 9.94167 7.30434 10.1491L11.6133 12.6427C11.6718 12.6781 11.7356 12.7056 11.8032 12.7239C11.8933 12.7485 11.9859 12.7555 12.0763 12.7462C12.1834 12.7354 12.2838 12.702 12.3728 12.6509C12.464 12.5988 12.5453 12.5269 12.6096 12.437C12.6613 12.365 12.7006 12.2835 12.7242 12.1956C12.7429 12.1268 12.7513 12.0566 12.75 11.987V5.5C12.75 5.08579 12.4142 4.75 12 4.75Z" fill="#262626"/>
</svg>
