<svg width="current" height="current" viewBox="0 0 24 24" fill="none" xmlns="http://www.w3.org/2000/svg">
<path fill-rule="evenodd" clip-rule="evenodd" d="M20.5 12C20.5 16.6944 16.6944 20.5 12 20.5C7.30558 20.5 3.5 16.6944 3.5 12C3.5 7.30558 7.30558 3.5 12 3.5C16.6944 3.5 20.5 7.30558 20.5 12ZM22 12C22 17.5228 17.5228 22 12 22C6.47715 22 2 17.5228 2 12C2 6.47715 6.47715 2 12 2C17.5228 2 22 6.47715 22 12ZM12 4.75C12.4142 4.75 12.75 5.08579 12.75 5.5V11.7986L15.1491 15.9443C15.3566 16.3029 15.2342 16.7617 14.8757 16.9691C14.5171 17.1766 14.0583 17.0542 13.8509 16.6957L11.3573 12.3869C11.3216 12.3277 11.2939 12.2632 11.2756 12.1948C11.2571 12.1263 11.2487 12.0563 11.25 11.987V5.5C11.25 5.08579 11.5858 4.75 12 4.75Z" fill="#262626"/>
</svg>
