<svg width="current" height="current" viewBox="0 0 24 24" fill="none" xmlns="http://www.w3.org/2000/svg">
<path fill-rule="evenodd" clip-rule="evenodd" d="M20.5 12C20.5 16.6944 16.6944 20.5 12 20.5C7.30558 20.5 3.5 16.6944 3.5 12C3.5 7.30558 7.30558 3.5 12 3.5C16.6944 3.5 20.5 7.30558 20.5 12ZM22 12C22 17.5228 17.5228 22 12 22C6.47715 22 2 17.5228 2 12C2 6.47715 6.47715 2 12 2C17.5228 2 22 6.47715 22 12ZM12 4.75C12.4142 4.75 12.75 5.08579 12.75 5.5V10.6994L15.9443 8.85086C16.3029 8.64339 16.7617 8.76583 16.9691 9.12434C17.1766 9.48285 17.0542 9.94167 16.6957 10.1491L12.3867 12.6427C12.3282 12.6781 12.2644 12.7056 12.1968 12.7239C12.1067 12.7485 12.0141 12.7555 11.9237 12.7462C11.8166 12.7354 11.7162 12.702 11.6272 12.6509C11.536 12.5988 11.4547 12.5269 11.3904 12.437C11.3387 12.365 11.2994 12.2835 11.2758 12.1956C11.2571 12.1268 11.2487 12.0566 11.25 11.987V5.5C11.25 5.08579 11.5858 4.75 12 4.75Z" fill="#262626"/>
</svg>
