<svg width="current" height="current" viewBox="0 0 24 24" fill="none" xmlns="http://www.w3.org/2000/svg">
<path fill-rule="evenodd" clip-rule="evenodd" d="M3.5 12C3.5 16.6944 7.30558 20.5 12 20.5C16.6944 20.5 20.5 16.6944 20.5 12C20.5 7.30558 16.6944 3.5 12 3.5C7.30558 3.5 3.5 7.30558 3.5 12ZM2 12C2 17.5228 6.47715 22 12 22C17.5228 22 22 17.5228 22 12C22 6.47715 17.5228 2 12 2C6.47715 2 2 6.47715 2 12ZM12 4.75C11.5858 4.75 11.25 5.08579 11.25 5.5V9.20102L10.1495 7.29498C9.9424 6.93626 9.48371 6.81336 9.12499 7.02047C8.76628 7.22758 8.64337 7.68627 8.85048 8.04499L11.3432 12.3624C11.3579 12.389 11.3742 12.4146 11.3919 12.4391C11.4549 12.5265 11.534 12.5968 11.6228 12.6484C11.7136 12.7014 11.8167 12.7358 11.9267 12.7465C12.0139 12.7551 12.1031 12.7485 12.1902 12.7257C12.2816 12.7018 12.3662 12.6611 12.4405 12.6071C12.5275 12.5441 12.5976 12.465 12.6489 12.3763C12.7016 12.2856 12.7358 12.1829 12.7465 12.0733C12.7493 12.0442 12.7505 12.0149 12.75 11.9856V5.5C12.75 5.08579 12.4142 4.75 12 4.75Z" fill="#262626"/>
</svg>
