<svg width="current" height="current" viewBox="0 0 24 24" fill="none" xmlns="http://www.w3.org/2000/svg">
<path fill-rule="evenodd" clip-rule="evenodd" d="M3.5 12C3.5 16.6944 7.30558 20.5 12 20.5C16.6944 20.5 20.5 16.6944 20.5 12C20.5 7.30558 16.6944 3.5 12 3.5C7.30558 3.5 3.5 7.30558 3.5 12ZM2 12C2 17.5228 6.47715 22 12 22C17.5228 22 22 17.5228 22 12C22 6.47715 17.5228 2 12 2C6.47715 2 2 6.47715 2 12ZM12 4.75C11.5858 4.75 11.25 5.08579 11.25 5.5V11.7986L8.85086 15.9443C8.64339 16.3029 8.76583 16.7617 9.12434 16.9691C9.48285 17.1766 9.94167 17.0542 10.1491 16.6957L12.6427 12.3869C12.6784 12.3277 12.7061 12.2632 12.7244 12.1948C12.7429 12.1263 12.7513 12.0563 12.75 11.987V5.5C12.75 5.08579 12.4142 4.75 12 4.75Z" fill="#262626"/>
</svg>
