<svg width="current" height="current" viewBox="0 0 24 24" fill="none" xmlns="http://www.w3.org/2000/svg">
<path fill-rule="evenodd" clip-rule="evenodd" d="M3 6.25C3 4.45507 4.45507 3 6.25 3H17.75C19.5449 3 21 4.45507 21 6.25V14.25C21 16.0449 19.5449 17.5 17.75 17.5H16.75V16H17.75C18.7165 16 19.5 15.2165 19.5 14.25V6.25C19.5 5.2835 18.7165 4.5 17.75 4.5H6.25C5.2835 4.5 4.5 5.2835 4.5 6.25V14.25C4.5 15.2165 5.2835 16 6.25 16H7.25V17.5H6.25C4.45507 17.5 3 16.0449 3 14.25V6.25ZM12.6066 14.3089C12.4654 14.1148 12.24 14 12 14C11.76 14 11.5346 14.1148 11.3934 14.3089L7.39345 19.8089C7.22753 20.037 7.20366 20.339 7.33166 20.5903C7.45967 20.8417 7.71791 21 8 21H16C16.2821 21 16.5403 20.8417 16.6683 20.5903C16.7963 20.339 16.7725 20.037 16.6066 19.8089L12.6066 14.3089ZM12 16.0251L14.5272 19.5H9.47283L12 16.0251Z" fill="#262626"/>
</svg>
