<svg width="current" height="current" viewBox="0 0 24 24" fill="none" xmlns="http://www.w3.org/2000/svg">
<path fill-rule="evenodd" clip-rule="evenodd" d="M2.75 5C2.33579 5 2 5.33579 2 5.75V18.25C2 18.6642 2.33579 19 2.75 19C3.16421 19 3.5 18.6642 3.5 18.25V5.75C3.5 5.33579 3.16421 5 2.75 5ZM9.9502 5C9.53598 5 9.2002 5.33579 9.2002 5.75V18.25C9.2002 18.6642 9.53598 19 9.9502 19C10.3644 19 10.7002 18.6642 10.7002 18.25V5.75C10.7002 5.33579 10.3644 5 9.9502 5ZM20.5 5.75C20.5 5.33579 20.8358 5 21.25 5C21.6642 5 22 5.33579 22 5.75V18.25C22 18.6642 21.6642 19 21.25 19C20.8358 19 20.5 18.6642 20.5 18.25V5.75ZM6.3501 5C5.65974 5 5.1001 5.55964 5.1001 6.25V17.75C5.1001 18.4404 5.65974 19 6.3501 19C7.04045 19 7.6001 18.4404 7.6001 17.75V6.25C7.6001 5.55964 7.04045 5 6.3501 5ZM12.3003 6.25C12.3003 5.55964 12.8599 5 13.5503 5C14.2406 5 14.8003 5.55964 14.8003 6.25V17.75C14.8003 18.4404 14.2406 19 13.5503 19C12.8599 19 12.3003 18.4404 12.3003 17.75V6.25ZM17.6504 5C16.96 5 16.4004 5.55964 16.4004 6.25V17.75C16.4004 18.4404 16.96 19 17.6504 19C18.3407 19 18.9004 18.4404 18.9004 17.75V6.25C18.9004 5.55964 18.3407 5 17.6504 5Z" fill="#262626"/>
</svg>
