<svg width="current" height="current" viewBox="0 0 24 24" fill="none" xmlns="http://www.w3.org/2000/svg">
<path fill-rule="evenodd" clip-rule="evenodd" d="M5.25 3C4.00736 3 3 4.00736 3 5.25V8.25C3 9.49264 4.00736 10.5 5.25 10.5H18.75C19.9926 10.5 21 9.49264 21 8.25V5.25C21 4.00736 19.9926 3 18.75 3H5.25ZM4.5 5.25C4.5 4.83579 4.83579 4.5 5.25 4.5H18.75C19.1642 4.5 19.5 4.83579 19.5 5.25V8.25C19.5 8.66421 19.1642 9 18.75 9H5.25C4.83579 9 4.5 8.66421 4.5 8.25V5.25ZM13.75 11.5C12.5074 11.5 11.5 12.5074 11.5 13.75V18.75C11.5 19.9926 12.5074 21 13.75 21H18.75C19.9926 21 21 19.9926 21 18.75V13.75C21 12.5074 19.9926 11.5 18.75 11.5H13.75ZM13 13.75C13 13.3358 13.3358 13 13.75 13H18.75C19.1642 13 19.5 13.3358 19.5 13.75V18.75C19.5 19.1642 19.1642 19.5 18.75 19.5H13.75C13.3358 19.5 13 19.1642 13 18.75V13.75ZM3 13.5C3 13.0858 3.33579 12.75 3.75 12.75H9C9.41421 12.75 9.75 13.0858 9.75 13.5C9.75 13.9142 9.41421 14.25 9 14.25H3.75C3.33579 14.25 3 13.9142 3 13.5ZM3.75 17C3.33579 17 3 17.3358 3 17.75C3 18.1642 3.33579 18.5 3.75 18.5H9C9.41421 18.5 9.75 18.1642 9.75 17.75C9.75 17.3358 9.41421 17 9 17H3.75Z" fill="#262626"/>
</svg>
