<svg width="current" height="current" viewBox="0 0 24 24" fill="none" xmlns="http://www.w3.org/2000/svg">
<path fill-rule="evenodd" clip-rule="evenodd" d="M6.87636 7.93702L5.14562 6.86277C4.79369 6.64433 4.33131 6.75255 4.11287 7.10448C3.89443 7.45641 4.00265 7.91879 4.35458 8.13723L10.7793 12.125L4.35458 16.1128C4.00265 16.3312 3.89443 16.7936 4.11287 17.1455C4.33131 17.4975 4.79369 17.6057 5.14562 17.3872L11.2501 13.5982V21.25C11.2501 21.5255 11.4012 21.7789 11.6436 21.9098C11.886 22.0408 12.1807 22.0283 12.4111 21.8773L17.4895 18.5501L20.7197 21.7803C21.0126 22.0732 21.4874 22.0732 21.7803 21.7803C22.0732 21.4874 22.0732 21.0126 21.7803 20.7197L3.28033 2.21967C2.98744 1.92678 2.51256 1.92678 2.21967 2.21967C1.92678 2.51256 1.92678 2.98744 2.21967 3.28033L6.87636 7.93702ZM16.406 17.4667L12.7501 13.8108V19.862L16.406 17.4667ZM19.6456 8.13723L14.4332 11.3725L13.3439 10.2832L17.8555 7.48291L12.7501 4.13801V9.68944L11.2501 8.18944V2.75C11.2501 2.47448 11.4012 2.22114 11.6436 2.09017C11.886 1.95919 12.1807 1.97166 12.4111 2.12266L19.6611 6.87265C19.8754 7.01303 20.0032 7.25306 20 7.50919C19.9969 7.76533 19.8633 8.00215 19.6456 8.13723Z" fill="#262626"/>
</svg>
