<svg width="current" height="current" viewBox="0 0 24 24" fill="none" xmlns="http://www.w3.org/2000/svg">
<path fill-rule="evenodd" clip-rule="evenodd" d="M12.4111 2.12266C12.1807 1.97166 11.886 1.95919 11.6436 2.09017C11.4012 2.22114 11.2501 2.47448 11.2501 2.75V10.6518L5.14562 6.86277C4.79369 6.64433 4.33131 6.75255 4.11287 7.10448C3.89443 7.45641 4.00265 7.91879 4.35458 8.13723L10.7793 12.125L4.35458 16.1128C4.00265 16.3312 3.89443 16.7936 4.11287 17.1455C4.33131 17.4975 4.79369 17.6057 5.14562 17.3872L11.2501 13.5982V21.25C11.2501 21.5255 11.4012 21.7789 11.6436 21.9098C11.886 22.0408 12.1807 22.0283 12.4111 21.8773L19.6611 17.1273C19.8754 16.987 20.0032 16.7469 20 16.4908C19.9969 16.2347 19.8633 15.9979 19.6456 15.8628L13.4223 12L19.6456 8.13723C19.8633 8.00215 19.9969 7.76533 20 7.50919C20.0032 7.25306 19.8754 7.01303 19.6611 6.87265L12.4111 2.12266ZM12.7501 10.6518V4.13801L17.8555 7.48291L12.7501 10.6518ZM12.7501 19.862V13.3482L17.8555 16.5171L12.7501 19.862Z" fill="#262626"/>
</svg>
