<svg width="current" height="current" viewBox="0 0 24 24" fill="none" xmlns="http://www.w3.org/2000/svg">
<path fill-rule="evenodd" clip-rule="evenodd" d="M5.8922 3.15379C6.2215 3.40506 6.28476 3.8757 6.03349 4.205C5.07117 5.46616 4.5 7.04033 4.5 8.75003C4.5 10.4597 5.07117 12.0339 6.03349 13.2951C6.28476 13.6244 6.2215 14.095 5.8922 14.3463C5.56291 14.5975 5.09226 14.5343 4.841 14.205C3.68618 12.6915 3 10.7999 3 8.75003C3 6.70021 3.68618 4.80852 4.841 3.29508C5.09226 2.96578 5.56291 2.90252 5.8922 3.15379ZM18.1078 3.15379C18.4371 2.90252 18.9077 2.96578 19.159 3.29508C20.3138 4.80852 21 6.70021 21 8.75003C21 10.7999 20.3138 12.6915 19.159 14.205C18.9077 14.5343 18.4371 14.5975 18.1078 14.3463C17.7785 14.095 17.7152 13.6244 17.9665 13.2951C18.9288 12.0339 19.5 10.4597 19.5 8.75003C19.5 7.04033 18.9288 5.46616 17.9665 4.205C17.7152 3.8757 17.7785 3.40506 18.1078 3.15379ZM11.25 7.75004C11.25 7.33583 11.5858 7.00004 12 7.00004C12.4142 7.00004 12.75 7.33583 12.75 7.75004V20.25C12.75 20.6643 12.4142 21 12 21C11.5858 21 11.25 20.6643 11.25 20.25V7.75004ZM8.59962 6.20006C8.84843 5.8689 8.78167 5.39874 8.45051 5.14993C8.11935 4.90112 7.64919 4.96788 7.40038 5.29905C6.67823 6.26022 6.25 7.4562 6.25 8.75004C6.25 10.0439 6.67823 11.2399 7.40038 12.201C7.64919 12.5322 8.11934 12.599 8.45051 12.3501C8.78167 12.1013 8.84843 11.6312 8.59962 11.3C8.06595 10.5897 7.75 9.70785 7.75 8.75004C7.75 7.79223 8.06595 6.91037 8.59962 6.20006ZM16.5997 5.29958C16.3509 4.9684 15.8807 4.9016 15.5495 5.15038C15.2184 5.39917 15.1516 5.86932 15.4003 6.2005C15.934 6.91088 16.25 7.79248 16.25 8.75004C16.25 9.70785 15.9341 10.5897 15.4004 11.3C15.1516 11.6312 15.2183 12.1013 15.5495 12.3501C15.8807 12.599 16.3508 12.5322 16.5996 12.201C17.3218 11.2399 17.75 10.0439 17.75 8.75004C17.75 7.45623 17.3216 6.26058 16.5997 5.29958Z" fill="#262626"/>
</svg>
