<svg width="current" height="current" viewBox="0 0 24 24" fill="none" xmlns="http://www.w3.org/2000/svg">
<path fill-rule="evenodd" clip-rule="evenodd" d="M8.28047 3.21967C7.98757 2.92678 7.5127 2.92678 7.21981 3.21967C6.92691 3.51256 6.92691 3.98744 7.21981 4.28033L8.61119 5.67171C7.88174 6.41437 7.39451 7.39572 7.27743 8.48785C6.71692 8.7156 6.23434 9.09526 5.88078 9.57572L4.11437 8.59438C3.75228 8.39322 3.29568 8.52368 3.09452 8.88577C2.89336 9.24786 3.02382 9.70446 3.3859 9.90562L5.29386 10.9656C5.2651 11.1395 5.25014 11.318 5.25014 11.5V13.75H3.75014C3.33592 13.75 3.00014 14.0858 3.00014 14.5C3.00014 14.9142 3.33592 15.25 3.75014 15.25H5.3237C5.41895 15.8914 5.60444 16.5034 5.86684 17.0726L3.21981 19.7197C2.92691 20.0126 2.92691 20.4874 3.21981 20.7803C3.5127 21.0732 3.98757 21.0732 4.28047 20.7803L6.66946 18.3913C7.90451 19.9788 9.83306 21 12.0001 21C14.1672 21 16.0958 19.9788 17.3308 18.3913L19.7198 20.7803C20.0127 21.0732 20.4876 21.0732 20.7805 20.7803C21.0734 20.4874 21.0734 20.0126 20.7805 19.7197L18.1334 17.0726C18.3958 16.5034 18.5813 15.8914 18.6766 15.25H20.2501C20.6643 15.25 21.0001 14.9142 21.0001 14.5C21.0001 14.0858 20.6643 13.75 20.2501 13.75H18.7501V11.5C18.7501 11.318 18.7352 11.1395 18.7064 10.9656L20.6144 9.90562C20.9765 9.70446 21.1069 9.24786 20.9058 8.88577C20.7046 8.52368 20.248 8.39322 19.8859 8.59438L18.1195 9.57572C17.7659 9.09526 17.2834 8.7156 16.7228 8.48785C16.6058 7.39573 16.1185 6.41437 15.3891 5.67171L16.7805 4.28033C17.0734 3.98744 17.0734 3.51256 16.7805 3.21967C16.4876 2.92678 16.0127 2.92678 15.7198 3.21967L14.1674 4.7721C13.5176 4.43836 12.7809 4.25 12.0001 4.25C11.2194 4.25 10.4827 4.43836 9.8329 4.7721L8.28047 3.21967ZM15.1632 8.25C14.8246 6.81665 13.5369 5.75 12.0001 5.75C10.4633 5.75 9.17568 6.81665 8.8371 8.25H12.0001H15.1632ZM6.75014 11.5C6.75014 10.5335 7.53364 9.75 8.50014 9.75H11.2501V19.4468C8.70592 19.0829 6.75014 16.8949 6.75014 14.25V11.5ZM12.7501 19.4468V9.75H15.5001C16.4666 9.75 17.2501 10.5335 17.2501 11.5V14.25C17.2501 16.8949 15.2944 19.0829 12.7501 19.4468Z" fill="#262626"/>
</svg>
