<svg width="current" height="current" viewBox="0 0 24 24" fill="none" xmlns="http://www.w3.org/2000/svg">
<path fill-rule="evenodd" clip-rule="evenodd" d="M14 3C14.4142 3 14.75 3.33579 14.75 3.75V5.75H16.5C17.4665 5.75 18.25 6.5335 18.25 7.5V9.25H20.25C20.6642 9.25 21 9.58579 21 10C21 10.4142 20.6642 10.75 20.25 10.75H18.25V13.25H20.25C20.6642 13.25 21 13.5858 21 14C21 14.4142 20.6642 14.75 20.25 14.75H18.25V16.5C18.25 17.4665 17.4665 18.25 16.5 18.25H14.75V20.25C14.75 20.6642 14.4142 21 14 21C13.5858 21 13.25 20.6642 13.25 20.25V18.25H10.75V20.25C10.75 20.6642 10.4142 21 10 21C9.58579 21 9.25 20.6642 9.25 20.25V18.25H7.5C6.5335 18.25 5.75 17.4665 5.75 16.5V14.75H3.75C3.33579 14.75 3 14.4142 3 14C3 13.5858 3.33579 13.25 3.75 13.25H5.75V10.75H3.75C3.33579 10.75 3 10.4142 3 10C3 9.58579 3.33579 9.25 3.75 9.25H5.75V7.5C5.75 6.5335 6.5335 5.75 7.5 5.75H9.25V3.75C9.25 3.33579 9.58579 3 10 3C10.4142 3 10.75 3.33579 10.75 3.75V5.75H13.25V3.75C13.25 3.33579 13.5858 3 14 3ZM7.25 10V14V16.5C7.25 16.6381 7.36193 16.75 7.5 16.75H10H14H16.5C16.6381 16.75 16.75 16.6381 16.75 16.5V14V10V7.5C16.75 7.36193 16.6381 7.25 16.5 7.25H14H10H7.5C7.36193 7.25 7.25 7.36193 7.25 7.5V10ZM10 8.75C9.30964 8.75 8.75 9.30964 8.75 10V14C8.75 14.6904 9.30964 15.25 10 15.25H14C14.6904 15.25 15.25 14.6904 15.25 14V10C15.25 9.30964 14.6904 8.75 14 8.75H10ZM10.25 13.75V10.25H13.75V13.75H10.25Z" fill="#262626"/>
</svg>
