<svg width="current" height="current" viewBox="0 0 24 24" fill="none" xmlns="http://www.w3.org/2000/svg">
<path fill-rule="evenodd" clip-rule="evenodd" d="M13.125 3.5C10.7088 3.5 8.75 5.45875 8.75 7.875C8.75 8.13051 8.77182 8.38033 8.81354 8.62285L8.96443 9.5H6.75C4.95507 9.5 3.5 10.9551 3.5 12.75C3.5 14.5449 4.95507 16 6.75 16H7V17.5H6.75C4.12665 17.5 2 15.3734 2 12.75C2 10.1266 4.12665 8 6.75 8H7.25131C7.25044 7.95843 7.25 7.91676 7.25 7.875C7.25 4.63033 9.88033 2 13.125 2C16.3697 2 19 4.63033 19 7.875C19 8.02673 18.9942 8.17722 18.9829 8.32626C20.7491 9.01869 22 10.7375 22 12.75C22 15.1182 20.267 17.0815 18 17.4411V15.913C19.4333 15.5745 20.5 14.2868 20.5 12.75C20.5 11.2094 19.4274 9.91759 17.9874 9.58385L17.2832 9.42064L17.4204 8.7109C17.4726 8.4409 17.5 8.16151 17.5 7.875C17.5 5.45875 15.5412 3.5 13.125 3.5ZM16.7805 16.9697C16.4878 16.6768 16.0132 16.6768 15.7205 16.9697L13.2495 19.4433L13.2495 11.75C13.2495 11.3358 12.914 11 12.5 11C12.086 11 11.7505 11.3358 11.7505 11.75L11.7505 19.4433L9.27955 16.9697C8.98683 16.6768 8.51225 16.6768 8.21954 16.9697C7.92682 17.2626 7.92682 17.7374 8.21954 18.0303L11.97 21.7843C12.2627 22.0772 12.7373 22.0772 13.03 21.7843L16.7805 18.0303C17.0732 17.7374 17.0732 17.2626 16.7805 16.9697Z" fill="#262626"/>
</svg>
