<svg width="current" height="current" viewBox="0 0 24 24" fill="none" xmlns="http://www.w3.org/2000/svg">
<path fill-rule="evenodd" clip-rule="evenodd" d="M3.28033 2.21967C2.98744 1.92678 2.51256 1.92678 2.21967 2.21967C1.92678 2.51256 1.92678 2.98744 2.21967 3.28033L7.46915 8.52981C7.32638 9.03705 7.25 9.57211 7.25 10.125C7.25 10.1668 7.25044 10.2084 7.25131 10.25H6.75C4.12665 10.25 2 12.3766 2 15C2 17.6234 4.12665 19.75 6.75 19.75H17.25C17.6892 19.75 18.1145 19.6904 18.5182 19.5788L20.7197 21.7803C21.0126 22.0732 21.4874 22.0732 21.7803 21.7803C22.0732 21.4874 22.0732 21.0126 21.7803 20.7197L3.28033 2.21967ZM17.1893 18.25L8.76039 9.82105C8.7535 9.92148 8.75 10.0228 8.75 10.125C8.75 10.3805 8.77182 10.6303 8.81354 10.8729L8.96443 11.75H6.75C4.95507 11.75 3.5 13.2051 3.5 15C3.5 16.7949 4.95507 18.25 6.75 18.25H17.1893ZM20.5 15C20.5 15.6904 20.2847 16.3306 19.9176 16.8569L20.9897 17.929C21.6226 17.1221 22 16.1051 22 15C22 12.9875 20.7491 11.2687 18.9829 10.5763C18.9942 10.4272 19 10.2767 19 10.125C19 6.88033 16.3697 4.25 13.125 4.25C11.5181 4.25 10.0619 4.89513 9.00119 5.94053L10.0619 7.00123C10.8511 6.22726 11.9323 5.75 13.125 5.75C15.5412 5.75 17.5 7.70875 17.5 10.125C17.5 10.4115 17.4726 10.6909 17.4204 10.9609L17.2832 11.6706L17.9874 11.8339C19.4274 12.1676 20.5 13.4594 20.5 15Z" fill="#262626"/>
</svg>
