<svg width="current" height="current" viewBox="0 0 24 24" fill="none" xmlns="http://www.w3.org/2000/svg">
<path fill-rule="evenodd" clip-rule="evenodd" d="M13.125 5.75C10.7088 5.75 8.75 7.70875 8.75 10.125C8.75 10.3805 8.77182 10.6303 8.81354 10.8728L8.96443 11.75H6.75C4.95507 11.75 3.5 13.2051 3.5 15C3.5 16.7949 4.95507 18.25 6.75 18.25H17.25C19.0449 18.25 20.5 16.7949 20.5 15C20.5 13.4594 19.4274 12.1676 17.9874 11.8339L17.2832 11.6706L17.4204 10.9609C17.4726 10.6909 17.5 10.4115 17.5 10.125C17.5 7.70875 15.5412 5.75 13.125 5.75ZM7.25 10.125C7.25 6.88033 9.88033 4.25 13.125 4.25C16.3697 4.25 19 6.88033 19 10.125C19 10.2767 18.9942 10.4272 18.9829 10.5763C20.7491 11.2687 22 12.9875 22 15C22 17.6234 19.8734 19.75 17.25 19.75H6.75C4.12665 19.75 2 17.6234 2 15C2 12.3766 4.12665 10.25 6.75 10.25H7.25131C7.25044 10.2084 7.25 10.1668 7.25 10.125Z" fill="#262626"/>
</svg>
