<svg width="current" height="current" viewBox="0 0 24 24" fill="none" xmlns="http://www.w3.org/2000/svg">
<path fill-rule="evenodd" clip-rule="evenodd" d="M13.125 3.5C10.7088 3.5 8.75 5.45875 8.75 7.875C8.75 8.13051 8.77182 8.38033 8.81354 8.62285L8.96443 9.5H6.75C4.95507 9.5 3.5 10.9551 3.5 12.75C3.5 14.5449 4.95507 16 6.75 16H7V17.5H6.75C4.12665 17.5 2 15.3734 2 12.75C2 10.1266 4.12665 8 6.75 8H7.25131C7.25044 7.95843 7.25 7.91676 7.25 7.875C7.25 4.63033 9.88033 2 13.125 2C16.3697 2 19 4.63033 19 7.875C19 8.02673 18.9942 8.17722 18.9829 8.32626C20.7491 9.01869 22 10.7375 22 12.75C22 15.1182 20.267 17.0815 18 17.4411V15.913C19.4333 15.5745 20.5 14.2868 20.5 12.75C20.5 11.2094 19.4274 9.91759 17.9874 9.58385L17.2832 9.42064L17.4204 8.7109C17.4726 8.4409 17.5 8.16151 17.5 7.875C17.5 5.45875 15.5412 3.5 13.125 3.5ZM8.21954 16.0343C8.51225 16.3272 8.98683 16.3272 9.27955 16.0343L11.7505 13.5607L11.7505 21.254C11.7505 21.6682 12.086 22.004 12.5 22.004C12.914 22.004 13.2495 21.6682 13.2495 21.254L13.2495 13.5607L15.7205 16.0343C16.0132 16.3272 16.4878 16.3272 16.7805 16.0343C17.0732 15.7414 17.0732 15.2665 16.7805 14.9736L13.03 11.2197C12.7373 10.9268 12.2627 10.9268 11.97 11.2197L8.21954 14.9736C7.92682 15.2665 7.92682 15.7414 8.21954 16.0343Z" fill="#262626"/>
</svg>
