<svg width="current" height="current" viewBox="0 0 24 24" fill="none" xmlns="http://www.w3.org/2000/svg">
<path fill-rule="evenodd" clip-rule="evenodd" d="M14.9339 7.30771C15.1039 6.92998 14.9355 6.48598 14.5578 6.316C14.18 6.14602 13.736 6.31444 13.5661 6.69217L9.06606 16.6922C8.89608 17.0699 9.0645 17.5139 9.44223 17.6839C9.81996 17.8539 10.264 17.6854 10.4339 17.3077L14.9339 7.30771ZM15.9834 17.5437C15.6831 17.2584 15.671 16.7837 15.9563 16.4834L20.2155 11.9999L15.9563 7.5165C15.671 7.2162 15.6831 6.74148 15.9834 6.45619C16.2837 6.1709 16.7585 6.18307 17.0438 6.48338L21.7938 11.4834C22.0688 11.7729 22.0688 12.227 21.7938 12.5165L17.0437 17.5165C16.7585 17.8168 16.2837 17.829 15.9834 17.5437ZM8.01656 6.45619C8.31687 6.74148 8.32904 7.2162 8.04375 7.5165L3.78448 11.9999L8.04375 16.4834C8.32904 16.7837 8.31687 17.2584 8.01656 17.5437C7.71626 17.829 7.24154 17.8168 6.95625 17.5165L2.20625 12.5165C1.93125 12.227 1.93125 11.7729 2.20625 11.4834L6.95625 6.48338C7.24154 6.18307 7.71626 6.1709 8.01656 6.45619Z" fill="#262626"/>
</svg>
