<svg width="current" height="current" viewBox="0 0 24 24" fill="none" xmlns="http://www.w3.org/2000/svg">
<path fill-rule="evenodd" clip-rule="evenodd" d="M5.25 4C3.45507 4 2 5.45507 2 7.25V16.75C2 18.5449 3.45507 20 5.25 20H18.75C20.5449 20 22 18.5449 22 16.75V7.25C22 5.45507 20.5449 4 18.75 4H5.25ZM3.5 7.25C3.5 6.2835 4.2835 5.5 5.25 5.5H18.75C19.7165 5.5 20.5 6.2835 20.5 7.25V7.5072L12 11.1829L3.5 7.5072V7.25ZM3.5 9.14144V16.75C3.5 17.7165 4.2835 18.5 5.25 18.5H18.75C19.7165 18.5 20.5 17.7165 20.5 16.75V9.14145L12.2977 12.6884C12.1077 12.7705 11.8923 12.7705 11.7023 12.6884L3.5 9.14144Z" fill="#262626"/>
</svg>
