<svg width="current" height="current" viewBox="0 0 24 24" fill="none" xmlns="http://www.w3.org/2000/svg">
<path fill-rule="evenodd" clip-rule="evenodd" d="M5.25 4C3.45507 4 2 5.45507 2 7.25V16.75C2 18.5449 3.45507 20 5.25 20H18.75C20.5449 20 22 18.5449 22 16.75V7.25C22 5.45507 20.5449 4 18.75 4H5.25ZM3.5 7.25C3.5 6.2835 4.2835 5.5 5.25 5.5H18.75C19.7165 5.5 20.5 6.2835 20.5 7.25V16.75C20.5 17.7165 19.7165 18.5 18.75 18.5H5.25C4.2835 18.5 3.5 17.7165 3.5 16.75V7.25ZM6.5 12.25C6.5 11.4216 7.17157 10.75 8 10.75C8.82843 10.75 9.5 11.4216 9.5 12.25C9.5 13.0784 8.82843 13.75 8 13.75C7.17157 13.75 6.5 13.0784 6.5 12.25ZM8 9.25C6.34315 9.25 5 10.5931 5 12.25C5 13.9069 6.34315 15.25 8 15.25C9.65685 15.25 11 13.9069 11 12.25C11 11.7036 10.8539 11.1913 10.5987 10.75H13.4013C13.1461 11.1913 13 11.7036 13 12.25C13 13.9069 14.3431 15.25 16 15.25C17.6569 15.25 19 13.9069 19 12.25C19 10.5931 17.6569 9.25 16 9.25H8ZM16 10.75C15.1716 10.75 14.5 11.4216 14.5 12.25C14.5 13.0784 15.1716 13.75 16 13.75C16.8284 13.75 17.5 13.0784 17.5 12.25C17.5 11.4216 16.8284 10.75 16 10.75Z" fill="#262626"/>
</svg>
