<svg width="current" height="current" viewBox="0 0 24 24" fill="none" xmlns="http://www.w3.org/2000/svg">
<path fill-rule="evenodd" clip-rule="evenodd" d="M4 4.75C4 3.23122 5.23122 2 6.75 2L17.25 2C18.7688 2 20 3.23122 20 4.75L20 19.25C20 20.7688 18.7688 22 17.25 22L6.75 22C5.23122 22 4 20.7688 4 19.25L4 4.75ZM6.75 3.5C6.05964 3.5 5.5 4.05964 5.5 4.75L5.5 18.5L18.5 18.5L18.5 4.75C18.5 4.05964 17.9404 3.5 17.25 3.5L6.75 3.5ZM12.559 20.5C12.4217 20.6534 12.2221 20.75 12 20.75C11.7779 20.75 11.5783 20.6534 11.441 20.5C11.3222 20.3673 11.25 20.1921 11.25 20C11.25 19.5858 11.5858 19.25 12 19.25C12.4142 19.25 12.75 19.5858 12.75 20C12.75 20.1921 12.6778 20.3673 12.559 20.5Z" fill="#262626"/>
</svg>
