<svg width="current" height="current" viewBox="0 0 24 24" fill="none" xmlns="http://www.w3.org/2000/svg">
<path fill-rule="evenodd" clip-rule="evenodd" d="M8.17547 4.82282C8.3551 4.32883 8.82458 4 9.35021 4H14.6498C15.1754 4 15.6449 4.32883 15.8245 4.82282L16.5253 6.75H18.75C20.5449 6.75 22 8.20508 22 10V16.75C22 18.5449 20.5449 20 18.75 20H5.25C3.45507 20 2 18.5449 2 16.75V10C2 8.20507 3.45507 6.75 5.25 6.75H7.47468L8.17547 4.82282ZM16.0175 8.25C16.0058 8.25027 15.9942 8.25027 15.9826 8.25H15.9665C15.6728 8.23668 15.4019 8.04976 15.2952 7.75631L14.4747 5.5H9.52532L8.70484 7.75631C8.6006 8.04297 8.33977 8.22743 8.05405 8.24824L8.05353 8.25H8.01738C8.01738 8.25 7.99416 8.25027 7.98252 8.25H5.25C4.2835 8.25 3.5 9.0335 3.5 10V16.75C3.5 17.7165 4.2835 18.5 5.25 18.5H18.75C19.7165 18.5 20.5 17.7165 20.5 16.75V10C20.5 9.0335 19.7165 8.25 18.75 8.25H16.0175ZM9.75 13.25C9.75 12.0074 10.7574 11 12 11C13.2426 11 14.25 12.0074 14.25 13.25C14.25 14.4926 13.2426 15.5 12 15.5C10.7574 15.5 9.75 14.4926 9.75 13.25ZM12 9.5C9.92893 9.5 8.25 11.1789 8.25 13.25C8.25 15.3211 9.92893 17 12 17C14.0711 17 15.75 15.3211 15.75 13.25C15.75 11.1789 14.0711 9.5 12 9.5Z" fill="#262626"/>
</svg>
