<svg width="current" height="current" viewBox="0 0 24 24" fill="none" xmlns="http://www.w3.org/2000/svg">
<path fill-rule="evenodd" clip-rule="evenodd" d="M2 7.75C2 6.23122 3.23122 5 4.75 5L19.25 5C20.7688 5 22 6.23122 22 7.75L22 16.25C22 17.7688 20.7688 19 19.25 19L4.75 19C3.23122 19 2 17.7688 2 16.25L2 7.75ZM4.75 6.5C4.05964 6.5 3.5 7.05964 3.5 7.75L3.5 16.25C3.5 16.9404 4.05964 17.5 4.75 17.5L19.25 17.5C19.9404 17.5 20.5 16.9404 20.5 16.25L20.5 7.75C20.5 7.05964 19.9404 6.5 19.25 6.5L4.75 6.5ZM7 9C7 9.55229 6.55228 10 6 10C5.44772 10 5 9.55229 5 9C5 8.44771 5.44772 8 6 8C6.55228 8 7 8.44771 7 9ZM9 10C9.55228 10 10 9.55229 10 9C10 8.44771 9.55228 8 9 8C8.44772 8 8 8.44771 8 9C8 9.55229 8.44772 10 9 10ZM13 9C13 9.55229 12.5523 10 12 10C11.4477 10 11 9.55229 11 9C11 8.44771 11.4477 8 12 8C12.5523 8 13 8.44771 13 9ZM15 10C15.5523 10 16 9.55229 16 9C16 8.44771 15.5523 8 15 8C14.4477 8 14 8.44771 14 9C14 9.55229 14.4477 10 15 10ZM19 9C19 9.55229 18.5523 10 18 10C17.4477 10 17 9.55229 17 9C17 8.44771 17.4477 8 18 8C18.5523 8 19 8.44771 19 9ZM7.5 13C8.05228 13 8.5 12.5523 8.5 12C8.5 11.4477 8.05228 11 7.5 11C6.94772 11 6.5 11.4477 6.5 12C6.5 12.5523 6.94772 13 7.5 13ZM14.5 12C14.5 12.5523 14.0523 13 13.5 13C12.9477 13 12.5 12.5523 12.5 12C12.5 11.4477 12.9477 11 13.5 11C14.0523 11 14.5 11.4477 14.5 12ZM10.5 13C11.0523 13 11.5 12.5523 11.5 12C11.5 11.4477 11.0523 11 10.5 11C9.94772 11 9.5 11.4477 9.5 12C9.5 12.5523 9.94772 13 10.5 13ZM17.5 12C17.5 12.5523 17.0523 13 16.5 13C15.9477 13 15.5 12.5523 15.5 12C15.5 11.4477 15.9477 11 16.5 11C17.0523 11 17.5 11.4477 17.5 12ZM6.75 14.5C6.33579 14.5 6 14.8358 6 15.25C6 15.6642 6.33579 16 6.75 16L17.25 16C17.6642 16 18 15.6642 18 15.25C18 14.8358 17.6642 14.5 17.25 14.5L6.75 14.5Z" fill="#262626"/>
</svg>
