<svg width="current" height="current" viewBox="0 0 24 24" fill="none" xmlns="http://www.w3.org/2000/svg">
<path fill-rule="evenodd" clip-rule="evenodd" d="M5 11C5 7.13401 8.13401 4 12 4C15.866 4 19 7.13401 19 11V12.575C20.7117 12.9225 22 14.4358 22 16.25C22 18.3211 20.3211 20 18.25 20C17.8358 20 17.5 19.6642 17.5 19.25V13.25V11C17.5 7.96243 15.0376 5.5 12 5.5C8.96243 5.5 6.5 7.96243 6.5 11V13.25V19.25C6.5 19.6642 6.16421 20 5.75 20C3.67893 20 2 18.3211 2 16.25C2 14.4358 3.28832 12.9225 5 12.575V11ZM19 14.128V18.372C19.8739 18.0631 20.5 17.2297 20.5 16.25C20.5 15.2703 19.8739 14.4369 19 14.128ZM3.5 16.25C3.5 15.2703 4.12611 14.4369 5 14.128V18.372C4.12611 18.0631 3.5 17.2297 3.5 16.25Z" fill="#262626"/>
</svg>
