<svg width="current" height="current" viewBox="0 0 24 24" fill="none" xmlns="http://www.w3.org/2000/svg">
<path fill-rule="evenodd" clip-rule="evenodd" d="M2 6.75C2 5.23122 3.23122 4 4.75 4L19.25 4C20.7688 4 22 5.23122 22 6.75V12.75C22 14.2688 20.7688 15.5 19.25 15.5L14.6481 15.5L15.3981 18.5L17.25 18.5C17.6642 18.5 18 18.8358 18 19.25C18 19.6642 17.6642 20 17.25 20H6.75C6.33579 20 6 19.6642 6 19.25C6 18.8358 6.33579 18.5 6.75 18.5H8.60192L9.35192 15.5H4.75C3.23122 15.5 2 14.2688 2 12.75L2 6.75ZM4.75 5.5C4.05964 5.5 3.5 6.05964 3.5 6.75V12.75C3.5 13.4404 4.05964 14 4.75 14H19.25C19.9404 14 20.5 13.4404 20.5 12.75V6.75C20.5 6.05964 19.9404 5.5 19.25 5.5H4.75ZM10.2106 18.25L10.8356 15.75H13.1644L13.7894 18.25H10.2106Z" fill="#262626"/>
</svg>
