<svg width="current" height="current" viewBox="0 0 24 24" fill="none" xmlns="http://www.w3.org/2000/svg">
<path fill-rule="evenodd" clip-rule="evenodd" d="M2.75 18.5C2.33579 18.5 2 18.8358 2 19.25C2 19.6642 2.33579 20 2.75 20L21.25 20C21.6642 20 22 19.6642 22 19.25C22 18.8358 21.6642 18.5 21.25 18.5L2.75 18.5ZM5.25 4C3.45507 4 2 5.45507 2 7.25L2 13.75C2 15.5449 3.45507 17 5.25 17L18.75 17C20.5449 17 22 15.5449 22 13.75L22 7.25C22 5.45508 20.5449 4 18.75 4L5.25 4ZM3.5 7.25C3.5 6.2835 4.2835 5.5 5.25 5.5L18.75 5.5C19.7165 5.5 20.5 6.2835 20.5 7.25L20.5 13.75C20.5 14.7165 19.7165 15.5 18.75 15.5L5.25 15.5C4.2835 15.5 3.5 14.7165 3.5 13.75L3.5 7.25Z" fill="#262626"/>
</svg>
