<svg width="current" height="current" viewBox="0 0 24 24" fill="none" xmlns="http://www.w3.org/2000/svg">
<path fill-rule="evenodd" clip-rule="evenodd" d="M8.75 2C7.23122 2 6 3.23122 6 4.75L6 19.25C6 20.7688 7.23122 22 8.75 22H15.25C16.7688 22 18 20.7688 18 19.25L18 4.75C18 3.23122 16.7688 2 15.25 2H8.75ZM7.5 4.75C7.5 4.05964 8.05964 3.5 8.75 3.5H15.25C15.9404 3.5 16.5 4.05964 16.5 4.75L16.5 19.25C16.5 19.9404 15.9404 20.5 15.25 20.5H8.75C8.05964 20.5 7.5 19.9404 7.5 19.25L7.5 4.75ZM10.75 17.5C10.3358 17.5 10 17.8358 10 18.25C10 18.6642 10.3358 19 10.75 19H13.25C13.6642 19 14 18.6642 14 18.25C14 17.8358 13.6642 17.5 13.25 17.5H10.75Z" fill="#262626"/>
</svg>
