<svg width="current" height="current" viewBox="0 0 24 24" fill="none" xmlns="http://www.w3.org/2000/svg">
<path fill-rule="evenodd" clip-rule="evenodd" d="M7.25 2C5.45507 2 4 3.45507 4 5.25L4 18.75C4 20.5449 5.45507 22 7.25 22L16.75 22C18.5449 22 20 20.5449 20 18.75L20 5.25C20 3.45507 18.5449 2 16.75 2L7.25 2ZM5.5 5.25C5.5 4.2835 6.2835 3.5 7.25 3.5L16.75 3.5C17.7165 3.5 18.5 4.2835 18.5 5.25L18.5 18.75C18.5 19.7165 17.7165 20.5 16.75 20.5L7.25 20.5C6.2835 20.5 5.5 19.7165 5.5 18.75L5.5 5.25ZM8.75 5C7.7835 5 7 5.7835 7 6.75L7 8.25C7 9.2165 7.7835 10 8.75 10L15.25 10C16.2165 10 17 9.2165 17 8.25V6.75C17 5.7835 16.2165 5 15.25 5L8.75 5ZM8.5 6.75C8.5 6.61193 8.61193 6.5 8.75 6.5L15.25 6.5C15.3881 6.5 15.5 6.61193 15.5 6.75V8.25C15.5 8.38807 15.3881 8.5 15.25 8.5L8.75 8.5C8.61193 8.5 8.5 8.38807 8.5 8.25L8.5 6.75ZM9.5 13.25C9.5 13.9404 8.94036 14.5 8.25 14.5C7.55964 14.5 7 13.9404 7 13.25C7 12.5596 7.55964 12 8.25 12C8.94036 12 9.5 12.5596 9.5 13.25ZM8.25 18.5C8.94036 18.5 9.5 17.9404 9.5 17.25C9.5 16.5596 8.94036 16 8.25 16C7.55964 16 7 16.5596 7 17.25C7 17.9404 7.55964 18.5 8.25 18.5ZM13.25 13.25C13.25 13.9404 12.6904 14.5 12 14.5C11.3096 14.5 10.75 13.9404 10.75 13.25C10.75 12.5596 11.3096 12 12 12C12.6904 12 13.25 12.5596 13.25 13.25ZM12 18.5C12.6904 18.5 13.25 17.9404 13.25 17.25C13.25 16.5596 12.6904 16 12 16C11.3096 16 10.75 16.5596 10.75 17.25C10.75 17.9404 11.3096 18.5 12 18.5ZM17 13.25C17 13.9404 16.4404 14.5 15.75 14.5C15.0596 14.5 14.5 13.9404 14.5 13.25C14.5 12.5596 15.0596 12 15.75 12C16.4404 12 17 12.5596 17 13.25ZM15.75 18.5C16.4404 18.5 17 17.9404 17 17.25C17 16.5596 16.4404 16 15.75 16C15.0596 16 14.5 16.5596 14.5 17.25C14.5 17.9404 15.0596 18.5 15.75 18.5Z" fill="#262626"/>
</svg>
