<svg width="current" height="current" viewBox="0 0 24 24" fill="none" xmlns="http://www.w3.org/2000/svg">
<path fill-rule="evenodd" clip-rule="evenodd" d="M3.28033 2.21967C2.98744 1.92678 2.51256 1.92678 2.21967 2.21967C1.92678 2.51256 1.92678 2.98744 2.21967 3.28033L4.03359 5.09425C2.86219 5.40947 2 6.47904 2 7.75L2 16.25C2 17.7688 3.23122 19 4.75 19L17.9393 19L20.7197 21.7803C21.0126 22.0732 21.4874 22.0732 21.7803 21.7803C22.0732 21.4874 22.0732 21.0126 21.7803 20.7197L3.28033 2.21967ZM16.4393 17.5L4.75 17.5C4.05964 17.5 3.5 16.9404 3.5 16.25L3.5 7.75C3.5 7.05964 4.05964 6.5 4.75 6.5H5.43934L8.00193 9.06259C8.03295 9.56502 8.43498 9.96705 8.93741 9.99807L10.0474 11.1081C9.72255 11.2732 9.5 11.6106 9.5 12C9.5 12.5523 9.94772 13 10.5 13C10.8894 13 11.2268 12.7775 11.3919 12.4526L13.4393 14.5L6.75 14.5C6.33579 14.5 6 14.8358 6 15.25C6 15.6642 6.33579 16 6.75 16L14.9393 16L16.4393 17.5ZM19.25 5L8.06066 5L9.56066 6.5L19.25 6.5C19.9404 6.5 20.5 7.05964 20.5 7.75L20.5 16.25C20.5 16.5797 20.3723 16.8797 20.1637 17.103L21.2246 18.164C21.7046 17.6689 22 16.994 22 16.25L22 7.75C22 6.23122 20.7688 5 19.25 5ZM12 8C11.7393 8 11.5019 8.09977 11.3239 8.26321L12.7368 9.67613C12.9002 9.49812 13 9.26071 13 9C13 8.44771 12.5523 8 12 8ZM7 9C7 9.55229 6.55228 10 6 10C5.44772 10 5 9.55229 5 9C5 8.44771 5.44772 8 6 8C6.55228 8 7 8.44771 7 9ZM15 10C15.5523 10 16 9.55229 16 9C16 8.44771 15.5523 8 15 8C14.4477 8 14 8.44771 14 9C14 9.55229 14.4477 10 15 10ZM19 9C19 9.55229 18.5523 10 18 10C17.4477 10 17 9.55229 17 9C17 8.44771 17.4477 8 18 8C18.5523 8 19 8.44771 19 9ZM7.5 13C8.05228 13 8.5 12.5523 8.5 12C8.5 11.4477 8.05228 11 7.5 11C6.94772 11 6.5 11.4477 6.5 12C6.5 12.5523 6.94772 13 7.5 13ZM17.5 12C17.5 12.5523 17.0523 13 16.5 13C15.9477 13 15.5 12.5523 15.5 12C15.5 11.4477 15.9477 11 16.5 11C17.0523 11 17.5 11.4477 17.5 12Z" fill="#262626"/>
</svg>
