<svg width="current" height="current" viewBox="0 0 24 24" fill="none" xmlns="http://www.w3.org/2000/svg">
<path fill-rule="evenodd" clip-rule="evenodd" d="M4.5 5.5L19.5 5.5C20.0523 5.5 20.5 5.94772 20.5 6.5V14.5C20.5 15.0523 20.0523 15.5 19.5 15.5H17V12.25L18 12.25C18.4142 12.25 18.75 11.9142 18.75 11.5C18.75 11.0858 18.4142 10.75 18 10.75L6 10.75C5.58579 10.75 5.25 11.0858 5.25 11.5C5.25 11.9142 5.58579 12.25 6 12.25L7 12.25L7 15.5H4.5C3.94772 15.5 3.5 15.0523 3.5 14.5V6.5C3.5 5.94772 3.94772 5.5 4.5 5.5ZM7 17V19C7 19.5523 7.44772 20 8 20H16C16.5523 20 17 19.5523 17 19L17 17H19.5C20.8807 17 22 15.8807 22 14.5V6.5C22 5.11929 20.8807 4 19.5 4L4.5 4C3.11929 4 2 5.11929 2 6.5L2 14.5C2 15.8807 3.11929 17 4.5 17L7 17ZM16 19L8 19L8 12.25L16 12.25L16 19ZM5.25 8C5.25 7.58579 5.58579 7.25 6 7.25L12 7.25C12.4142 7.25 12.75 7.58579 12.75 8C12.75 8.41421 12.4142 8.75 12 8.75L6 8.75C5.58579 8.75 5.25 8.41421 5.25 8ZM18.75 8C18.75 8.55228 18.3023 9 17.75 9C17.1977 9 16.75 8.55229 16.75 8C16.75 7.44772 17.1977 7 17.75 7C18.3023 7 18.75 7.44772 18.75 8ZM8.5 14.5C8.5 14.2239 8.72386 14 9 14H15C15.2761 14 15.5 14.2239 15.5 14.5C15.5 14.7761 15.2761 15 15 15H9C8.72386 15 8.5 14.7761 8.5 14.5ZM9 16.5C8.72386 16.5 8.5 16.7239 8.5 17C8.5 17.2761 8.72386 17.5 9 17.5H15C15.2761 17.5 15.5 17.2761 15.5 17C15.5 16.7239 15.2761 16.5 15 16.5H9Z" fill="#262626"/>
</svg>
