<svg width="current" height="current" viewBox="0 0 24 24" fill="none" xmlns="http://www.w3.org/2000/svg">
<path fill-rule="evenodd" clip-rule="evenodd" d="M8.5 5.5C8.5 3.567 10.067 2 12 2C13.933 2 15.5 3.567 15.5 5.5V11C15.5 12.933 13.933 14.5 12 14.5C10.067 14.5 8.5 12.933 8.5 11V5.5ZM12 3.5C10.8954 3.5 10 4.39543 10 5.5V11C10 12.1046 10.8954 13 12 13C13.1046 13 14 12.1046 14 11V5.5C14 4.39543 13.1046 3.5 12 3.5ZM6 10.25C6.41421 10.25 6.75 10.5858 6.75 11C6.75 13.8995 9.1005 16.25 12 16.25C14.8995 16.25 17.25 13.8995 17.25 11C17.25 10.5858 17.5858 10.25 18 10.25C18.4142 10.25 18.75 10.5858 18.75 11C18.75 14.4744 16.125 17.3357 12.75 17.7088V20.5H15.75C16.1642 20.5 16.5 20.8358 16.5 21.25C16.5 21.6642 16.1642 22 15.75 22H12.75H11.25H8.25C7.83579 22 7.5 21.6642 7.5 21.25C7.5 20.8358 7.83579 20.5 8.25 20.5H11.25V17.7088C7.87504 17.3357 5.25 14.4744 5.25 11C5.25 10.5858 5.58579 10.25 6 10.25Z" fill="#262626"/>
</svg>
