<svg width="current" height="current" viewBox="0 0 24 24" fill="none" xmlns="http://www.w3.org/2000/svg">
<path fill-rule="evenodd" clip-rule="evenodd" d="M8.67919 4.20103C7.62175 4.6031 6.80106 5.06972 6.46865 5.33565C6.14521 5.59441 5.67324 5.54197 5.41448 5.21852C5.15572 4.89507 5.20817 4.42311 5.53161 4.16435C6.03254 3.76361 7.01185 3.23023 8.14608 2.79897C9.28857 2.36456 10.6754 2 12.0001 2C13.3249 2 14.7117 2.36456 15.8542 2.79897C16.9884 3.23023 17.9677 3.76361 18.4687 4.16435C18.7921 4.42311 18.8445 4.89507 18.5858 5.21852C18.327 5.54197 17.8551 5.59441 17.5316 5.33565C17.1992 5.06972 16.3785 4.6031 15.3211 4.20103C14.2719 3.80211 13.0754 3.5 12.0001 3.5C10.9249 3.5 9.72836 3.80211 8.67919 4.20103ZM12.0001 5.75C8.34781 5.75 6.06342 8.19506 5.40381 9.3677C5.20074 9.72871 4.74346 9.85675 4.38244 9.65368C4.02142 9.45061 3.89338 8.99332 4.09645 8.6323C4.93684 7.13827 7.65245 4.25 12.0001 4.25C16.3604 4.25 18.98 7.15274 19.8861 8.6025C20.1057 8.95375 19.9989 9.41647 19.6476 9.636C19.2964 9.85553 18.8337 9.74875 18.6141 9.3975C17.8536 8.18059 15.6399 5.75 12.0001 5.75ZM11.9824 6.75021C14.5348 6.68978 16.7211 7.5792 18.1146 9.5699C20.0724 12.3668 19.9956 15.8346 18.1825 19.8111C18.0107 20.188 17.5659 20.3543 17.189 20.1824C16.8121 20.0106 16.6459 19.5658 16.8177 19.1889C18.5047 15.4888 18.4279 12.6332 16.8857 10.4301C15.8401 8.93635 14.1828 8.19853 12.0179 8.24979C9.16879 8.31725 7.12362 10.0012 6.21165 12.7372C5.76086 14.0895 5.9078 15.233 6.27632 15.8779C6.45727 16.1946 6.672 16.3632 6.87047 16.4319C7.05841 16.4969 7.31749 16.5028 7.66472 16.3292C8.69461 15.8142 8.99588 14.9942 9.34959 14.0314L9.36565 13.9878C9.5331 13.5322 9.74531 12.9563 10.1381 12.5154C10.5801 12.0193 11.1886 11.75 12.0001 11.75C12.7197 11.75 13.3468 11.8935 13.8504 12.2253C14.3654 12.5648 14.6757 13.0516 14.842 13.5919C15.1544 14.6074 14.9834 15.9079 14.7356 17.1471C14.4481 18.5844 13.5061 19.6633 12.5328 20.4233C11.555 21.1869 10.4747 21.6856 9.76347 21.9522C9.37563 22.0977 8.94333 21.9012 8.79789 21.5133C8.65245 21.1255 8.84895 20.6932 9.23679 20.5478C9.85894 20.3144 10.79 19.8811 11.6096 19.2411C12.4337 18.5976 13.075 17.8014 13.2647 16.8529C13.5169 15.5921 13.5959 14.6426 13.4083 14.0331C13.3246 13.7609 13.1973 13.5914 13.0249 13.4778C12.841 13.3565 12.5306 13.25 12.0001 13.25C11.5616 13.25 11.3809 13.3754 11.258 13.5132C11.086 13.7064 10.9579 14.0036 10.7735 14.5053L10.7288 14.6276C10.3895 15.5579 9.90514 16.886 8.33554 17.6708C7.68277 17.9972 7.00435 18.0656 6.3798 17.8494C5.76576 17.6368 5.293 17.1804 4.97395 16.6221C4.34246 15.517 4.23941 13.9105 4.78862 12.2628C5.87664 8.99876 8.42819 6.83436 11.9824 6.75021ZM12.083 14.2546C12.4946 14.3003 12.7913 14.6711 12.7455 15.0828C12.5161 17.1481 11.3986 18.4648 10.1131 19.2418C8.85668 20.0013 7.441 20.25 6.50013 20.25C6.08592 20.25 5.75013 19.9142 5.75013 19.5C5.75013 19.0858 6.08592 18.75 6.50013 18.75C7.22594 18.75 8.36025 18.5487 9.33715 17.9582C10.285 17.3852 11.0842 16.4519 11.2547 14.9172C11.3005 14.5055 11.6713 14.2088 12.083 14.2546ZM12.0001 9.25C10.7702 9.25 9.4706 9.85216 8.48979 10.7629C7.50122 11.6809 6.75013 12.9933 6.75013 14.5C6.75013 14.9142 7.08592 15.25 7.50013 15.25C7.91435 15.25 8.25013 14.9142 8.25013 14.5C8.25013 13.5067 8.74904 12.5691 9.51047 11.8621C10.2797 11.1478 11.23 10.75 12.0001 10.75C12.9665 10.75 13.889 10.878 14.5642 11.3603C15.187 11.8052 15.7501 12.6655 15.7501 14.5C15.7501 17.4577 14.1965 19.743 13.4698 20.4697C13.1769 20.7626 13.1769 21.2374 13.4698 21.5303C13.7627 21.8232 14.2376 21.8232 14.5305 21.5303C15.4704 20.5904 17.2501 17.9423 17.2501 14.5C17.2501 12.3345 16.5632 10.9448 15.4361 10.1397C14.3612 9.37196 13.0337 9.25 12.0001 9.25Z" fill="#262626"/>
</svg>
