<svg width="current" height="current" viewBox="0 0 24 24" fill="none" xmlns="http://www.w3.org/2000/svg">
<path fill-rule="evenodd" clip-rule="evenodd" d="M12 5.25C6.47715 5.25 2 9.72715 2 15.25V18C2 18.4142 2.33579 18.75 2.75 18.75H12H21.25C21.6642 18.75 22 18.4142 22 18V15.25C22 9.72715 17.5228 5.25 12 5.25ZM11.25 6.78263C7.15398 7.14072 3.89072 10.404 3.53263 14.5H5.5C5.91421 14.5 6.25 14.8358 6.25 15.25C6.25 15.6642 5.91421 16 5.5 16H3.5V17.25H11.524L15.3214 9.18065C15.4978 8.80586 15.9446 8.64501 16.3193 8.82139C16.6941 8.99776 16.855 9.44456 16.6786 9.81935L13.1818 17.25H20.5V16H18.5C18.0858 16 17.75 15.6642 17.75 15.25C17.75 14.8358 18.0858 14.5 18.5 14.5H20.4674C20.1093 10.404 16.846 7.14072 12.75 6.78263V8.5C12.75 8.91421 12.4142 9.25 12 9.25C11.5858 9.25 11.25 8.91421 11.25 8.5V6.78263Z" fill="#262626"/>
</svg>
