<svg width="current" height="current" viewBox="0 0 24 24" fill="none" xmlns="http://www.w3.org/2000/svg">
<path fill-rule="evenodd" clip-rule="evenodd" d="M11.75 3.56265C9.79111 5.54144 7.30127 7.01687 4.5035 7.76912C4.50117 7.87365 4.5 7.97846 4.5 8.08355C4.5 13.4281 7.52686 18.0828 12 20.4975C16.4731 18.0828 19.5 13.4281 19.5 8.08355C19.5 8.0208 19.4996 7.95814 19.4988 7.89558C16.4968 7.19057 13.8254 5.65911 11.75 3.56265ZM10.8185 2.39303C11.3224 1.86898 12.1776 1.86899 12.6815 2.39304C14.6219 4.41113 17.1592 5.8724 20.0161 6.50829C20.5504 6.62722 20.9786 7.08235 20.9943 7.66251C20.9981 7.80242 21 7.94278 21 8.08355C21 14.0388 17.5937 19.2154 12.585 21.8557C12.2199 22.0481 11.7801 22.0481 11.415 21.8557C6.40632 19.2154 3 14.0388 3 8.08355C3 7.89904 3.00327 7.71524 3.00977 7.53221C3.02964 6.97212 3.43448 6.52898 3.94709 6.39728C6.61494 5.71187 8.98363 4.30141 10.8185 2.39303Z" fill="#262626"/>
</svg>
