<svg width="current" height="current" viewBox="0 0 24 24" fill="none" xmlns="http://www.w3.org/2000/svg">
<path fill-rule="evenodd" clip-rule="evenodd" d="M12 2C9.65279 2 7.75 3.90279 7.75 6.25V9H7.25C5.45507 9 4 10.4551 4 12.25V18.75C4 20.5449 5.45507 22 7.25 22H16.75C18.5449 22 20 20.5449 20 18.75V12.25C20 10.4551 18.5449 9 16.75 9H16.25V6.25C16.25 3.90279 14.3472 2 12 2ZM14.75 9V6.25C14.75 4.73122 13.5188 3.5 12 3.5C10.4812 3.5 9.25 4.73122 9.25 6.25V9H14.75ZM5.5 12.25C5.5 11.2835 6.2835 10.5 7.25 10.5H16.75C17.7165 10.5 18.5 11.2835 18.5 12.25V18.75C18.5 19.7165 17.7165 20.5 16.75 20.5H7.25C6.2835 20.5 5.5 19.7165 5.5 18.75V12.25ZM12.75 16.2993C13.1984 16.04 13.5 15.5552 13.5 15C13.5 14.1716 12.8284 13.5 12 13.5C11.1716 13.5 10.5 14.1716 10.5 15C10.5 15.5552 10.8016 16.04 11.25 16.2993V16.75C11.25 17.1642 11.5858 17.5 12 17.5C12.4142 17.5 12.75 17.1642 12.75 16.75V16.2993Z" fill="#262626"/>
</svg>
