<svg width="current" height="current" viewBox="0 0 24 24" fill="none" xmlns="http://www.w3.org/2000/svg">
<path fill-rule="evenodd" clip-rule="evenodd" d="M4.27002 6.19971C3.63183 4.11108 5.1942 2 7.37817 2H16.6222C18.8061 2 20.3685 4.11107 19.7303 6.19971L18.5081 10.1997C18.0905 11.5664 16.8291 12.5 15.4 12.5H15.2502V18.7801C15.2502 19.6655 14.7309 20.4686 13.9235 20.8319L11.9235 21.7319C10.4346 22.402 8.75018 21.3129 8.75018 19.6801V12.5H8.60039C7.17128 12.5 5.90986 11.5664 5.49225 10.1997L4.27002 6.19971ZM14.5002 11C14.086 11 13.7502 11.3358 13.7502 11.75V18.7801C13.7502 19.0753 13.5771 19.343 13.308 19.4641L11.308 20.3641C10.8116 20.5874 10.2502 20.2244 10.2502 19.6801V11.75C10.2502 11.3358 9.91439 11 9.50018 11H8.60039C7.83087 11 7.15164 10.4973 6.92677 9.76138L5.70455 5.76138C5.36091 4.63673 6.20219 3.5 7.37817 3.5H16.6222C17.7982 3.5 18.6394 4.63673 18.2958 5.76138L17.0736 9.76138C16.8487 10.4973 16.1695 11 15.4 11H14.5002ZM10.0002 5.5C9.58597 5.5 9.25018 5.83579 9.25018 6.25C9.25018 6.66421 9.58597 7 10.0002 7H14.0002C14.4144 7 14.7502 6.66421 14.7502 6.25C14.7502 5.83579 14.4144 5.5 14.0002 5.5H10.0002Z" fill="#262626"/>
</svg>
