<svg width="current" height="current" viewBox="0 0 24 24" fill="none" xmlns="http://www.w3.org/2000/svg">
<path fill-rule="evenodd" clip-rule="evenodd" d="M16.5 6C16.5 5.17157 17.1716 4.5 18 4.5C18.8284 4.5 19.5 5.17157 19.5 6C19.5 6.82843 18.8284 7.5 18 7.5C17.4553 7.5 16.9785 7.2097 16.7157 6.77538C16.7039 6.7379 16.689 6.70086 16.6708 6.66459C16.6526 6.62809 16.6317 6.59374 16.6087 6.56163C16.5386 6.38816 16.5 6.19859 16.5 6ZM15.0659 6.6285C15.0227 6.42582 15 6.21557 15 6C15 4.34315 16.3431 3 18 3C19.6569 3 21 4.34315 21 6C21 7.65685 19.6569 9 18 9C17.0971 9 16.2873 8.60109 15.7373 7.96988L8.93406 11.3715C8.97726 11.5742 9 11.7844 9 12C9 12.2156 8.97726 12.4258 8.93406 12.6285L15.7373 16.0301C16.2873 15.3989 17.0971 15 18 15C19.6569 15 21 16.3431 21 18C21 19.6569 19.6569 21 18 21C16.3431 21 15 19.6569 15 18C15 17.7844 15.0227 17.5742 15.0659 17.3715L8.26271 13.9699C7.71272 14.6011 6.90295 15 6 15C4.34315 15 3 13.6569 3 12C3 10.3431 4.34315 9 6 9C6.90295 9 7.71272 9.39891 8.26271 10.0301L15.0659 6.6285ZM7.28431 11.2246C7.02153 10.7903 6.54467 10.5 6 10.5C5.17157 10.5 4.5 11.1716 4.5 12C4.5 12.8284 5.17157 13.5 6 13.5C6.54467 13.5 7.02153 13.2097 7.28431 12.7754C7.29612 12.7379 7.31104 12.7009 7.32918 12.6646C7.34743 12.6281 7.36825 12.5937 7.39132 12.5616C7.46141 12.3882 7.5 12.1986 7.5 12C7.5 11.8014 7.46141 11.6118 7.39132 11.4384C7.36825 11.4063 7.34743 11.3719 7.32918 11.3354C7.31104 11.2991 7.29612 11.2621 7.28431 11.2246ZM16.6087 17.4384C16.5386 17.6118 16.5 17.8014 16.5 18C16.5 18.8284 17.1716 19.5 18 19.5C18.8284 19.5 19.5 18.8284 19.5 18C19.5 17.1716 18.8284 16.5 18 16.5C17.4553 16.5 16.9785 16.7903 16.7157 17.2246C16.7039 17.2621 16.689 17.2991 16.6708 17.3354C16.6526 17.3719 16.6317 17.4063 16.6087 17.4384Z" fill="#262626"/>
</svg>
