<svg width="current" height="current" viewBox="0 0 24 24" fill="none" xmlns="http://www.w3.org/2000/svg">
<path fill-rule="evenodd" clip-rule="evenodd" d="M3.74704 9.4038C3.41765 9.73177 3.41765 10.2635 3.74704 10.5915C4.07642 10.9194 4.61046 10.9194 4.93984 10.5915C8.83906 6.70902 15.1609 6.70902 19.0602 10.5915C19.3895 10.9194 19.9236 10.9194 20.253 10.5915C20.5823 10.2635 20.5823 9.73177 20.253 9.4038C15.695 4.8654 8.30502 4.8654 3.74704 9.4038ZM6.36165 13.1947C6.03227 12.8667 6.03227 12.335 6.36165 12.007C9.47572 8.90632 14.5246 8.90632 17.6387 12.007C17.9681 12.335 17.9681 12.8667 17.6387 13.1947C17.3093 13.5227 16.7753 13.5227 16.4459 13.1947C13.9906 10.7499 10.0098 10.7499 7.55445 13.1947C7.22507 13.5227 6.69103 13.5227 6.36165 13.1947ZM8.60259 15.426C8.2732 15.098 8.2732 14.5663 8.60259 14.2383C10.479 12.3699 13.5213 12.3699 15.3978 14.2383C15.7271 14.5663 15.7271 15.098 15.3978 15.426C15.0684 15.754 14.5343 15.754 14.2049 15.426C12.9873 14.2136 11.0131 14.2136 9.79539 15.426C9.46601 15.754 8.93197 15.754 8.60259 15.426ZM12 18C12.5523 18 13 17.5523 13 17C13 16.4477 12.5523 16 12 16C11.4477 16 11 16.4477 11 17C11 17.5523 11.4477 18 12 18Z" fill="#262626"/>
</svg>
