<svg width="current" height="current" viewBox="0 0 13 13" fill="none" xmlns="http://www.w3.org/2000/svg">
<circle cx="6.5" cy="6.5" r="6.5" transform="rotate(180 6.5 6.5)" fill="#FFD9BE"/>
<path fill-rule="evenodd" clip-rule="evenodd" d="M6.5 2.25C4.15279 2.25 2.25 4.15279 2.25 6.5C2.25 8.84721 4.15279 10.75 6.5 10.75C8.84721 10.75 10.75 8.84721 10.75 6.5C10.75 4.15279 8.84721 2.25 6.5 2.25ZM6.5 1C3.46243 1 0.999999 3.46243 1 6.5C1 9.53757 3.46243 12 6.5 12C9.53757 12 12 9.53757 12 6.5C12 3.46243 9.53757 1 6.5 1ZM5.64645 8.85355C5.84171 9.04882 6.15829 9.04882 6.35355 8.85355C6.54882 8.65829 6.54882 8.34171 6.35355 8.14645L5.20711 7L9 7C9.27614 7 9.5 6.77614 9.5 6.5C9.5 6.22386 9.27614 6 9 6L5.20711 6L6.35355 4.85355C6.54882 4.65829 6.54882 4.34171 6.35355 4.14645C6.15829 3.95118 5.84171 3.95118 5.64645 4.14645L3.64645 6.14645C3.45118 6.34171 3.45118 6.65829 3.64645 6.85355L5.64645 8.85355Z" fill="#262626"/>
</svg>
