<svg width="current" height="current" viewBox="0 0 13 13" fill="none" xmlns="http://www.w3.org/2000/svg">
<circle cx="6.5" cy="6.5" r="6.5" transform="rotate(-90 6.5 6.5)" fill="#FFD9BE"/>
<path fill-rule="evenodd" clip-rule="evenodd" d="M10.75 6.5C10.75 8.84721 8.84721 10.75 6.5 10.75C4.15279 10.75 2.25 8.84721 2.25 6.5C2.25 4.15279 4.15279 2.25 6.5 2.25C8.84721 2.25 10.75 4.15279 10.75 6.5ZM6.5 12C9.53757 12 12 9.53757 12 6.5C12 3.46243 9.53757 1 6.5 1C3.46243 0.999999 1 3.46243 1 6.5C1 9.53757 3.46243 12 6.5 12ZM6.5 9.5C6.22386 9.5 6 9.27614 6 9L6 5.5C6 5.22386 6.22386 5 6.5 5C6.77614 5 7 5.22386 7 5.5L7 9C7 9.27614 6.77614 9.5 6.5 9.5ZM6.5 3.5C6.22386 3.5 6 3.72386 6 4C6 4.27614 6.22386 4.5 6.5 4.5C6.77614 4.5 7 4.27614 7 4C7 3.72386 6.77614 3.5 6.5 3.5Z" fill="#262626"/>
</svg>
