<svg width="current" height="current" viewBox="0 0 13 13" fill="none" xmlns="http://www.w3.org/2000/svg">
<circle cx="6.5" cy="6.5" r="6.5" fill="#FFD9BE"/>
<path fill-rule="evenodd" clip-rule="evenodd" d="M6.5 10.75C8.84721 10.75 10.75 8.84721 10.75 6.5C10.75 4.15279 8.84721 2.25 6.5 2.25C4.15279 2.25 2.25 4.15279 2.25 6.5C2.25 8.84721 4.15279 10.75 6.5 10.75ZM6.5 12C9.53757 12 12 9.53757 12 6.5C12 3.46243 9.53757 1 6.5 1C3.46243 1 1 3.46243 1 6.5C1 9.53757 3.46243 12 6.5 12ZM8.91523 4.53287C9.17322 4.76219 9.19646 5.15724 8.96713 5.41523L6.30046 8.41523C6.18186 8.54866 6.01186 8.625 5.83333 8.625C5.65481 8.625 5.48481 8.54866 5.3662 8.41523L4.03287 6.91523C3.80354 6.65724 3.82678 6.26219 4.08477 6.03287C4.34276 5.80354 4.73781 5.82678 4.96713 6.08477L5.83333 7.05925L8.03287 4.58477C8.26219 4.32678 8.65724 4.30354 8.91523 4.53287Z" fill="#262626"/>
</svg>
