<svg width="current" height="current" viewBox="0 0 13 13" fill="none" xmlns="http://www.w3.org/2000/svg">
<circle cx="6.5" cy="6.5" r="6.5" fill="#FFD9BE"/>
<path fill-rule="evenodd" clip-rule="evenodd" d="M9.5052 3.4948C11.1649 5.15452 11.1649 7.84548 9.5052 9.5052C7.84548 11.1649 5.15452 11.1649 3.4948 9.5052C1.83507 7.84548 1.83507 5.15452 3.4948 3.4948C5.15452 1.83507 7.84548 1.83507 9.5052 3.4948ZM10.3891 10.3891C8.2412 12.537 4.7588 12.537 2.61091 10.3891C0.463029 8.2412 0.463029 4.7588 2.61091 2.61091C4.7588 0.463029 8.2412 0.463029 10.3891 2.61091C12.537 4.7588 12.537 8.2412 10.3891 10.3891ZM5.875 8.97487C5.875 9.32005 6.15482 9.59987 6.5 9.59987C6.84518 9.59987 7.125 9.32005 7.125 8.97487V7.125H8.97487C9.32005 7.125 9.59987 6.84518 9.59987 6.5C9.59987 6.15482 9.32005 5.875 8.97487 5.875H7.125V4.02513C7.125 3.67995 6.84518 3.40013 6.5 3.40013C6.15482 3.40013 5.875 3.67995 5.875 4.02513L5.875 5.875H4.02513C3.67995 5.875 3.40013 6.15482 3.40013 6.5C3.40013 6.84518 3.67995 7.125 4.02513 7.125H5.875V8.97487Z" fill="#262626"/>
</svg>
