<svg width="current" height="current" viewBox="0 0 13 13" fill="none" xmlns="http://www.w3.org/2000/svg">
<circle cx="6.5" cy="6.5" r="6.5" transform="rotate(-90 6.5 6.5)" fill="#FFD9BE"/>
<path fill-rule="evenodd" clip-rule="evenodd" d="M2.25 6.5C2.25 4.15279 4.15279 2.25 6.5 2.25C8.84721 2.25 10.75 4.15279 10.75 6.5C10.75 8.84721 8.84721 10.75 6.5 10.75C4.15279 10.75 2.25 8.84721 2.25 6.5ZM6.5 1C3.46243 1 1 3.46243 1 6.5C1 9.53757 3.46243 12 6.5 12C9.53757 12 12 9.53757 12 6.5C12 3.46243 9.53757 1 6.5 1ZM6.35355 4.35355C6.54882 4.15829 6.54882 3.84171 6.35355 3.64645C6.15829 3.45118 5.84171 3.45118 5.64645 3.64645L4.14645 5.14645C3.95118 5.34171 3.95118 5.65829 4.14645 5.85355L5.64645 7.35355C5.84171 7.54882 6.15829 7.54882 6.35355 7.35355C6.54882 7.15829 6.54882 6.84171 6.35355 6.64645L5.70753 6H6.5C7.12129 6 7.43835 6.19475 7.6385 6.515C7.8725 6.8894 8 7.51798 8 8.5C8 8.77614 8.22386 9 8.5 9C8.77614 9 9 8.77614 9 8.5C9 7.48202 8.8775 6.6106 8.4865 5.985C8.06165 5.30525 7.37871 5 6.5 5H5.70711L6.35355 4.35355Z" fill="#262626"/>
</svg>
