<svg width="current" height="current" viewBox="0 0 10 11" fill="none" xmlns="http://www.w3.org/2000/svg">
<path fill-rule="evenodd" clip-rule="evenodd" d="M3 2C3 0.895431 3.89543 0 5 0C6.10457 0 7 0.895431 7 2V3.26756C7.29417 3.09739 7.63571 3 8 3C9.10457 3 10 3.89543 10 5V9C10 10.1046 9.10457 11 8 11C7.40265 11 6.86647 10.7381 6.5 10.3229C6.13353 10.7381 5.59735 11 5 11C4.40265 11 3.86647 10.7381 3.5 10.3229C3.13353 10.7381 2.59735 11 2 11C0.895431 11 0 10.1046 0 9V6C0 4.89543 0.895431 4 2 4C2.36429 4 2.70583 4.09739 3 4.26756V2Z" fill="#FFD9BE"/>
<path fill-rule="evenodd" clip-rule="evenodd" d="M8 4C7.44772 4 7 4.44772 7 5V9C7 9.55228 7.44772 10 8 10C8.55228 10 9 9.55228 9 9V5C9 4.44772 8.55228 4 8 4ZM4 2C4 1.44771 4.44772 1 5 1C5.55228 1 6 1.44772 6 2V9C6 9.55228 5.55228 10 5 10C4.44772 10 4 9.55228 4 9V2ZM2 5C1.44772 5 1 5.44771 1 6V9C1 9.55228 1.44772 10 2 10C2.55228 10 3 9.55228 3 9V6C3 5.44772 2.55228 5 2 5Z" fill="#262626"/>
<path fill-rule="evenodd" clip-rule="evenodd" d="M8 4C7.44772 4 7 4.44772 7 5V9C7 9.55228 7.44772 10 8 10C8.55228 10 9 9.55228 9 9V5C9 4.44772 8.55228 4 8 4ZM4 2C4 1.44771 4.44772 1 5 1C5.55228 1 6 1.44772 6 2V9C6 9.55228 5.55228 10 5 10C4.44772 10 4 9.55228 4 9V2ZM2 5C1.44772 5 1 5.44771 1 6V9C1 9.55228 1.44772 10 2 10C2.55228 10 3 9.55228 3 9V6C3 5.44772 2.55228 5 2 5Z" fill="#262626"/>
</svg>
