<svg width="current" height="current" viewBox="0 0 13 13" fill="none" xmlns="http://www.w3.org/2000/svg">
<circle cx="6.5" cy="6.5" r="6.5" transform="rotate(-90 6.5 6.5)" fill="#FFD9BE"/>
<path fill-rule="evenodd" clip-rule="evenodd" d="M10.75 6.5C10.75 4.15279 8.84721 2.25 6.5 2.25C4.15279 2.25 2.25 4.15279 2.25 6.5C2.25 8.84721 4.15279 10.75 6.5 10.75C8.84721 10.75 10.75 8.84721 10.75 6.5ZM12 6.5C12 3.46243 9.53757 1 6.5 1C3.46243 1 1 3.46243 1 6.5C1 9.53757 3.46243 12 6.5 12C9.53757 12 12 9.53757 12 6.5ZM4.14645 5.64645C3.95118 5.84171 3.95118 6.15829 4.14645 6.35355C4.34171 6.54882 4.65829 6.54882 4.85355 6.35355L6 5.20711L6 9C6 9.27614 6.22386 9.5 6.5 9.5C6.77614 9.5 7 9.27614 7 9L7 5.20711L8.14645 6.35355C8.34171 6.54882 8.65829 6.54882 8.85355 6.35355C9.04882 6.15829 9.04882 5.84171 8.85355 5.64645L6.85355 3.64645C6.65829 3.45118 6.34171 3.45118 6.14645 3.64645L4.14645 5.64645Z" fill="#262626"/>
</svg>
