<svg width="current" height="current" viewBox="0 0 14 13" fill="none" xmlns="http://www.w3.org/2000/svg">
<path d="M6.17163 0.453994C6.54739 -0.151331 7.45261 -0.151331 7.82837 0.453994L9.4938 3.13688C9.62879 3.35435 9.84898 3.50944 10.104 3.56671L13.2506 4.27321C13.9605 4.43262 14.2403 5.26725 13.7626 5.80077L11.6453 8.16539C11.4737 8.35705 11.3896 8.608 11.4122 8.86086L11.6915 11.9804C11.7545 12.6842 11.0221 13.2001 10.3511 12.9245L7.37714 11.703C7.13609 11.604 6.86391 11.604 6.62286 11.703L3.64888 12.9245C2.97788 13.2001 2.24554 12.6842 2.30855 11.9804L2.58781 8.86086C2.61044 8.608 2.52634 8.35705 2.35472 8.16539L0.237446 5.80077C-0.240264 5.26725 0.0394646 4.43262 0.749407 4.27321L3.89597 3.56671C4.15102 3.50944 4.37121 3.35435 4.5062 3.13688L6.17163 0.453994Z" fill="#FFD9BE"/>
<path fill-rule="evenodd" clip-rule="evenodd" d="M6.32189 2.35984C6.62949 1.88006 7.37051 1.88005 7.67811 2.35984L8.96159 4.36176L11.3865 4.88894C11.9677 5.01528 12.1967 5.67682 11.8056 6.09968L10.1739 7.86412L10.3891 10.1919C10.4407 10.7497 9.84122 11.1586 9.29193 10.9401L7 10.0287L4.70807 10.9401C4.15879 11.1586 3.55929 10.7497 3.61086 10.1919L3.82608 7.86412L2.19437 6.09968C1.80332 5.67682 2.0323 5.01528 2.61347 4.88894L5.03841 4.36176L6.32189 2.35984ZM7 3.48511L5.97679 5.08108C5.86628 5.25344 5.68603 5.37637 5.47725 5.42176L3.54404 5.84204L4.84487 7.24868C4.98535 7.4006 5.0542 7.5995 5.03567 7.79991L4.8641 9.65563L6.69127 8.92901C6.8886 8.85054 7.1114 8.85054 7.30873 8.92901L9.1359 9.65563L8.96433 7.79991C8.9458 7.5995 9.01465 7.4006 9.15513 7.24868L10.456 5.84204L8.52275 5.42176C8.31397 5.37637 8.13372 5.25344 8.02321 5.08108L7 3.48511Z" fill="#262626"/>
</svg>
