<svg width="current" height="current" viewBox="0 0 13 13" fill="none" xmlns="http://www.w3.org/2000/svg">
<circle cx="6.5" cy="6.5" r="6.5" transform="rotate(90 6.5 6.5)" fill="#FFD9BE"/>
<path fill-rule="evenodd" clip-rule="evenodd" d="M2.25 6.5C2.25 8.84721 4.15279 10.75 6.5 10.75C8.84721 10.75 10.75 8.84721 10.75 6.5C10.75 4.15279 8.84721 2.25 6.5 2.25C4.15279 2.25 2.25 4.15279 2.25 6.5ZM1 6.5C1 9.53757 3.46243 12 6.5 12C9.53757 12 12 9.53757 12 6.5C12 3.46243 9.53757 1 6.5 1C3.46243 1 1 3.46244 1 6.5ZM8.85356 7.35355C9.04882 7.15829 9.04882 6.84171 8.85355 6.64645C8.65829 6.45118 8.34171 6.45118 8.14645 6.64645L7 7.79289L7 4C7 3.72386 6.77614 3.5 6.5 3.5C6.22386 3.5 6 3.72386 6 4L6 7.79289L4.85355 6.64645C4.65829 6.45119 4.34171 6.45119 4.14645 6.64645C3.95118 6.84171 3.95118 7.15829 4.14645 7.35355L6.14645 9.35355C6.34171 9.54882 6.65829 9.54882 6.85356 9.35355L8.85356 7.35355Z" fill="#262626"/>
</svg>
