<svg width="current" height="current" viewBox="0 0 13 13" fill="none" xmlns="http://www.w3.org/2000/svg">
<circle cx="6.5" cy="6.5" r="6.5" fill="#FFD9BE"/>
<path fill-rule="evenodd" clip-rule="evenodd" d="M6.5 10.75C8.84721 10.75 10.75 8.84721 10.75 6.5C10.75 4.15279 8.84721 2.25 6.5 2.25C4.15279 2.25 2.25 4.15279 2.25 6.5C2.25 8.84721 4.15279 10.75 6.5 10.75ZM6.5 12C9.53757 12 12 9.53757 12 6.5C12 3.46243 9.53757 1 6.5 1C3.46243 1 1 3.46243 1 6.5C1 9.53757 3.46243 12 6.5 12ZM8.69194 8.69194C8.44786 8.93602 8.05214 8.93602 7.80806 8.69194L6.5 7.38388L5.19194 8.69194C4.94786 8.93602 4.55214 8.93602 4.30806 8.69194C4.06398 8.44786 4.06398 8.05214 4.30806 7.80806L5.61612 6.5L4.30806 5.19194C4.06398 4.94786 4.06398 4.55214 4.30806 4.30806C4.55214 4.06398 4.94786 4.06398 5.19194 4.30806L6.5 5.61612L7.80806 4.30806C8.05214 4.06398 8.44786 4.06398 8.69194 4.30806C8.93602 4.55214 8.93602 4.94786 8.69194 5.19194L7.38388 6.5L8.69194 7.80806C8.93602 8.05214 8.93602 8.44786 8.69194 8.69194Z" fill="#262626"/>
</svg>
