<svg width="current" height="current" viewBox="0 0 13 13" fill="none" xmlns="http://www.w3.org/2000/svg">
<circle cx="6.5" cy="6.5" r="6.5" fill="#FFD9BE"/>
<path fill-rule="evenodd" clip-rule="evenodd" d="M6.5 10.75C8.84721 10.75 10.75 8.84721 10.75 6.5C10.75 4.15279 8.84721 2.25 6.5 2.25C4.15279 2.25 2.25 4.15279 2.25 6.5C2.25 8.84721 4.15279 10.75 6.5 10.75ZM6.5 12C9.53757 12 12 9.53757 12 6.5C12 3.46243 9.53757 1 6.5 1C3.46243 1 1 3.46243 1 6.5C1 9.53757 3.46243 12 6.5 12ZM7.35355 4.14645C7.15829 3.95118 6.84171 3.95118 6.64645 4.14645C6.45118 4.34171 6.45118 4.65829 6.64645 4.85355L7.79289 6H4C3.72386 6 3.5 6.22386 3.5 6.5C3.5 6.77614 3.72386 7 4 7H7.79289L6.64645 8.14645C6.45118 8.34171 6.45118 8.65829 6.64645 8.85355C6.84171 9.04882 7.15829 9.04882 7.35355 8.85355L9.35355 6.85355C9.54882 6.65829 9.54882 6.34171 9.35355 6.14645L7.35355 4.14645Z" fill="#262626"/>
</svg>
