<svg width="current" height="current" viewBox="0 0 13 13" fill="none" xmlns="http://www.w3.org/2000/svg">
<circle cx="6.5" cy="6.5" r="6.5" transform="rotate(-90 6.5 6.5)" fill="#FFD9BE"/>
<path fill-rule="evenodd" clip-rule="evenodd" d="M6.5 2.25C4.15279 2.25 2.25 4.15279 2.25 6.5C2.25 8.84721 4.15279 10.75 6.5 10.75C8.84721 10.75 10.75 8.84721 10.75 6.5C10.75 4.15279 8.84721 2.25 6.5 2.25ZM1 6.5C1 3.46243 3.46243 1 6.5 1C9.53757 1 12 3.46243 12 6.5C12 9.53757 9.53757 12 6.5 12C3.46243 12 1 9.53757 1 6.5ZM6.5 4.25C5.94772 4.25 5.5 4.69771 5.5 5.25C5.5 5.52614 5.27614 5.75 5 5.75C4.72386 5.75 4.5 5.52614 4.5 5.25C4.5 4.14543 5.39543 3.25 6.5 3.25C7.01198 3.25 7.51707 3.40511 7.89939 3.75722C8.28843 4.11553 8.5 4.63175 8.5 5.25C8.5 5.98566 7.95676 6.39393 7.62677 6.64194L7.58312 6.6748L7.55422 6.6968C7.17677 6.98618 7 7.1648 7 7.5C7 7.77614 6.77614 8 6.5 8C6.22386 8 6 7.77614 6 7.5C6 6.6352 6.57323 6.18882 6.94578 5.9032C7.38073 5.56974 7.5 5.45731 7.5 5.25C7.5 4.86825 7.37578 4.63447 7.22194 4.49278C7.06136 4.34489 6.81645 4.25 6.5 4.25ZM7 9C7 9.27614 6.77614 9.5 6.5 9.5C6.22386 9.5 6 9.27614 6 9C6 8.72386 6.22386 8.5 6.5 8.5C6.77614 8.5 7 8.72386 7 9Z" fill="#262626"/>
</svg>
