<svg width="current" height="current" viewBox="0 0 24 24" fill="none" xmlns="http://www.w3.org/2000/svg">
<path fill-rule="evenodd" clip-rule="evenodd" d="M3.5 12C3.5 7.30558 7.30558 3.5 12 3.5C16.6944 3.5 20.5 7.30558 20.5 12C20.5 16.6944 16.6944 20.5 12 20.5C7.30558 20.5 3.5 16.6944 3.5 12ZM12 2C6.47715 2 2 6.47715 2 12C2 17.5228 6.47715 22 12 22C17.5228 22 22 17.5228 22 12C22 6.47715 17.5228 2 12 2ZM12 6C12.4142 6 12.75 6.33579 12.75 6.75V11.25H17.25C17.6642 11.25 18 11.5858 18 12C18 12.4142 17.6642 12.75 17.25 12.75H12.75V17.25C12.75 17.6642 12.4142 18 12 18C11.5858 18 11.25 17.6642 11.25 17.25V12.75H6.75C6.33579 12.75 6 12.4142 6 12C6 11.5858 6.33579 11.25 6.75 11.25H11.25V6.75C11.25 6.33579 11.5858 6 12 6Z" fill="#262626"/>
</svg>
