<svg width="current" height="current" viewBox="0 0 24 24" fill="none" xmlns="http://www.w3.org/2000/svg">
<path fill-rule="evenodd" clip-rule="evenodd" d="M15.8302 3.00178C15.416 3.00199 15.0803 3.33795 15.0806 3.75216C15.0808 4.16638 15.4167 4.50199 15.8309 4.50178L18.4384 4.50044L13.7092 9.22959C13.4163 9.52248 13.4163 9.99736 13.7092 10.2902C14.0021 10.5831 14.477 10.5831 14.7699 10.2902L19.5006 5.55957L19.5014 8.16918C19.5016 8.58339 19.8375 8.91907 20.2517 8.91893C20.6659 8.91879 21.0016 8.58289 21.0014 8.16868L21 3.74926C20.9999 3.55033 20.9208 3.35957 20.7801 3.21896C20.6394 3.07835 20.4485 2.99941 20.2496 2.99951L15.8302 3.00178ZM8.17029 20.9977C8.58451 20.9975 8.92012 20.6615 8.91991 20.2473C8.9197 19.8331 8.58374 19.4975 8.16952 19.4977L5.56208 19.499L10.2912 14.7699C10.5841 14.477 10.5841 14.0021 10.2912 13.7092C9.99833 13.4163 9.52346 13.4163 9.23057 13.7092L4.49989 18.4399L4.49902 15.8303C4.49889 15.4161 4.16299 15.0804 3.74878 15.0805C3.33456 15.0807 2.99889 15.4166 2.99902 15.8308L3.00049 20.2502C3.00056 20.4492 3.07966 20.6399 3.22038 20.7805C3.36111 20.9211 3.55194 21.0001 3.75088 21L8.17029 20.9977Z" fill="#262626"/>
</svg>
