<svg width="current" height="current" viewBox="0 0 24 24" fill="none" xmlns="http://www.w3.org/2000/svg">
<path fill-rule="evenodd" clip-rule="evenodd" d="M18.6607 10.5096C19.0749 10.5094 19.4105 10.1734 19.4103 9.75922C19.4101 9.34501 19.0741 9.00939 18.6599 9.0096L16.0525 9.01094L20.7816 4.28179C21.0745 3.9889 21.0745 3.51403 20.7816 3.22113C20.4887 2.92824 20.0139 2.92824 19.721 3.22113L14.9903 7.95181L14.9894 5.34221C14.9893 4.92799 14.6534 4.59232 14.2392 4.59245C13.825 4.59259 13.4893 4.92849 13.4894 5.3427L13.4909 9.76212C13.491 9.96106 13.5701 10.1518 13.7108 10.2924C13.8515 10.433 14.0423 10.512 14.2413 10.5119L18.6607 10.5096ZM5.33865 13.49C4.92444 13.4902 4.58882 13.8262 4.58904 14.2404C4.58925 14.6546 4.92521 14.9902 5.33942 14.99L7.94686 14.9887L3.21772 19.7178C2.92482 20.0107 2.92482 20.4856 3.21772 20.7785C3.51061 21.0714 3.98548 21.0714 4.27838 20.7785L9.00906 16.0478L9.00992 18.6574C9.01006 19.0716 9.34596 19.4073 9.76017 19.4072C10.1744 19.407 10.5101 19.0711 10.5099 18.6569L10.5085 14.2375C10.5084 14.0386 10.4293 13.8478 10.2886 13.7072C10.1478 13.5666 9.95701 13.4876 9.75807 13.4877L5.33865 13.49Z" fill="#262626"/>
</svg>
