<svg width="current" height="current" viewBox="0 0 24 24" fill="none" xmlns="http://www.w3.org/2000/svg">
<path fill-rule="evenodd" clip-rule="evenodd" d="M5.81771 6.87837L2.21967 3.28033C1.92678 2.98744 1.92678 2.51256 2.21967 2.21967C2.51256 1.92678 2.98744 1.92678 3.28033 2.21967L21.7803 20.7197C22.0732 21.0126 22.0732 21.4874 21.7803 21.7803C21.4874 22.0732 21.0126 22.0732 20.7197 21.7803L18.1861 19.2468C18.1506 19.2489 18.1145 19.25 18.078 19.25H5.92205C5.06623 19.25 4.47687 18.6524 4.20745 18.0526C3.93844 17.4537 3.88868 16.653 4.30353 15.9968C4.90405 15.047 5.25001 13.5448 5.25001 12.2V9C5.25001 8.25067 5.45914 7.53482 5.81771 6.87837ZM16.6894 17.75H5.92205C5.84259 17.75 5.68975 17.6917 5.57574 17.438C5.46133 17.1833 5.48644 16.9328 5.5714 16.7984C6.26477 15.7017 6.75001 13.9214 6.75001 12.2V9C6.75001 8.6522 6.81375 8.31416 6.92996 7.99062L16.6894 17.75ZM17.25 12.2C17.25 12.9594 17.3445 13.7303 17.5095 14.4489L19.9964 16.9358C19.9752 16.6146 19.8826 16.2912 19.6965 15.9968C19.096 15.047 18.75 13.5447 18.75 12.2V9C18.75 6.07855 15.5713 3.66597 12.75 3.29847V2.75C12.75 2.33579 12.4142 2 12 2C11.5858 2 11.25 2.33579 11.25 2.75V3.29847C10.07 3.45218 8.82747 3.96365 7.78113 4.72047L8.82387 5.76321C9.78707 5.13135 10.9492 4.75 12 4.75C14.3472 4.75 17.25 6.65279 17.25 9V12.2ZM14.25 20.5H9.75C9.33579 20.5 9 20.8358 9 21.25C9 21.6642 9.33579 22 9.75 22H14.25C14.6642 22 15 21.6642 15 21.25C15 20.8358 14.6642 20.5 14.25 20.5Z" fill="#262626"/>
</svg>
