<svg width="current" height="current" viewBox="0 0 24 24" fill="none" xmlns="http://www.w3.org/2000/svg">
<path fill-rule="evenodd" clip-rule="evenodd" d="M11.2503 2.75C11.2503 2.33579 11.5861 2 12.0003 2C12.4145 2 12.7503 2.33579 12.7503 2.75V3.29847C15.5716 3.66597 18.7503 6.07855 18.7503 9V12.2C18.7503 13.5447 19.0963 15.047 19.6968 15.9968C20.1116 16.653 20.0619 17.4537 19.7929 18.0526C19.5234 18.6524 18.9341 19.25 18.0782 19.25H5.92233C5.0665 19.25 4.47714 18.6524 4.20773 18.0526C3.93871 17.4537 3.88896 16.653 4.3038 15.9968C4.90432 15.047 5.25029 13.5448 5.25029 12.2V9C5.25029 6.07856 8.42902 3.66598 11.2503 3.29847V2.75ZM17.2503 12.2V9C17.2503 6.65279 14.3475 4.75 12.0003 4.75C9.65308 4.75 6.75029 6.65279 6.75029 9V12.2C6.75029 13.9214 6.26505 15.7017 5.57167 16.7984C5.48671 16.9328 5.4616 17.1833 5.57601 17.438C5.69002 17.6917 5.84286 17.75 5.92233 17.75H18.0782C18.1577 17.75 18.3106 17.6917 18.4246 17.438C18.539 17.1833 18.5139 16.9328 18.4289 16.7984C17.7355 15.7017 17.2503 13.9214 17.2503 12.2ZM9.75028 20.5C9.33607 20.5 9.00028 20.8358 9.00028 21.25C9.00028 21.6642 9.33607 22 9.75028 22H14.2503C14.6645 22 15.0003 21.6642 15.0003 21.25C15.0003 20.8358 14.6645 20.5 14.2503 20.5H9.75028Z" fill="#262626"/>
</svg>
