<svg width="current" height="current" viewBox="0 0 24 24" fill="none" xmlns="http://www.w3.org/2000/svg">
<path fill-rule="evenodd" clip-rule="evenodd" d="M7.53033 7.96967C7.23744 7.67678 6.76256 7.67678 6.46967 7.96967C6.17678 8.26256 6.17678 8.73744 6.46967 9.03033L11.4697 14.0303C11.7626 14.3232 12.2374 14.3232 12.5303 14.0303L17.5303 9.03033C17.8232 8.73744 17.8232 8.26256 17.5303 7.96967C17.2374 7.67678 16.7626 7.67678 16.4697 7.96967L12 12.4393L7.53033 7.96967ZM7 16C6.58579 16 6.25 16.3358 6.25 16.75C6.25 17.1642 6.58579 17.5 7 17.5H17C17.4142 17.5 17.75 17.1642 17.75 16.75C17.75 16.3358 17.4142 16 17 16H7Z" fill="#262626"/>
</svg>
