<svg width="current" height="current" viewBox="0 0 24 24" fill="none" xmlns="http://www.w3.org/2000/svg">
<path fill-rule="evenodd" clip-rule="evenodd" d="M11.5607 12L16.0303 7.53033C16.3232 7.23744 16.3232 6.76256 16.0303 6.46967C15.7374 6.17678 15.2626 6.17678 14.9697 6.46967L9.96967 11.4697C9.67678 11.7626 9.67678 12.2374 9.96967 12.5303L14.9697 17.5303C15.2626 17.8232 15.7374 17.8232 16.0303 17.5303C16.3232 17.2374 16.3232 16.7626 16.0303 16.4697L11.5607 12ZM8 7C8 6.58579 7.66421 6.25 7.25 6.25C6.83579 6.25 6.5 6.58579 6.5 7V17C6.5 17.4142 6.83579 17.75 7.25 17.75C7.66421 17.75 8 17.4142 8 17V7Z" fill="#262626"/>
</svg>
