<svg width="current" height="current" viewBox="0 0 24 24" fill="none" xmlns="http://www.w3.org/2000/svg">
<path fill-rule="evenodd" clip-rule="evenodd" d="M7 6.75C6.58579 6.75 6.25 7.08579 6.25 7.5C6.25 7.91421 6.58579 8.25 7 8.25H17C17.4142 8.25 17.75 7.91421 17.75 7.5C17.75 7.08579 17.4142 6.75 17 6.75H7ZM12.5303 10.2197C12.2374 9.92678 11.7626 9.92678 11.4697 10.2197L6.46967 15.2197C6.17678 15.5126 6.17678 15.9874 6.46967 16.2803C6.76256 16.5732 7.23744 16.5732 7.53033 16.2803L12 11.8107L16.4697 16.2803C16.7626 16.5732 17.2374 16.5732 17.5303 16.2803C17.8232 15.9874 17.8232 15.5126 17.5303 15.2197L12.5303 10.2197Z" fill="#262626"/>
</svg>
