<svg width="current" height="current" viewBox="0 0 24 24" fill="none" xmlns="http://www.w3.org/2000/svg">
<path fill-rule="evenodd" clip-rule="evenodd" d="M17.5 7C17.5 6.58579 17.1642 6.25 16.75 6.25C16.3358 6.25 16 6.58579 16 7V17C16 17.4142 16.3358 17.75 16.75 17.75C17.1642 17.75 17.5 17.4142 17.5 17V7ZM9.03033 6.46967C8.73744 6.17678 8.26256 6.17678 7.96967 6.46967C7.67678 6.76256 7.67678 7.23744 7.96967 7.53033L12.4393 12L7.96967 16.4697C7.67678 16.7626 7.67678 17.2374 7.96967 17.5303C8.26256 17.8232 8.73744 17.8232 9.03033 17.5303L14.0303 12.5303C14.3232 12.2374 14.3232 11.7626 14.0303 11.4697L9.03033 6.46967Z" fill="#262626"/>
</svg>
