<svg width="current" height="current" viewBox="0 0 24 24" fill="none" xmlns="http://www.w3.org/2000/svg">
<path fill-rule="evenodd" clip-rule="evenodd" d="M12 3.5C7.30558 3.5 3.5 7.30558 3.5 12C3.5 16.6944 7.30558 20.5 12 20.5C16.6944 20.5 20.5 16.6944 20.5 12C20.5 7.30558 16.6944 3.5 12 3.5ZM2 12C2 6.47715 6.47715 2 12 2C17.5228 2 22 6.47715 22 12C22 17.5228 17.5228 22 12 22C6.47715 22 2 17.5228 2 12ZM7.75738 7.75739C8.05027 7.4645 8.52515 7.4645 8.81804 7.75739L12 10.9393L15.1819 7.7574C15.4748 7.46451 15.9497 7.46451 16.2426 7.7574C16.5355 8.05029 16.5355 8.52517 16.2426 8.81806L13.0607 12L16.2427 15.182C16.5356 15.4749 16.5356 15.9498 16.2427 16.2427C15.9498 16.5356 15.4749 16.5356 15.182 16.2427L12 13.0607L8.81799 16.2427C8.5251 16.5356 8.05022 16.5356 7.75733 16.2427C7.46444 15.9498 7.46444 15.4749 7.75733 15.182L10.9393 12L7.75738 8.81805C7.46449 8.52516 7.46449 8.05028 7.75738 7.75739Z" fill="#262626"/>
</svg>
