<svg width="current" height="current" viewBox="0 0 24 24" fill="none" xmlns="http://www.w3.org/2000/svg">
<path fill-rule="evenodd" clip-rule="evenodd" d="M8.81847 7.75739C8.52558 7.4645 8.0507 7.4645 7.75781 7.75739C7.46492 8.05028 7.46492 8.52516 7.75781 8.81805L10.9398 12L7.75776 15.182C7.46486 15.4749 7.46486 15.9498 7.75776 16.2427C8.05065 16.5356 8.52552 16.5356 8.81842 16.2427L12.0004 13.0607L15.1824 16.2427C15.4753 16.5356 15.9502 16.5356 16.2431 16.2427C16.536 15.9498 16.536 15.4749 16.2431 15.182L13.0611 12L16.243 8.81806C16.5359 8.52517 16.5359 8.05029 16.243 7.7574C15.9501 7.46451 15.4753 7.4645 15.1824 7.7574L12.0004 10.9393L8.81847 7.75739Z" fill="#262626"/>
</svg>
