<svg width="current" height="current" viewBox="0 0 24 24" fill="none" xmlns="http://www.w3.org/2000/svg">
<path fill-rule="evenodd" clip-rule="evenodd" d="M4.93437 9.14599C4.66249 9.33247 4.5 9.64097 4.5 9.97065V18.5C4.5 19.0522 4.94772 19.5 5.5 19.5H8.5V15.3269C8.5 14.2223 9.39543 13.3269 10.5 13.3269H13.5C14.6046 13.3269 15.5 14.2223 15.5 15.3269V19.5H18.5C19.0523 19.5 19.5 19.0522 19.5 18.5V9.97065C19.5 9.64097 19.3375 9.33247 19.0656 9.14599L12.5656 4.68767C12.2248 4.45388 11.7752 4.45388 11.4344 4.68767L4.93437 9.14599ZM18.5 21C19.8807 21 21 19.8807 21 18.5V9.97065C21 9.14645 20.5938 8.3752 19.9141 7.909L13.4141 3.45068C12.5619 2.86621 11.4381 2.86621 10.5859 3.45068L4.08592 7.909C3.40624 8.3752 3 9.14644 3 9.97065V18.5C3 19.8807 4.11929 21 5.5 21H9C9.55228 21 10 20.5522 10 20V15.3269C10 15.0508 10.2239 14.8269 10.5 14.8269H13.5C13.7761 14.8269 14 15.0508 14 15.3269V20C14 20.5522 14.4477 21 15 21H18.5Z" fill="#262626"/>
</svg>
