<svg width="current" height="current" viewBox="0 0 24 24" fill="none" xmlns="http://www.w3.org/2000/svg">
<path fill-rule="evenodd" clip-rule="evenodd" d="M3.25 13.25C2.55964 13.25 2 12.6904 2 12C2 11.3096 2.55964 10.75 3.25 10.75C3.94036 10.75 4.5 11.3096 4.5 12C4.5 12.6904 3.94036 13.25 3.25 13.25ZM20.75 13.25C20.0596 13.25 19.5 12.6904 19.5 12C19.5 11.3096 20.0596 10.75 20.75 10.75C21.4404 10.75 22 11.3096 22 12C22 12.6904 21.4404 13.25 20.75 13.25ZM10.75 12C10.75 12.6904 11.3096 13.25 12 13.25C12.6904 13.25 13.25 12.6904 13.25 12C13.25 11.3096 12.6904 10.75 12 10.75C11.3096 10.75 10.75 11.3096 10.75 12Z" fill="#262626"/>
</svg>
