<svg width="current" height="current" viewBox="0 0 24 24" fill="none" xmlns="http://www.w3.org/2000/svg">
<path fill-rule="evenodd" clip-rule="evenodd" d="M13.25 3.25C13.25 3.94036 12.6904 4.5 12 4.5C11.3096 4.5 10.75 3.94036 10.75 3.25C10.75 2.55964 11.3096 2 12 2C12.6904 2 13.25 2.55964 13.25 3.25ZM13.25 20.75C13.25 21.4404 12.6904 22 12 22C11.3096 22 10.75 21.4404 10.75 20.75C10.75 20.0596 11.3096 19.5 12 19.5C12.6904 19.5 13.25 20.0596 13.25 20.75ZM12 13.25C12.6904 13.25 13.25 12.6904 13.25 12C13.25 11.3096 12.6904 10.75 12 10.75C11.3096 10.75 10.75 11.3096 10.75 12C10.75 12.6904 11.3096 13.25 12 13.25Z" fill="#262626"/>
</svg>
