<svg width="current" height="current" viewBox="0 0 24 24" fill="none" xmlns="http://www.w3.org/2000/svg">
<path fill-rule="evenodd" clip-rule="evenodd" d="M11.9739 3.25004C14.102 3.24368 16.1596 4.01315 17.7613 5.41441C19.3631 6.81567 20.3992 8.75267 20.6758 10.8628C20.7296 11.2735 20.4403 11.6501 20.0296 11.7039C19.6189 11.7577 19.2424 11.4684 19.1885 11.0577C18.9594 9.30935 18.1008 7.70442 16.7737 6.54337C15.4465 5.38232 13.7417 4.74476 11.9783 4.75003C10.215 4.75531 8.51403 5.40305 7.19383 6.57201C5.87363 7.74098 5.02472 9.35102 4.80601 11.1007C4.58729 12.8505 5.01376 14.6199 6.00559 16.0779C6.99742 17.5359 8.48662 18.5824 10.1944 19.0216C11.9022 19.4607 13.7115 19.2624 15.2836 18.4638C16.5128 17.8394 17.5311 16.8814 18.2287 15.7103L14.9322 15.7103C14.518 15.7103 14.1822 15.3745 14.1822 14.9603C14.1822 14.5461 14.518 14.2103 14.9322 14.2103L19.4151 14.2103C19.4266 14.21 19.4381 14.21 19.4496 14.2103L19.9322 14.2103C20.3464 14.2103 20.6822 14.5461 20.6822 14.9603L20.6822 19.9603C20.6822 20.3745 20.3464 20.7103 19.9322 20.7103C19.518 20.7103 19.1822 20.3745 19.1822 19.9603L19.1822 16.998C18.3628 18.1754 17.2602 19.1422 15.963 19.8011C14.0656 20.765 11.8819 21.0043 9.82082 20.4743C7.7597 19.9443 5.9624 18.6812 4.76537 16.9216C3.56833 15.162 3.05362 13.0264 3.31759 10.9147C3.58156 8.80295 4.60611 6.8598 6.19945 5.44898C7.79279 4.03816 9.84569 3.2564 11.9739 3.25004Z" fill="#262626"/>
</svg>
