<svg width="current" height="current" viewBox="0 0 24 24" fill="none" xmlns="http://www.w3.org/2000/svg">
<path fill-rule="evenodd" clip-rule="evenodd" d="M10.25 4.5C7.07436 4.5 4.5 7.07436 4.5 10.25C4.5 13.4256 7.07436 16 10.25 16C13.4256 16 16 13.4256 16 10.25C16 7.07436 13.4256 4.5 10.25 4.5ZM3 10.25C3 6.24594 6.24594 3 10.25 3C14.2541 3 17.5 6.24594 17.5 10.25C17.5 11.9819 16.8927 13.5719 15.8795 14.8189L20.7803 19.7197C21.0732 20.0126 21.0732 20.4874 20.7803 20.7803C20.4874 21.0732 20.0126 21.0732 19.7197 20.7803L14.8189 15.8795C13.5719 16.8927 11.9819 17.5 10.25 17.5C6.24594 17.5 3 14.2541 3 10.25ZM6.75 9.5C6.33579 9.5 6 9.83579 6 10.25C6 10.6642 6.33579 11 6.75 11H13.75C14.4142 11 14.5 10.6642 14.5 10.25C14.5 9.83579 14.4142 9.5 13.75 9.5H6.75Z" fill="#262626"/>
</svg>
