<svg width="current" height="current" viewBox="0 0 24 24" fill="none" xmlns="http://www.w3.org/2000/svg">
<path fill-rule="evenodd" clip-rule="evenodd" d="M4.5 10.25C4.5 7.07436 7.07436 4.5 10.25 4.5C13.4256 4.5 16 7.07436 16 10.25C16 13.4256 13.4256 16 10.25 16C7.07436 16 4.5 13.4256 4.5 10.25ZM10.25 3C6.24594 3 3 6.24594 3 10.25C3 14.2541 6.24594 17.5 10.25 17.5C11.9819 17.5 13.5719 16.8927 14.8189 15.8795L19.7197 20.7803C20.0126 21.0732 20.4874 21.0732 20.7803 20.7803C21.0732 20.4874 21.0732 20.0126 20.7803 19.7197L15.8795 14.8189C16.8927 13.5719 17.5 11.9819 17.5 10.25C17.5 6.24594 14.2541 3 10.25 3Z" fill="#262626"/>
</svg>
