<svg width="current" height="current" viewBox="0 0 24 24" fill="none" xmlns="http://www.w3.org/2000/svg">
<path fill-rule="evenodd" clip-rule="evenodd" d="M10.25 4.5C7.07436 4.5 4.5 7.07436 4.5 10.25C4.5 13.4256 7.07436 16 10.25 16C13.4256 16 16 13.4256 16 10.25C16 7.07436 13.4256 4.5 10.25 4.5ZM3 10.25C3 6.24594 6.24594 3 10.25 3C14.2541 3 17.5 6.24594 17.5 10.25C17.5 11.9819 16.8927 13.5719 15.8795 14.8189L20.7803 19.7197C21.0732 20.0126 21.0732 20.4874 20.7803 20.7803C20.4874 21.0732 20.0126 21.0732 19.7197 20.7803L14.8189 15.8795C13.5719 16.8927 11.9819 17.5 10.25 17.5C6.24594 17.5 3 14.2541 3 10.25ZM8 8.25C8 8.11193 8.11193 8 8.25 8H8.91667C9.33088 8 9.66667 7.66421 9.66667 7.25C9.66667 6.83579 9.33088 6.5 8.91667 6.5H8.25C7.2835 6.5 6.5 7.2835 6.5 8.25V8.91667C6.5 9.33088 6.83579 9.66667 7.25 9.66667C7.66421 9.66667 8 9.33088 8 8.91667V8.25ZM11.5833 6.5C11.1691 6.5 10.8333 6.83579 10.8333 7.25C10.8333 7.66421 11.1691 8 11.5833 8H12.25C12.3881 8 12.5 8.11193 12.5 8.25V8.91667C12.5 9.33088 12.8358 9.66667 13.25 9.66667C13.6642 9.66667 14 9.33088 14 8.91667V8.25C14 7.2835 13.2165 6.5 12.25 6.5H11.5833ZM8 11.5833C8 11.1691 7.66421 10.8333 7.25 10.8333C6.83579 10.8333 6.5 11.1691 6.5 11.5833V12.25C6.5 13.2165 7.2835 14 8.25 14H8.91667C9.33088 14 9.66667 13.6642 9.66667 13.25C9.66667 12.8358 9.33088 12.5 8.91667 12.5H8.25C8.11193 12.5 8 12.3881 8 12.25V11.5833ZM14 11.5833C14 11.1691 13.6642 10.8333 13.25 10.8333C12.8358 10.8333 12.5 11.1691 12.5 11.5833V12.25C12.5 12.3881 12.3881 12.5 12.25 12.5H11.5833C11.1691 12.5 10.8333 12.8358 10.8333 13.25C10.8333 13.6642 11.1691 14 11.5833 14H12.25C13.2165 14 14 13.2165 14 12.25V11.5833Z" fill="#262626"/>
</svg>
