<svg width="current" height="current" viewBox="0 0 24 24" fill="none" xmlns="http://www.w3.org/2000/svg">
<path fill-rule="evenodd" clip-rule="evenodd" d="M2 7.25C2 5.45507 3.45507 4 5.25 4H18.75C20.5449 4 22 5.45507 22 7.25V8.5V16.75C22 18.5449 20.5449 20 18.75 20H5.25C3.45507 20 2 18.5449 2 16.75V8.5V7.25ZM5.25 5.5C4.2835 5.5 3.5 6.2835 3.5 7.25V7.75H20.5V7.25C20.5 6.2835 19.7165 5.5 18.75 5.5H5.25ZM20.5 9.25H3.5V16.75C3.5 17.7165 4.2835 18.5 5.25 18.5H18.75C19.7165 18.5 20.5 17.7165 20.5 16.75V9.25ZM4.75 13.5C4.75 13.0858 5.08579 12.75 5.5 12.75H11.5C11.9142 12.75 12.25 13.0858 12.25 13.5C12.25 13.9142 11.9142 14.25 11.5 14.25H5.5C5.08579 14.25 4.75 13.9142 4.75 13.5ZM5.5 15.25C5.08579 15.25 4.75 15.5858 4.75 16C4.75 16.4142 5.08579 16.75 5.5 16.75H14.5C14.9142 16.75 15.25 16.4142 15.25 16C15.25 15.5858 14.9142 15.25 14.5 15.25H5.5Z" fill="#262626"/>
</svg>
