<svg width="current" height="current" viewBox="0 0 24 24" fill="none" xmlns="http://www.w3.org/2000/svg">
<path fill-rule="evenodd" clip-rule="evenodd" d="M12.3272 3.07514C12.1206 2.97495 11.8794 2.97495 11.6728 3.07514L3.42279 7.07514C3.16421 7.20051 3 7.46262 3 7.75V9.5C3 9.91421 3.33579 10.25 3.75 10.25H4.5V19.5H3.75C3.33579 19.5 3 19.8358 3 20.25C3 20.6642 3.33579 21 3.75 21H20.25C20.6642 21 21 20.6642 21 20.25C21 19.8358 20.6642 19.5 20.25 19.5H19.5V10.25H20.25C20.6642 10.25 21 9.91421 21 9.5V7.75C21 7.46262 20.8358 7.20051 20.5772 7.07514L12.3272 3.07514ZM18 19.5V10.25H15V19.5H18ZM13.5 19.5V10.25H10.5V19.5H13.5ZM9 19.5V10.25H6V19.5H9ZM4.5 8.75V8.21987L12 4.58351L19.5 8.21987V8.75H4.5Z" fill="#262626"/>
</svg>
