<svg width="current" height="current" viewBox="0 0 24 24" fill="none" xmlns="http://www.w3.org/2000/svg">
<path fill-rule="evenodd" clip-rule="evenodd" d="M9.75 5C9.33579 5 9 5.33579 9 5.75C9 6.16421 9.33579 6.5 9.75 6.5H11.25V7.53582C7.51882 7.89412 4.56044 10.898 4.27292 14.6494C2.95544 15.0642 2 16.2955 2 17.75C2 18.4404 2.55964 19 3.25 19H20.75C21.4404 19 22 18.4404 22 17.75C22 16.2955 21.0446 15.0642 19.7271 14.6494C19.4396 10.898 16.4812 7.89412 12.75 7.53582V6.5H14.25C14.6642 6.5 15 6.16421 15 5.75C15 5.33579 14.6642 5 14.25 5H9.75ZM18.2055 14.5C17.8349 11.4018 15.198 9 12 9C8.80204 9 6.16505 11.4018 5.79454 14.5H18.2055ZM18.75 16C19.6316 16 20.361 16.6519 20.4823 17.5H3.51772C3.63903 16.6519 4.36838 16 5.25 16H18.75Z" fill="#262626"/>
</svg>
