<svg width="current" height="current" viewBox="0 0 24 24" fill="none" xmlns="http://www.w3.org/2000/svg">
<path fill-rule="evenodd" clip-rule="evenodd" d="M7.5 3C7.5 2.44772 7.94771 2 8.5 2H11C11.5523 2 12 2.44772 12 3V7.59451C13.2939 7.92755 14.25 9.10212 14.25 10.5V20.25C14.25 21.2165 13.4665 22 12.5 22H7C6.0335 22 5.25 21.2165 5.25 20.25V10.5C5.25 9.10212 6.20608 7.92755 7.5 7.59451V3ZM10.5 3.5V8.25C10.5 8.66421 10.8358 9 11.25 9C12.0784 9 12.75 9.67157 12.75 10.5V20.25C12.75 20.3881 12.6381 20.5 12.5 20.5H7C6.86193 20.5 6.75 20.3881 6.75 20.25V10.5C6.75 9.67157 7.42157 9 8.25 9C8.66421 9 9 8.66421 9 8.25V3.5H10.5ZM15.75 22H17C17.9665 22 18.75 21.2165 18.75 20.25V10.5C18.75 9.10212 17.7939 7.92755 16.5 7.59451V3C16.5 2.44772 16.0523 2 15.5 2H13.5V3.5H15V8.25C15 8.66421 15.3358 9 15.75 9C16.5784 9 17.25 9.67157 17.25 10.5V20.25C17.25 20.3881 17.1381 20.5 17 20.5H15.75V22Z" fill="#262626"/>
</svg>
