<svg width="current" height="current" viewBox="0 0 24 24" fill="none" xmlns="http://www.w3.org/2000/svg">
<path fill-rule="evenodd" clip-rule="evenodd" d="M10.75 2C10.1977 2 9.75 2.44772 9.75 3V7.59451C8.45608 7.92755 7.5 9.10212 7.5 10.5V20.25C7.5 21.2165 8.2835 22 9.25 22H14.75C15.7165 22 16.5 21.2165 16.5 20.25V10.5C16.5 9.10212 15.5439 7.92755 14.25 7.59451V3C14.25 2.44772 13.8023 2 13.25 2H10.75ZM12.75 8.25V3.5H11.25V8.25C11.25 8.66421 10.9142 9 10.5 9C9.67157 9 9 9.67157 9 10.5V20.25C9 20.3881 9.11193 20.5 9.25 20.5H14.75C14.8881 20.5 15 20.3881 15 20.25V10.5C15 9.67157 14.3284 9 13.5 9C13.0858 9 12.75 8.66421 12.75 8.25Z" fill="#262626"/>
</svg>
