<svg width="current" height="current" viewBox="0 0 24 24" fill="none" xmlns="http://www.w3.org/2000/svg">
<path fill-rule="evenodd" clip-rule="evenodd" d="M7.00007 3C6.58586 3 6.25007 3.33579 6.25007 3.75C6.25007 4.16421 6.58586 4.5 7.00007 4.5H17.0001C17.4143 4.5 17.7501 4.16421 17.7501 3.75C17.7501 3.33579 17.4143 3 17.0001 3H7.00007ZM17.9534 7H6.19825L4.52444 12.5L19.5149 12.5L17.9534 7ZM6.19825 5.5C5.53804 5.5 4.95545 5.93167 4.76323 6.56328L3.08942 12.0633C2.79616 13.0269 3.51716 14 4.52444 14H5.00002V20C5.00002 20.5523 5.44774 21 6.00002 21H14C14.5523 21 15 20.5523 15 20V14H17.5V20.25C17.5 20.6642 17.8358 21 18.25 21C18.6642 21 19 20.6642 19 20.25V14H19.5149C20.5104 14 21.2297 13.048 20.9579 12.0903L19.3964 6.59033C19.2132 5.94518 18.624 5.5 17.9534 5.5H6.19825ZM13.5 14H6.5V19.5H13.5V14Z" fill="#262626"/>
</svg>
