<svg width="current" height="current" viewBox="0 0 24 24" fill="none" xmlns="http://www.w3.org/2000/svg">
<path fill-rule="evenodd" clip-rule="evenodd" d="M3 6.25C3 4.45507 4.45507 3 6.25 3H12.25C14.0449 3 15.5 4.45507 15.5 6.25V9.75H18.25C19.7688 9.75 21 10.9812 21 12.5V20.25V21H20.25H15.5H14.75H14H3.75H3V20.25V6.25ZM15.5 19.5V11.25H18.25C18.9404 11.25 19.5 11.8096 19.5 12.5V19.5H15.5ZM14 6.25V9.75V10.5V19.5H11.5V17.5C11.5 16.2574 10.4926 15.25 9.25 15.25C8.00736 15.25 7 16.2574 7 17.5V19.5H4.5V6.25C4.5 5.2835 5.2835 4.5 6.25 4.5H12.25C13.2165 4.5 14 5.2835 14 6.25ZM7 7.5C7.41421 7.5 7.75 7.16421 7.75 6.75C7.75 6.33579 7.41421 6 7 6C6.58579 6 6.25 6.33579 6.25 6.75C6.25 7.16421 6.58579 7.5 7 7.5ZM7.75 13.75C7.75 14.1642 7.41421 14.5 7 14.5C6.58579 14.5 6.25 14.1642 6.25 13.75C6.25 13.3358 6.58579 13 7 13C7.41421 13 7.75 13.3358 7.75 13.75ZM7 11C7.41421 11 7.75 10.6642 7.75 10.25C7.75 9.83579 7.41421 9.5 7 9.5C6.58579 9.5 6.25 9.83579 6.25 10.25C6.25 10.6642 6.58579 11 7 11ZM12.25 6.75C12.25 7.16421 11.9142 7.5 11.5 7.5C11.0858 7.5 10.75 7.16421 10.75 6.75C10.75 6.33579 11.0858 6 11.5 6C11.9142 6 12.25 6.33579 12.25 6.75ZM11.5 14.5C11.9142 14.5 12.25 14.1642 12.25 13.75C12.25 13.3358 11.9142 13 11.5 13C11.0858 13 10.75 13.3358 10.75 13.75C10.75 14.1642 11.0858 14.5 11.5 14.5ZM12.25 10.25C12.25 10.6642 11.9142 11 11.5 11C11.0858 11 10.75 10.6642 10.75 10.25C10.75 9.83579 11.0858 9.5 11.5 9.5C11.9142 9.5 12.25 9.83579 12.25 10.25ZM8.5 17.5C8.5 17.0858 8.83579 16.75 9.25 16.75C9.66421 16.75 10 17.0858 10 17.5V19.25H8.5V17.5Z" fill="#262626"/>
</svg>
