<svg width="current" height="current" viewBox="0 0 24 24" fill="none" xmlns="http://www.w3.org/2000/svg">
<path fill-rule="evenodd" clip-rule="evenodd" d="M5.25 4.75C3.45507 4.75 2 6.20507 2 8V9.5V16C2 17.7949 3.45507 19.25 5.25 19.25H18.75C20.5449 19.25 22 17.7949 22 16V9.5V8C22 6.20507 20.5449 4.75 18.75 4.75H5.25ZM3.5 8C3.5 7.0335 4.2835 6.25 5.25 6.25H18.75C19.7165 6.25 20.5 7.0335 20.5 8V8.75H3.5V8ZM3.5 10.25H20.5V16C20.5 16.9665 19.7165 17.75 18.75 17.75H5.25C4.2835 17.75 3.5 16.9665 3.5 16V10.25ZM5.5 14.75C5.08579 14.75 4.75 15.0858 4.75 15.5C4.75 15.9142 5.08579 16.25 5.5 16.25H11.5C11.9142 16.25 12.25 15.9142 12.25 15.5C12.25 15.0858 11.9142 14.75 11.5 14.75H5.5Z" fill="#262626"/>
</svg>
