<svg width="current" height="current" viewBox="0 0 24 24" fill="none" xmlns="http://www.w3.org/2000/svg">
<path fill-rule="evenodd" clip-rule="evenodd" d="M6.6025 2.11398C6.95375 1.89445 7.41647 2.00123 7.636 2.35248L12 9.33488L16.364 2.35248C16.5835 2.00123 17.0462 1.89445 17.3975 2.11398C17.7488 2.33351 17.8555 2.79623 17.636 3.14748L12.8844 10.75H18.25C18.6642 10.75 19 11.0858 19 11.5C19 11.9142 18.6642 12.25 18.25 12.25H12.75V14.75H18.25C18.6642 14.75 19 15.0858 19 15.5C19 15.9142 18.6642 16.25 18.25 16.25H12.75V21.25C12.75 21.6642 12.4142 22 12 22C11.5858 22 11.25 21.6642 11.25 21.25V16.25H5.75C5.33579 16.25 5 15.9142 5 15.5C5 15.0858 5.33579 14.75 5.75 14.75H11.25V12.25H5.75C5.33579 12.25 5 11.9142 5 11.5C5 11.0858 5.33579 10.75 5.75 10.75H11.1156L6.364 3.14748C6.14447 2.79623 6.25125 2.33351 6.6025 2.11398Z" fill="#262626"/>
</svg>
