<svg width="current" height="current" viewBox="0 0 24 24" fill="none" xmlns="http://www.w3.org/2000/svg">
<path fill-rule="evenodd" clip-rule="evenodd" d="M12 2C11.5858 2 11.25 2.33579 11.25 2.75V4.25H9.5C7.15279 4.25 5.25 6.15279 5.25 8.5C5.25 10.8472 7.15279 12.75 9.5 12.75H11.25V18.25H7C6.58579 18.25 6.25 18.5858 6.25 19C6.25 19.4142 6.58579 19.75 7 19.75H11.25V21.25C11.25 21.6642 11.5858 22 12 22C12.4142 22 12.75 21.6642 12.75 21.25V19.75H14.5C16.8472 19.75 18.75 17.8472 18.75 15.5C18.75 13.1528 16.8472 11.25 14.5 11.25H12.75V5.75H17C17.4142 5.75 17.75 5.41421 17.75 5C17.75 4.58579 17.4142 4.25 17 4.25H12.75V2.75C12.75 2.33579 12.4142 2 12 2ZM11.25 5.75H9.5C7.98122 5.75 6.75 6.98122 6.75 8.5C6.75 10.0188 7.98122 11.25 9.5 11.25H11.25V5.75ZM12.75 12.75V18.25H14.5C16.0188 18.25 17.25 17.0188 17.25 15.5C17.25 13.9812 16.0188 12.75 14.5 12.75H12.75Z" fill="#262626"/>
</svg>
