<svg width="current" height="current" viewBox="0 0 24 24" fill="none" xmlns="http://www.w3.org/2000/svg">
<path fill-rule="evenodd" clip-rule="evenodd" d="M12 4.5C7.85786 4.5 4.5 7.85786 4.5 12C4.5 16.1421 7.85786 19.5 12 19.5C16.1421 19.5 19.5 16.1421 19.5 12C19.5 7.85786 16.1421 4.5 12 4.5ZM3 12C3 7.02944 7.02944 3 12 3C16.9706 3 21 7.02944 21 12C21 16.9706 16.9706 21 12 21C7.02944 21 3 16.9706 3 12ZM7.27049 8.28598C7.66484 8.15923 8.08727 8.37615 8.21402 8.77049L9.75 13.5491L11.286 8.77049C11.3857 8.46033 11.6742 8.25 12 8.25C12.3258 8.25 12.6143 8.46033 12.714 8.77049L14.25 13.5491L15.786 8.77049C15.9127 8.37615 16.3352 8.15923 16.7295 8.28598C17.1238 8.41273 17.3408 8.83516 17.214 9.22951L16.4039 11.75H17.5C17.9142 11.75 18.25 12.0858 18.25 12.5C18.25 12.9142 17.9142 13.25 17.5 13.25H15.9217L14.964 16.2295C14.8643 16.5397 14.5758 16.75 14.25 16.75C13.9242 16.75 13.6357 16.5397 13.536 16.2295L12 11.4509L10.464 16.2295C10.3643 16.5397 10.0758 16.75 9.75 16.75C9.42421 16.75 9.13567 16.5397 9.03598 16.2295L8.07828 13.25H6.5C6.08579 13.25 5.75 12.9142 5.75 12.5C5.75 12.0858 6.08579 11.75 6.5 11.75H7.59614L6.78598 9.22951C6.65923 8.83516 6.87615 8.41273 7.27049 8.28598Z" fill="#262626"/>
</svg>
