<svg width="current" height="current" viewBox="0 0 24 24" fill="none" xmlns="http://www.w3.org/2000/svg">
<path fill-rule="evenodd" clip-rule="evenodd" d="M3.46632 4.52766C3.34354 4.13206 2.92332 3.91089 2.52772 4.03366C2.13212 4.15643 1.91095 4.57665 2.03372 4.97226L3.98197 11.25H2.75002C2.3358 11.25 2.00002 11.5857 2.00002 12C2.00002 12.4142 2.3358 12.75 2.75002 12.75H4.44749L6.53372 19.4723C6.63047 19.784 6.91774 19.9974 7.24415 19.9999C7.57056 20.0025 7.86113 19.7936 7.96275 19.4834L10.1685 12.75H13.8315L16.0373 19.4834C16.1389 19.7936 16.4295 20.0025 16.7559 19.9999C17.0823 19.9974 17.3696 19.784 17.4663 19.4723L19.5525 12.75H21.25C21.6642 12.75 22 12.4142 22 12C22 11.5857 21.6642 11.25 21.25 11.25H20.0181L21.9663 4.97226C22.0891 4.57665 21.8679 4.15643 21.4723 4.03366C21.0767 3.91089 20.6565 4.13206 20.5337 4.52766L18.4475 11.25H15.5H14.9185L12.7127 4.51647C12.6118 4.20833 12.3243 3.99996 12 3.99996C11.6758 3.99996 11.3882 4.20833 11.2873 4.51647L9.08149 11.25H5.55255L3.46632 4.52766ZM6.01806 12.75L7.26933 16.7818L8.59011 12.75H6.01806ZM10.6599 11.25H13.3401L12 7.15914L10.6599 11.25ZM15.4099 12.75L16.7307 16.7818L17.982 12.75H15.5H15.4099Z" fill="#262626"/>
</svg>
