<svg width="current" height="current" viewBox="0 0 24 24" fill="none" xmlns="http://www.w3.org/2000/svg">
<path d="M17.1428 6.85704C17.4979 6.85704 17.7857 6.56922 17.7857 6.21418C17.7857 5.85914 17.4979 5.57132 17.1428 5.57132C16.7878 5.57132 16.5 5.85914 16.5 6.21418C16.5 6.56922 16.7878 6.85704 17.1428 6.85704Z" fill="#262626"/>
<path d="M18.4286 3C15.7015 3.00311 13.0871 4.08779 11.1588 6.01608C9.23055 7.94436 8.14587 10.5588 8.14276 13.2858V14.5715H3.64273C3.5156 14.5715 3.39133 14.6093 3.28564 14.6799C3.17995 14.7505 3.09757 14.8509 3.04893 14.9684C3.00028 15.0858 2.98755 15.2151 3.01235 15.3398C3.03714 15.4644 3.09834 15.579 3.18822 15.6689L8.33112 20.8118C8.42102 20.9017 8.53556 20.9629 8.66024 20.9877C8.78493 21.0124 8.91416 20.9997 9.03162 20.9511C9.14907 20.9024 9.24946 20.82 9.3201 20.7144C9.39074 20.6087 9.42846 20.4844 9.42848 20.3573V15.8572H10.7142C13.4412 15.8541 16.0556 14.7694 17.9839 12.8412C19.9122 10.9129 20.9969 8.29845 21 5.57145V4C21 3.44771 20.5523 3 20 3H18.4286ZM8.14276 18.8052L5.19466 15.8572H8.14276V18.8052ZM9.42848 14.5715V13.2858C9.42866 10.9649 10.3293 8.73459 11.9408 7.06437L16.9358 12.0591C15.2656 13.6706 13.0352 14.5713 10.7142 14.5715H9.42848ZM19.7143 5.57145C19.7142 7.57816 19.0395 9.52659 17.7985 11.1036L12.8964 6.20145C14.4734 4.9605 16.4218 4.28578 18.4286 4.28572H18.7143C19.2666 4.28572 19.7143 4.73344 19.7143 5.28572V5.57145Z" fill="#262626"/>
</svg>
