<svg width="current" height="current" viewBox="0 0 24 24" fill="none" xmlns="http://www.w3.org/2000/svg">
<path fill-rule="evenodd" clip-rule="evenodd" d="M2 7.75C2 5.95508 3.45507 4.5 5.25 4.5H6.25H7H14.5H15.25H16.25C18.0449 4.5 19.5 5.95507 19.5 7.75V8.75V9.5V11.75V12.5V13.5V13.75C19.5 15.5449 18.0449 17 16.25 17H7H6.25H5.25C3.45507 17 2 15.5449 2 13.75V12.75V12V9.5V8.75V7.75ZM3.5 9.5V12L4.25 12C5.76878 12 7 13.2312 7 14.75V15.5H14.5V14.5C14.5 12.9812 15.7312 11.75 17.25 11.75H18V9.5H17.25C15.7312 9.5 14.5 8.26878 14.5 6.75V6H7V6.75C7 8.26878 5.76878 9.5 4.25 9.5H3.5ZM5.5 6L5.25 6C4.34391 6 3.59865 6.68862 3.50904 7.57107C3.50306 7.6299 3.5 7.68959 3.5 7.75V8H4.25C4.94036 8 5.5 7.44036 5.5 6.75L5.5 6ZM18 13.5V13.25H17.25C16.5596 13.25 16 13.8096 16 14.5V15.25H16.25C17.2165 15.25 18 14.4665 18 13.5ZM5.25 15.5C4.2835 15.5 3.5 14.7165 3.5 13.75L3.5 13.5H4.25C4.94036 13.5 5.5 14.0596 5.5 14.75L5.5 15.5H5.25ZM18 7.75V8H17.25C16.5596 8 16 7.44036 16 6.75V6H16.25C17.2165 6 18 6.7835 18 7.75ZM5.01099 18C5.58852 18.9021 6.59947 19.5 7.75008 19.5H18.7501C20.545 19.5 22.0001 18.0449 22.0001 16.25V10.25C22.0001 9.09941 21.4022 8.08846 20.5001 7.51093V10.25V16.25C20.5001 17.2165 19.7166 18 18.7501 18H7.75008H5.01099ZM9.5 10.75C9.5 10.0596 10.0596 9.5 10.75 9.5C11.4404 9.5 12 10.0596 12 10.75C12 11.4404 11.4404 12 10.75 12C10.0596 12 9.5 11.4404 9.5 10.75ZM10.75 8C9.23122 8 8 9.23122 8 10.75C8 12.2688 9.23122 13.5 10.75 13.5C12.2688 13.5 13.5 12.2688 13.5 10.75C13.5 9.23122 12.2688 8 10.75 8Z" fill="#262626"/>
</svg>
