<svg width="current" height="current" viewBox="0 0 24 24" fill="none" xmlns="http://www.w3.org/2000/svg">
<path fill-rule="evenodd" clip-rule="evenodd" d="M6.5 2C5.25736 2 4.25 3.00736 4.25 4.25V21.25C4.25 21.5174 4.39232 21.7645 4.62355 21.8987C4.85479 22.0329 5.13998 22.0338 5.3721 21.9012L8.5 20.1138L11.6279 21.9012C11.8585 22.0329 12.1415 22.0329 12.3721 21.9012L15.5 20.1138L18.6279 21.9012C18.86 22.0338 19.1452 22.0329 19.3764 21.8987C19.6077 21.7645 19.75 21.5174 19.75 21.25V4.25C19.75 3.00736 18.7426 2 17.5 2H6.5ZM5.75 4.25C5.75 3.83579 6.08579 3.5 6.5 3.5H17.5C17.9142 3.5 18.25 3.83579 18.25 4.25V19.9576L15.8721 18.5988C15.6415 18.4671 15.3585 18.4671 15.1279 18.5988L12 20.3862L8.8721 18.5988C8.64153 18.4671 8.35847 18.4671 8.1279 18.5988L5.75 19.9576V4.25ZM17 6H7V7.5H17V6ZM7 9H13V10.5H7V9ZM13 12H7V13.5H13V12ZM15.5 9H17V10.5H15.5V9ZM17 12H15.5V13.5H17V12Z" fill="#262626"/>
</svg>
