<svg width="current" height="current" viewBox="0 0 24 24" fill="none" xmlns="http://www.w3.org/2000/svg">
<path fill-rule="evenodd" clip-rule="evenodd" d="M11 3C8.92894 3 7.25001 4.67893 7.25001 6.75V8H4.84074C3.81441 8 3.00841 8.87914 3.09732 9.9016L5.00283 20.315C5.03653 20.7025 5.36098 21 5.75001 21H18.25C18.639 21 18.9635 20.7025 18.9972 20.315L20.9027 9.9016C20.9916 8.87914 20.1856 8 19.1593 8H16.75V6.75C16.75 4.67893 15.0711 3 13 3H11ZM15.25 8V6.75C15.25 5.50736 14.2426 4.5 13 4.5H11C9.75737 4.5 8.75001 5.50736 8.75001 6.75V8H15.25ZM7.25001 9.5H4.84074C4.69412 9.5 4.57898 9.62559 4.59168 9.77166L6.43762 19.5H17.5624L19.4083 9.77166C19.421 9.62559 19.3059 9.5 19.1593 9.5H16.75H16H8.00001H7.25001Z" fill="#262626"/>
</svg>
