<svg width="current" height="current" viewBox="0 0 24 24" fill="none" xmlns="http://www.w3.org/2000/svg">
<path fill-rule="evenodd" clip-rule="evenodd" d="M3.75 3C3.33579 3 3 3.33579 3 3.75C3 4.16421 3.33579 4.5 3.75 4.5C4.05041 4.5 4.22905 4.5579 4.3429 4.62095C4.45596 4.68356 4.55576 4.77924 4.6558 4.93554C4.76139 5.10054 4.85477 5.31284 4.95987 5.59435C4.99282 5.68262 5.02965 5.78577 5.06909 5.8962C5.13467 6.07988 5.20745 6.28372 5.2816 6.47286L6.82476 13.2242C7.16254 14.702 8.47713 15.75 9.99305 15.75H16.0615C17.5447 15.75 18.8398 14.7458 19.2091 13.3094L20.9764 6.43678C21.0341 6.21225 20.9848 5.97364 20.8427 5.79043C20.7006 5.60722 20.4818 5.5 20.25 5.5H6.52049L6.49969 5.44151L6.49967 5.44148C6.45814 5.32464 6.41507 5.20349 6.36513 5.06972C6.25148 4.76528 6.11361 4.43071 5.9192 4.12696C5.71924 3.81451 5.45029 3.51956 5.0696 3.30874C4.6897 3.09835 4.24959 3 3.75 3ZM8.28704 12.8899L6.94077 7H19.2827L17.7564 12.9358C17.5575 13.7093 16.8602 14.25 16.0615 14.25H9.99305C9.17678 14.25 8.46893 13.6857 8.28704 12.8899ZM9.5 18.5C9.22386 18.5 9 18.7239 9 19C9 19.2761 9.22386 19.5 9.5 19.5C9.77614 19.5 10 19.2761 10 19C10 18.7239 9.77614 18.5 9.5 18.5ZM7.5 19C7.5 17.8954 8.39543 17 9.5 17C10.6046 17 11.5 17.8954 11.5 19C11.5 20.1046 10.6046 21 9.5 21C8.39543 21 7.5 20.1046 7.5 19ZM17.25 18.5C16.9739 18.5 16.75 18.7239 16.75 19C16.75 19.2761 16.9739 19.5 17.25 19.5C17.5261 19.5 17.75 19.2761 17.75 19C17.75 18.7239 17.5261 18.5 17.25 18.5ZM15.25 19C15.25 17.8954 16.1454 17 17.25 17C18.3546 17 19.25 17.8954 19.25 19C19.25 20.1046 18.3546 21 17.25 21C16.1454 21 15.25 20.1046 15.25 19Z" fill="#262626"/>
</svg>
