<svg width="current" height="current" viewBox="0 0 24 24" fill="none" xmlns="http://www.w3.org/2000/svg">
<path fill-rule="evenodd" clip-rule="evenodd" d="M2 7.5C2 6.25736 3.00736 5.25 4.25 5.25H19.75C20.9926 5.25 22 6.25736 22 7.5C22 8.74264 20.9926 9.75 19.75 9.75H18.9295L20.7331 17.8415C20.8206 18.2464 20.5634 18.6455 20.1585 18.7331C19.7536 18.8206 19.3545 18.5634 19.2669 18.1585L18.4219 14.5H5.57814L4.73306 18.1585C4.64552 18.5634 4.24636 18.8206 3.8415 18.7331C3.43664 18.6455 3.1794 18.2464 3.26694 17.8415L5.07051 9.75H4.25C3.00736 9.75 2 8.74264 2 7.5ZM5.39483 8.25H6H18H18.6052H19.75C20.1642 8.25 20.5 7.91421 20.5 7.5C20.5 7.08579 20.1642 6.75 19.75 6.75H4.25C3.83579 6.75 3.5 7.08579 3.5 7.5C3.5 7.91421 3.83579 8.25 4.25 8.25H5.39483ZM6.60517 9.75L5.90247 13H18.0975L17.3948 9.75H6.60517Z" fill="#262626"/>
</svg>
