<svg width="current" height="current" viewBox="0 0 24 24" fill="none" xmlns="http://www.w3.org/2000/svg">
<path fill-rule="evenodd" clip-rule="evenodd" d="M5.75 3C4.23122 3 3 4.23122 3 5.75V15.75C3 17.1007 3.97379 18.224 5.25761 18.456C5.36297 19.8786 6.55052 21 8 21C9.43451 21 10.6125 19.9016 10.7388 18.5H13.2612C13.3875 19.9016 14.5655 21 16 21C17.4495 21 18.637 19.8786 18.7424 18.456C20.0262 18.224 21 17.1007 21 15.75V14.5V11C21 10.902 20.9808 10.805 20.9435 10.7144L18.9435 6.46444C18.8278 6.18341 18.5539 6 18.25 6H15.5V5.75C15.5 4.23122 14.2688 3 12.75 3H5.75ZM10.4501 17H13.5499C13.6694 16.7662 13.8214 16.5517 14 16.3625V11V6.75V5.75C14 5.05964 13.4404 4.5 12.75 4.5H5.75C5.05964 4.5 4.5 5.05964 4.5 5.75V15.75C4.5 16.3749 4.95851 16.8927 5.55745 16.9853C6.01528 16.1029 6.93724 15.5 8 15.5C9.06867 15.5 9.99497 16.1096 10.4501 17ZM16 15.5C15.8293 15.5 15.6621 15.5156 15.5 15.5453V11.75H19.5V13.75H18.5C18.0858 13.75 17.75 14.0858 17.75 14.5C17.75 14.9142 18.0858 15.25 18.5 15.25H19.5V15.75C19.5 16.3749 19.0415 16.8927 18.4426 16.9853C17.9847 16.1029 17.0628 15.5 16 15.5ZM15.5 7.5V10.25H19.1301L17.7477 7.5H15.5ZM16 17C15.3096 17 14.75 17.5596 14.75 18.25C14.75 18.9404 15.3096 19.5 16 19.5C16.6904 19.5 17.25 18.9404 17.25 18.25C17.25 17.5596 16.6904 17 16 17ZM6.75 18.25C6.75 17.5596 7.30964 17 8 17C8.69036 17 9.25 17.5596 9.25 18.25C9.25 18.9404 8.69036 19.5 8 19.5C7.30964 19.5 6.75 18.9404 6.75 18.25Z" fill="#262626"/>
</svg>
