<svg width="current" height="current" viewBox="0 0 24 24" fill="none" xmlns="http://www.w3.org/2000/svg">
<path fill-rule="evenodd" clip-rule="evenodd" d="M6.00001 3.75C6.00001 3.33579 6.33579 3 6.75001 3H7.75001C8.16422 3 8.50001 3.33579 8.50001 3.75V6.75H13C13.24 6.75 13.4654 6.86481 13.6066 7.05887L17.3819 12.25H20.25C20.5099 12.25 20.7513 12.3846 20.888 12.6057C21.0246 12.8268 21.0371 13.1029 20.9208 13.3354L18.9208 17.3354C18.7356 17.7059 18.2851 17.8561 17.9146 17.6708C17.5441 17.4856 17.3939 17.0351 17.5792 16.6646L19.0365 13.75H17.0095C17.0036 13.7501 16.9976 13.7501 16.9917 13.75H4.66486L5.48544 17.8529C5.56668 18.2591 5.30326 18.6542 4.89709 18.7354C4.49092 18.8167 4.0958 18.5533 4.01457 18.1471L3.01457 13.1471C2.9705 12.9268 3.02755 12.6983 3.17 12.5245C3.31245 12.3507 3.52531 12.25 3.75001 12.25H5.00001V7.5C5.00001 7.08579 5.33579 6.75 5.75001 6.75H7.00001V4.5H6.75001C6.33579 4.5 6.00001 4.16421 6.00001 3.75ZM6.50001 8.25V12.25H15.5272L12.6181 8.25H6.50001ZM7.9843 18.9998C7.71652 18.9942 7.4514 19.0539 7.21184 19.1737C6.97228 19.2934 6.76548 19.4697 6.6093 19.6873C6.31114 20.1027 5.91634 20.4393 5.45899 20.668C5.00165 20.8966 4.49551 21.0105 3.9843 20.9998C3.57018 20.9912 3.2415 20.6484 3.25017 20.2343C3.25885 19.8202 3.60159 19.4915 4.01571 19.5002C4.28349 19.5058 4.54861 19.4461 4.78817 19.3263C5.02773 19.2066 5.23453 19.0303 5.39071 18.8127C5.68887 18.3973 6.08368 18.0607 6.54102 17.832C6.99368 17.6057 7.49414 17.4918 8.00001 17.4999C8.50588 17.4918 9.00633 17.6057 9.45899 17.832C9.91634 18.0607 10.3111 18.3973 10.6093 18.8127C10.7655 19.0303 10.9723 19.2066 11.2118 19.3263C11.4514 19.4461 11.7165 19.5058 11.9843 19.5002C11.9948 19.4999 12.0052 19.4999 12.0157 19.5002C12.2835 19.5058 12.5486 19.4461 12.7882 19.3263C13.0277 19.2066 13.2345 19.0303 13.3907 18.8127C13.6889 18.3973 14.0837 18.0607 14.541 17.832C14.9937 17.6057 15.4941 17.4918 16 17.4999C16.5059 17.4918 17.0063 17.6057 17.459 17.832C17.9163 18.0607 18.3111 18.3973 18.6093 18.8127C18.7655 19.0303 18.9723 19.2066 19.2118 19.3263C19.4514 19.4461 19.7165 19.5058 19.9843 19.5002C20.3984 19.4915 20.7412 19.8202 20.7498 20.2343C20.7585 20.6484 20.4298 20.9912 20.0157 20.9998C19.5045 21.0105 18.9984 20.8966 18.541 20.668C18.0837 20.4393 17.6889 20.1027 17.3907 19.6873C17.2345 19.4697 17.0277 19.2934 16.7882 19.1737C16.5486 19.0539 16.2835 18.9942 16.0157 18.9998C16.0052 19.0001 15.9948 19.0001 15.9843 18.9998C15.7165 18.9942 15.4514 19.0539 15.2118 19.1737C14.9723 19.2934 14.7655 19.4697 14.6093 19.6873C14.3111 20.1027 13.9163 20.4393 13.459 20.668C13.0063 20.8943 12.5059 21.0082 12 21.0001C11.4941 21.0082 10.9937 20.8943 10.541 20.668C10.0837 20.4393 9.68887 20.1027 9.39071 19.6873C9.23453 19.4697 9.02773 19.2934 8.78817 19.1737C8.54861 19.0539 8.28349 18.9942 8.01571 18.9998C8.00524 19.0001 7.99477 19.0001 7.9843 18.9998Z" fill="#262626"/>
</svg>
