<svg width="current" height="current" viewBox="0 0 24 24" fill="none" xmlns="http://www.w3.org/2000/svg">
<path fill-rule="evenodd" clip-rule="evenodd" d="M7.2545 6.10967C7.32188 5.75593 7.63115 5.5 7.99125 5.5H10V9.25H6.65634L7.2545 6.10967ZM5.12876 9.25321L5.78099 5.829C5.98313 4.76778 6.91096 4 7.99125 4H10.75H13.7163C14.6499 4 15.4865 4.57656 15.8189 5.44901L17.3172 9.38204L19.3681 9.96802C20.334 10.244 21 11.1269 21 12.1315V15.5C21 16.4237 20.4434 17.2174 19.6472 17.564C19.2859 18.965 18.0138 20 16.5 20C15.054 20 13.8285 19.0556 13.4067 17.75H10.5933C10.1715 19.0556 8.94602 20 7.5 20C5.98617 20 4.71408 18.965 4.35277 17.564C3.55663 17.2174 3 16.4237 3 15.5V11.5C3 10.298 3.94249 9.3162 5.12876 9.25321ZM5.25 10.75C4.83579 10.75 4.5 11.0858 4.5 11.5V15.4978C4.99031 14.3245 6.14887 13.5 7.5 13.5C9.12489 13.5 10.4713 14.6925 10.7118 16.25H13.2882C13.5287 14.6925 14.8751 13.5 16.5 13.5C17.8511 13.5 19.0097 14.3245 19.5 15.4978V12.1315C19.5 11.7966 19.278 11.5023 18.956 11.4103L16.746 10.7789C16.679 10.7597 16.6096 10.75 16.5399 10.75H10.75H5.75H5.25ZM15.6617 9.25L14.4171 5.983C14.3063 5.69219 14.0275 5.5 13.7163 5.5H11.5V9.25H15.6617ZM5.75 16.75C5.75 15.7835 6.5335 15 7.5 15C8.4665 15 9.25 15.7835 9.25 16.75C9.25 17.7165 8.4665 18.5 7.5 18.5C6.5335 18.5 5.75 17.7165 5.75 16.75ZM16.5 15C15.5335 15 14.75 15.7835 14.75 16.75C14.75 17.7165 15.5335 18.5 16.5 18.5C17.4665 18.5 18.25 17.7165 18.25 16.75C18.25 15.7835 17.4665 15 16.5 15Z" fill="#262626"/>
</svg>
