<svg width="current" height="current" viewBox="0 0 24 24" fill="none" xmlns="http://www.w3.org/2000/svg">
<path fill-rule="evenodd" clip-rule="evenodd" d="M4 5.75C4 4.23122 5.23122 3 6.75 3H13.75C15.2688 3 16.5 4.23122 16.5 5.75V6H19.25C19.5539 6 19.8278 6.18341 19.9435 6.46444L21.9435 10.7144C21.9808 10.805 22 10.902 22 11V14.5V15.75C22 17.1007 21.0262 18.224 19.7424 18.456C19.637 19.8786 18.4495 21 17 21C15.5655 21 14.3875 19.9016 14.2612 18.5H11.7388C11.6125 19.9016 10.4345 21 9 21C7.55052 21 6.36297 19.8786 6.25761 18.456C4.97379 18.224 4 17.1007 4 15.75V14H5.5V15.75C5.5 16.3749 5.95851 16.8927 6.55745 16.9853C7.01528 16.1029 7.93724 15.5 9 15.5C10.0687 15.5 10.995 16.1096 11.4501 17H14.5499C14.6694 16.7662 14.8214 16.5517 15 16.3625V11V6.75V5.75C15 5.05964 14.4404 4.5 13.75 4.5H6.75C6.05964 4.5 5.5 5.05964 5.5 5.75V6.5H4V5.75ZM16.5 15.5453C16.6621 15.5156 16.8293 15.5 17 15.5C18.0628 15.5 18.9847 16.1029 19.4426 16.9853C20.0415 16.8927 20.5 16.3749 20.5 15.75V15.25H19.5C19.0858 15.25 18.75 14.9142 18.75 14.5C18.75 14.0858 19.0858 13.75 19.5 13.75H20.5V11.75H16.5V15.5453ZM16.5 10.25V7.5H18.7477L20.1301 10.25H16.5ZM15.75 18.25C15.75 17.5596 16.3096 17 17 17C17.6904 17 18.25 17.5596 18.25 18.25C18.25 18.9404 17.6904 19.5 17 19.5C16.3096 19.5 15.75 18.9404 15.75 18.25ZM9 17C8.30964 17 7.75 17.5596 7.75 18.25C7.75 18.9404 8.30964 19.5 9 19.5C9.69036 19.5 10.25 18.9404 10.25 18.25C10.25 17.5596 9.69036 17 9 17ZM2 11.75C2 11.3358 2.33579 11 2.75 11H8.25C8.66421 11 9 11.3358 9 11.75C9 12.1642 8.66421 12.5 8.25 12.5H2.75C2.33579 12.5 2 12.1642 2 11.75ZM2.75 8C2.33579 8 2 8.33579 2 8.75C2 9.16421 2.33579 9.5 2.75 9.5H7.25C7.66421 9.5 8 9.16421 8 8.75C8 8.33579 7.66421 8 7.25 8H2.75Z" fill="#262626"/>
</svg>
