<svg width="current" height="current" viewBox="0 0 24 24" fill="none" xmlns="http://www.w3.org/2000/svg">
<path fill-rule="evenodd" clip-rule="evenodd" d="M16.5 5.5V6H15.5H15H5.25C4.83579 6 4.5 5.66421 4.5 5.25C4.5 4.83579 4.83579 4.5 5.25 4.5H15.5C16.0523 4.5 16.5 4.94772 16.5 5.5ZM5.25 3C4.00736 3 3 4.00736 3 5.25V6.75V17.75C3 19.5449 4.45507 21 6.25 21H17.75C19.5449 21 21 19.5449 21 17.75V9.25C21 7.53919 19.6781 6.13713 18 6.00947V6V5.5C18 4.11929 16.8807 3 15.5 3H5.25ZM4.5 7.5V17.75C4.5 18.7165 5.2835 19.5 6.25 19.5H17.75C18.7165 19.5 19.5 18.7165 19.5 17.75V9.25C19.5 8.2835 18.7165 7.5 17.75 7.5H16.5H5.25H4.5ZM14.75 12.5C14.3358 12.5 14 12.8358 14 13.25C14 13.6642 14.3358 14 14.75 14H17.25C17.6642 14 18 13.6642 18 13.25C18 12.8358 17.6642 12.5 17.25 12.5H14.75Z" fill="#262626"/>
</svg>
