<svg width="current" height="current" viewBox="0 0 24 24" fill="none" xmlns="http://www.w3.org/2000/svg">
<path fill-rule="evenodd" clip-rule="evenodd" d="M4.20555 2.23418C4.34718 2.08468 4.54406 2 4.75 2H19.25C19.4559 2 19.6528 2.08468 19.7945 2.23418C19.9361 2.38368 20.01 2.58484 19.9989 2.79048L19.1267 18.9254C19.0335 20.6497 17.6083 22 15.8815 22H8.11852C6.39175 22 4.96646 20.6497 4.87325 18.9254L4.00109 2.79048C3.98998 2.58484 4.06391 2.38368 4.20555 2.23418ZM5.54164 3.5L5.76972 7.71961C5.78952 7.70235 5.80954 7.6852 5.8298 7.66817C6.53229 7.07744 7.50373 6.625 8.875 6.625C10.4072 6.625 11.4734 7.30549 12.3622 7.87271C12.376 7.88148 12.3897 7.89023 12.4034 7.89895C13.3188 8.48296 14.0559 8.9375 15.125 8.9375C16.1891 8.9375 17.0392 8.67865 17.6195 8.42301C17.8681 8.31353 18.0661 8.20509 18.2087 8.1189L18.4584 3.5H5.54164ZM18.1155 9.84255C17.3891 10.1484 16.3724 10.4375 15.125 10.4375C13.5928 10.4375 12.5266 9.75701 11.6378 9.18979C11.624 9.18102 11.6103 9.17227 11.5966 9.16355C10.6812 8.57954 9.94412 8.125 8.875 8.125C7.87127 8.125 7.23854 8.4434 6.7952 8.81621C6.40273 9.14625 6.1492 9.51844 5.90015 9.88406C5.896 9.89015 5.89185 9.89624 5.88771 9.90233L6.37107 18.8445C6.42125 19.7729 7.18872 20.5 8.11852 20.5H15.8815C16.8113 20.5 17.5787 19.7729 17.6289 18.8445L18.1155 9.84255Z" fill="#262626"/>
</svg>
