<svg width="current" height="current" viewBox="0 0 24 24" fill="none" xmlns="http://www.w3.org/2000/svg">
<path fill-rule="evenodd" clip-rule="evenodd" d="M5.75 4.5C5.05964 4.5 4.5 5.05964 4.5 5.75C4.5 6.44036 5.05964 7 5.75 7C6.44036 7 7 6.44036 7 5.75C7 5.05964 6.44036 4.5 5.75 4.5ZM3 5.75C3 4.23122 4.23122 3 5.75 3C7.00878 3 8.07002 3.84575 8.39648 5H15.6035C15.93 3.84575 16.9912 3 18.25 3C19.7688 3 21 4.23122 21 5.75C21 7.00878 20.1543 8.07002 19 8.39648V15.6035C20.1543 15.93 21 16.9912 21 18.25C21 19.7688 19.7688 21 18.25 21C16.9912 21 15.93 20.1543 15.6035 19H8.39648C8.07002 20.1543 7.00878 21 5.75 21C4.23122 21 3 19.7688 3 18.25C3 16.9912 3.84575 15.93 5 15.6035V8.39648C3.84575 8.07002 3 7.00878 3 5.75ZM6.5 8.39648V15.6035C7.41584 15.8625 8.13745 16.5842 8.39648 17.5H15.6035C15.8625 16.5842 16.5842 15.8625 17.5 15.6035V8.39648C16.5842 8.13745 15.8625 7.41584 15.6035 6.5H8.39648C8.13745 7.41584 7.41584 8.13745 6.5 8.39648ZM18.25 4.5C17.5596 4.5 17 5.05964 17 5.75C17 6.44036 17.5596 7 18.25 7C18.9404 7 19.5 6.44036 19.5 5.75C19.5 5.05964 18.9404 4.5 18.25 4.5ZM17 18.25C17 17.5596 17.5596 17 18.25 17C18.9404 17 19.5 17.5596 19.5 18.25C19.5 18.9404 18.9404 19.5 18.25 19.5C17.5596 19.5 17 18.9404 17 18.25ZM5.75 17C5.05964 17 4.5 17.5596 4.5 18.25C4.5 18.9404 5.05964 19.5 5.75 19.5C6.44036 19.5 7 18.9404 7 18.25C7 17.5596 6.44036 17 5.75 17Z" fill="#262626"/>
</svg>
