<svg width="current" height="current" viewBox="0 0 24 24" fill="none" xmlns="http://www.w3.org/2000/svg">
<path fill-rule="evenodd" clip-rule="evenodd" d="M3.21967 15.9697C2.92678 16.2626 2.92678 16.7374 3.21967 17.0303L6.96967 20.7803C7.26256 21.0732 7.73744 21.0732 8.03033 20.7803C8.32322 20.4874 8.32322 20.0126 8.03033 19.7197L5.56066 17.25L20.25 17.25C20.6642 17.25 21 16.9142 21 16.5C21 16.0858 20.6642 15.75 20.25 15.75L5.56066 15.75L8.03033 13.2803C8.32322 12.9874 8.32322 12.5126 8.03033 12.2197C7.73744 11.9268 7.26256 11.9268 6.96967 12.2197L3.21967 15.9697ZM20.7803 8.03033C21.0732 7.73744 21.0732 7.26256 20.7803 6.96967L17.0303 3.21967C16.7374 2.92678 16.2626 2.92678 15.9697 3.21967C15.6768 3.51256 15.6768 3.98744 15.9697 4.28033L18.4393 6.75L3.75 6.75C3.33579 6.75 3 7.08579 3 7.5C3 7.91421 3.33579 8.25 3.75 8.25L18.4393 8.25L15.9697 10.7197C15.6768 11.0126 15.6768 11.4874 15.9697 11.7803C16.2626 12.0732 16.7374 12.0732 17.0303 11.7803L20.7803 8.03033Z" fill="#262626"/>
</svg>
