<svg width="current" height="current" viewBox="0 0 24 24" fill="none" xmlns="http://www.w3.org/2000/svg">
<path fill-rule="evenodd" clip-rule="evenodd" d="M15.8011 10.7413C16.0821 11.0457 16.0631 11.5201 15.7587 11.8011L12.5087 14.8011C12.2214 15.0663 11.7786 15.0663 11.4913 14.8011L8.24129 11.8011C7.93693 11.5201 7.91795 11.0457 8.1989 10.7413C8.47985 10.4369 8.95435 10.4179 9.25871 10.6989L11.25 12.537V3.75C11.25 3.33579 11.5858 3 12 3C12.4142 3 12.75 3.33579 12.75 3.75V12.537L14.7413 10.6989C15.0457 10.4179 15.5202 10.4369 15.8011 10.7413ZM4.5 11.5C4.5 10.5335 5.2835 9.75 6.25 9.75H7.875C8.28921 9.75 8.625 9.41421 8.625 9C8.625 8.58579 8.28921 8.25 7.875 8.25H6.25C4.45507 8.25 3 9.70507 3 11.5V17.75C3 19.5449 4.45507 21 6.25 21H17.75C19.5449 21 21 19.5449 21 17.75V11.5C21 9.70507 19.5449 8.25 17.75 8.25H16.125C15.7108 8.25 15.375 8.58579 15.375 9C15.375 9.41421 15.7108 9.75 16.125 9.75H17.75C18.7165 9.75 19.5 10.5335 19.5 11.5V17.75C19.5 18.7165 18.7165 19.5 17.75 19.5H6.25C5.2835 19.5 4.5 18.7165 4.5 17.75V11.5Z" fill="#262626"/>
</svg>
