<svg width="current" height="current" viewBox="0 0 24 24" fill="none" xmlns="http://www.w3.org/2000/svg">
<path fill-rule="evenodd" clip-rule="evenodd" d="M8.19889 7.25871C7.91794 6.95434 7.93692 6.47985 8.24129 6.1989L11.4913 3.1989C11.7786 2.9337 12.2214 2.9337 12.5087 3.1989L15.7587 6.1989C16.0631 6.47985 16.0821 6.95434 15.8011 7.25871C15.5201 7.56308 15.0457 7.58206 14.7413 7.3011L12.75 5.46299L12.75 14.25C12.75 14.6642 12.4142 15 12 15C11.5858 15 11.25 14.6642 11.25 14.25L11.25 5.46299L9.25871 7.3011C8.95434 7.58206 8.47985 7.56308 8.19889 7.25871ZM4.5 11.5C4.5 10.5335 5.2835 9.75 6.25 9.75H7.875C8.28921 9.75 8.625 9.41421 8.625 9C8.625 8.58579 8.28921 8.25 7.875 8.25H6.25C4.45507 8.25 3 9.70507 3 11.5V17.75C3 19.5449 4.45507 21 6.25 21H17.75C19.5449 21 21 19.5449 21 17.75V11.5C21 9.70507 19.5449 8.25 17.75 8.25H16.125C15.7108 8.25 15.375 8.58579 15.375 9C15.375 9.41421 15.7108 9.75 16.125 9.75H17.75C18.7165 9.75 19.5 10.5335 19.5 11.5V17.75C19.5 18.7165 18.7165 19.5 17.75 19.5H6.25C5.2835 19.5 4.5 18.7165 4.5 17.75V11.5Z" fill="#262626"/>
</svg>
