<svg width="current" height="current" viewBox="0 0 24 24" fill="none" xmlns="http://www.w3.org/2000/svg">
<path fill-rule="evenodd" clip-rule="evenodd" d="M11.5 19.5C10.5335 19.5 9.75 18.7165 9.75 17.75V16.125C9.75 15.7108 9.41421 15.375 9 15.375C8.58579 15.375 8.25 15.7108 8.25 16.125V17.75C8.25 19.5449 9.70507 21 11.5 21H17.75C19.5449 21 21 19.5449 21 17.75V6.25C21 4.45507 19.5449 3 17.75 3H11.5C9.70507 3 8.25 4.45507 8.25 6.25V7.875C8.25 8.28921 8.58579 8.625 9 8.625C9.41421 8.625 9.75 8.28921 9.75 7.875V6.25C9.75 5.2835 10.5335 4.5 11.5 4.5L17.75 4.5C18.7165 4.5 19.5 5.2835 19.5 6.25V17.75C19.5 18.7165 18.7165 19.5 17.75 19.5H11.5ZM7.25871 15.8011C6.95434 16.0821 6.47985 16.0631 6.1989 15.7587L3.1989 12.5087C2.9337 12.2214 2.9337 11.7786 3.1989 11.4913L6.1989 8.24129C6.47985 7.93693 6.95434 7.91795 7.25871 8.1989C7.56308 8.47985 7.58206 8.95435 7.3011 9.25871L5.46299 11.25H14.25C14.6642 11.25 15 11.5858 15 12C15 12.4142 14.6642 12.75 14.25 12.75H5.46299L7.3011 14.7413C7.58206 15.0457 7.56308 15.5202 7.25871 15.8011Z" fill="#262626"/>
</svg>
