<svg width="current" height="current" viewBox="0 0 24 24" fill="none" xmlns="http://www.w3.org/2000/svg">
<path fill-rule="evenodd" clip-rule="evenodd" d="M15.9697 20.7803C16.2626 21.0732 16.7374 21.0732 17.0303 20.7803L20.7803 17.0303C21.0732 16.7374 21.0732 16.2626 20.7803 15.9697C20.4874 15.6768 20.0126 15.6768 19.7197 15.9697L17.25 18.4393L17.25 3.75C17.25 3.33579 16.9142 3 16.5 3C16.0858 3 15.75 3.33579 15.75 3.75L15.75 18.4393L13.2803 15.9697C12.9874 15.6768 12.5126 15.6768 12.2197 15.9697C11.9268 16.2626 11.9268 16.7374 12.2197 17.0303L15.9697 20.7803ZM8.03033 3.21967C7.73744 2.92678 7.26256 2.92678 6.96967 3.21967L3.21967 6.96967C2.92678 7.26256 2.92678 7.73744 3.21967 8.03033C3.51256 8.32322 3.98744 8.32322 4.28033 8.03033L6.75 5.56066V20.25C6.75 20.6642 7.08579 21 7.5 21C7.91421 21 8.25 20.6642 8.25 20.25V5.56066L10.7197 8.03033C11.0126 8.32322 11.4874 8.32322 11.7803 8.03033C12.0732 7.73744 12.0732 7.26256 11.7803 6.96967L8.03033 3.21967Z" fill="#262626"/>
</svg>
