<svg width="current" height="current" viewBox="0 0 24 24" fill="none" xmlns="http://www.w3.org/2000/svg">
<path fill-rule="evenodd" clip-rule="evenodd" d="M18.75 5.24996H6.76163C6.63464 5.24811 6.50851 5.2785 6.39602 5.33858C6.30591 5.38671 6.22455 5.45389 6.15849 5.5388C6.14471 5.55645 6.1317 5.57474 6.11951 5.59361L2.12596 11.5839C1.95801 11.8359 1.95801 12.1641 2.12596 12.416L6.11951 18.4063C6.1317 18.4252 6.14471 18.4435 6.15849 18.4611C6.29243 18.6333 6.48929 18.7325 6.6944 18.7479C6.71675 18.7496 6.7392 18.7503 6.76167 18.75H18.75C20.5449 18.75 22 17.2949 22 15.5V8.49996C22 6.70503 20.5449 5.24996 18.75 5.24996ZM18.75 17.25H7.15139L3.65139 12L7.15139 6.74996H18.75C19.7165 6.74996 20.5 7.53346 20.5 8.49996V15.5C20.5 16.4665 19.7165 17.25 18.75 17.25ZM12.0303 8.96964C11.7374 8.67675 11.2626 8.67675 10.9697 8.96964C10.6768 9.26253 10.6768 9.73741 10.9697 10.0303L12.9393 12L10.9697 13.9696C10.6768 14.2625 10.6768 14.7374 10.9697 15.0303C11.2626 15.3232 11.7374 15.3232 12.0303 15.0303L14 13.0606L15.9697 15.0303C16.2626 15.3232 16.7374 15.3232 17.0303 15.0303C17.3232 14.7374 17.3232 14.2625 17.0303 13.9696L15.0607 12L17.0303 10.0303C17.3232 9.73741 17.3232 9.26253 17.0303 8.96964C16.7374 8.67675 16.2626 8.67675 15.9697 8.96964L14 10.9393L12.0303 8.96964Z" fill="#262626"/>
</svg>
