<svg width="current" height="current" viewBox="0 0 24 24" fill="none" xmlns="http://www.w3.org/2000/svg">
<path fill-rule="evenodd" clip-rule="evenodd" d="M5 5.25C5 3.45508 6.45507 2 8.25 2H15.75C17.5449 2 19 3.45507 19 5.25V20.704C19 21.718 17.8562 22.3101 17.0282 21.7246L12.1444 18.2707C12.0578 18.2095 11.9422 18.2095 11.8556 18.2707L6.97175 21.7246C6.14384 22.3101 5 21.718 5 20.704V5.25ZM8.25 3.5C7.2835 3.5 6.5 4.2835 6.5 5.25V20.221L10.9895 17.046C11.5951 16.6177 12.4049 16.6177 13.0105 17.046L17.5 20.221V5.25C17.5 4.2835 16.7165 3.5 15.75 3.5H8.25Z" fill="#262626"/>
</svg>
