<svg width="current" height="current" viewBox="0 0 24 24" fill="none" xmlns="http://www.w3.org/2000/svg">
<path fill-rule="evenodd" clip-rule="evenodd" d="M20.5052 9.5052C22.1649 7.84548 22.1649 5.15452 20.5052 3.4948C18.8455 1.83507 16.1545 1.83507 14.4948 3.4948C12.8351 5.15452 12.8351 7.84548 14.4948 9.5052C16.1545 11.1649 18.8455 11.1649 20.5052 9.5052ZM13.6109 10.3891C15.7588 12.537 19.2412 12.537 21.3891 10.3891C23.537 8.2412 23.537 4.7588 21.3891 2.61091C19.2412 0.463029 15.7588 0.463029 13.6109 2.61091C11.463 4.7588 11.463 8.2412 13.6109 10.3891ZM17.5 9.59987C17.1548 9.59987 16.875 9.32005 16.875 8.97487V7.125H15.0251C14.6799 7.125 14.4001 6.84518 14.4001 6.5C14.4001 6.15482 14.6799 5.875 15.0251 5.875H16.875L16.875 4.02513C16.875 3.67995 17.1548 3.40013 17.5 3.40013C17.8452 3.40013 18.125 3.67995 18.125 4.02513V5.875H19.9749C20.3201 5.875 20.5999 6.15482 20.5999 6.5C20.5999 6.84518 20.3201 7.125 19.9749 7.125H18.125V8.97487C18.125 9.32005 17.8452 9.59987 17.5 9.59987ZM17 20.704V12.9811C16.4805 12.9415 15.9782 12.841 15.5 12.6865V20.221L11.0105 17.046C10.4049 16.6177 9.59512 16.6177 8.98955 17.046L4.5 20.221V5.25C4.5 4.2835 5.2835 3.5 6.25 3.5H11.7322C12.0194 2.94898 12.3832 2.44427 12.8096 2H6.25C4.45507 2 3 3.45508 3 5.25V20.704C3 21.718 4.14384 22.3101 4.97175 21.7246L9.85565 18.2707C9.94216 18.2095 10.0578 18.2095 10.1444 18.2707L15.0282 21.7246C15.8562 22.3101 17 21.718 17 20.704Z" fill="#262626"/>
</svg>
