<svg width="current" height="current" viewBox="0 0 24 24" fill="none" xmlns="http://www.w3.org/2000/svg">
<path fill-rule="evenodd" clip-rule="evenodd" d="M13 15.5381C13.5015 15.5381 13.9699 15.7895 14.2481 16.2082L15.5 18.0923L16.7519 16.2082C17.0301 15.7895 17.4985 15.5381 18 15.5381H19.5C20.0523 15.5381 20.5 15.0889 20.5 14.5347V6.50827C20.5 5.95416 20.0523 5.50496 19.5 5.50496H4.5C3.94772 5.50496 3.5 5.95416 3.5 6.50827V14.5347C3.5 15.0889 3.94772 15.5381 4.5 15.5381H7.5H13ZM18 17.043H19.5C20.8807 17.043 22 15.92 22 14.5347V6.50827C22 5.12299 20.8807 4 19.5 4H4.5C3.11929 4 2 5.12299 2 6.50827V14.5347C2 15.92 3.11929 17.043 4.5 17.043H7.5H13L14.6679 19.5532C15.0638 20.1489 15.9362 20.1489 16.332 19.5532L18 17.043ZM17.75 9.01655C17.75 9.43213 17.4142 9.76903 17 9.76903L7 9.76903C6.58579 9.76903 6.25 9.43213 6.25 9.01655C6.25 8.60096 6.58579 8.26406 7 8.26406L17 8.26406C17.4142 8.26406 17.75 8.60096 17.75 9.01655ZM17 12.779C17.4142 12.779 17.75 12.4421 17.75 12.0265C17.75 11.6109 17.4142 11.274 17 11.274L9 11.274C8.58579 11.274 8.25 11.6109 8.25 12.0265C8.25 12.4421 8.58579 12.779 9 12.779L17 12.779Z" fill="#262626"/>
</svg>
