<svg width="current" height="current" viewBox="0 0 24 24" fill="none" xmlns="http://www.w3.org/2000/svg">
<path fill-rule="evenodd" clip-rule="evenodd" d="M4.5 12C4.5 7.85786 7.85786 4.5 12 4.5C16.1421 4.5 19.5 7.85786 19.5 12C19.5 16.1421 16.1421 19.5 12 19.5C7.85786 19.5 4.5 16.1421 4.5 12ZM12 3C7.02944 3 3 7.02944 3 12C3 16.9706 7.02944 21 12 21C16.9706 21 21 16.9706 21 12C21 7.02944 16.9706 3 12 3ZM8.80983 10.5646C8.84342 10.2464 9.02723 9.96355 9.3043 9.80358L14.28 6.93089C14.9877 6.52224 15.8602 7.08915 15.7744 7.90191L15.1902 13.4354C15.1566 13.7536 14.9728 14.0364 14.6957 14.1964L9.72004 17.0691C9.01225 17.4778 8.13975 16.9108 8.22556 16.0981L8.80983 10.5646ZM10.2748 10.9753L9.82037 15.2791L13.7164 13.0298L10.2837 10.9702L10.2748 10.9753Z" fill="#262626"/>
</svg>
