<svg width="current" height="current" viewBox="0 0 24 24" fill="none" xmlns="http://www.w3.org/2000/svg">
<path fill-rule="evenodd" clip-rule="evenodd" d="M12 4.5C11.1185 4.5 10.3885 5.15226 10.2676 6H13.7323C13.611 5.15193 12.8816 4.5 12 4.5ZM15.2405 6C15.1129 4.32189 13.7108 3 12 3C10.3143 3 8.92915 4.28277 8.76601 5.9259C8.76357 5.95053 8.7614 5.97523 8.75951 6H7H6.25H5.75C5.33579 6 5 6.33579 5 6.75C5 7.16421 5.33579 7.5 5.75 7.5H6.25V17.75C6.25 19.5449 7.70507 21 9.5 21H14.5C16.2949 21 17.75 19.5449 17.75 17.75V7.5H18.25C18.6642 7.5 19 7.16421 19 6.75C19 6.33579 18.6642 6 18.25 6H17.75H17H15.2405ZM7.75 7.5V17.75C7.75 18.7165 8.5335 19.5 9.5 19.5H14.5C15.4665 19.5 16.25 18.7165 16.25 17.75V7.5H7.75ZM9.5 10.125C9.5 9.77982 9.77982 9.5 10.125 9.5C10.4702 9.5 10.75 9.77982 10.75 10.125V16.875C10.75 17.2202 10.4702 17.5 10.125 17.5C9.77982 17.5 9.5 17.2202 9.5 16.875V10.125ZM13.875 9.5C13.5298 9.5 13.25 9.77982 13.25 10.125V16.875C13.25 17.2202 13.5298 17.5 13.875 17.5C14.2202 17.5 14.5 17.2202 14.5 16.875V10.125C14.5 9.77982 14.2202 9.5 13.875 9.5Z" fill="#262626"/>
</svg>
