<svg width="current" height="current" viewBox="0 0 24 24" fill="none" xmlns="http://www.w3.org/2000/svg">
<path fill-rule="evenodd" clip-rule="evenodd" d="M2 5.75C2 5.33579 2.33579 5 2.75 5H21.25C21.6642 5 22 5.33579 22 5.75C22 6.16421 21.6642 6.5 21.25 6.5H2.75C2.33579 6.5 2 6.16421 2 5.75ZM6.5 18.25C6.5 17.8358 6.83579 17.5 7.25 17.5H16.75C17.1642 17.5 17.5 17.8358 17.5 18.25C17.5 18.6642 17.1642 19 16.75 19H7.25C6.83579 19 6.5 18.6642 6.5 18.25ZM5 11.25C4.58579 11.25 4.25 11.5858 4.25 12C4.25 12.4142 4.58579 12.75 5 12.75H19C19.4142 12.75 19.75 12.4142 19.75 12C19.75 11.5858 19.4142 11.25 19 11.25H5Z" fill="#262626"/>
</svg>
