<svg width="current" height="current" viewBox="0 0 24 24" fill="none" xmlns="http://www.w3.org/2000/svg">
<path fill-rule="evenodd" clip-rule="evenodd" d="M4 3C3.44772 3 3 3.44772 3 4V4.75V12.75V20.25C3 20.6642 3.33579 21 3.75 21C4.16421 21 4.5 20.6642 4.5 20.25V13.5H20.25C20.5266 13.5 20.7807 13.3478 20.9113 13.1039C21.0418 12.86 21.0275 12.5641 20.874 12.334L18.1514 8.25L20.874 4.16603C21.0275 3.93588 21.0418 3.63997 20.9113 3.39611C20.7807 3.15224 20.5266 3 20.25 3H4.75C4.66512 3 4.58165 3.00604 4.5 3.01772V3H4ZM4.5 4.75V12H18.8486L16.626 8.66603C16.458 8.4141 16.458 8.0859 16.626 7.83397L18.8486 4.5H4.75C4.61193 4.5 4.5 4.61193 4.5 4.75Z" fill="#262626"/>
</svg>
