<svg width="current" height="current" viewBox="0 0 24 24" fill="none" xmlns="http://www.w3.org/2000/svg">
<path fill-rule="evenodd" clip-rule="evenodd" d="M3 4C3 3.44772 3.44772 3 4 3H4.5V3.01772C4.58165 3.00604 4.66512 3 4.75 3H20.25C20.5266 3 20.7807 3.15224 20.9113 3.39611C21.0418 3.63997 21.0275 3.93588 20.874 4.16603L18.1514 8.25L20.874 12.334C21.0275 12.5641 21.0418 12.86 20.9113 13.1039C20.7807 13.3478 20.5266 13.5 20.25 13.5H4.5V20.25C4.5 20.6642 4.16421 21 3.75 21C3.33579 21 3 20.6642 3 20.25V12.75V4.75V4Z" fill="#262626"/>
</svg>
