<svg width="current" height="current" viewBox="0 0 24 24" fill="none" xmlns="http://www.w3.org/2000/svg">
<path fill-rule="evenodd" clip-rule="evenodd" d="M5.2738 8.67793C5.8378 9.00103 6.51251 9.40886 7.13548 9.8275C7.56862 10.1186 7.98938 10.4233 8.33411 10.7148C8.65315 10.9847 8.99614 11.3152 9.17082 11.6646C9.3168 11.9566 9.32163 12.2902 9.32158 12.4792C9.32156 12.5791 9.31839 12.6849 9.3155 12.7814C9.31514 12.7932 9.31479 12.8049 9.31445 12.8165C9.31119 12.927 9.30857 13.0306 9.30939 13.1334C9.31284 13.5684 9.38203 13.8177 9.53656 13.976C9.82636 14.2727 10.4029 14.5355 11.1064 14.7677C11.3781 14.8574 11.6414 14.9344 11.8889 15.0068C11.9466 15.0237 12.0034 15.0403 12.0593 15.0568C12.3226 15.1344 12.6281 15.2255 12.8354 15.3292C13.6711 15.747 14.1785 16.7933 13.9174 17.8974C13.7903 18.4347 13.4947 18.9545 13.0168 19.4317C15.2301 19.1317 17.1375 17.8662 18.2998 16.0717C18.2028 16.0145 18.1109 15.9482 18.0246 15.8742C17.6319 15.5377 17.3624 15.0546 17.1671 14.6197C16.9661 14.172 16.8043 13.682 16.67 13.2731C16.5632 12.9477 16.4794 12.6936 16.4049 12.5072C16.351 12.5094 16.2784 12.516 16.1834 12.5305C15.8704 12.5782 15.4976 12.679 15.0546 12.7987C14.9192 12.8353 14.7772 12.8736 14.6284 12.9128C14.0377 13.0682 13.3476 13.2328 12.7221 13.2421C12.1032 13.2513 11.3373 13.108 10.876 12.416C10.5857 11.9806 10.4516 11.5053 10.59 11.0118C10.711 10.5802 11.0125 10.2644 11.2263 10.0561C11.3208 9.96398 11.411 9.87952 11.4964 9.79963C11.8669 9.45277 12.1454 9.19195 12.2885 8.76283C12.4971 8.137 12.5 7.61805 12.5 7.125C12.5 7.11483 12.5 7.10455 12.5 7.09417C12.4999 6.86879 12.4998 6.59543 12.5415 6.34545C12.5886 6.06247 12.6984 5.74093 12.9697 5.46967C13.202 5.23734 13.586 4.98025 13.9534 4.75671C13.331 4.58933 12.6763 4.5 12 4.5C9.0518 4.5 6.49938 6.20134 5.2738 8.67793ZM15.7162 5.4838C15.4773 5.60999 15.1968 5.76386 14.9262 5.92277C14.4904 6.17876 14.1649 6.39974 14.0375 6.52327C14.0338 6.53296 14.0274 6.55375 14.021 6.59205C14.0021 6.70556 14 6.85597 14 7.125V7.13986C14 7.64619 14.0001 8.3715 13.7115 9.23717C13.4351 10.0663 12.8227 10.6256 12.4447 10.9707C12.3796 11.0302 12.3214 11.0834 12.2731 11.1304C12.1802 11.221 12.1194 11.2881 12.079 11.3426C12.0521 11.3789 12.0409 11.401 12.0366 11.4108C12.0415 11.4347 12.0604 11.4886 12.124 11.584C12.1627 11.642 12.2718 11.7487 12.6997 11.7423C13.1212 11.736 13.6498 11.6193 14.2466 11.4622C14.3624 11.4317 14.4824 11.3992 14.6044 11.3662C15.0636 11.2418 15.5518 11.1095 15.9572 11.0476C16.2155 11.0082 16.5166 10.9835 16.8013 11.0376C17.1057 11.0955 17.4704 11.2638 17.6708 11.6646C17.8173 11.9576 17.9507 12.3644 18.0721 12.7347C18.0798 12.7583 18.0875 12.7818 18.0952 12.8051C18.2328 13.2243 18.3717 13.6405 18.5355 14.0053C18.7005 14.3727 18.856 14.6058 18.9896 14.7255C19.319 13.8815 19.5 12.9626 19.5 12C19.5 9.21116 17.978 6.7766 15.7162 5.4838ZM12.0359 11.3957C12.0367 11.396 12.0375 11.4005 12.0362 11.4084C12.0346 11.3994 12.0352 11.3954 12.0359 11.3957ZM14.0408 6.51626C14.0409 6.51641 14.0403 6.5178 14.0388 6.52004C14.04 6.51724 14.0407 6.51612 14.0408 6.51626ZM10.4242 19.3343C11.8943 18.7079 12.3533 17.9932 12.4576 17.5521C12.5715 17.0707 12.3289 16.753 12.1646 16.6708C12.1027 16.6399 11.9438 16.5865 11.6352 16.4955C11.5849 16.4807 11.5321 16.4653 11.477 16.4492C11.2285 16.3766 10.9349 16.2907 10.6362 16.1921C9.93961 15.9622 9.03527 15.6095 8.46344 15.024C7.87887 14.4255 7.81349 13.6557 7.80944 13.1453C7.80837 13.0118 7.81182 12.8836 7.8151 12.7723C7.81545 12.7606 7.81579 12.7491 7.81612 12.7379C7.81911 12.6374 7.82157 12.555 7.82158 12.4788C7.82161 12.3833 7.81661 12.3324 7.81438 12.3114C7.80995 12.3049 7.80453 12.2972 7.79799 12.2884C7.77636 12.2592 7.7459 12.2222 7.70467 12.1776C7.62143 12.0875 7.50831 11.981 7.36548 11.8602C7.0796 11.6184 6.70894 11.3481 6.29883 11.0725C5.78633 10.7281 5.23193 10.3885 4.74181 10.1029C4.58407 10.7083 4.5 11.3439 4.5 12C4.5 15.6011 7.03873 18.6108 10.4242 19.3343ZM3.61379 8.72717C4.9225 5.37607 8.18285 3 12 3C13.4603 3 14.8414 3.34835 16.0627 3.96714C18.9905 5.45061 21 8.48997 21 12C21 13.3637 20.6962 14.6584 20.1519 15.8186C18.7163 18.8785 15.6067 21 12 21C11.4421 21 10.8954 20.9491 10.3645 20.8516C6.17476 20.082 3 16.4126 3 12C3 10.8468 3.21727 9.74252 3.61379 8.72717Z" fill="#262626"/>
</svg>
