<svg width="current" height="current" viewBox="0 0 24 24" fill="none" xmlns="http://www.w3.org/2000/svg">
<path fill-rule="evenodd" clip-rule="evenodd" d="M20.5 12C20.5 16.6944 16.6944 20.5 12 20.5C7.30558 20.5 3.5 16.6944 3.5 12C3.5 7.30558 7.30558 3.5 12 3.5C16.6944 3.5 20.5 7.30558 20.5 12ZM22 12C22 17.5228 17.5228 22 12 22C6.47715 22 2 17.5228 2 12C2 6.47715 6.47715 2 12 2C17.5228 2 22 6.47715 22 12ZM13.1532 9.02146C14.0784 8.09624 15.5785 8.09624 16.5037 9.02146C17.4278 9.9456 17.4291 11.4435 16.5065 12.3692L15.3525 13.5271L15.3588 13.5334L12.6187 16.2734C12.277 16.6151 11.723 16.6151 11.3813 16.2734L7.49219 12.3843C6.5647 11.4568 6.5647 9.95307 7.49219 9.02557C8.41969 8.09808 9.92346 8.09808 10.851 9.02557L12 10.1746L13.1532 9.02146ZM17.3876 8.13758C15.9742 6.7242 13.6827 6.7242 12.2693 8.13758L12 8.40685L11.7348 8.14169C10.3192 6.72604 8.02396 6.72604 6.60831 8.14169C5.19266 9.55734 5.19266 11.8526 6.60831 13.2682L10.4974 17.1573C11.3273 17.9872 12.6727 17.9872 13.5026 17.1573L17.1265 13.5334L17.1188 13.5256L17.3918 13.2516C18.8012 11.8376 18.7993 9.5493 17.3876 8.13758Z" fill="#262626"/>
</svg>
