<svg width="current" height="current" viewBox="0 0 24 24" fill="none" xmlns="http://www.w3.org/2000/svg">
<path fill-rule="evenodd" clip-rule="evenodd" d="M17.3059 8.3662C16.1331 7.19336 14.2315 7.19336 13.0587 8.3662L12.0003 9.42457L10.9397 8.36391C9.76811 7.19234 7.86861 7.19234 6.69704 8.36391C5.52547 9.53548 5.52547 11.435 6.69704 12.6065L7.22884 13.1383L11.4696 17.4027C11.7627 17.6973 12.2394 17.6976 12.5327 17.4032L17.3096 12.6098C18.479 11.4363 18.4773 9.53761 17.3059 8.3662ZM12.0003 7.30325C13.7592 5.54692 16.6087 5.54768 18.3666 7.30554C20.1231 9.06202 20.1255 11.9091 18.3721 13.6686L13.5952 18.4621C12.7152 19.345 11.2851 19.3443 10.4061 18.4604L6.16671 14.1975L5.63638 13.6672C3.87902 11.9099 3.87902 9.06061 5.63638 7.30325C7.39374 5.54589 10.243 5.54589 12.0003 7.30325Z" fill="#262626"/>
</svg>
