<svg width="current" height="current" viewBox="0 0 24 24" fill="none" xmlns="http://www.w3.org/2000/svg">
<path fill-rule="evenodd" clip-rule="evenodd" d="M3.75 3C3.33579 3 3 3.33579 3 3.75C3 4.16421 3.33579 4.5 3.75 4.5H8.00348L14.8096 20.5429C14.9271 20.82 15.199 21 15.5 21H20.25C20.6642 21 21 20.6642 21 20.25C21 19.8358 20.6642 19.5 20.25 19.5H15.9965L9.19044 3.45709C9.07287 3.17997 8.80102 3 8.5 3H3.75ZM15.75 3C15.3358 3 15 3.33579 15 3.75C15 4.16421 15.3358 4.5 15.75 4.5H20.25C20.6642 4.5 21 4.16421 21 3.75C21 3.33579 20.6642 3 20.25 3H15.75Z" fill="#262626"/>
</svg>
