<svg width="current" height="current" viewBox="0 0 24 24" fill="none" xmlns="http://www.w3.org/2000/svg">
<path fill-rule="evenodd" clip-rule="evenodd" d="M12 3C12.2028 3 12.397 3.08212 12.5382 3.22764L20.7882 11.7276C20.9981 11.9439 21.0581 12.2647 20.9408 12.5422C20.8234 12.8197 20.5513 13 20.25 13H17.75V20.25C17.75 20.6642 17.4142 21 17 21H7.00002C6.58581 21 6.25002 20.6642 6.25002 20.25V13H3.75002C3.44871 13 3.17665 12.8197 3.05927 12.5422C2.94189 12.2647 3.00198 11.9439 3.21183 11.7276L11.4618 3.22764C11.6031 3.08212 11.7972 3 12 3ZM5.52314 11.5H7.00002C7.41423 11.5 7.75002 11.8358 7.75002 12.25V19.5H16.25V12.25C16.25 11.8358 16.5858 11.5 17 11.5H18.4769L12 4.82685L5.52314 11.5Z" fill="#262626"/>
</svg>
