<svg width="current" height="current" viewBox="0 0 24 24" fill="none" xmlns="http://www.w3.org/2000/svg">
<path fill-rule="evenodd" clip-rule="evenodd" d="M3.02367 4.05173C2.74003 3.94058 2.41733 4.01204 2.20713 4.23255C1.99694 4.45307 1.94102 4.77882 2.06564 5.05682L5.17811 12L2.06564 18.9432C1.94102 19.2212 1.99694 19.547 2.20713 19.7675C2.41733 19.988 2.74003 20.0595 3.02367 19.9483L21.5237 12.6983C21.811 12.5857 22 12.3086 22 12C22 11.6914 21.811 11.4143 21.5237 11.3017L3.02367 4.05173ZM6.48572 11.25L4.18515 6.11798L19.1945 12L4.18515 17.8821L6.48572 12.75H10.25C10.6642 12.75 11 12.4142 11 12C11 11.5858 10.6642 11.25 10.25 11.25H6.48572Z" fill="#262626"/>
</svg>
