<svg width="current" height="current" viewBox="0 0 24 24" fill="none" xmlns="http://www.w3.org/2000/svg">
<path fill-rule="evenodd" clip-rule="evenodd" d="M3.41076 10.3228C3.15579 10.4342 2.99353 10.6888 3.0002 10.967C3.00686 11.2451 3.18113 11.4916 3.44114 11.5907L9.93535 14.0647L12.4093 20.5589C12.5084 20.8189 12.7549 20.9931 13.033 20.9998C13.3112 21.0065 13.5658 20.8442 13.6772 20.5892L20.9427 3.95926C21.0555 3.70098 20.9986 3.39995 20.7993 3.20065C20.6 3.00135 20.299 2.94447 20.0407 3.05731L3.41076 10.3228ZM10.2955 12.7358L5.4953 10.9072L18.9875 5.01252L13.0928 18.5047L11.2642 13.7045L13.6953 11.2735C13.9628 11.0059 13.9628 10.5722 13.6953 10.3047C13.4278 10.0372 12.9941 10.0372 12.7265 10.3047L10.2955 12.7358Z" fill="#262626"/>
</svg>
