<svg width="current" height="current" viewBox="0 0 24 24" fill="none" xmlns="http://www.w3.org/2000/svg">
<path fill-rule="evenodd" clip-rule="evenodd" d="M6.75 8.75C6.75 5.85051 9.10051 3.5 12 3.5C14.8995 3.5 17.25 5.85051 17.25 8.75C17.25 11.1452 15.8932 14.0657 14.4207 16.5003C13.502 18.0192 12.5747 19.2908 12 20.0411C11.4253 19.2908 10.498 18.0192 9.5793 16.5003C8.10677 14.0657 6.75 11.1452 6.75 8.75ZM12 2C8.27208 2 5.25 5.02208 5.25 8.75C5.25 11.5911 6.81056 14.821 8.29582 17.2766C9.78691 19.7418 11.2967 21.5767 11.4163 21.7211C11.4173 21.7223 11.4188 21.7242 11.4207 21.7265C11.4236 21.7299 11.4273 21.7343 11.4316 21.7393L11.4323 21.7401C11.4421 21.7514 11.4843 21.8004 11.5493 21.8492C11.621 21.9029 11.7771 21.9995 12 21.9995C12.2228 21.9995 12.379 21.903 12.4506 21.8492C12.5156 21.8004 12.5579 21.7515 12.5677 21.7401L12.5684 21.7393C12.5755 21.7312 12.5809 21.7245 12.5836 21.7212C12.7025 21.5777 14.2127 19.7424 15.7042 17.2766C17.1894 14.821 18.75 11.5911 18.75 8.75C18.75 5.02208 15.7279 2 12 2ZM10.75 8.5C10.75 7.80964 11.3096 7.25 12 7.25C12.6904 7.25 13.25 7.80964 13.25 8.5C13.25 9.19036 12.6904 9.75 12 9.75C11.3096 9.75 10.75 9.19036 10.75 8.5ZM12 5.75C10.4812 5.75 9.25 6.98122 9.25 8.5C9.25 10.0188 10.4812 11.25 12 11.25C13.5188 11.25 14.75 10.0188 14.75 8.5C14.75 6.98122 13.5188 5.75 12 5.75Z" fill="#262626"/>
</svg>
