<svg width="current" height="current" viewBox="0 0 24 24" fill="none" xmlns="http://www.w3.org/2000/svg">
<path fill-rule="evenodd" clip-rule="evenodd" d="M5.58461 6.64527L2.21967 3.28033C1.92678 2.98744 1.92678 2.51256 2.21967 2.21967C2.51256 1.92678 2.98744 1.92678 3.28033 2.21967L21.7803 20.7197C22.0732 21.0126 22.0732 21.4874 21.7803 21.7803C21.4874 22.0732 21.0126 22.0732 20.7197 21.7803L15.8956 16.9563C15.8318 17.0644 15.7679 17.1712 15.7042 17.2766C14.2127 19.7424 12.7025 21.5777 12.5836 21.7212C12.5809 21.7245 12.5755 21.7312 12.5684 21.7393L12.5677 21.7401C12.5579 21.7515 12.5156 21.8004 12.4506 21.8492C12.379 21.903 12.2228 21.9995 12 21.9995C11.7771 21.9995 11.621 21.9029 11.5493 21.8492C11.4843 21.8004 11.4421 21.7514 11.4323 21.7401L11.4316 21.7393L11.4207 21.7265L11.4163 21.7211C11.2967 21.5767 9.78691 19.7418 8.29582 17.2766C6.81056 14.821 5.25 11.5911 5.25 8.75C5.25 8.01508 5.36745 7.30758 5.58461 6.64527ZM14.7987 15.8594C14.6741 16.0762 14.5478 16.29 14.4207 16.5003C13.502 18.0192 12.5747 19.2908 12 20.0411C11.4253 19.2908 10.498 18.0192 9.5793 16.5003C8.10677 14.0657 6.75 11.1452 6.75 8.75C6.75 8.45434 6.77444 8.1644 6.82141 7.88207L14.7987 15.8594ZM14.75 8.5C14.75 9.37132 14.3448 10.148 13.7125 10.6518L12.6366 9.57596C13.0038 9.35823 13.25 8.95786 13.25 8.5C13.25 7.80964 12.6904 7.25 12 7.25C11.5421 7.25 11.1418 7.49617 10.924 7.86338L9.84816 6.7875C10.352 6.15523 11.1287 5.75 12 5.75C13.5188 5.75 14.75 6.98122 14.75 8.5ZM17.25 8.75C17.25 10.0998 16.8191 11.6164 16.1795 13.1188L17.3171 14.2564C18.1387 12.4588 18.75 10.5282 18.75 8.75C18.75 5.02208 15.7279 2 12 2C10.0879 2 8.36146 2.79506 7.13329 4.07263L8.19422 5.13356C9.15071 4.12731 10.5021 3.5 12 3.5C14.8995 3.5 17.25 5.85051 17.25 8.75Z" fill="#262626"/>
</svg>
