<svg width="current" height="current" viewBox="0 0 24 24" fill="none" xmlns="http://www.w3.org/2000/svg">
<path fill-rule="evenodd" clip-rule="evenodd" d="M8 2C7.78258 2 7.57586 2.09435 7.43341 2.2586C7.29096 2.42285 7.22679 2.64083 7.25754 2.85607L8.19199 9.3972L5.32309 11.3834C5.12074 11.5234 5 11.7539 5 12V14.25C5 14.6642 5.33579 15 5.75 15H11.25V21.25C11.25 21.6642 11.5858 22 12 22C12.4142 22 12.75 21.6642 12.75 21.25V15H18.25C18.6642 15 19 14.6642 19 14.25V12C19 11.7539 18.8793 11.5234 18.6769 11.3834L15.808 9.3972L16.7425 2.85607C16.7732 2.64083 16.709 2.42285 16.5666 2.2586C16.4241 2.09435 16.2174 2 16 2H8ZM14.4994 10.3086C14.5266 10.333 14.5557 10.3555 14.5865 10.3759L17.5 12.393V13.5H6.5V12.393L9.41354 10.3759C9.53455 10.2958 9.62965 10.1822 9.68745 10.0501C9.72966 9.95368 9.75198 9.84742 9.74997 9.73726C9.74938 9.70075 9.74613 9.66418 9.74017 9.62786L8.86476 3.5H15.1352L14.2598 9.62785C14.2539 9.66419 14.2506 9.70077 14.25 9.73729C14.246 9.95994 14.3413 10.1666 14.4994 10.3086Z" fill="#262626"/>
</svg>
