<svg width="current" height="current" viewBox="0 0 24 24" fill="none" xmlns="http://www.w3.org/2000/svg">
<path fill-rule="evenodd" clip-rule="evenodd" d="M7.9289 2.32602C9.21717 1.78108 10.6017 1.5002 12.0005 1.5C14.0772 1.5 16.1072 2.11581 17.834 3.26957C19.5607 4.42332 20.9065 6.0632 21.7012 7.98182C22.4959 9.90045 22.7039 12.0116 22.2987 14.0484C21.8936 16.0852 20.8935 17.9562 19.4251 19.4246C17.9566 20.8931 16.0857 21.8931 14.0489 22.2982C12.0121 22.7034 9.90092 22.4955 7.9823 21.7007C6.06367 20.906 4.4238 19.5602 3.27004 17.8335C2.25537 16.3149 1.65676 14.5617 1.52718 12.7485C1.49769 12.3358 1.83588 12 2.24963 12C2.66403 12 2.99648 12.337 3.03007 12.7501C3.17926 14.5843 3.88808 16.3354 5.06972 17.7618C6.41158 19.3816 8.2784 20.4803 10.346 20.8669C12.4135 21.2536 14.5512 20.9039 16.3878 19.8785C18.2243 18.8531 19.6437 17.2169 20.3995 15.2539C21.1552 13.291 21.1995 11.1253 20.5248 9.1331C19.85 7.14086 18.4987 5.4479 16.7057 4.34823C14.9126 3.24856 12.791 2.81166 10.7094 3.1134C8.62771 3.41515 6.71749 4.43647 5.31047 6H8.25047C8.66469 6 9.00047 6.33579 9.00047 6.75C9.00047 7.16421 8.66469 7.5 8.25047 7.5H3.50047C3.22433 7.5 3.00047 7.27614 3.00047 7V2.25C3.00047 1.83579 3.33626 1.5 3.75047 1.5C4.16469 1.5 4.50047 1.83579 4.50047 2.25V4.6725C5.47481 3.66887 6.64063 2.87096 7.9289 2.32602ZM12.7505 5.5C12.7505 5.08579 12.4147 4.75 12.0005 4.75C11.5863 4.75 11.2505 5.08579 11.2505 5.5V11.9856C11.2499 12.0155 11.2512 12.0452 11.2542 12.0748C11.2649 12.1834 11.2988 12.2851 11.3509 12.3751C11.4027 12.4651 11.4739 12.5453 11.5625 12.6089C11.5866 12.6263 11.6118 12.6423 11.6379 12.6567L15.9555 15.1495C16.3142 15.3566 16.7729 15.2337 16.98 14.875C17.1871 14.5163 17.0642 14.0576 16.7055 13.8505L12.7505 11.567V5.5Z" fill="#262626"/>
</svg>
