<svg width="current" height="current" viewBox="0 0 24 24" fill="none" xmlns="http://www.w3.org/2000/svg">
<path fill-rule="evenodd" clip-rule="evenodd" d="M3.48327 4.54393C3.17684 5.03982 3 5.62426 3 6.25V8.16667C3 8.58088 3.33579 8.91667 3.75 8.91667C4.16421 8.91667 4.5 8.58088 4.5 8.16667V6.25C4.5 6.04369 4.5357 5.84572 4.60126 5.66192L7.35126 8.41192C7.2857 8.59572 7.25 8.79369 7.25 9V9.75C7.25 10.1642 7.58579 10.5 8 10.5C8.39456 10.5 8.71795 10.1953 8.74776 9.80842L10.1893 11.25H3.75C3.33579 11.25 3 11.5858 3 12C3 12.4142 3.33579 12.75 3.75 12.75H11.6893L14.1893 15.25H9C8.86193 15.25 8.75 15.1381 8.75 15V14.25C8.75 13.8358 8.41421 13.5 8 13.5C7.58579 13.5 7.25 13.8358 7.25 14.25V15C7.25 15.9665 8.0335 16.75 9 16.75H15C15.2063 16.75 15.4043 16.7143 15.5881 16.6487L18.3381 19.3987C18.1543 19.4643 17.9563 19.5 17.75 19.5H15.8333C15.4191 19.5 15.0833 19.8358 15.0833 20.25C15.0833 20.6642 15.4191 21 15.8333 21H17.75C18.3757 21 18.9602 20.8232 19.4561 20.5167L19.7197 20.7803C20.0126 21.0732 20.4874 21.0732 20.7803 20.7803C21.0732 20.4874 21.0732 20.0126 20.7803 19.7197L20.5167 19.4561C20.518 19.4539 20.5194 19.4518 20.5207 19.4497C20.5182 19.4506 20.5157 19.4516 20.5132 19.4525L4.28033 3.21967C3.98744 2.92678 3.51256 2.92678 3.21967 3.21967C2.92678 3.51256 2.92678 3.98744 3.21967 4.28033L3.48327 4.54393ZM9.81066 7.25L11.3107 8.75H15C15.1381 8.75 15.25 8.86193 15.25 9V9.75C15.25 10.1642 15.5858 10.5 16 10.5C16.4142 10.5 16.75 10.1642 16.75 9.75V9C16.75 8.0335 15.9665 7.25 15 7.25H9.81066ZM13.8107 11.25L15.3107 12.75H20.25C20.6642 12.75 21 12.4142 21 12C21 11.5858 20.6642 11.25 20.25 11.25H13.8107ZM20.7803 18.2197C20.8433 18.2827 20.8928 18.3541 20.9287 18.4303C20.9754 18.2109 21 17.9833 21 17.75V15.8333C21 15.4191 20.6642 15.0833 20.25 15.0833C19.8358 15.0833 19.5 15.4191 19.5 15.8333V16.9393L20.7803 18.2197ZM5.6214 3.06074L7.06066 4.5H8.16667C8.58088 4.5 8.91667 4.16421 8.91667 3.75C8.91667 3.33579 8.58088 3 8.16667 3H6.25C6.03495 3 5.82478 3.02089 5.6214 3.06074ZM15.0833 3.75C15.0833 3.33579 15.4191 3 15.8333 3H17.75C19.5449 3 21 4.45507 21 6.25V8.16667C21 8.58088 20.6642 8.91667 20.25 8.91667C19.8358 8.91667 19.5 8.58088 19.5 8.16667V6.25C19.5 5.2835 18.7165 4.5 17.75 4.5H15.8333C15.4191 4.5 15.0833 4.16421 15.0833 3.75ZM3.75 15.0833C4.16421 15.0833 4.5 15.4191 4.5 15.8333V17.75C4.5 18.7165 5.2835 19.5 6.25 19.5H8.16667C8.58088 19.5 8.91667 19.8358 8.91667 20.25C8.91667 20.6642 8.58088 21 8.16667 21H6.25C4.45507 21 3 19.5449 3 17.75V15.8333C3 15.4191 3.33579 15.0833 3.75 15.0833Z" fill="#262626"/>
</svg>
