<svg width="current" height="current" viewBox="0 0 24 24" fill="none" xmlns="http://www.w3.org/2000/svg">
<path fill-rule="evenodd" clip-rule="evenodd" d="M6.25 4.5C5.2835 4.5 4.5 5.2835 4.5 6.25V8.16667C4.5 8.58088 4.16421 8.91667 3.75 8.91667C3.33579 8.91667 3 8.58088 3 8.16667V6.25C3 4.45507 4.45507 3 6.25 3H8.16667C8.58088 3 8.91667 3.33579 8.91667 3.75C8.91667 4.16421 8.58088 4.5 8.16667 4.5H6.25ZM15.0833 3.75C15.0833 3.33579 15.4191 3 15.8333 3H17.75C19.5449 3 21 4.45507 21 6.25V8.16667C21 8.58088 20.6642 8.91667 20.25 8.91667C19.8358 8.91667 19.5 8.58088 19.5 8.16667V6.25C19.5 5.2835 18.7165 4.5 17.75 4.5H15.8333C15.4191 4.5 15.0833 4.16421 15.0833 3.75ZM3.75 15.0833C4.16421 15.0833 4.5 15.4191 4.5 15.8333V17.75C4.5 18.7165 5.2835 19.5 6.25 19.5H8.16667C8.58088 19.5 8.91667 19.8358 8.91667 20.25C8.91667 20.6642 8.58088 21 8.16667 21H6.25C4.45507 21 3 19.5449 3 17.75V15.8333C3 15.4191 3.33579 15.0833 3.75 15.0833ZM20.25 15.0833C20.6642 15.0833 21 15.4191 21 15.8333V17.75C21 19.5449 19.5449 21 17.75 21H15.8333C15.4191 21 15.0833 20.6642 15.0833 20.25C15.0833 19.8358 15.4191 19.5 15.8333 19.5H17.75C18.7165 19.5 19.5 18.7165 19.5 17.75V15.8333C19.5 15.4191 19.8358 15.0833 20.25 15.0833ZM3 12C3 11.5858 3.33579 11.25 3.75 11.25H20.25C20.6642 11.25 21 11.5858 21 12C21 12.4142 20.6642 12.75 20.25 12.75H3.75C3.33579 12.75 3 12.4142 3 12ZM7.25 9C7.25 8.0335 8.0335 7.25 9 7.25H15C15.9665 7.25 16.75 8.0335 16.75 9V9.75C16.75 10.1642 16.4142 10.5 16 10.5C15.5858 10.5 15.25 10.1642 15.25 9.75V9C15.25 8.86193 15.1381 8.75 15 8.75H9C8.86193 8.75 8.75 8.86193 8.75 9V9.75C8.75 10.1642 8.41421 10.5 8 10.5C7.58579 10.5 7.25 10.1642 7.25 9.75V9ZM16 13.5C16.4142 13.5 16.75 13.8358 16.75 14.25V15C16.75 15.9665 15.9665 16.75 15 16.75H9C8.0335 16.75 7.25 15.9665 7.25 15V14.25C7.25 13.8358 7.58579 13.5 8 13.5C8.41421 13.5 8.75 13.8358 8.75 14.25V15C8.75 15.1381 8.86193 15.25 9 15.25H15C15.1381 15.25 15.25 15.1381 15.25 15V14.25C15.25 13.8358 15.5858 13.5 16 13.5Z" fill="#262626"/>
</svg>
