<svg width="current" height="current" viewBox="0 0 24 24" fill="none" xmlns="http://www.w3.org/2000/svg">
<path fill-rule="evenodd" clip-rule="evenodd" d="M3.75 3C3.33579 3 3 3.33579 3 3.75V11.5C3 11.6989 3.07902 11.8897 3.21967 12.0303L11.9697 20.7803C12.2626 21.0732 12.7374 21.0732 13.0303 20.7803L20.7803 13.0303C21.0732 12.7374 21.0732 12.2626 20.7803 11.9697L12.0303 3.21967C11.8897 3.07902 11.6989 3 11.5 3H3.75ZM4.5 11.1893V4.5H11.1893L19.1893 12.5L12.5 19.1893L4.5 11.1893ZM7.75 8.5C7.75 8.08579 8.08579 7.75 8.5 7.75C8.91421 7.75 9.25 8.08579 9.25 8.5C9.25 8.91421 8.91421 9.25 8.5 9.25C8.08579 9.25 7.75 8.91421 7.75 8.5ZM8.5 6.25C7.25736 6.25 6.25 7.25736 6.25 8.5C6.25 9.74264 7.25736 10.75 8.5 10.75C9.74264 10.75 10.75 9.74264 10.75 8.5C10.75 7.25736 9.74264 6.25 8.5 6.25Z" fill="#262626"/>
</svg>
