<svg width="current" height="current" viewBox="0 0 24 24" fill="none" xmlns="http://www.w3.org/2000/svg">
<path fill-rule="evenodd" clip-rule="evenodd" d="M12.5382 2.22764C12.397 2.08212 12.2028 2 12 2C11.7972 2 11.6031 2.08212 11.4618 2.22764L3.21183 10.7276C3.00198 10.9439 2.94189 11.2647 3.05927 11.5422C3.17665 11.8197 3.44871 12 3.75002 12H6.25002V14.25C6.25002 14.6642 6.58581 15 7.00002 15H17C17.4142 15 17.75 14.6642 17.75 14.25V12H20.25C20.5513 12 20.8234 11.8197 20.9408 11.5422C21.0581 11.2647 20.9981 10.9439 20.7882 10.7276L12.5382 2.22764ZM7.00002 10.5H5.52314L12 3.82685L18.4769 10.5H17C16.5858 10.5 16.25 10.8358 16.25 11.25V13.5H7.75002V11.25C7.75002 10.8358 7.41423 10.5 7.00002 10.5ZM7.25 16.5C6.69772 16.5 6.25 16.9477 6.25 17.5V21C6.25 21.5523 6.69771 22 7.25 22H16.75C17.3023 22 17.75 21.5523 17.75 21V17.5C17.75 16.9477 17.3023 16.5 16.75 16.5H7.25ZM7.75 20.5V18H16.25V20.5H7.75Z" fill="#262626"/>
</svg>
