<svg width="20" height="14" viewBox="0 0 20 14" fill="none" xmlns="http://www.w3.org/2000/svg">
<path fill-rule="evenodd" clip-rule="evenodd" d="M7.75 0C7.33579 0 7 0.335786 7 0.75C7 1.16421 7.33579 1.5 7.75 1.5H9.25V2.53582C5.51882 2.89412 2.56044 5.89802 2.27292 9.64944C0.955435 10.0642 0 11.2955 0 12.75C0 13.4404 0.559643 14 1.25 14H18.75C19.4404 14 20 13.4404 20 12.75C20 11.2955 19.0446 10.0642 17.7271 9.64944C17.4396 5.89802 14.4812 2.89412 10.75 2.53582V1.5H12.25C12.6642 1.5 13 1.16421 13 0.75C13 0.335786 12.6642 0 12.25 0H7.75ZM16.2055 9.5C15.8349 6.40183 13.198 4 10 4C6.80204 4 4.16505 6.40183 3.79454 9.5H16.2055ZM16.75 11C17.6316 11 18.361 11.6519 18.4823 12.5H1.51772C1.63903 11.6519 2.36838 11 3.25 11H16.75Z" fill="#262626"/>
</svg>
