<svg width="current" height="current" viewBox="0 0 24 24" fill="none" xmlns="http://www.w3.org/2000/svg">
<path fill-rule="evenodd" clip-rule="evenodd" d="M6.54322 5.48256C8.01967 4.24508 9.92282 3.5 12 3.5C16.6944 3.5 20.5 7.30558 20.5 12C20.5 14.0772 19.7549 15.9803 18.5174 17.4568L6.54322 5.48256ZM5.48256 6.54322C4.24508 8.01967 3.5 9.92282 3.5 12C3.5 16.6944 7.30558 20.5 12 20.5C14.0772 20.5 15.9803 19.7549 17.4568 18.5174L5.48256 6.54322ZM12 2C6.47715 2 2 6.47715 2 12C2 17.5228 6.47715 22 12 22C17.5228 22 22 17.5228 22 12C22 6.47715 17.5228 2 12 2Z" fill="#262626"/>
</svg>
