<svg width="current" height="current" viewBox="0 0 24 24" fill="none" xmlns="http://www.w3.org/2000/svg">
<path fill-rule="evenodd" clip-rule="evenodd" d="M12 3.5C7.30558 3.5 3.5 7.30558 3.5 12C3.5 16.6944 7.30558 20.5 12 20.5C16.6944 20.5 20.5 16.6944 20.5 12C20.5 7.30558 16.6944 3.5 12 3.5ZM2 12C2 6.47715 6.47715 2 12 2C17.5228 2 22 6.47715 22 12C22 17.5228 17.5228 22 12 22C6.47715 22 2 17.5228 2 12ZM11.9986 8.25C11.6768 8.25 11.3621 8.3825 11.1256 8.6281C10.8882 8.87467 10.75 9.21491 10.75 9.57533C10.75 9.98954 10.4142 10.3253 10 10.3253C9.58579 10.3253 9.25 9.98954 9.25 9.57533C9.25 8.83493 9.53299 8.11943 10.0452 7.5876C10.5583 7.0548 11.2603 6.75 11.9986 6.75C12.7369 6.75 13.439 7.0548 13.9521 7.5876C14.4602 8.11519 14.7427 8.82353 14.7472 9.55762C14.771 10.1317 14.6428 10.7087 14.3694 11.2056C14.1018 11.6918 13.6996 12.0911 13.1996 12.3184C13.0415 12.4187 12.8465 12.6363 12.6913 13.0123C12.5305 13.402 12.445 13.8877 12.4626 14.3914C12.4772 14.8054 12.1534 15.1528 11.7394 15.1673C11.3255 15.1818 10.9781 14.858 10.9636 14.4441C10.9392 13.7501 11.0537 13.0484 11.3048 12.44C11.553 11.8387 11.9464 11.3043 12.4848 10.9985C12.5095 10.9844 12.5351 10.9718 12.5612 10.9607C12.7384 10.8852 12.9197 10.7287 13.0552 10.4824C13.1909 10.2358 13.263 9.92892 13.2481 9.6104C13.2475 9.59872 13.2472 9.58702 13.2472 9.57533C13.2472 9.21491 13.1091 8.87467 12.8716 8.6281C12.6351 8.3825 12.3205 8.25 11.9986 8.25ZM11.7131 15.7431C12.1273 15.7431 12.4631 16.0789 12.4631 16.4931V16.5C12.4631 16.9142 12.1273 17.25 11.7131 17.25C11.2989 17.25 10.9631 16.9142 10.9631 16.5V16.4931C10.9631 16.0789 11.2989 15.7431 11.7131 15.7431Z" fill="#262626"/>
</svg>
