<svg width="current" height="current" viewBox="0 0 24 24" fill="none" xmlns="http://www.w3.org/2000/svg">
<path fill-rule="evenodd" clip-rule="evenodd" d="M17.75 21C19.5449 21 21 19.5449 21 17.75L21 6.25C21 4.45508 19.5449 3 17.75 3L6.25 3C4.45508 3 3 4.45507 3 6.25L3 17.75C3 19.5449 4.45507 21 6.25 21L17.75 21ZM11.25 10.75C11.25 10.3358 11.5858 10 12 10C12.4142 10 12.75 10.3358 12.75 10.75L12.75 15.75C12.75 16.1642 12.4142 16.5 12 16.5C11.5858 16.5 11.25 16.1642 11.25 15.75L11.25 10.75ZM12.75 8.25C12.75 8.66421 12.4142 9 12 9C11.5858 9 11.25 8.66421 11.25 8.25C11.25 7.83579 11.5858 7.5 12 7.5C12.4142 7.5 12.75 7.83579 12.75 8.25Z" fill="#262626"/>
</svg>
