<svg width="current" height="current" viewBox="0 0 24 24" fill="none" xmlns="http://www.w3.org/2000/svg">
<path fill-rule="evenodd" clip-rule="evenodd" d="M3 6.25C3 4.45507 4.45507 3 6.25 3H17.75C19.5449 3 21 4.45507 21 6.25V14.25C21 16.0449 19.5449 17.5 17.75 17.5H16.125C15.6661 17.5 15.2295 17.6981 14.9273 18.0435L12.5644 20.7439C12.422 20.9066 12.2163 21 12 21C11.7837 21 11.578 20.9066 11.4356 20.7439L9.07273 18.0435C8.77052 17.6981 8.33393 17.5 7.875 17.5H6.25C4.45507 17.5 3 16.0449 3 14.25V6.25ZM16.125 16H17.75C18.7165 16 19.5 15.2165 19.5 14.25V6.25C19.5 5.2835 18.7165 4.5 17.75 4.5H6.25C5.2835 4.5 4.5 5.2835 4.5 6.25V14.25C4.5 15.2165 5.2835 16 6.25 16H7.875C8.76647 16 9.61455 16.3848 10.2016 17.0557L12 19.1111L13.7984 17.0557C14.3854 16.3848 15.2335 16 16.125 16ZM12.75 6.5C12.75 6.91421 12.4142 7.25 12 7.25C11.5858 7.25 11.25 6.91421 11.25 6.5C11.25 6.08579 11.5858 5.75 12 5.75C12.4142 5.75 12.75 6.08579 12.75 6.5ZM12 8.25C11.5858 8.25 11.25 8.58579 11.25 9V14C11.25 14.4142 11.5858 14.75 12 14.75C12.4142 14.75 12.75 14.4142 12.75 14V9C12.75 8.58579 12.4142 8.25 12 8.25Z" fill="#262626"/>
</svg>
