<svg width="current" height="current" viewBox="0 0 24 24" fill="none" xmlns="http://www.w3.org/2000/svg">
<path fill-rule="evenodd" clip-rule="evenodd" d="M6.25 3C4.45507 3 3 4.45507 3 6.25V14.25C3 16.0449 4.45507 17.5 6.25 17.5H7.875C8.33393 17.5 8.77052 17.6981 9.07273 18.0435L11.4356 20.7439C11.578 20.9066 11.7837 21 12 21C12.2163 21 12.422 20.9066 12.5644 20.7439L14.9273 18.0435C15.2295 17.6981 15.6661 17.5 16.125 17.5H17.75C19.5449 17.5 21 16.0449 21 14.25V6.25C21 4.45507 19.5449 3 17.75 3H6.25ZM12.75 6.5C12.75 6.91421 12.4142 7.25 12 7.25C11.5858 7.25 11.25 6.91421 11.25 6.5C11.25 6.08579 11.5858 5.75 12 5.75C12.4142 5.75 12.75 6.08579 12.75 6.5ZM12 8.25C11.5858 8.25 11.25 8.58579 11.25 9V14C11.25 14.4142 11.5858 14.75 12 14.75C12.4142 14.75 12.75 14.4142 12.75 14V9C12.75 8.58579 12.4142 8.25 12 8.25Z" fill="#262626"/>
</svg>
