<svg width="current" height="current" viewBox="0 0 24 24" fill="none" xmlns="http://www.w3.org/2000/svg">
<path fill-rule="evenodd" clip-rule="evenodd" d="M11.4697 20.7803C11.7626 21.0732 12.2374 21.0732 12.5303 20.7803L20.7803 12.5303C21.0732 12.2374 21.0732 11.7626 20.7803 11.4697L12.5303 3.21967C12.2374 2.92678 11.7626 2.92678 11.4697 3.21967L3.21967 11.4697C2.92678 11.7626 2.92678 12.2374 3.21967 12.5303L11.4697 20.7803ZM11.25 10.75L11.25 15.75C11.25 16.1642 11.5858 16.5 12 16.5C12.4142 16.5 12.75 16.1642 12.75 15.75L12.75 10.75C12.75 10.3358 12.4142 10 12 10C11.5858 10 11.25 10.3358 11.25 10.75ZM12 9C12.4142 9 12.75 8.66421 12.75 8.25C12.75 7.83579 12.4142 7.5 12 7.5C11.5858 7.5 11.25 7.83579 11.25 8.25C11.25 8.66421 11.5858 9 12 9Z" fill="#262626"/>
</svg>
