<svg width="current" height="current" viewBox="0 0 24 24" fill="none" xmlns="http://www.w3.org/2000/svg">
<path fill-rule="evenodd" clip-rule="evenodd" d="M9.77448 2.24871C10.4909 2.08584 11.2359 2 12 2C12.7641 2 13.5091 2.08584 14.2255 2.24871C14.6294 2.34054 14.8824 2.74241 14.7906 3.14632C14.6988 3.55023 14.2969 3.80322 13.893 3.71139C13.2849 3.57315 12.6515 3.5 12 3.5C11.3485 3.5 10.7151 3.57315 10.107 3.71139C9.7031 3.80322 9.30123 3.55023 9.20941 3.14632C9.11758 2.74241 9.37057 2.34054 9.77448 2.24871ZM7.71279 3.76711C7.9335 4.11763 7.82826 4.5807 7.47775 4.8014C6.39782 5.48138 5.48138 6.39782 4.8014 7.47775C4.5807 7.82826 4.11763 7.9335 3.76711 7.71279C3.41659 7.49209 3.31136 7.02902 3.53206 6.67851C4.33161 5.40869 5.40869 4.33161 6.67851 3.53206C7.02902 3.31136 7.49209 3.41659 7.71279 3.76711ZM16.2872 3.76711C16.5079 3.41659 16.971 3.31136 17.3215 3.53206C18.5913 4.33161 19.6684 5.40869 20.4679 6.67851C20.6886 7.02902 20.5834 7.49209 20.2329 7.71279C19.8824 7.9335 19.4193 7.82826 19.1986 7.47775C18.5186 6.39782 17.6022 5.48138 16.5223 4.8014C16.1717 4.5807 16.0665 4.11763 16.2872 3.76711ZM3.14632 9.20941C3.55023 9.30123 3.80322 9.7031 3.71139 10.107C3.57315 10.7151 3.5 11.3485 3.5 12C3.5 12.6515 3.57315 13.2849 3.71139 13.893C3.80322 14.2969 3.55023 14.6988 3.14632 14.7906C2.74241 14.8824 2.34054 14.6294 2.24871 14.2255C2.08584 13.5091 2 12.7641 2 12C2 11.2359 2.08584 10.4909 2.24871 9.77448C2.34054 9.37057 2.74241 9.11758 3.14632 9.20941ZM20.8537 9.20941C21.2576 9.11758 21.6595 9.37057 21.7513 9.77448C21.9142 10.4909 22 11.2359 22 12C22 12.7641 21.9142 13.5091 21.7513 14.2255C21.6595 14.6294 21.2576 14.8824 20.8537 14.7906C20.4498 14.6988 20.1968 14.2969 20.2886 13.893C20.4268 13.2849 20.5 12.6515 20.5 12C20.5 11.3485 20.4268 10.7151 20.2886 10.107C20.1968 9.7031 20.4498 9.30123 20.8537 9.20941ZM3.76711 16.2872C4.11763 16.0665 4.5807 16.1717 4.8014 16.5223C5.48138 17.6022 6.39782 18.5186 7.47775 19.1986C7.82826 19.4193 7.9335 19.8824 7.71279 20.2329C7.49209 20.5834 7.02902 20.6886 6.67851 20.4679C5.40869 19.6684 4.33161 18.5913 3.53206 17.3215C3.31136 16.971 3.41659 16.5079 3.76711 16.2872ZM20.2329 16.2872C20.5834 16.5079 20.6886 16.971 20.4679 17.3215C19.6684 18.5913 18.5913 19.6684 17.3215 20.4679C16.971 20.6886 16.5079 20.5834 16.2872 20.2329C16.0665 19.8824 16.1717 19.4193 16.5223 19.1986C17.6022 18.5186 18.5186 17.6022 19.1986 16.5223C19.4193 16.1717 19.8824 16.0665 20.2329 16.2872ZM9.20941 20.8537C9.30123 20.4498 9.7031 20.1968 10.107 20.2886C10.7151 20.4268 11.3485 20.5 12 20.5C12.6515 20.5 13.2849 20.4268 13.893 20.2886C14.2969 20.1968 14.6988 20.4498 14.7906 20.8537C14.8824 21.2576 14.6294 21.6595 14.2255 21.7513C13.5091 21.9142 12.7641 22 12 22C11.2359 22 10.4909 21.9142 9.77448 21.7513C9.37057 21.6595 9.11758 21.2576 9.20941 20.8537Z" fill="#262626"/>
</svg>
