<svg width="current" height="current" viewBox="0 0 24 24" fill="none" xmlns="http://www.w3.org/2000/svg">
<path fill-rule="evenodd" clip-rule="evenodd" d="M2 12C2 6.47715 6.47715 2 12 2C12.4142 2 12.75 2.33579 12.75 2.75V10.1454C13.483 10.4421 14 11.1607 14 12C14 13.1046 13.1046 14 12 14C10.8954 14 10 13.1046 10 12C10 11.1607 10.517 10.4421 11.25 10.1454V7.56222C9.12172 7.91928 7.5 9.77025 7.5 12C7.5 14.4853 9.51472 16.5 12 16.5C14.2308 16.5 16.0825 14.8767 16.4383 12.7469C16.5066 12.3383 16.8358 12 17.25 12C17.6642 12 18.0049 12.3375 17.9538 12.7485C17.5854 15.709 15.0602 18 12 18C8.68629 18 6 15.3137 6 12C6 8.94029 8.29027 6.41549 11.25 6.04642V3.53263C6.90686 3.91233 3.5 7.55831 3.5 12C3.5 16.6944 7.30558 20.5 12 20.5C16.4418 20.5 20.0879 17.0929 20.4674 12.7496C20.5035 12.3369 20.8358 12 21.25 12C21.6642 12 22.0029 12.337 21.9723 12.75C21.5888 17.9226 17.2705 22 12 22C6.47715 22 2 17.5228 2 12Z" fill="#262626"/>
</svg>
