<svg width="current" height="current" viewBox="0 0 24 24" fill="none" xmlns="http://www.w3.org/2000/svg">
<path fill-rule="evenodd" clip-rule="evenodd" d="M6.25 3C4.45507 3 3 4.45507 3 6.25V14.25C3 16.0449 4.45507 17.5 6.25 17.5H7.875C8.33393 17.5 8.77052 17.6981 9.07273 18.0435L11.4356 20.7439C11.578 20.9066 11.7837 21 12 21C12.2163 21 12.422 20.9066 12.5644 20.7439L14.9273 18.0435C15.2295 17.6981 15.6661 17.5 16.125 17.5H17.75C19.5449 17.5 21 16.0449 21 14.25V6.25C21 4.45507 19.5449 3 17.75 3H6.25ZM17.75 16H16.125C15.2335 16 14.3854 16.3848 13.7984 17.0557L12 19.1111L10.2016 17.0557C9.61455 16.3848 8.76647 16 7.875 16H6.25C5.2835 16 4.5 15.2165 4.5 14.25V6.25C4.5 5.2835 5.2835 4.5 6.25 4.5H17.75C18.7165 4.5 19.5 5.2835 19.5 6.25V14.25C19.5 15.2165 18.7165 16 17.75 16ZM12.75 11.5C12.75 11.9142 12.4142 12.25 12 12.25C11.5858 12.25 11.25 11.9142 11.25 11.5L11.25 6.5C11.25 6.08579 11.5858 5.75 12 5.75C12.4142 5.75 12.75 6.08579 12.75 6.5L12.75 11.5ZM12 13.25C11.5858 13.25 11.25 13.5858 11.25 14C11.25 14.4142 11.5858 14.75 12 14.75C12.4142 14.75 12.75 14.4142 12.75 14C12.75 13.5858 12.4142 13.25 12 13.25Z" fill="#262626"/>
</svg>
