<svg width="current" height="current" viewBox="0 0 24 24" fill="none" xmlns="http://www.w3.org/2000/svg">
<path fill-rule="evenodd" clip-rule="evenodd" d="M11.4697 3.21967C11.7626 2.92678 12.2374 2.92678 12.5303 3.21967L20.7803 11.4697C21.0732 11.7626 21.0732 12.2374 20.7803 12.5303L12.5303 20.7803C12.2374 21.0732 11.7626 21.0732 11.4697 20.7803L3.21967 12.5303C2.92678 12.2374 2.92678 11.7626 3.21967 11.4697L11.4697 3.21967ZM4.81066 12L12 19.1893L19.1893 12L12 4.81066L4.81066 12ZM12.75 13.25L12.75 8.25C12.75 7.83579 12.4142 7.5 12 7.5C11.5858 7.5 11.25 7.83579 11.25 8.25L11.25 13.25C11.25 13.6642 11.5858 14 12 14C12.4142 14 12.75 13.6642 12.75 13.25ZM12 15C11.5858 15 11.25 15.3358 11.25 15.75C11.25 16.1642 11.5858 16.5 12 16.5C12.4142 16.5 12.75 16.1642 12.75 15.75C12.75 15.3358 12.4142 15 12 15Z" fill="#262626"/>
</svg>
