<svg width="current" height="current" viewBox="0 0 24 24" fill="none" xmlns="http://www.w3.org/2000/svg">
<path fill-rule="evenodd" clip-rule="evenodd" d="M12 3C12.2841 3 12.5438 3.1605 12.6708 3.41459L20.9208 19.9146C21.0371 20.1471 21.0246 20.4232 20.888 20.6443C20.7513 20.8654 20.5099 21 20.25 21H3.75C3.49007 21 3.24867 20.8654 3.11201 20.6443C2.97536 20.4232 2.96293 20.1471 3.07918 19.9146L11.3292 3.41459C11.4562 3.1605 11.7159 3 12 3ZM12 16.5C11.5858 16.5 11.25 16.8358 11.25 17.25C11.25 17.6642 11.5858 18 12 18C12.4142 18 12.75 17.6642 12.75 17.25C12.75 16.8358 12.4142 16.5 12 16.5ZM12 15.5C12.4142 15.5 12.75 15.1642 12.75 14.75V9.75C12.75 9.33579 12.4142 9 12 9C11.5858 9 11.25 9.33579 11.25 9.75V14.75C11.25 15.1642 11.5858 15.5 12 15.5Z" fill="#262626"/>
</svg>
