<svg width="current" height="current" viewBox="0 0 24 24" fill="none" xmlns="http://www.w3.org/2000/svg">
<path fill-rule="evenodd" clip-rule="evenodd" d="M6.25 3C4.45507 3 3 4.45507 3 6.25V17.75C3 19.5449 4.45507 21 6.25 21H17.75C19.5449 21 21 19.5449 21 17.75V6.25C21 4.45507 19.5449 3 17.75 3H6.25ZM12.75 13.25C12.75 13.6642 12.4142 14 12 14C11.5858 14 11.25 13.6642 11.25 13.25L11.25 8.25C11.25 7.83579 11.5858 7.5 12 7.5C12.4142 7.5 12.75 7.83579 12.75 8.25L12.75 13.25ZM11.25 15.75C11.25 15.3358 11.5858 15 12 15C12.4142 15 12.75 15.3358 12.75 15.75C12.75 16.1642 12.4142 16.5 12 16.5C11.5858 16.5 11.25 16.1642 11.25 15.75Z" fill="#262626"/>
</svg>
