<svg width="current" height="current" viewBox="0 0 24 24" fill="none" xmlns="http://www.w3.org/2000/svg">
<path fill-rule="evenodd" clip-rule="evenodd" d="M3 6.25C3 4.45507 4.45507 3 6.25 3H17.75C19.5449 3 21 4.45507 21 6.25V14.25C21 16.0449 19.5449 17.5 17.75 17.5H16.125C15.6661 17.5 15.2295 17.6981 14.9273 18.0435L12.5644 20.7439C12.422 20.9066 12.2163 21 12 21C11.7837 21 11.578 20.9066 11.4356 20.7439L9.07273 18.0435C8.77052 17.6981 8.33393 17.5 7.875 17.5H6.25C4.45507 17.5 3 16.0449 3 14.25V6.25ZM12.75 11.5C12.75 11.9142 12.4142 12.25 12 12.25C11.5858 12.25 11.25 11.9142 11.25 11.5L11.25 6.5C11.25 6.08579 11.5858 5.75 12 5.75C12.4142 5.75 12.75 6.08579 12.75 6.5L12.75 11.5ZM12 13.25C11.5858 13.25 11.25 13.5858 11.25 14C11.25 14.4142 11.5858 14.75 12 14.75C12.4142 14.75 12.75 14.4142 12.75 14C12.75 13.5858 12.4142 13.25 12 13.25Z" fill="#262626"/>
</svg>
