<svg width="current" height="current" viewBox="0 0 24 24" fill="none" xmlns="http://www.w3.org/2000/svg">
<path fill-rule="evenodd" clip-rule="evenodd" d="M7 3C7.41421 3 7.75 3.33579 7.75 3.75V6.25H10.25C10.6642 6.25 11 6.58579 11 7C11 7.41421 10.6642 7.75 10.25 7.75H7.75V10.25C7.75 10.6642 7.41421 11 7 11C6.58579 11 6.25 10.6642 6.25 10.25V7.75H3.75C3.33579 7.75 3 7.41421 3 7C3 6.58579 3.33579 6.25 3.75 6.25H6.25V3.75C6.25 3.33579 6.58579 3 7 3ZM13.75 6.25C13.3358 6.25 13 6.58579 13 7C13 7.41421 13.3358 7.75 13.75 7.75H20.25C20.6642 7.75 21 7.41421 21 7C21 6.58579 20.6642 6.25 20.25 6.25H13.75ZM3 14.75C3 14.3358 3.33579 14 3.75 14H10.25C10.6642 14 11 14.3358 11 14.75C11 15.1642 10.6642 15.5 10.25 15.5H3.75C3.33579 15.5 3 15.1642 3 14.75ZM3.75 18.5C3.33579 18.5 3 18.8358 3 19.25C3 19.6642 3.33579 20 3.75 20H10.25C10.6642 20 11 19.6642 11 19.25C11 18.8358 10.6642 18.5 10.25 18.5H3.75ZM17 15.9393L14.2803 13.2197C13.9874 12.9268 13.5126 12.9268 13.2197 13.2197C12.9268 13.5126 12.9268 13.9874 13.2197 14.2803L15.9393 17L13.2197 19.7197C12.9268 20.0126 12.9268 20.4874 13.2197 20.7803C13.5126 21.0732 13.9874 21.0732 14.2803 20.7803L17 18.0607L19.7197 20.7803C20.0126 21.0732 20.4874 21.0732 20.7803 20.7803C21.0732 20.4874 21.0732 20.0126 20.7803 19.7197L18.0607 17L20.7803 14.2803C21.0732 13.9874 21.0732 13.5126 20.7803 13.2197C20.4874 12.9268 20.0126 12.9268 19.7197 13.2197L17 15.9393Z" fill="#262626"/>
</svg>
