<svg width="current" height="current" viewBox="0 0 24 24" fill="none" xmlns="http://www.w3.org/2000/svg">
<path fill-rule="evenodd" clip-rule="evenodd" d="M20.75 12C20.75 10.4812 19.5188 9.25 18 9.25L6 9.25C4.48122 9.25 3.25 10.4812 3.25 12C3.25 13.5188 4.48122 14.75 6 14.75L18 14.75C19.5188 14.75 20.75 13.5188 20.75 12ZM18 10.75C18.6904 10.75 19.25 11.3096 19.25 12C19.25 12.6904 18.6904 13.25 18 13.25L6 13.25C5.30964 13.25 4.75 12.6904 4.75 12C4.75 11.3096 5.30964 10.75 6 10.75L18 10.75ZM14 15.75C15.5188 15.75 16.75 16.9812 16.75 18.5C16.75 20.0188 15.5188 21.25 14 21.25H6C4.48122 21.25 3.25 20.0188 3.25 18.5C3.25 16.9812 4.48122 15.75 6 15.75H14ZM15.25 18.5C15.25 17.8096 14.6904 17.25 14 17.25H6C5.30964 17.25 4.75 17.8096 4.75 18.5C4.75 19.1904 5.30964 19.75 6 19.75H14C14.6904 19.75 15.25 19.1904 15.25 18.5ZM11 2.75C12.5188 2.75 13.75 3.98122 13.75 5.5C13.75 7.01878 12.5188 8.25 11 8.25H6C4.48122 8.25 3.25 7.01878 3.25 5.5C3.25 3.98122 4.48122 2.75 6 2.75L11 2.75ZM12.25 5.5C12.25 4.80964 11.6904 4.25 11 4.25L6 4.25C5.30965 4.25 4.75 4.80964 4.75 5.5C4.75 6.19036 5.30965 6.75 6 6.75H11C11.6904 6.75 12.25 6.19036 12.25 5.5Z" fill="#262626"/>
</svg>
