<svg width="current" height="current" viewBox="0 0 24 24" fill="none" xmlns="http://www.w3.org/2000/svg">
<path fill-rule="evenodd" clip-rule="evenodd" d="M13.5 2C13.3011 2 13.1103 2.07902 12.9697 2.21967C12.829 2.36032 12.75 2.55109 12.75 2.75V10.5C12.75 10.9142 13.0858 11.25 13.5 11.25L21.25 11.25C21.6642 11.25 22 10.9142 22 10.5C22 9.38377 21.7801 8.27846 21.353 7.24719C20.9258 6.21592 20.2997 5.27889 19.5104 4.48959C18.7211 3.70029 17.7841 3.07419 16.7528 2.64702C15.7215 2.21986 14.6162 2 13.5 2ZM14.25 9.75V3.54029C14.9118 3.61162 15.5614 3.77712 16.1788 4.03284C17.0281 4.38463 17.7997 4.90024 18.4498 5.55025C19.0998 6.20026 19.6154 6.97194 19.9672 7.82122C20.2229 8.43858 20.3884 9.08816 20.4597 9.75L14.25 9.75ZM6.61101 7.67971C7.55315 7.05019 8.63076 6.6609 9.75 6.54029V13.5C9.75 13.6989 9.82902 13.8897 9.96967 14.0303C10.1103 14.171 10.3011 14.25 10.5 14.25H17.4597C17.3391 15.3692 16.9498 16.4469 16.3203 17.389C15.5511 18.5401 14.4579 19.4373 13.1788 19.9672C11.8997 20.497 10.4922 20.6356 9.13437 20.3655C7.7765 20.0954 6.52922 19.4287 5.55026 18.4497C4.57129 17.4708 3.9046 16.2235 3.63451 14.8656C3.36441 13.5078 3.50303 12.1003 4.03285 10.8212C4.56266 9.54213 5.45987 8.44888 6.61101 7.67971ZM10.5 5C8.81886 5 7.17547 5.49852 5.77766 6.43251C4.37984 7.3665 3.29037 8.69402 2.64703 10.2472C2.00368 11.8004 1.83535 13.5094 2.16333 15.1583C2.4913 16.8071 3.30085 18.3217 4.4896 19.5104C5.67834 20.6992 7.1929 21.5087 8.84174 21.8367C10.4906 22.1646 12.1996 21.9963 13.7528 21.353C15.306 20.7096 16.6335 19.6202 17.5675 18.2223C18.5015 16.8245 19 15.1811 19 13.5C19 13.0858 18.6642 12.75 18.25 12.75H11.25V5.75C11.25 5.33579 10.9142 5 10.5 5Z" fill="#262626"/>
</svg>
