<svg width="current" height="current" viewBox="0 0 24 24" fill="none" xmlns="http://www.w3.org/2000/svg">
<path fill-rule="evenodd" clip-rule="evenodd" d="M17 5.75C17 4.7835 17.7835 4 18.75 4C19.7165 4 20.5 4.7835 20.5 5.75C20.5 6.7165 19.7165 7.5 18.75 7.5C17.7835 7.5 17 6.7165 17 5.75ZM18.75 2.5C16.9551 2.5 15.5 3.95507 15.5 5.75C15.5 6.72187 15.9266 7.59411 16.6027 8.18968L15.4456 10.8897C15.1464 10.7989 14.8289 10.75 14.5 10.75C12.7051 10.75 11.25 12.2051 11.25 14C11.25 14.2075 11.2695 14.4105 11.3066 14.6072L7.85321 15.7584C7.26126 15.1371 6.42584 14.75 5.5 14.75C3.70507 14.75 2.25 16.2051 2.25 18C2.25 19.7949 3.70507 21.25 5.5 21.25C7.29493 21.25 8.75 19.7949 8.75 18C8.75 17.682 8.70433 17.3746 8.61918 17.0842L11.9244 15.9824C12.5187 16.7533 13.4513 17.25 14.5 17.25C16.2949 17.25 17.75 15.7949 17.75 14C17.75 13.0782 17.3662 12.246 16.7497 11.6545L17.9319 8.89617C18.1933 8.96394 18.4674 9 18.75 9C20.5449 9 22 7.54493 22 5.75C22 3.95507 20.5449 2.5 18.75 2.5ZM3.75 18C3.75 17.0335 4.5335 16.25 5.5 16.25C6.4665 16.25 7.25 17.0335 7.25 18C7.25 18.9665 6.4665 19.75 5.5 19.75C4.5335 19.75 3.75 18.9665 3.75 18ZM14.5 12.25C13.5335 12.25 12.75 13.0335 12.75 14C12.75 14.9665 13.5335 15.75 14.5 15.75C15.4665 15.75 16.25 14.9665 16.25 14C16.25 13.0335 15.4665 12.25 14.5 12.25Z" fill="#262626"/>
</svg>
