<svg width="current" height="current" viewBox="0 0 24 24" fill="none" xmlns="http://www.w3.org/2000/svg">
<path fill-rule="evenodd" clip-rule="evenodd" d="M4.75 3C3.7835 3 3 3.7835 3 4.75V8.25C3 8.62181 3.11595 8.96654 3.31367 9.25C3.11595 9.53346 3 9.87819 3 10.25V13.75C3 14.1218 3.11595 14.4665 3.31367 14.75C3.11595 15.0335 3 15.3782 3 15.75V19.25C3 20.2165 3.7835 21 4.75 21H8.25C9.2165 21 10 20.2165 10 19.25V15.75C10 15.6579 9.99288 15.5674 9.97917 15.4792C10.0674 15.4929 10.1579 15.5 10.25 15.5H13.75C14.7165 15.5 15.5 14.7165 15.5 13.75V10.25C15.5 10.1579 15.4929 10.0674 15.4792 9.97917C15.5674 9.99288 15.6579 10 15.75 10H19.25C20.2165 10 21 9.2165 21 8.25V4.75C21 3.7835 20.2165 3 19.25 3H15.75C15.3782 3 15.0335 3.11595 14.75 3.31367C14.4665 3.11595 14.1218 3 13.75 3H10.25C9.87819 3 9.53346 3.11595 9.25 3.31367C8.96654 3.11595 8.62181 3 8.25 3H4.75ZM8.5 13.75V10.25C8.5 10.1119 8.38807 10 8.25 10H4.75C4.61193 10 4.5 10.1119 4.5 10.25V13.75C4.5 13.8881 4.61193 14 4.75 14H8.25C8.38807 14 8.5 13.8881 8.5 13.75ZM10.25 8.5H13.75C13.8881 8.5 14 8.38807 14 8.25V4.75C14 4.61193 13.8881 4.5 13.75 4.5H10.25C10.1119 4.5 10 4.61193 10 4.75V8.25C10 8.38807 10.1119 8.5 10.25 8.5ZM10 13.75C10 13.8881 10.1119 14 10.25 14H13.75C13.8881 14 14 13.8881 14 13.75V10.25C14 10.1119 13.8881 10 13.75 10H10.25C10.1119 10 10 10.1119 10 10.25V13.75ZM8.5 4.75V8.25C8.5 8.38807 8.38807 8.5 8.25 8.5H4.75C4.61193 8.5 4.5 8.38807 4.5 8.25V4.75C4.5 4.61193 4.61193 4.5 4.75 4.5H8.25C8.38807 4.5 8.5 4.61193 8.5 4.75ZM15.75 8.5C15.6119 8.5 15.5 8.38807 15.5 8.25V4.75C15.5 4.61193 15.6119 4.5 15.75 4.5H19.25C19.3881 4.5 19.5 4.61193 19.5 4.75V8.25C19.5 8.38807 19.3881 8.5 19.25 8.5H15.75ZM4.75 15.5H8.25C8.38807 15.5 8.5 15.6119 8.5 15.75V19.25C8.5 19.3881 8.38807 19.5 8.25 19.5H4.75C4.61193 19.5 4.5 19.3881 4.5 19.25V15.75C4.5 15.6119 4.61193 15.5 4.75 15.5Z" fill="#262626"/>
</svg>
