<svg width="current" height="current" viewBox="0 0 24 24" fill="none" xmlns="http://www.w3.org/2000/svg">
<path fill-rule="evenodd" clip-rule="evenodd" d="M12 3.25C10.4812 3.25 9.25 4.48122 9.25 6V18C9.25 19.5188 10.4812 20.75 12 20.75C13.5188 20.75 14.75 19.5188 14.75 18V6C14.75 4.48122 13.5188 3.25 12 3.25ZM10.75 6C10.75 5.30964 11.3096 4.75 12 4.75C12.6904 4.75 13.25 5.30964 13.25 6V18C13.25 18.6904 12.6904 19.25 12 19.25C11.3096 19.25 10.75 18.6904 10.75 18V6ZM15.75 10C15.75 8.48122 16.9812 7.25 18.5 7.25C20.0188 7.25 21.25 8.48122 21.25 10V18C21.25 19.5188 20.0188 20.75 18.5 20.75C16.9812 20.75 15.75 19.5188 15.75 18V10ZM18.5 8.75C17.8096 8.75 17.25 9.30964 17.25 10V18C17.25 18.6904 17.8096 19.25 18.5 19.25C19.1904 19.25 19.75 18.6904 19.75 18V10C19.75 9.30964 19.1904 8.75 18.5 8.75ZM2.75 13C2.75 11.4812 3.98122 10.25 5.5 10.25C7.01878 10.25 8.25 11.4812 8.25 13V18C8.25 19.5188 7.01878 20.75 5.5 20.75C3.98122 20.75 2.75 19.5188 2.75 18V13ZM5.5 11.75C4.80964 11.75 4.25 12.3096 4.25 13V18C4.25 18.6904 4.80964 19.25 5.5 19.25C6.19036 19.25 6.75 18.6904 6.75 18V13C6.75 12.3096 6.19036 11.75 5.5 11.75Z" fill="#262626"/>
</svg>
