<svg width="current" height="current" viewBox="0 0 24 24" fill="none" xmlns="http://www.w3.org/2000/svg">
<path fill-rule="evenodd" clip-rule="evenodd" d="M16.8281 4.75147C17.0604 4.73693 17.2862 4.831 17.4394 5.00612L21.8144 10.0061C22.0872 10.3179 22.0556 10.7917 21.7439 11.0644C21.4322 11.3372 20.9583 11.3056 20.6856 10.9939L16.9518 6.72674L14.1216 10.9196C14.003 11.0954 13.8155 11.2127 13.6055 11.2425C13.3956 11.2724 13.1828 11.2119 13.0199 11.0762L7.53192 6.50289L3.26581 10.5445C2.96511 10.8293 2.49041 10.8165 2.20554 10.5158C1.92066 10.2151 1.93349 9.74041 2.23419 9.45554L6.98419 4.95554C7.26017 4.69409 7.6881 4.68047 7.98014 4.92384L13.3426 9.39259L16.2534 5.0804C16.3836 4.88753 16.5959 4.76601 16.8281 4.75147ZM16.8266 11.0016C17.0302 10.9884 17.2305 11.0588 17.3811 11.1965L21.7561 15.1965C21.9115 15.3386 22 15.5394 22 15.75V17.75V18.25C22 18.8023 21.5523 19.25 21 19.25H3C2.44772 19.25 2 18.8023 2 18.25V17.75V15.25C2 15.0117 2.11325 14.7876 2.3051 14.6462L7.0551 11.1462C7.30922 10.959 7.65339 10.9509 7.91603 11.126L13.3587 14.7544L16.3018 11.2663C16.4334 11.1104 16.6229 11.0148 16.8266 11.0016ZM3.5 17.75H20.5V16.0805L16.9449 12.8302L14.0732 16.2337C13.8272 16.5253 13.4014 16.5857 13.084 16.374L7.52154 12.6657L3.5 15.629V17.75Z" fill="#262626"/>
</svg>
