<svg width="current" height="current" viewBox="0 0 24 24" fill="none" xmlns="http://www.w3.org/2000/svg">
<path fill-rule="evenodd" clip-rule="evenodd" d="M18.5 5.49977C18.5 5.49587 18.5001 5.47574 18.4787 5.43014C18.4548 5.37891 18.4021 5.29323 18.2929 5.18024C18.0665 4.94602 17.6664 4.66657 17.0556 4.39936C15.8386 3.8669 14.0523 3.5 12 3.5C9.94771 3.5 8.16144 3.8669 6.94437 4.39936C6.33362 4.66657 5.93354 4.94602 5.7071 5.18024C5.59787 5.29323 5.54522 5.37891 5.52125 5.43014C5.49992 5.47574 5.49999 5.49587 5.5 5.49977L5.5 5.5V5.50095C5.50004 5.50623 5.501 5.52656 5.52125 5.56986C5.54522 5.62109 5.59787 5.70677 5.7071 5.81976C5.93354 6.05398 6.33362 6.33343 6.94437 6.60064C8.16144 7.1331 9.94771 7.5 12 7.5C14.0523 7.5 15.8386 7.1331 17.0556 6.60064C17.6664 6.33343 18.0665 6.05398 18.2929 5.81976C18.4021 5.70677 18.4548 5.62109 18.4787 5.56986C18.4991 5.52633 18.5 5.50601 18.5 5.50086V5.50023V5.5V5.49977ZM12 2C7.58172 2 4 3.567 4 5.5V18.6569C4 19.0378 4.12741 19.4741 4.48126 19.7979C5.26211 20.5125 7.44725 22 12 22C16.5528 22 18.7379 20.5125 19.5187 19.7979C19.8726 19.4741 20 19.0378 20 18.6569V5.5C20 3.567 16.4183 2 12 2ZM18.5 12V7.54082C17.0479 8.4245 14.6776 9 12 9C9.32244 9 6.95211 8.4245 5.5 7.54082V12.0001C5.50004 12.0054 5.501 12.0257 5.52125 12.069C5.54522 12.1202 5.59787 12.2059 5.7071 12.3189C5.93354 12.5531 6.33362 12.8326 6.94437 13.0998C8.16144 13.6322 9.94771 13.9991 12 13.9991C14.0523 13.9991 15.8386 13.6322 17.0556 13.0998C17.6664 12.8326 18.0665 12.5531 18.2929 12.3189C18.4021 12.2059 18.4548 12.1202 18.4787 12.069C18.4991 12.0255 18.5 12.0051 18.5 12ZM18.5 14.04C17.0479 14.9236 14.6776 15.4991 12 15.4991C9.32244 15.4991 6.95211 14.9236 5.5 14.04V18.6569C5.5 18.679 5.50278 18.6936 5.50486 18.7013C6.01345 19.1622 7.83692 20.5 12 20.5C16.1631 20.5 17.9865 19.1622 18.4951 18.7013C18.4972 18.6936 18.5 18.679 18.5 18.6569V14.04Z" fill="#262626"/>
</svg>
