<svg width="current" height="current" viewBox="0 0 24 24" fill="none" xmlns="http://www.w3.org/2000/svg">
<path fill-rule="evenodd" clip-rule="evenodd" d="M18.4787 5.43014C18.5001 5.47574 18.5 5.49587 18.5 5.49977V5.5V5.50023C18.5 5.50041 18.5 5.50062 18.5 5.50086C18.5 5.50601 18.4991 5.52633 18.4787 5.56986C18.4548 5.62109 18.4021 5.70677 18.2929 5.81976C18.0665 6.05398 17.6664 6.33343 17.0556 6.60064C15.8386 7.1331 14.0523 7.5 12 7.5C9.94771 7.5 8.16144 7.1331 6.94437 6.60064C6.33362 6.33343 5.93354 6.05398 5.7071 5.81976C5.59787 5.70677 5.54522 5.62109 5.52125 5.56986C5.501 5.52656 5.50004 5.50623 5.5 5.50095V5.5L5.5 5.49977C5.49999 5.49587 5.49992 5.47574 5.52125 5.43014C5.54522 5.37891 5.59787 5.29323 5.7071 5.18024C5.93354 4.94602 6.33362 4.66657 6.94437 4.39936C8.16144 3.8669 9.94771 3.5 12 3.5C14.0523 3.5 15.8386 3.8669 17.0556 4.39936C17.6664 4.66657 18.0665 4.94602 18.2929 5.18024C18.4021 5.29323 18.4548 5.37891 18.4787 5.43014ZM4 5.5C4 3.567 7.58172 2 12 2C16.4183 2 20 3.567 20 5.5V18.6569C20 19.0378 19.8726 19.4741 19.5187 19.7979C18.7379 20.5125 16.5528 22 12 22C7.44725 22 5.26211 20.5125 4.48126 19.7979C4.12741 19.4741 4 19.0378 4 18.6569V5.5ZM18.5 7.54082V18.6569C18.5 18.679 18.4972 18.6936 18.4951 18.7013C17.9865 19.1622 16.1631 20.5 12 20.5C7.83692 20.5 6.01345 19.1622 5.50486 18.7013C5.50278 18.6936 5.5 18.679 5.5 18.6569V7.54082C6.95211 8.4245 9.32244 9 12 9C14.6776 9 17.0479 8.4245 18.5 7.54082Z" fill="#262626"/>
</svg>
