<svg width="current" height="current" viewBox="0 0 24 24" fill="none" xmlns="http://www.w3.org/2000/svg">
<path fill-rule="evenodd" clip-rule="evenodd" d="M3 3.75C3 3.33579 3.33579 3 3.75 3H20.25C20.6642 3 21 3.33579 21 3.75C21 4.16421 20.6642 4.5 20.25 4.5H19.75V13.5C19.75 15.1927 18.4559 16.5832 16.8031 16.7361L18.6465 19.8697C18.8565 20.2268 18.7373 20.6864 18.3803 20.8965C18.0232 21.1065 17.5636 20.9873 17.3535 20.6303L15.071 16.75H12H8.92896L6.64645 20.6303C6.43644 20.9873 5.97676 21.1065 5.61973 20.8965C5.26271 20.6864 5.14353 20.2268 5.35355 19.8697L7.19689 16.7361C5.54408 16.5832 4.25 15.1927 4.25 13.5V4.5H3.75C3.33579 4.5 3 4.16421 3 3.75ZM5.75 4.75V13.5C5.75 14.4665 6.5335 15.25 7.5 15.25H8.5H12H15.5H16.5C17.4665 15.25 18.25 14.4665 18.25 13.5V4.75H5.75ZM8.75 10.25C8.33579 10.25 8 10.5858 8 11V13C8 13.4142 8.33579 13.75 8.75 13.75C9.16421 13.75 9.5 13.4142 9.5 13V11C9.5 10.5858 9.16421 10.25 8.75 10.25ZM11.25 9C11.25 8.58579 11.5858 8.25 12 8.25C12.4142 8.25 12.75 8.58579 12.75 9V13C12.75 13.4142 12.4142 13.75 12 13.75C11.5858 13.75 11.25 13.4142 11.25 13V9ZM15.25 6.25C14.8358 6.25 14.5 6.58579 14.5 7V13C14.5 13.4142 14.8358 13.75 15.25 13.75C15.6642 13.75 16 13.4142 16 13V7C16 6.58579 15.6642 6.25 15.25 6.25Z" fill="#262626"/>
</svg>
