<svg width="current" height="current" viewBox="0 0 24 24" fill="none" xmlns="http://www.w3.org/2000/svg">
<path fill-rule="evenodd" clip-rule="evenodd" d="M5.25 8.75C3.45507 8.75 2 10.2051 2 12C2 13.7949 3.45507 15.25 5.25 15.25H18.75C20.5449 15.25 22 13.7949 22 12C22 10.2051 20.5449 8.75 18.75 8.75H5.25ZM3.5 12C3.5 11.0335 4.2835 10.25 5.25 10.25H18.75C19.7165 10.25 20.5 11.0335 20.5 12C20.5 12.9665 19.7165 13.75 18.75 13.75H5.25C4.2835 13.75 3.5 12.9665 3.5 12ZM5.25 11.25C4.83579 11.25 4.5 11.5858 4.5 12C4.5 12.4142 4.83579 12.75 5.25 12.75H11.75C12.1642 12.75 12.5 12.4142 12.5 12C12.5 11.5858 12.1642 11.25 11.75 11.25H5.25Z" fill="#262626"/>
</svg>
