<svg width="current" height="current" viewBox="0 0 24 24" fill="none" xmlns="http://www.w3.org/2000/svg">
<path fill-rule="evenodd" clip-rule="evenodd" d="M4.5 3.75C4.5 3.33579 4.16421 3 3.75 3C3.33579 3 3 3.33579 3 3.75V17.75C3 19.5449 4.45507 21 6.25 21H20.25C20.6642 21 21 20.6642 21 20.25C21 19.8358 20.6642 19.5 20.25 19.5H6.25C5.2835 19.5 4.5 18.7165 4.5 17.75V3.75ZM12.75 8C12.75 8.41421 13.0858 8.75 13.5 8.75H16.6893L12.244 13.1954C12.14 13.2993 11.9693 13.2916 11.8751 13.1786L10.7772 11.8611C10.1184 11.0705 8.92302 11.0163 8.19537 11.744L5.46967 14.4697C5.17678 14.7626 5.17678 15.2374 5.46967 15.5303C5.76256 15.8232 6.23744 15.8232 6.53033 15.5303L9.25603 12.8046C9.35998 12.7007 9.53074 12.7084 9.62486 12.8214L10.7228 14.1389C11.3816 14.9295 12.577 14.9837 13.3046 14.256L17.75 9.81066V13C17.75 13.4142 18.0858 13.75 18.5 13.75C18.9142 13.75 19.25 13.4142 19.25 13V8C19.25 7.58579 18.9142 7.25 18.5 7.25H13.5C13.0858 7.25 12.75 7.58579 12.75 8Z" fill="#262626"/>
</svg>
